<?xml version="1.0" encoding="UTF-8" standalone="no"?>
<svg
   xmlns:dc="http://purl.org/dc/elements/1.1/"
   xmlns:cc="http://creativecommons.org/ns#"
   xmlns:rdf="http://www.w3.org/1999/02/22-rdf-syntax-ns#"
   xmlns:svg="http://www.w3.org/2000/svg"
   xmlns="http://www.w3.org/2000/svg"
   xmlns:sodipodi="http://sodipodi.sourceforge.net/DTD/sodipodi-0.dtd"
   xmlns:inkscape="http://www.inkscape.org/namespaces/inkscape"
   inkscape:version="1.0 (4035a4fb49, 2020-05-01)"
   height="9.6053009in"
   width="13.681465in"
   sodipodi:docname="woodie (2).svg"
   id="svg54"
   overflow="visible"
   version="1.0"
   viewBox="-12.580904 -13.525671 1313.4207 922.10892">
  <metadata
     id="metadata58">
    <rdf:RDF>
      <cc:Work
         rdf:about="">
        <dc:format>image/svg+xml</dc:format>
        <dc:type
           rdf:resource="http://purl.org/dc/dcmitype/StillImage" />
        <dc:title></dc:title>
      </cc:Work>
    </rdf:RDF>
  </metadata>
  <sodipodi:namedview
     inkscape:document-units="in"
     units="in"
     inkscape:current-layer="svg54"
     inkscape:window-maximized="1"
     inkscape:window-y="-8"
     inkscape:window-x="-8"
     inkscape:cy="461.05443"
     inkscape:cx="656.71035"
     inkscape:zoom="0.89685724"
     fit-margin-bottom="0"
     fit-margin-right="0"
     fit-margin-left="0"
     fit-margin-top="0"
     showgrid="false"
     id="namedview56"
     inkscape:window-height="1017"
     inkscape:window-width="1920"
     inkscape:pageshadow="2"
     inkscape:pageopacity="0"
     guidetolerance="10"
     gridtolerance="10"
     objecttolerance="10"
     borderopacity="1"
     bordercolor="#666666"
     pagecolor="#ffffff" />
  <defs
     id="defs37">
    <g
       id="ID__#42_MODEL_SPACE" />
    <g
       id="ID__#42_PAPER_SPACE" />
  </defs>
  <g
     transform="matrix(96,0,0,96,1195.2891,1285.0903)"
     id="g97">
    <path
       style="color:#000000;fill:none;stroke:#000000;stroke-width:0.00291019"
       d="M 1.0582653,-7.7983711 A 0.5,0.5 0 0 0 0.79302126,-8.4538446"
       id="ID_103" />
    <path
       style="color:#000000;fill:none;stroke:#000000;stroke-width:0.00291019"
       d="m -11.080046,-13.48603 a 0.5,0.5 0 0 0 -0.655019,0.264176"
       id="ID_105" />
    <line
       style="color:#000000;fill:none;stroke:#000000;stroke-width:0.00291019"
       x1="0.79302126"
       y1="-8.453845"
       x2="-11.080046"
       y2="-13.48603"
       id="ID_104" />
    <line
       style="color:#000000;fill:none;stroke:#000000;stroke-width:0.00291019"
       x1="-11.735065"
       y1="-13.221853"
       x2="-12.088108"
       y2="-12.394226"
       id="ID_106" />
    <line
       style="color:#000000;fill:none;stroke:#000000;stroke-width:0.00291019"
       x1="-12.088108"
       y1="-12.394226"
       x2="-12.580493"
       y2="-11.239946"
       id="ID_107" />
    <line
       style="color:#000000;fill:none;stroke:#000000;stroke-width:0.00291019"
       x1="-12.580493"
       y1="-11.239946"
       x2="-12.580904"
       y2="-11.240122"
       id="ID_108" />
    <line
       style="color:#000000;fill:none;stroke:#000000;stroke-width:0.00291019"
       x1="-12.580904"
       y1="-11.240122"
       x2="-5.9151678"
       y2="-3.9229286"
       id="ID_109" />
    <line
       style="color:#000000;fill:none;stroke:#000000;stroke-width:0.00291019"
       x1="-5.9151678"
       y1="-3.9229286"
       x2="-5.8227072"
       y2="-4.1410832"
       id="ID_110" />
    <line
       style="color:#000000;fill:none;stroke:#000000;stroke-width:0.00291019"
       x1="-0.011368431"
       y1="-5.2746496"
       x2="1.0582653"
       y2="-7.7983708"
       id="ID_112" />
    <path
       style="color:#000000;fill:none;stroke:#000000;stroke-width:0.00291019"
       d="m -0.01136843,-5.2746497 -0.005336,-0.00204 -0.0053379,-0.00204 -0.0053398,-0.00205 -0.0053418,-0.00205 -0.0053437,-0.00205 -0.0053456,-0.00205 -0.0053476,-0.00206 -0.0053495,-0.00206 -0.0053514,-0.00206 -0.0053534,-0.00207 -0.0053553,-0.00207 -0.0053573,-0.00207 -0.0053592,-0.00207 -0.0053611,-0.00208 -0.0053631,-0.00208 -0.005365,-0.00208 -0.005367,-0.00209 -0.005369,-0.00209 -0.005371,-0.00209 -0.005373,-0.00209 -0.005375,-0.0021 -0.005377,-0.0021 -0.005379,-0.0021 -0.005381,-0.00211 -0.005383,-0.00211 -0.005385,-0.00211 -0.005387,-0.00211 -0.005389,-0.00212 -0.005391,-0.00212 -0.005393,-0.00212 -0.005395,-0.00213 -0.005217,-0.00206 -0.005219,-0.00206 -0.005221,-0.00206 -0.005223,-0.00207 -0.005225,-0.00207 -0.005227,-0.00207 -0.005229,-0.00207 -0.005231,-0.00208 -0.005233,-0.00208 -0.005236,-0.00208 -0.005238,-0.00208 -0.00524,-0.00209 -0.005242,-0.00209 -0.005244,-0.00209 -0.005247,-0.00209 -0.005249,-0.0021 -0.005251,-0.0021 -0.005253,-0.0021 -0.005256,-0.0021 -0.005258,-0.00211 -0.005261,-0.00211 -0.005263,-0.00211 -0.005266,-0.00211 -0.005268,-0.00212 -0.005271,-0.00212 -0.005274,-0.00212 -0.005276,-0.00212 -0.005279,-0.00213 -0.005282,-0.00213 -0.005285,-0.00213 -0.00547,-0.00221 -0.005473,-0.00221 -0.005476,-0.00221 -0.005479,-0.00221 -0.005483,-0.00222 -0.005486,-0.00222 -0.00549,-0.00222 -0.005493,-0.00222 -0.005497,-0.00223 -0.0055,-0.00223 -0.005504,-0.00223 -0.005508,-0.00223 -0.005512,-0.00223 -0.005516,-0.00224 -0.00552,-0.00224 -0.005524,-0.00224 -0.005528,-0.00224 -0.005533,-0.00224 -0.005537,-0.00225 -0.005542,-0.00225 -0.005546,-0.00225 -0.005551,-0.00225 -0.005556,-0.00225 -0.005561,-0.00225 -0.005566,-0.00226 -0.005571,-0.00226 -0.005576,-0.00226 -0.005582,-0.00226 -0.005587,-0.00226 -0.005593,-0.00226 -0.005599,-0.00226 -0.005418,-0.00219 -0.005423,-0.00219 -0.005429,-0.00219 -0.005435,-0.00219 -0.005441,-0.00219 -0.005447,-0.0022 -0.005453,-0.0022 -0.00546,-0.0022 -0.005466,-0.0022 -0.005473,-0.0022 -0.00548,-0.0022 -0.005487,-0.0022 -0.005494,-0.0022 -0.005501,-0.0022 -0.005509,-0.0022 -0.005516,-0.0022 -0.005524,-0.0022 -0.005532,-0.0022 -0.00554,-0.0022 -0.005548,-0.0022 -0.005557,-0.0022 -0.005565,-0.0022 -0.005574,-0.0022 -0.005583,-0.0022 -0.005592,-0.0022 -0.005602,-0.0022 -0.005611,-0.0022 -0.005621,-0.0022 -0.005631,-0.0022 -0.005641,-0.0022 -0.005846,-0.00227 -0.005857,-0.00227 -0.005869,-0.00227 -0.00588,-0.00227 -0.005892,-0.00227 -0.005905,-0.00227 -0.005917,-0.00226 -0.005929,-0.00226 -0.005942,-0.00226 -0.005955,-0.00226 -0.005969,-0.00226 -0.005982,-0.00225 -0.005996,-0.00225 -0.00601,-0.00225 -0.006024,-0.00225 -0.006039,-0.00225 -0.006054,-0.00224 -0.006069,-0.00224 -0.006084,-0.00224 -0.0061,-0.00223 -0.006115,-0.00223 -0.006132,-0.00223 -0.006148,-0.00223 -0.006164,-0.00222 -0.006181,-0.00222 -0.006198,-0.00221 -0.006216,-0.00221 -0.006233,-0.00221 -0.006251,-0.0022 -0.00627,-0.0022 -0.006288,-0.00219 -0.006096,-0.00212 -0.006114,-0.00211 -0.006132,-0.00211 -0.00615,-0.0021 -0.006169,-0.0021 -0.006187,-0.0021 -0.006206,-0.00209 -0.006225,-0.00209 -0.006245,-0.00208 -0.006264,-0.00208 -0.006284,-0.00207 -0.006305,-0.00206 -0.006325,-0.00206 -0.006346,-0.00205 -0.006366,-0.00205 -0.006388,-0.00204 -0.006409,-0.00204 -0.00643,-0.00203 -0.006452,-0.00202 -0.006474,-0.00202 -0.006497,-0.00201 -0.006519,-0.00201 -0.006542,-0.002 -0.00656,-0.00199 -0.00659,-0.00199 -0.00661,-0.00198 -0.00664,-0.00197 -0.00666,-0.00196 -0.00668,-0.00196 -0.00671,-0.00195 -0.00673,-0.00194 -0.00677,-0.00194 -0.00679,-0.00193 -0.00682,-0.00192 -0.00684,-0.00191 -0.00687,-0.0019 -0.00689,-0.0019 -0.00692,-0.00189 -0.00695,-0.00188 -0.00697,-0.00187 -0.007,-0.00186 -0.00703,-0.00185 -0.00705,-0.00184 -0.00708,-0.00183 -0.00711,-0.00183 -0.00714,-0.00182 -0.00717,-0.00181 -0.00719,-0.0018 -0.00722,-0.00179 -0.00725,-0.00178 -0.00728,-0.00177 -0.00731,-0.00176 -0.00734,-0.00175 -0.00737,-0.00174 -0.0074,-0.00173 -0.00743,-0.00172 -0.00746,-0.00171 -0.00749,-0.0017 -0.00752,-0.00168 -0.00755,-0.00167 -0.00758,-0.00166 -0.00786,-0.00171 -0.0079,-0.00169 -0.00793,-0.00168 -0.00796,-0.00167 -0.008,-0.00166 -0.00803,-0.00165 -0.00806,-0.00163 -0.0081,-0.00162 -0.00813,-0.00161 -0.00817,-0.00159 -0.0082,-0.00158 -0.00824,-0.00157 -0.00827,-0.00156 -0.00831,-0.00154 -0.00834,-0.00153 -0.00838,-0.00152 -0.00841,-0.0015 -0.00845,-0.00149 -0.00848,-0.00147 -0.00852,-0.00146 -0.00855,-0.00145 -0.00859,-0.00143 -0.00862,-0.00142 -0.00866,-0.0014 -0.0087,-0.00139 -0.00873,-0.00137 -0.00877,-0.00136 -0.0088,-0.00135 -0.00884,-0.00133 -0.00888,-0.00132 -0.00891,-0.0013 -0.00865,-0.00124 -0.00868,-0.00123 -0.00872,-0.00121 -0.00875,-0.0012 -0.00879,-0.00119 -0.00882,-0.00117 -0.00885,-0.00116 -0.00889,-0.00114 -0.00892,-0.00113 -0.00896,-0.00111 -0.00899,-0.0011 -0.00902,-0.00108 -0.00906,-0.00107 -0.00909,-0.00105 -0.00912,-0.00104 -0.00916,-0.00102 -0.00919,-0.00101 -0.00923,-9.929e-4 -0.00926,-9.777e-4 -0.00929,-9.623e-4 -0.00933,-9.469e-4 -0.00936,-9.315e-4 -0.00939,-9.159e-4 -0.00943,-9.004e-4 -0.00946,-8.848e-4 -0.00949,-8.691e-4 -0.00953,-8.534e-4 -0.00956,-8.376e-4 -0.00959,-8.218e-4 -0.00963,-8.059e-4 -0.00966,-7.9e-4 -0.0097,-7.75e-4 -0.00973,-7.589e-4 -0.00977,-7.428e-4 -0.0098,-7.266e-4 -0.00983,-7.106e-4 -0.00986,-6.942e-4 -0.0099,-6.781e-4 -0.00993,-6.617e-4 -0.00996,-6.454e-4 -0.00999,-6.29e-4 -0.010023,-6.127e-4 -0.010054,-5.961e-4 -0.010085,-5.797e-4 -0.010116,-5.632e-4 -0.010147,-5.466e-4 -0.010178,-5.3e-4 -0.010209,-5.134e-4 -0.010239,-4.967e-4 -0.010269,-4.801e-4 -0.0103,-4.634e-4 -0.01033,-4.466e-4 -0.010359,-4.298e-4 -0.010389,-4.13e-4 -0.010419,-3.962e-4 -0.010448,-3.794e-4 -0.010477,-3.625e-4 -0.010506,-3.455e-4 -0.010534,-3.287e-4 -0.010563,-3.116e-4 -0.010591,-2.947e-4 -0.010973,-2.867e-4 -0.011003,-2.685e-4 -0.011032,-2.503e-4 -0.011062,-2.32e-4 -0.011091,-2.139e-4 -0.01112,-1.955e-4 -0.011148,-1.773e-4 -0.011177,-1.59e-4 -0.011205,-1.406e-4 -0.011233,-1.224e-4 -0.01126,-1.039e-4 -0.011288,-8.56e-5 -0.011315,-6.72e-5 -0.011342,-4.88e-5 -0.011368,-3.04e-5 -0.011395,-1.2e-5 -0.011421,6.5e-6 -0.011447,2.49e-5 -0.011472,4.34e-5 -0.011497,6.19e-5 -0.011522,8.04e-5 -0.011547,9.89e-5 -0.011571,1.173e-4 -0.011596,1.359e-4 -0.011619,1.545e-4 -0.011643,1.729e-4 -0.011666,1.915e-4 -0.011689,2.1e-4 -0.011712,2.286e-4 -0.011734,2.472e-4 -0.011756,2.656e-4 -0.011778,2.843e-4 -0.0118,3.028e-4 -0.011821,3.214e-4 -0.011842,3.4e-4 -0.011862,3.586e-4 -0.011882,3.771e-4 -0.011902,3.957e-4 -0.011922,4.142e-4 -0.011941,4.329e-4 -0.01196,4.514e-4 -0.011979,4.7e-4 -0.011997,4.886e-4 -0.012015,5.072e-4 -0.012033,5.257e-4 -0.01205,5.443e-4 -0.012067,5.628e-4 -0.012084,5.814e-4 -0.0121,6e-4 -0.012116,6.185e-4 -0.012132,6.37e-4 -0.012147,6.556e-4 -0.012162,6.742e-4 -0.012177,6.926e-4 -0.012191,7.112e-4 -0.012205,7.297e-4 -0.012219,7.483e-4 -0.012232,7.667e-4 -0.012245,7.852e-4 -0.012258,8.037e-4 -0.01227,8.221e-4 -0.011872,8.124e-4 -0.011883,8.295e-4 -0.011894,8.468e-4 -0.011904,8.641e-4 -0.011914,8.813e-4 -0.011923,8.984e-4 -0.011932,9.157e-4 -0.011941,9.329e-4 -0.01195,9.501e-4 -0.011958,9.672e-4 -0.011966,9.844e-4 -0.011974,0.001 -0.011981,0.00102 -0.011988,0.00104 -0.011995,0.00105 -0.012001,0.00107 -0.012007,0.00109 -0.012013,0.0011 -0.012018,0.00112 -0.012023,0.00114 -0.012028,0.00116 -0.012032,0.00117 -0.012036,0.00119 -0.01204,0.00121 -0.012043,0.00122 -0.012046,0.00124 -0.012049,0.00126 -0.012051,0.00127 -0.012053,0.00129 -0.012055,0.00131 -0.012056,0.00133 -0.012072,0.00134 -0.012072,0.00136 -0.012073,0.00138 -0.012073,0.00139 -0.012073,0.00141 -0.012072,0.00143 -0.012071,0.00145 -0.01207,0.00146 -0.012068,0.00148 -0.012066,0.0015 -0.012064,0.00151 -0.012062,0.00153 -0.012059,0.00155 -0.012056,0.00156 -0.012052,0.00158 -0.012048,0.0016 -0.012044,0.00161 -0.01204,0.00163 -0.012035,0.00165 -0.01203,0.00166 -0.012024,0.00168 -0.012019,0.0017 -0.012012,0.00171 -0.012006,0.00173 -0.011999,0.00175 -0.011992,0.00176 -0.011985,0.00178 -0.011977,0.0018 -0.011969,0.00181 -0.011961,0.00183 -0.01235,0.00191 -0.01234,0.00193 -0.01233,0.00194 -0.01232,0.00196 -0.01231,0.00198 -0.012299,0.002 -0.012287,0.00201 -0.012276,0.00203 -0.012264,0.00205 -0.012251,0.00207 -0.012239,0.00208 -0.012226,0.0021 -0.012212,0.00212 -0.012199,0.00214 -0.012185,0.00215 -0.012171,0.00217 -0.012156,0.00219 -0.012141,0.00221 -0.012126,0.00222 -0.01211,0.00224 -0.012094,0.00226 -0.012078,0.00228 -0.012061,0.00229 -0.012044,0.00231 -0.012027,0.00233 -0.01201,0.00235 -0.011992,0.00236 -0.011974,0.00238 -0.011955,0.0024 -0.011937,0.00241 -0.011918,0.00243 -0.011502,0.00237 -0.011484,0.00238 -0.011465,0.0024 -0.011446,0.00242 -0.011427,0.00243 -0.011408,0.00245 -0.011388,0.00246 -0.011368,0.00248 -0.011348,0.0025 -0.011328,0.00251 -0.011307,0.00253 -0.011286,0.00254 -0.011265,0.00256 -0.011243,0.00258 -0.011222,0.00259 -0.0112,0.00261 -0.011177,0.00263 -0.011155,0.00264 -0.011132,0.00266 -0.011109,0.00267 -0.011086,0.00269 -0.011063,0.00271 -0.011039,0.00272 -0.011015,0.00274 -0.010991,0.00275 -0.010967,0.00277 -0.010942,0.00279 -0.010918,0.0028 -0.010892,0.00282 -0.010867,0.00283 -0.010842,0.00285 -0.010828,0.00287 -0.010802,0.00289 -0.010776,0.0029 -0.01075,0.00292 -0.010723,0.00293 -0.010696,0.00295 -0.010669,0.00297 -0.010642,0.00298 -0.010614,0.003 -0.010587,0.00302 -0.010559,0.00303 -0.010531,0.00305 -0.010502,0.00306 -0.010474,0.00308 -0.010445,0.0031 -0.010416,0.00311 -0.010387,0.00313 -0.010358,0.00314 -0.010328,0.00316 -0.010298,0.00318 -0.010268,0.00319 -0.010238,0.00321 -0.010208,0.00323 -0.010177,0.00324 -0.010146,0.00326 -0.010116,0.00327 -0.010084,0.00329 -0.010053,0.00331 -0.010022,0.00332 -0.00999,0.00334 -0.00996,0.00335 -0.00993,0.00337 -0.00989,0.00339 -0.00986,0.0034 -0.00983,0.00342 -0.0098,0.00344 -0.00976,0.00345 -0.00973,0.00347 -0.0097,0.00348 -0.00966,0.0035 -0.00963,0.00352 -0.0096,0.00353 -0.00956,0.00355 -0.00953,0.00357 -0.00949,0.00358 -0.00946,0.0036 -0.00942,0.00361 -0.00939,0.00363 -0.00935,0.00365 -0.00932,0.00366 -0.00928,0.00368 -0.00925,0.0037 -0.00921,0.00371 -0.00918,0.00373 -0.00914,0.00374 -0.00911,0.00376 -0.00907,0.00378 -0.00903,0.00379 -0.009,0.00381 -0.00896,0.00383 -0.00892,0.00384 -0.00918,0.00399 -0.00914,0.00401 -0.0091,0.00402 -0.00906,0.00404 -0.00902,0.00406 -0.00898,0.00408 -0.00894,0.00409 -0.0089,0.00411 -0.00886,0.00413 -0.00882,0.00415 -0.00878,0.00416 -0.00874,0.00418 -0.0087,0.0042 -0.00866,0.00422 -0.00862,0.00423 -0.00857,0.00425 -0.00853,0.00427 -0.00849,0.00429 -0.00845,0.0043 -0.00841,0.00432 -0.00836,0.00434 -0.00832,0.00436 -0.00828,0.00437 -0.00824,0.00439 -0.00819,0.00441 -0.00815,0.00443 -0.00811,0.00444 -0.00807,0.00446 -0.00802,0.00448 -0.00798,0.0045 -0.00793,0.00452 -0.00763,0.00438 -0.00759,0.0044 -0.00755,0.00441 -0.00751,0.00443 -0.00747,0.00445 -0.00742,0.00446 -0.00738,0.00448 -0.00734,0.0045 -0.0073,0.00451 -0.00726,0.00453 -0.00722,0.00455 -0.00717,0.00456 -0.00713,0.00458 -0.00709,0.0046 -0.00705,0.00461 -0.00701,0.00463 -0.00696,0.00465 -0.00692,0.00466 -0.00688,0.00468 -0.00684,0.0047 -0.00679,0.00471 -0.00675,0.00473 -0.00671,0.00475 -0.00667,0.00476 -0.00662,0.00478 -0.00658,0.0048 -0.00654,0.00481 -0.00649,0.00483 -0.00645,0.00485 -0.00641,0.00486 -0.00636,0.00488 -0.00633,0.0049 -0.00629,0.00492 -0.00624,0.00494 -0.0062,0.00495 -0.00615,0.00497 -0.00611,0.00499 -0.00607,0.005 -0.00602,0.00502 -0.00598,0.00504 -0.00593,0.00505 -0.00589,0.00507 -0.00585,0.00509 -0.0058,0.0051 -0.00576,0.00512 -0.00571,0.00514 -0.00567,0.00516 -0.00562,0.00517 -0.00558,0.00519 -0.00554,0.00521 -0.00549,0.00522 -0.00545,0.00524 -0.0054,0.00526 -0.00536,0.00527 -0.00531,0.00529 -0.00527,0.00531 -0.00522,0.00532 -0.00518,0.00534 -0.00513,0.00536 -0.00509,0.00537 -0.00504,0.00539 -0.00516,0.00559 -0.00512,0.00561 -0.00507,0.00562 -0.00502,0.00564 -0.00497,0.00566 -0.00492,0.00568 -0.00487,0.0057 -0.00483,0.00571 -0.00478,0.00573 -0.00473,0.00575 -0.00468,0.00577 -0.00463,0.00579 -0.00458,0.0058 -0.00454,0.00582 -0.00449,0.00584 -0.00444,0.00586 -0.00439,0.00588 -0.00434,0.00589 -0.00429,0.00591 -0.00424,0.00593 -0.00419,0.00595 -0.00415,0.00597 -0.0041,0.00598 -0.00405,0.006 -0.004,0.00602 -0.00395,0.00604 -0.0039,0.00606 -0.00385,0.00607 -0.0038,0.00609 -0.00376,0.00611 -0.00371,0.00613 -0.00354,0.00594 -0.00349,0.00596 -0.00345,0.00597 -0.0034,0.00599 -0.00335,0.00601 -0.00331,0.00602 -0.00326,0.00604 -0.00322,0.00606 -0.00317,0.00607 -0.00313,0.00609 -0.00308,0.00611 -0.00303,0.00612 -0.00299,0.00614 -0.00294,0.00616 -0.0029,0.00617 -0.00285,0.00619 -0.00281,0.00621 -0.00276,0.00622 -0.00271,0.00624 -0.00267,0.00626 -0.00262,0.00627 -0.00258,0.00629 -0.00253,0.00631 -0.00249,0.00632 -0.00244,0.00634 -0.00239,0.00636 -0.00235,0.00637 -0.0023,0.00639 -0.00226,0.00641 -0.00221,0.00642 -0.00217,0.00644 -0.00212,0.00646 -0.00208,0.00648 -0.00203,0.0065 -0.00199,0.00651 -0.00194,0.00653 -0.00189,0.00655 -0.00185,0.00656 -0.0018,0.00658 -0.00176,0.0066 -0.00171,0.00661 -0.00166,0.00663 -0.00162,0.00665 -0.00157,0.00666 -0.00153,0.00668 -0.00148,0.0067 -0.00144,0.00671 -0.00139,0.00673 -0.00134,0.00675 -0.0013,0.00676 -0.00125,0.00678 -0.00121,0.0068 -0.00116,0.00681 -0.00112,0.00683 -0.00107,0.00685 -0.00102,0.00686 -9.787e-4,0.00688 -9.331e-4,0.0069 -8.873e-4,0.00691 -8.418e-4,0.00693 -7.96e-4,0.00695 -7.504e-4,0.00696 -7.048e-4,0.00698 -6.591e-4,0.007 -6.135e-4,0.00701 -5.678e-4,0.00703 -5.223e-4,0.00705 -4.767e-4,0.00706 -4.31e-4,0.00708 -3.855e-4,0.00709 -3.398e-4,0.00711 -2.943e-4,0.00713 -2.487e-4,0.00714 -2.032e-4,0.00716 -1.575e-4,0.00718 -1.121e-4,0.00719 -6.64e-5,0.00721 -2.09e-5,0.00723 2.46e-5,0.00724 7.02e-5,0.00726 1.158e-4,0.00728 1.612e-4,0.00729 2.068e-4,0.00731 2.524e-4,0.00733 2.978e-4,0.00734 3.434e-4,0.00736 3.889e-4,0.00738 4.344e-4,0.00739 4.8e-4,0.00741 5.254e-4,0.00742 5.71e-4,0.00744"
       id="ID_111" />
  </g>
</svg>
