<?xml version="1.0" encoding="UTF-8" standalone="no"?>
<svg
   xmlns:dc="http://purl.org/dc/elements/1.1/"
   xmlns:cc="http://creativecommons.org/ns#"
   xmlns:rdf="http://www.w3.org/1999/02/22-rdf-syntax-ns#"
   xmlns:svg="http://www.w3.org/2000/svg"
   xmlns="http://www.w3.org/2000/svg"
   xmlns:sodipodi="http://sodipodi.sourceforge.net/DTD/sodipodi-0.dtd"
   xmlns:inkscape="http://www.inkscape.org/namespaces/inkscape"
   width="152.39999mm"
   height="152.39999mm"
   viewBox="0 0 152.39999 152.39999"
   version="1.1"
   id="svg658"
   inkscape:version="1.0.2-2 (e86c870879, 2021-01-15)"
   sodipodi:docname="made at barn official.svg">
  <defs
     id="defs652">
    <clipPath
       clipPathUnits="userSpaceOnUse"
       id="clipPath678">
      <path
         d="M 0,432 H 432 V 0 H 0 Z"
         id="path676" />
    </clipPath>
  </defs>
  <sodipodi:namedview
     id="base"
     pagecolor="#ffffff"
     bordercolor="#666666"
     borderopacity="1.0"
     inkscape:pageopacity="0.0"
     inkscape:pageshadow="2"
     inkscape:zoom="0.35"
     inkscape:cx="285.14284"
     inkscape:cy="399.42857"
     inkscape:document-units="mm"
     inkscape:current-layer="layer1"
     inkscape:document-rotation="0"
     showgrid="false"
     fit-margin-top="0"
     fit-margin-left="0"
     fit-margin-right="0"
     fit-margin-bottom="0"
     inkscape:window-width="1366"
     inkscape:window-height="705"
     inkscape:window-x="-8"
     inkscape:window-y="-8"
     inkscape:window-maximized="1" />
  <metadata
     id="metadata655">
    <rdf:RDF>
      <cc:Work
         rdf:about="">
        <dc:format>image/svg+xml</dc:format>
        <dc:type
           rdf:resource="http://purl.org/dc/dcmitype/StillImage" />
        <dc:title></dc:title>
      </cc:Work>
    </rdf:RDF>
  </metadata>
  <g
     inkscape:label="Layer 1"
     inkscape:groupmode="layer"
     id="layer1"
     transform="translate(-30.389291,-42.484523)">
    <g
       id="g668"
       inkscape:label="madeatBARN"
       transform="matrix(0.35277777,0,0,-0.35277777,30.389291,194.88452)">
      <path
         d="M 0,366.979 H 432 V 432 H 0 Z"
         style="fill:#231f20;fill-opacity:1;fill-rule:nonzero;stroke:none"
         id="path670" />
      <g
         id="g672">
        <g
           id="g674"
           clip-path="url(#clipPath678)">
          <path
             d="M 432,0 H 0 v 432 h 432 z"
             style="fill:none;stroke:#231f20;stroke-width:3;stroke-linecap:butt;stroke-linejoin:miter;stroke-miterlimit:10;stroke-dasharray:none;stroke-opacity:1"
             id="path680" />
          <g
             id="g682"
             transform="translate(57.5439,148.2168)">
            <path
               d="m 0,0 c -0.401,-9.775 -0.602,-17.7 -0.602,-23.769 l 0.067,-9.909 c 0,-1.339 0.189,-2.187 0.569,-2.545 0.379,-0.357 1.416,-0.534 3.113,-0.534 8.48,0 15.287,1.55 20.42,4.653 5.133,3.102 7.7,8.311 7.7,15.632 0,6.205 -1.908,10.836 -5.725,13.893 C 21.727,0.478 16.983,2.008 11.315,2.008 8.011,2.008 4.241,1.338 0,0 m 0,-39.904 c -0.625,-1.116 -0.937,-3.057 -0.937,-5.825 l -0.468,-20.755 c 0,-7.322 0.189,-11.406 0.569,-12.252 0.378,-0.85 1.673,-1.563 3.882,-2.143 2.21,-0.581 5.702,-0.87 10.478,-0.87 4.241,0 7.688,0.592 10.345,1.773 2.655,1.183 5.099,3.516 7.331,6.997 2.231,3.481 3.348,7.655 3.348,12.521 0,7.23 -2.132,12.541 -6.395,15.935 -4.262,3.39 -10.568,5.087 -18.913,5.087 -2.812,0 -5.892,-0.156 -9.24,-0.468 m 22.965,3.113 c 8.302,-2.189 14.517,-5.248 18.646,-9.179 4.127,-3.931 6.192,-8.71 6.192,-14.339 0,-6.029 -2.567,-11.589 -7.699,-16.682 -5.133,-5.136 -12.677,-7.704 -22.629,-7.704 -1.875,0 -4.866,0.111 -8.971,0.335 -2.635,0.133 -4.063,0.201 -4.286,0.201 -13.748,0 -23.031,-0.134 -27.851,-0.403 -1.608,0 -2.411,0.425 -2.411,1.274 0,0.445 0.234,0.758 0.703,0.936 0.469,0.179 2.198,0.537 5.189,1.073 1.784,0.31 3.191,1.07 4.218,2.274 1.026,1.206 1.808,3.66 2.343,7.366 0.536,3.703 0.804,9.215 0.804,16.536 0,7.231 0.089,13.066 0.267,17.509 0.178,4.441 0.269,7.844 0.269,10.21 0,7.364 -0.28,13.279 -0.837,17.742 -0.559,4.463 -1.351,7.308 -2.378,8.537 -1.026,1.227 -3.124,2.085 -6.293,2.578 -1.295,0.176 -1.941,0.645 -1.941,1.405 0,0.804 0.646,1.206 1.941,1.206 L -9.574,3.883 c 3.973,0 7.699,0.088 11.181,0.266 7.811,0.403 12.855,0.603 15.131,0.603 8.257,0 14.818,-1.806 19.684,-5.419 4.821,-3.613 7.231,-8.54 7.231,-14.783 0,-4.906 -1.585,-9.121 -4.754,-12.645 -3.169,-3.522 -8.48,-6.422 -15.934,-8.696"
               style="fill:#1b1716;fill-opacity:1;fill-rule:nonzero;stroke:none"
               id="path684" />
          </g>
          <g
             id="g686"
             transform="translate(148.7563,138.8418)">
            <path
               d="m 0,0 c -4.158,-8.479 -9.007,-20.799 -14.55,-36.956 4.598,0.222 7.901,0.334 9.911,0.334 l 18.815,-0.334 C 12.524,-32.314 10.207,-26.155 7.22,-18.478 3.565,-9.328 1.16,-3.168 0,0 M 3.086,14.597 H 6.182 C 11.165,4.375 18.043,-13.1 26.813,-37.827 c 5.653,-15.846 9.531,-25.566 11.634,-29.158 2.103,-3.593 5.481,-5.59 10.136,-5.992 1.476,-0.133 2.215,-0.626 2.215,-1.472 0,-0.626 -0.381,-0.939 -1.138,-0.939 l -0.938,0.068 c -4.106,0.357 -9.33,0.536 -15.667,0.536 -9.732,0 -15.979,-0.156 -18.745,-0.47 -1.386,0 -2.076,0.402 -2.076,1.207 0,0.579 0.512,0.937 1.539,1.07 3.794,0.358 6.416,1.005 7.866,1.942 1.45,0.938 2.175,2.41 2.175,4.419 0,1.918 -1.358,6.717 -4.075,14.393 l -3.945,11.516 c -2.323,0 -12.7,-0.132 -31.134,-0.4 -4.65,-12.365 -6.973,-20.162 -6.973,-23.392 0,-2.737 1.148,-4.767 3.447,-6.091 2.299,-1.323 4.563,-2.052 6.795,-2.185 1.652,-0.131 2.478,-0.631 2.478,-1.499 0,-0.349 -0.268,-0.675 -0.804,-0.98 -7.143,0.314 -11.449,0.47 -12.921,0.47 -7.498,0 -12.543,-0.09 -15.133,-0.269 -1.427,0 -2.141,0.403 -2.141,1.206 0,0.714 0.626,1.16 1.875,1.339 5.133,0.669 9.06,4.152 11.783,10.444 2.722,6.293 6.965,17.608 12.729,33.945 5.273,14.863 11.037,29.101 17.291,42.716"
               style="fill:#1b1716;fill-opacity:1;fill-rule:nonzero;stroke:none"
               id="path688" />
          </g>
          <g
             id="g690"
             transform="translate(233.3867,110.6563)">
            <path
               d="m 0,0 c 8.57,0.177 14.996,0.779 19.281,1.808 4.286,1.025 7.936,3.279 10.948,6.762 3.013,3.482 4.52,7.609 4.52,12.385 0,5.043 -1.675,9.441 -5.022,13.19 -3.347,3.749 -8.704,5.624 -16.068,5.624 -4.016,0 -8.46,-0.536 -13.324,-1.608 C -0.199,25.887 -0.468,16.111 -0.468,8.837 -0.468,6.337 -0.313,3.392 0,0 m 25.374,-1.708 c 6.196,-2.686 10.508,-5.493 12.934,-8.425 2.424,-2.931 4.211,-7.454 5.361,-13.569 1.501,-8.034 3.587,-13.435 6.256,-16.201 2.666,-2.766 6.158,-4.239 10.472,-4.419 1.202,-0.088 1.801,-0.523 1.801,-1.304 0,-0.782 -0.692,-1.174 -2.076,-1.174 -12.496,0 -20.074,0.412 -22.728,1.239 -2.657,0.825 -4.633,5.39 -5.926,13.691 -1.205,8.079 -2.466,13.983 -3.782,17.71 -1.319,3.724 -3.416,6.582 -6.294,8.568 -2.88,1.987 -7.376,2.98 -13.492,2.98 -2.32,0 -4.954,-0.245 -7.9,-0.736 -0.224,-2.807 -0.334,-5.724 -0.334,-8.756 0,-11.452 0.155,-18.861 0.468,-22.225 0.312,-3.364 1.261,-5.815 2.845,-7.353 1.584,-1.537 4.23,-2.351 7.935,-2.439 1.607,-0.047 2.409,-0.437 2.409,-1.17 0,-0.873 -0.981,-1.308 -2.945,-1.308 h -33.142 c -1.919,0 -2.879,0.435 -2.879,1.308 0,0.78 0.759,1.17 2.278,1.17 3.392,0 5.746,0.512 7.062,1.538 1.316,1.025 2.354,2.62 3.114,4.783 0.759,2.163 1.137,6.077 1.137,11.74 l -0.135,13.649 0.07,20.805 c 0,10.615 -0.234,17.638 -0.705,21.074 -0.467,3.432 -1.306,5.74 -2.508,6.922 -1.207,1.182 -3.997,2.107 -8.372,2.777 -0.936,0.134 -1.405,0.512 -1.405,1.138 0,0.713 0.938,1.071 2.813,1.071 l 39.634,0.87 c 10.936,0 18.87,-2.097 23.803,-6.289 4.931,-4.192 7.397,-9.321 7.397,-15.387 0,-3.835 -0.993,-7.337 -2.979,-10.504 C 43.574,6.9 41.22,4.603 38.498,3.175 35.775,1.749 31.4,0.122 25.374,-1.708"
               style="fill:#1b1716;fill-opacity:1;fill-rule:nonzero;stroke:none"
               id="path692" />
          </g>
          <g
             id="g694"
             transform="translate(324.8447,151.2285)">
            <path
               d="m 0,0 c 2.679,-3.615 7.319,-9.217 13.926,-16.805 l 21.425,-24.839 20.62,-23.835 c 0.447,8.078 0.671,18.568 0.671,31.468 0,9.684 -0.202,16.169 -0.604,19.449 -0.4,3.28 -1.885,6.037 -4.452,8.268 -2.566,2.232 -5.768,3.349 -9.607,3.349 -1.787,0 -2.678,0.378 -2.678,1.137 0,0.446 0.189,0.77 0.568,0.971 0.38,0.201 3.382,0.402 9.006,0.604 5.624,0.201 10.354,0.3 14.194,0.3 l 9.038,-0.065 h 1.473 c 1.383,0 2.075,-0.391 2.075,-1.174 0,-0.696 -0.601,-1.108 -1.807,-1.239 -4.509,-0.491 -7.756,-1.663 -9.741,-3.517 -1.986,-1.854 -3.17,-4.524 -3.548,-8.007 -0.38,-3.484 -0.571,-15.211 -0.571,-35.177 L 59.33,-84.49 c 0,-1.787 -0.437,-2.681 -1.315,-2.681 -0.229,0 -0.536,0.1 -0.925,0.301 -0.389,0.201 -2.391,2.455 -6.005,6.763 -3.615,4.305 -8.067,9.472 -13.358,15.498 -5.289,6.026 -9.451,10.915 -12.487,14.664 -6.651,8.077 -10.844,13.054 -12.586,14.929 -6.472,6.873 -10.288,11.292 -11.448,13.256 -0.76,1.34 -1.452,2.009 -2.076,2.009 -0.491,0 -0.736,-0.869 -0.736,-2.61 l 0.133,-10.378 c 0,-13.167 0.358,-23.679 1.073,-31.535 0.712,-7.856 1.46,-12.464 2.242,-13.825 0.78,-1.362 2.142,-2.735 4.084,-4.119 1.941,-1.383 4.005,-2.073 6.192,-2.073 2.947,0 4.42,-0.536 4.42,-1.608 0,-0.803 -0.827,-1.205 -2.478,-1.205 l -32.204,0.067 c -1.518,0 -2.276,0.378 -2.276,1.138 0,0.893 0.735,1.339 2.21,1.339 5.489,0 9.149,1.215 10.98,3.649 1.83,2.432 2.746,7.599 2.746,15.5 l -0.552,23.5 c 0.01,13.88 -0.364,22.06 -1.122,24.538 -0.762,2.476 -2.468,5.49 -5.122,9.038 -2.657,3.548 -5.681,5.545 -9.073,5.991 -1.519,0.179 -2.277,0.581 -2.277,1.206 0,0.848 0.982,1.272 2.945,1.272 z"
               style="fill:#1b1716;fill-opacity:1;fill-rule:nonzero;stroke:none"
               id="path696" />
          </g>
          <g
             id="g698"
             transform="translate(33.5181,39.3496)">
            <path
               d="m 0,0 v -7.296 h 2.503 c 1.048,0 1.85,0.348 2.403,1.042 0.556,0.694 0.833,1.606 0.833,2.734 0,1.121 -0.322,1.987 -0.967,2.599 C 4.127,-0.307 3.249,0 2.138,0 Z M 0,8.449 V 1.828 h 1.922 c 0.938,0 1.696,0.316 2.267,0.947 0.574,0.633 0.861,1.472 0.861,2.52 0,0.966 -0.26,1.732 -0.779,2.3 C 3.752,8.164 3.023,8.449 2.084,8.449 Z M -2.018,-9.125 V 10.29 H 2.667 C 4.102,10.29 5.214,9.883 6.003,9.07 6.793,8.259 7.188,7.147 7.188,5.741 7.188,3.483 6.245,1.968 4.36,1.192 V 1.138 C 5.442,1.002 6.304,0.51 6.944,-0.338 7.585,-1.187 7.907,-2.229 7.907,-3.465 7.907,-5.161 7.451,-6.529 6.54,-7.567 5.628,-8.605 4.399,-9.125 2.857,-9.125 Z"
               style="fill:#1b1716;fill-opacity:1;fill-rule:nonzero;stroke:none"
               id="path700" />
          </g>
          <g
             id="g702"
             transform="translate(50.7729,37.5234)">
            <path
               d="m 0,0 -2.723,-0.609 c -1.533,-0.345 -2.299,-1.259 -2.299,-2.75 0,-0.767 0.197,-1.375 0.594,-1.827 0.398,-0.453 0.911,-0.675 1.544,-0.675 0.884,0 1.586,0.355 2.105,1.068 C -0.259,-4.081 0,-3.151 0,-2.004 Z m 0,-7.299 v 2.086 h -0.054 c -0.705,-1.552 -1.878,-2.329 -3.52,-2.329 -1.02,0 -1.844,0.364 -2.472,1.09 -0.628,0.726 -0.94,1.654 -0.94,2.782 0,2.392 1.236,3.872 3.708,4.44 L 0,1.516 v 0.92 c 0,1.796 -0.795,2.694 -2.384,2.694 -1.128,0 -2.301,-0.483 -3.52,-1.448 v 1.99 c 1.283,0.758 2.546,1.137 3.791,1.137 2.717,0 4.075,-1.502 4.075,-4.509 v -9.599 z"
               style="fill:#1b1716;fill-opacity:1;fill-rule:nonzero;stroke:none"
               id="path704" />
          </g>
          <path
             d="m 56.07,44.089 h 1.962 V 30.225 H 56.07 Z m 1.003,2.991 c -0.39,0 -0.719,0.133 -0.99,0.399 -0.27,0.267 -0.405,0.597 -0.405,0.996 0,0.406 0.136,0.733 0.412,0.981 0.276,0.247 0.602,0.372 0.983,0.372 0.386,0 0.714,-0.125 0.981,-0.372 0.265,-0.248 0.398,-0.575 0.398,-0.981 0,-0.399 -0.128,-0.729 -0.386,-0.996 -0.257,-0.266 -0.589,-0.399 -0.993,-0.399"
             style="fill:#1b1716;fill-opacity:1;fill-rule:nonzero;stroke:none"
             id="path706" />
          <g
             id="g708"
             transform="translate(68.8447,30.2246)">
            <path
               d="m 0,0 v 9.207 c 0,2.12 -0.834,3.181 -2.504,3.181 -0.859,0 -1.553,-0.309 -2.084,-0.926 -0.535,-0.619 -0.8,-1.466 -0.8,-2.539 V 0 H -7.35 v 13.864 h 1.962 v -2.086 h 0.068 c 0.695,1.553 1.868,2.329 3.52,2.329 2.509,0 3.763,-1.474 3.763,-4.426 L 1.963,0 Z"
               style="fill:#1b1716;fill-opacity:1;fill-rule:nonzero;stroke:none"
               id="path710" />
          </g>
          <g
             id="g712"
             transform="translate(76.1284,37.9551)">
            <path
               d="m 0,0 v -1.935 c 0,-1.264 0.252,-2.299 0.758,-3.107 0.505,-0.808 1.204,-1.212 2.097,-1.212 2.113,0 3.17,1.977 3.17,5.93 0,1.616 -0.254,2.849 -0.759,3.702 C 4.76,4.232 4.051,4.657 3.141,4.657 2.157,4.657 1.387,4.223 0.833,3.351 0.278,2.479 0,1.363 0,0 M 0.094,-5.955 H 0.027 V -7.73 H -1.937 V 12.794 H 0.027 V 3.857 h 0.067 c 0.732,1.68 1.949,2.52 3.655,2.52 1.382,0 2.446,-0.581 3.196,-1.746 0.749,-1.165 1.123,-2.753 1.123,-4.767 0,-2.471 -0.419,-4.396 -1.258,-5.772 -0.839,-1.377 -2.045,-2.066 -3.617,-2.066 -1.415,0 -2.449,0.672 -3.099,2.019"
               style="fill:#1b1716;fill-opacity:1;fill-rule:nonzero;stroke:none"
               id="path714" />
          </g>
          <g
             id="g716"
             transform="translate(93.3247,42.1523)">
            <path
               d="m 0,0 c -0.459,0.18 -0.884,0.271 -1.271,0.271 -2.004,0 -3.006,-1.71 -3.006,-5.13 v -7.069 H -6.239 V 1.937 h 1.962 v -2.438 h 0.068 c 0.469,1.769 1.501,2.653 3.1,2.653 0.451,0 0.821,-0.052 1.109,-0.161 z"
               style="fill:#1b1716;fill-opacity:1;fill-rule:nonzero;stroke:none"
               id="path718" />
          </g>
          <path
             d="m 95.45,44.089 h 1.962 V 30.225 H 95.45 Z m 1.002,2.991 c -0.389,0 -0.719,0.133 -0.99,0.399 -0.27,0.267 -0.405,0.597 -0.405,0.996 0,0.406 0.136,0.733 0.412,0.981 0.277,0.247 0.603,0.372 0.983,0.372 0.386,0 0.714,-0.125 0.981,-0.372 0.266,-0.248 0.399,-0.575 0.399,-0.981 0,-0.399 -0.129,-0.729 -0.387,-0.996 -0.257,-0.266 -0.589,-0.399 -0.993,-0.399"
             style="fill:#1b1716;fill-opacity:1;fill-rule:nonzero;stroke:none"
             id="path720" />
          <g
             id="g722"
             transform="translate(108.2285,38.375)">
            <path
               d="m 0,0 c 0,1.301 -0.246,2.33 -0.738,3.094 -0.492,0.763 -1.18,1.143 -2.065,1.143 -2.131,0 -3.195,-1.89 -3.195,-5.671 0,-1.706 0.258,-3.006 0.771,-3.9 0.517,-0.894 1.247,-1.34 2.195,-1.34 0.957,0 1.699,0.419 2.234,1.259 C -0.267,-4.576 0,-3.442 0,-2.017 Z m 0,-8.15 v 2.249 h -0.054 c -0.66,-1.662 -1.823,-2.493 -3.494,-2.493 -1.425,0 -2.53,0.63 -3.316,1.889 -0.785,1.259 -1.179,2.919 -1.179,4.976 0,2.31 0.438,4.135 1.315,5.475 0.875,1.341 2.061,2.011 3.56,2.011 1.416,0 2.454,-0.699 3.114,-2.098 H 0 v 8.515 H 1.963 V -8.15 Z"
               style="fill:#1b1716;fill-opacity:1;fill-rule:nonzero;stroke:none"
               id="path724" />
          </g>
          <g
             id="g726"
             transform="translate(121.0708,38.375)">
            <path
               d="m 0,0 c 0,1.301 -0.245,2.33 -0.737,3.094 -0.492,0.763 -1.18,1.143 -2.064,1.143 -2.131,0 -3.197,-1.89 -3.197,-5.671 0,-1.706 0.258,-3.006 0.773,-3.9 0.515,-0.894 1.245,-1.34 2.193,-1.34 0.957,0 1.701,0.419 2.234,1.259 C -0.266,-4.576 0,-3.442 0,-2.017 Z m 1.963,-7.202 c 0,-4.972 -2.054,-7.459 -6.159,-7.459 -1.065,0 -2.081,0.193 -3.045,0.583 v 2.015 c 1.046,-0.567 2.061,-0.852 3.045,-0.852 2.799,0 4.196,1.692 4.196,5.077 v 1.937 h -0.054 c -0.658,-1.662 -1.823,-2.493 -3.493,-2.493 -1.425,0 -2.531,0.63 -3.317,1.889 -0.785,1.259 -1.178,2.919 -1.178,4.976 0,2.31 0.438,4.135 1.313,5.475 0.876,1.341 2.062,2.011 3.562,2.011 1.453,0 2.491,-0.708 3.113,-2.125 H 0 v 1.882 h 1.963 z"
               style="fill:#1b1716;fill-opacity:1;fill-rule:nonzero;stroke:none"
               id="path728" />
          </g>
          <g
             id="g730"
             transform="translate(133.6035,38.2656)">
            <path
               d="M 0,0 C 0,2.962 -0.875,4.442 -2.626,4.442 -3.501,4.442 -4.214,4.066 -4.76,3.317 -5.307,2.569 -5.614,1.465 -5.687,0 Z m -5.714,-1.583 c 0,-3.349 1.214,-5.021 3.642,-5.021 1.047,0 2.117,0.369 3.208,1.109 V -7.35 c -1.082,-0.622 -2.238,-0.934 -3.466,-0.934 -1.76,0 -3.1,0.614 -4.021,1.842 -0.92,1.226 -1.379,3.032 -1.379,5.415 0,2.093 0.464,3.798 1.394,5.118 0.93,1.315 2.191,1.975 3.79,1.975 2.996,0 4.494,-2.107 4.494,-6.322 v -1.327 z"
               style="fill:#1b1716;fill-opacity:1;fill-rule:nonzero;stroke:none"
               id="path732" />
          </g>
          <g
             id="g734"
             transform="translate(150.4678,45.5918)">
            <path
               d="M 0,0 C -0.054,0.188 -0.167,0.779 -0.338,1.772 H -0.393 L -0.462,1.447 C -0.587,0.788 -0.687,0.323 -0.758,0.053 l -2.248,-8.069 h 5.185 z m 4.184,-15.367 -1.531,5.605 h -6.038 l -1.556,-5.605 h -2.222 l 5.714,19.415 h 2.275 l 5.603,-19.415 z"
               style="fill:#1b1716;fill-opacity:1;fill-rule:nonzero;stroke:none"
               id="path736" />
          </g>
          <g
             id="g738"
             transform="translate(165.4365,42.1523)">
            <path
               d="m 0,0 c -0.459,0.18 -0.884,0.271 -1.271,0.271 -2.004,0 -3.006,-1.71 -3.006,-5.13 v -7.069 H -6.239 V 1.937 h 1.962 v -2.438 h 0.068 c 0.469,1.769 1.501,2.653 3.1,2.653 0.451,0 0.821,-0.052 1.109,-0.161 z"
               style="fill:#1b1716;fill-opacity:1;fill-rule:nonzero;stroke:none"
               id="path740" />
          </g>
          <g
             id="g742"
             transform="translate(173.5171,30.334)">
            <path
               d="m 0,0 c -0.551,-0.234 -1.15,-0.353 -1.801,-0.353 -2.012,0 -3.02,1.192 -3.02,3.575 v 8.867 h -1.894 v 1.666 h 1.894 v 3.437 c 0.073,0.019 0.206,0.06 0.394,0.123 0.758,0.261 1.281,0.433 1.572,0.515 V 13.755 H 0 V 12.089 H -2.855 V 3.41 c 0,-1.361 0.526,-2.043 1.583,-2.043 0.46,0 0.884,0.1 1.272,0.299 z"
               style="fill:#1b1716;fill-opacity:1;fill-rule:nonzero;stroke:none"
               id="path744" />
          </g>
          <path
             d="m 175.727,44.089 h 1.963 V 30.225 h -1.963 z m 1.002,2.991 c -0.388,0 -0.717,0.133 -0.987,0.399 -0.272,0.267 -0.408,0.597 -0.408,0.996 0,0.406 0.139,0.733 0.414,0.981 0.274,0.247 0.602,0.372 0.981,0.372 0.389,0 0.715,-0.125 0.98,-0.372 0.268,-0.248 0.402,-0.575 0.402,-0.981 0,-0.399 -0.13,-0.729 -0.386,-0.996 -0.258,-0.266 -0.589,-0.399 -0.996,-0.399"
             style="fill:#1b1716;fill-opacity:1;fill-rule:nonzero;stroke:none"
             id="path746" />
          <g
             id="g748"
             transform="translate(180.3843,30.6992)">
            <path
               d="M 0,0 V 1.963 C 1.019,1.276 2.025,0.936 3.018,0.936 c 1.633,0 2.45,0.72 2.45,2.164 0,0.462 -0.159,0.88 -0.472,1.259 C 4.678,4.738 4.078,5.181 3.193,5.687 1.849,6.435 0.984,7.12 0.601,7.743 0.217,8.367 0.027,9.049 0.027,9.788 c 0,1.128 0.398,2.05 1.197,2.769 0.798,0.717 1.834,1.076 3.108,1.076 1.01,0 1.904,-0.186 2.68,-0.554 V 11.195 C 6.1,11.721 5.225,11.981 4.386,11.981 3.663,11.981 3.094,11.787 2.68,11.398 2.264,11.011 2.057,10.501 2.057,9.87 2.057,9.436 2.191,9.027 2.463,8.645 2.734,8.261 3.375,7.779 4.386,7.201 5.702,6.462 6.548,5.787 6.924,5.18 7.298,4.569 7.486,3.886 7.486,3.127 7.486,2.018 7.093,1.099 6.309,0.372 5.522,-0.354 4.434,-0.718 3.045,-0.718 1.88,-0.718 0.866,-0.478 0,0"
               style="fill:#1b1716;fill-opacity:1;fill-rule:nonzero;stroke:none"
               id="path750" />
          </g>
          <g
             id="g752"
             transform="translate(196.9614,37.5234)">
            <path
               d="m 0,0 -2.719,-0.609 c -1.537,-0.345 -2.303,-1.259 -2.303,-2.75 0,-0.767 0.199,-1.375 0.596,-1.827 0.397,-0.453 0.911,-0.675 1.544,-0.675 0.884,0 1.584,0.355 2.103,1.068 C -0.259,-4.081 0,-3.151 0,-2.004 Z m 0,-7.299 v 2.086 h -0.054 c -0.703,-1.552 -1.878,-2.329 -3.52,-2.329 -1.02,0 -1.843,0.364 -2.469,1.09 -0.628,0.726 -0.941,1.654 -0.941,2.782 0,2.392 1.235,3.872 3.709,4.44 L 0,1.516 v 0.92 C 0,4.232 -0.793,5.13 -2.381,5.13 -3.51,5.13 -4.683,4.647 -5.901,3.682 v 1.99 c 1.28,0.758 2.545,1.137 3.79,1.137 2.716,0 4.075,-1.502 4.075,-4.509 v -9.599 z"
               style="fill:#1b1716;fill-opacity:1;fill-rule:nonzero;stroke:none"
               id="path754" />
          </g>
          <g
             id="g756"
             transform="translate(209.6392,30.2246)">
            <path
               d="m 0,0 v 9.207 c 0,2.12 -0.834,3.181 -2.505,3.181 -0.857,0 -1.552,-0.309 -2.084,-0.926 C -5.122,10.843 -5.388,9.996 -5.388,8.923 V 0 h -1.964 v 13.864 h 1.964 v -2.086 h 0.068 c 0.695,1.553 1.867,2.329 3.52,2.329 2.508,0 3.762,-1.474 3.762,-4.426 L 1.962,0 Z"
               style="fill:#1b1716;fill-opacity:1;fill-rule:nonzero;stroke:none"
               id="path758" />
          </g>
          <g
             id="g760"
             transform="translate(224.3223,47.8252)">
            <path
               d="m 0,0 v -7.474 h 2.113 c 0.976,0 1.774,0.354 2.396,1.063 0.623,0.71 0.933,1.637 0.933,2.783 0,1.173 -0.288,2.071 -0.866,2.692 C 4,-0.312 3.178,0 2.113,0 Z m 5.835,-17.601 -1.866,5.376 c -0.39,1.128 -0.775,1.896 -1.158,2.3 -0.385,0.408 -0.847,0.611 -1.389,0.611 H 0 v -8.287 H -2.07 V 1.814 h 4.603 c 1.624,0 2.876,-0.462 3.756,-1.388 0.88,-0.925 1.321,-2.173 1.321,-3.742 0,-2.808 -1.188,-4.573 -3.562,-5.295 v -0.067 c 0.741,-0.28 1.399,-1.259 1.977,-2.938 l 2.166,-5.985 z"
               style="fill:#1b1716;fill-opacity:1;fill-rule:nonzero;stroke:none"
               id="path762" />
          </g>
          <g
             id="g764"
             transform="translate(242.0908,38.2656)">
            <path
               d="M 0,0 C 0,2.962 -0.877,4.442 -2.627,4.442 -3.503,4.442 -4.214,4.066 -4.759,3.317 -5.305,2.569 -5.614,1.465 -5.687,0 Z m -5.714,-1.583 c 0,-3.349 1.214,-5.021 3.642,-5.021 1.048,0 2.116,0.369 3.209,1.109 V -7.35 c -1.084,-0.622 -2.239,-0.934 -3.465,-0.934 -1.76,0 -3.101,0.614 -4.022,1.842 -0.92,1.226 -1.38,3.032 -1.38,5.415 0,2.093 0.464,3.798 1.394,5.118 0.929,1.315 2.193,1.975 3.79,1.975 2.996,0 4.494,-2.107 4.494,-6.322 v -1.327 z"
               style="fill:#1b1716;fill-opacity:1;fill-rule:nonzero;stroke:none"
               id="path766" />
          </g>
          <g
             id="g768"
             transform="translate(246.1602,30.6992)">
            <path
               d="M 0,0 V 1.963 C 1.021,1.276 2.026,0.936 3.02,0.936 4.653,0.936 5.47,1.656 5.47,3.1 5.47,3.562 5.312,3.98 4.995,4.359 4.68,4.738 4.079,5.181 3.195,5.687 1.851,6.435 0.987,7.12 0.604,7.743 0.219,8.367 0.027,9.049 0.027,9.788 c 0,1.128 0.4,2.05 1.199,2.769 0.797,0.717 1.835,1.076 3.107,1.076 1.01,0 1.903,-0.186 2.681,-0.554 V 11.195 C 6.102,11.721 5.227,11.981 4.388,11.981 3.664,11.981 3.096,11.787 2.681,11.398 2.266,11.011 2.059,10.501 2.059,9.87 2.059,9.436 2.192,9.027 2.465,8.645 2.734,8.261 3.376,7.779 4.388,7.201 5.705,6.462 6.55,5.787 6.924,5.18 7.3,4.569 7.487,3.886 7.487,3.127 7.487,2.018 7.095,1.099 6.309,0.372 5.523,-0.354 4.436,-0.718 3.047,-0.718 1.882,-0.718 0.866,-0.478 0,0"
               style="fill:#1b1716;fill-opacity:1;fill-rule:nonzero;stroke:none"
               id="path770" />
          </g>
          <g
             id="g772"
             transform="translate(260.9766,42.6123)">
            <path
               d="m 0,0 c -1.021,0 -1.812,-0.474 -2.376,-1.421 -0.564,-0.948 -0.847,-2.302 -0.847,-4.061 0,-3.62 1.076,-5.429 3.223,-5.429 2.084,0 3.127,1.837 3.127,5.51 0,1.732 -0.271,3.065 -0.813,4.001 C 1.773,-0.468 1.002,0 0,0 m -0.082,-12.631 c -1.66,0 -2.939,0.627 -3.838,1.883 -0.897,1.254 -1.346,2.981 -1.346,5.186 0,2.299 0.469,4.089 1.408,5.367 0.937,1.276 2.234,1.915 3.885,1.915 1.623,0 2.895,-0.625 3.811,-1.875 0.916,-1.251 1.373,-2.963 1.373,-5.139 0,-2.31 -0.452,-4.109 -1.359,-5.4 -0.908,-1.292 -2.219,-1.937 -3.934,-1.937"
               style="fill:#1b1716;fill-opacity:1;fill-rule:nonzero;stroke:none"
               id="path774" />
          </g>
          <g
             id="g776"
             transform="translate(276.2588,30.2246)">
            <path
               d="m 0,0 v 2.086 h -0.055 c -0.748,-1.552 -1.926,-2.329 -3.532,-2.329 -2.527,0 -3.792,1.476 -3.792,4.427 v 9.68 h 1.964 V 4.658 c 0,-2.121 0.835,-3.181 2.504,-3.181 0.857,0 1.557,0.313 2.099,0.941 C -0.271,3.044 0,3.887 0,4.941 v 8.923 H 1.964 V 0 Z"
               style="fill:#1b1716;fill-opacity:1;fill-rule:nonzero;stroke:none"
               id="path778" />
          </g>
          <g
             id="g780"
             transform="translate(287.9014,42.1523)">
            <path
               d="m 0,0 c -0.461,0.18 -0.885,0.271 -1.272,0.271 -2.004,0 -3.005,-1.71 -3.005,-5.13 v -7.069 H -6.241 V 1.937 h 1.964 v -2.438 h 0.068 c 0.468,1.769 1.501,2.653 3.1,2.653 0.451,0 0.821,-0.052 1.109,-0.161 z"
               style="fill:#1b1716;fill-opacity:1;fill-rule:nonzero;stroke:none"
               id="path782" />
          </g>
          <g
             id="g784"
             transform="translate(297.1406,30.8613)">
            <path
               d="m 0,0 c -0.839,-0.585 -1.818,-0.88 -2.938,-0.88 -1.542,0 -2.793,0.644 -3.749,1.931 -0.958,1.286 -1.436,2.943 -1.436,4.974 0,2.291 0.535,4.112 1.604,5.454 1.07,1.347 2.431,2.019 4.081,2.019 1.002,0 1.815,-0.213 2.438,-0.636 v -1.991 c -0.714,0.614 -1.489,0.921 -2.328,0.921 -1.111,0 -2.014,-0.529 -2.708,-1.591 -0.695,-1.06 -1.043,-2.407 -1.043,-4.04 0,-1.625 0.315,-2.919 0.948,-3.879 0.632,-0.963 1.471,-1.442 2.517,-1.442 0.975,0 1.846,0.338 2.614,1.015 z"
               style="fill:#1b1716;fill-opacity:1;fill-rule:nonzero;stroke:none"
               id="path786" />
          </g>
          <g
             id="g788"
             transform="translate(306.6338,38.2656)">
            <path
               d="M 0,0 C 0,2.962 -0.877,4.442 -2.627,4.442 -3.503,4.442 -4.214,4.066 -4.759,3.317 -5.305,2.569 -5.614,1.465 -5.687,0 Z m -5.714,-1.583 c 0,-3.349 1.214,-5.021 3.642,-5.021 1.048,0 2.116,0.369 3.209,1.109 V -7.35 c -1.084,-0.622 -2.239,-0.934 -3.465,-0.934 -1.76,0 -3.101,0.614 -4.022,1.842 -0.92,1.226 -1.38,3.032 -1.38,5.415 0,2.093 0.464,3.798 1.394,5.118 0.929,1.315 2.193,1.975 3.79,1.975 2.996,0 4.494,-2.107 4.494,-6.322 v -1.327 z"
               style="fill:#1b1716;fill-opacity:1;fill-rule:nonzero;stroke:none"
               id="path790" />
          </g>
          <g
             id="g792"
             transform="translate(328.1816,30.2246)">
            <path
               d="m 0,0 -7.216,14.474 c -0.252,0.495 -0.492,1.087 -0.717,1.772 H -7.96 c 0.019,-0.307 0.027,-0.735 0.027,-1.286 V 0 h -1.855 v 19.415 h 2.384 L -0.284,4.969 C -0.13,4.662 0.063,4.193 0.299,3.563 0.353,3.417 0.401,3.295 0.446,3.197 H 0.474 L 0.419,5.524 V 19.415 H 2.302 V 0 Z"
               style="fill:#1b1716;fill-opacity:1;fill-rule:nonzero;stroke:none"
               id="path794" />
          </g>
          <g
             id="g796"
             transform="translate(341.4941,38.2656)">
            <path
               d="M 0,0 C 0,2.962 -0.877,4.442 -2.627,4.442 -3.503,4.442 -4.214,4.066 -4.758,3.317 -5.305,2.569 -5.614,1.465 -5.687,0 Z m -5.714,-1.583 c 0,-3.349 1.214,-5.021 3.642,-5.021 1.048,0 2.116,0.369 3.209,1.109 V -7.35 c -1.084,-0.622 -2.239,-0.934 -3.465,-0.934 -1.76,0 -3.101,0.614 -4.021,1.842 -0.921,1.226 -1.38,3.032 -1.38,5.415 0,2.093 0.464,3.798 1.394,5.118 0.928,1.315 2.192,1.975 3.789,1.975 2.996,0 4.495,-2.107 4.495,-6.322 v -1.327 z"
               style="fill:#1b1716;fill-opacity:1;fill-rule:nonzero;stroke:none"
               id="path798" />
          </g>
          <g
             id="g800"
             transform="translate(351.5518,30.334)">
            <path
               d="m 0,0 c -0.551,-0.234 -1.151,-0.353 -1.8,-0.353 -2.013,0 -3.02,1.192 -3.02,3.575 v 8.867 h -1.896 v 1.666 h 1.896 v 3.437 c 0.072,0.019 0.204,0.06 0.392,0.123 0.759,0.261 1.282,0.433 1.572,0.515 V 13.755 H 0 V 12.089 H -2.856 V 3.41 c 0,-1.361 0.528,-2.043 1.583,-2.043 0.46,0 0.884,0.1 1.273,0.299 z"
               style="fill:#1b1716;fill-opacity:1;fill-rule:nonzero;stroke:none"
               id="path802" />
          </g>
          <g
             id="g804"
             transform="translate(365.2803,30.2246)">
            <path
               d="m 0,0 h -2.084 l -2.1,9.762 c -0.063,0.306 -0.129,0.88 -0.202,1.719 H -4.44 C -4.477,11.012 -4.549,10.447 -4.657,9.789 L -6.932,0 h -2.085 l -3.208,13.864 h 2.018 L -8.068,3.547 C -7.969,3.07 -7.897,2.573 -7.853,2.059 h 0.082 c 0.054,0.522 0.109,0.912 0.163,1.165 0.027,0.126 0.049,0.243 0.068,0.35 l 2.355,10.29 h 1.827 l 2.14,-10.317 c 0.036,-0.189 0.089,-0.686 0.161,-1.488 h 0.082 c 0,0.271 0.05,0.649 0.15,1.138 0.026,0.125 0.05,0.242 0.067,0.35 l 2.194,10.317 h 1.868 z"
               style="fill:#1b1716;fill-opacity:1;fill-rule:nonzero;stroke:none"
               id="path806" />
          </g>
          <g
             id="g808"
             transform="translate(375.124,42.6123)">
            <path
               d="m 0,0 c -1.021,0 -1.813,-0.474 -2.376,-1.421 -0.564,-0.948 -0.847,-2.302 -0.847,-4.061 0,-3.62 1.075,-5.429 3.223,-5.429 2.084,0 3.127,1.837 3.127,5.51 0,1.732 -0.271,3.065 -0.813,4.001 C 1.772,-0.468 1.002,0 0,0 m -0.082,-12.631 c -1.66,0 -2.94,0.627 -3.838,1.883 -0.898,1.254 -1.347,2.981 -1.347,5.186 0,2.299 0.47,4.089 1.409,5.367 0.937,1.276 2.234,1.915 3.884,1.915 1.624,0 2.896,-0.625 3.812,-1.875 0.916,-1.251 1.373,-2.963 1.373,-5.139 0,-2.31 -0.453,-4.109 -1.359,-5.4 -0.908,-1.292 -2.219,-1.937 -3.934,-1.937"
               style="fill:#1b1716;fill-opacity:1;fill-rule:nonzero;stroke:none"
               id="path810" />
          </g>
          <g
             id="g812"
             transform="translate(389.3877,42.1523)">
            <path
               d="m 0,0 c -0.461,0.18 -0.885,0.271 -1.272,0.271 -2.004,0 -3.005,-1.71 -3.005,-5.13 v -7.069 H -6.241 V 1.937 h 1.964 v -2.438 h 0.067 c 0.469,1.769 1.502,2.653 3.101,2.653 0.451,0 0.821,-0.052 1.109,-0.161 z"
               style="fill:#1b1716;fill-opacity:1;fill-rule:nonzero;stroke:none"
               id="path814" />
          </g>
          <g
             id="g816"
             transform="translate(398.1445,30.2246)">
            <path
               d="M 0,0 -4.629,6.933 H -4.67 V 0 H -6.634 V 20.524 H -4.67 V 7.379 h 0.041 l 4.345,6.485 H 2.018 L -2.667,7.271 2.355,0 Z"
               style="fill:#1b1716;fill-opacity:1;fill-rule:nonzero;stroke:none"
               id="path818" />
          </g>
          <g
             id="g820"
             transform="translate(374.793,202.9912)">
            <path
               d="m 0,0 c -0.999,0.447 -2.152,0.346 -2.295,-1.159 0.293,-0.099 0.749,-0.028 0.752,-0.419 C -0.579,-1.548 -0.062,-1.021 0,0"
               style="fill:#1b1716;fill-opacity:1;fill-rule:evenodd;stroke:none"
               id="path822" />
          </g>
          <g
             id="g824"
             transform="translate(332.373,197.125)">
            <path
               d="M 0,0 C 1.626,-0.077 2.775,-0.873 3.797,0.33 2.977,1.185 0.348,1.739 0,0"
               style="fill:#1b1716;fill-opacity:1;fill-rule:evenodd;stroke:none"
               id="path826" />
          </g>
          <g
             id="g828"
             transform="translate(354.4521,200.2842)">
            <path
               d="M 0,0 C 0.295,-0.1 0.755,-0.027 0.758,-0.421 1.729,-0.392 2.249,0.14 2.313,1.17 1.307,1.619 0.145,1.517 0,0"
               style="fill:#1b1716;fill-opacity:1;fill-rule:evenodd;stroke:none"
               id="path830" />
          </g>
          <g
             id="g832"
             transform="translate(369.1924,198.376)">
            <path
               d="M 0,0 C 0.202,-0.25 0.631,-0.439 0.441,-0.778 1.285,-1.29 1.987,-1.123 2.548,-0.278 1.908,0.663 0.865,1.215 0,0"
               style="fill:#1b1716;fill-opacity:1;fill-rule:evenodd;stroke:none"
               id="path834" />
          </g>
          <g
             id="g836"
             transform="translate(364.665,200.7295)">
            <path
               d="m 0,0 c -0.608,0.547 -3.35,0.938 -3.442,-0.341 1.935,-0.216 0.433,-0.861 0.347,-2.031 0.9,-0.01 5.995,-0.488 7.167,-0.216 C 4.533,-1.813 3.985,0.029 0,0"
               style="fill:#1b1716;fill-opacity:1;fill-rule:evenodd;stroke:none"
               id="path838" />
          </g>
          <g
             id="g840"
             transform="translate(358.5361,199.6299)">
            <path
               d="M 0,0 C -0.51,-1.355 1.906,-1.713 2.276,-0.854 1.604,-0.482 1.325,0.295 0,0"
               style="fill:#1b1716;fill-opacity:1;fill-rule:evenodd;stroke:none"
               id="path842" />
          </g>
          <g
             id="g844"
             transform="translate(373.7988,198.9346)">
            <path
               d="m 0,0 c -0.139,-0.938 0.037,-1.558 0.349,-2.036 1.798,0.087 3.263,0.537 3.852,1.957 C 2.8,-0.054 1.398,-0.026 0,0"
               style="fill:#1b1716;fill-opacity:1;fill-rule:evenodd;stroke:none"
               id="path846" />
          </g>
          <g
             id="g848"
             transform="translate(311.2256,195.832)">
            <path
               d="M 0,0 C 1.638,-0.076 2.797,-0.88 3.825,0.332 2.998,1.193 0.35,1.752 0,0"
               style="fill:#1b1716;fill-opacity:1;fill-rule:evenodd;stroke:none"
               id="path850" />
          </g>
          <g
             id="g852"
             transform="translate(171.7007,187.5332)">
            <path
               d="M 0,0 C -0.618,-1.613 3.701,-2.085 3.053,-0.057 2.739,0.786 0.402,0.419 0,0"
               style="fill:#1b1716;fill-opacity:1;fill-rule:evenodd;stroke:none"
               id="path854" />
          </g>
          <g
             id="g856"
             transform="translate(141.6567,190.8096)">
            <path
               d="m 0,0 c 8.007,2.001 -5.745,0.106 -6.957,-0.191 0.134,0.355 4.663,1.412 9.626,2.24 0.85,-0.1 4.136,1.035 7.34,1.381 -1.192,-1 9.213,0.25 9.455,-0.019 C 18.975,2.998 7.742,1.208 0,0 m 5.966,-4.442 c -0.197,0.331 -27.313,-2.941 -0.363,1.226 0.82,0.874 1.699,0.051 2.285,-0.449 C 7.554,-4.259 6.912,-4.52 5.966,-4.442 m 92.53,97.565 c 0.242,4.909 0.721,14.611 0.721,14.611 0,0 9.736,0.199 11.989,-0.229 0.72,-0.854 -0.277,-5.234 0.413,-6.119 -0.153,-4.237 -0.752,-7.982 -0.594,-12.555 -0.202,-1.082 -0.266,-2.965 -0.266,-2.965 0,0 -4.326,0.173 -5.891,0.241 -2.297,-0.527 -5.739,-0.699 -5.739,-0.699 0,0 -0.782,4.71 -0.633,7.715 m 110.376,-79.564 -1.716,42.804 -1.265,7.129 c -0.684,0.22 -0.554,-4.229 -0.382,-8.974 0,0 -0.302,-4.588 -0.245,-10.89 -1.854,0.853 -0.574,19.348 -3.224,19.786 -0.526,0.088 -11.743,6.429 -12.287,6.558 -0.807,0.194 -1.401,0.87 -2.147,1.115 -1.128,0.368 -16.844,8.17 -20.566,11.122 -1.415,0.017 -14.219,6.61 -16.167,7.109 0.001,-0.242 -0.198,-7.17 -0.203,-7.396 -0.074,-2.983 -0.941,-5.18 0.842,-7.123 -0.478,-4.077 -0.289,-8.627 0.171,-13.993 0.094,-1.06 -0.865,-1.882 -0.828,-3.003 0.055,-1.67 -0.019,-2.359 -0.066,-3.94 -0.069,-2.391 -0.443,-5.655 -0.403,-8.141 0.037,-2.348 -0.272,-4.965 -0.118,-7.051 0.215,-2.85 0.563,-3.774 0.139,-7.605 -0.326,-0.991 -0.273,-3.157 -0.961,-3.612 -0.234,-1.316 0.28,-3.842 -1.054,-6.671 l -0.022,-1.067 0.046,-3.074 c -0.232,0.008 -0.462,0.015 -0.698,0.027 -0.22,5.137 -0.41,10.28 -0.547,15.439 -0.988,-0.456 -1.075,1.695 -1.491,0.53 l -0.073,-11.784 c -0.222,-0.955 1.527,0.187 1.055,-1.303 -0.256,-0.809 -0.235,-1.784 -0.22,-2.791 -0.243,0.021 -0.484,0.037 -0.734,0.064 -0.735,0.088 -1.572,0.728 -2.276,0.854 -1.263,0.231 -1.969,-0.12 -3.055,0.058 -0.949,0.87 0.992,1.562 0.042,2.435 -0.913,0.786 -2.488,0.899 -2.631,2.481 -0.277,4.16 0.44,8.357 0.593,12.556 0.082,2.257 -0.363,4.606 -0.265,6.893 0.281,6.584 0.051,13.496 0.716,19.851 0.098,0.944 0.693,1.958 0.811,2.825 0.393,2.885 -0.533,4.211 -0.662,6.091 -0.146,2.153 0.283,4.984 0.123,7.297 -0.121,1.768 0.371,4.734 -2.208,4.903 -1.552,-0.85 -1.19,-2.68 -1.604,-4.429 -0.176,-0.758 -0.673,-0.949 -0.789,-1.603 -0.673,-3.809 -0.512,-8.118 -0.969,-12.144 -0.09,-0.793 -0.665,-1.56 -0.805,-2.416 -0.073,-0.457 0.349,-0.656 0.37,-0.819 0.053,-0.402 -0.391,-0.716 -0.396,-0.806 -0.135,-3.03 0.112,-5.407 -0.137,-8.103 -0.366,-3.987 -0.058,-7.361 -0.197,-11.752 -0.256,-8.062 -0.566,-15.554 -0.389,-23.1 -0.6,-0.994 -1.471,-1.682 -2.706,-1.975 -1.56,-3.515 -8.306,-1.317 -12.634,-1.785 -1.887,-0.936 -3.489,-0.986 -5.363,-1.115 0.522,-2.377 2.945,-0.791 4.567,-0.899 3.79,-0.255 8.474,-0.365 11.439,-1.027 0.978,-0.061 0.588,-1.521 1.112,-2.047 -0.033,-0.741 1.933,-1.409 0.727,-2.043 -10.531,0.444 -19.225,-0.618 -29.409,-0.253 -0.396,1.952 1.481,1.399 1.95,2.398 0.65,0.8 1.058,1.862 2.326,1.979 1.48,0.849 5.042,-0.592 5.371,1.522 -0.637,1.601 -3.683,0.741 -4.546,2.112 -0.21,0.848 -0.78,1.327 -1.112,2.049 1.501,2.476 1.183,6.953 2.454,9.682 -0.361,1.959 -0.761,3.904 -0.285,5.683 -1.906,1.63 -0.715,4.17 -0.657,6.495 0.039,1.484 -0.102,3.533 -0.297,4.872 -0.507,3.458 -1.97,6.628 -3.676,8.582 0.382,3.817 -2.695,6.187 -4.043,9.4 -0.466,1.122 -0.7,2.624 -1.075,4.076 -0.362,1.393 -0.956,3.152 -1.073,4.477 -0.14,1.64 0.209,3.234 0.085,4.866 -0.194,2.531 -3.076,3.822 -4.501,4.948 -1.021,5.193 -6.319,6.006 -7.839,10.688 0.893,2.649 2.558,4.829 3.941,7.223 1.395,2.415 2.515,5.524 4.696,6.804 0.61,-2.033 1.47,-4.019 1.801,-6.523 0.804,-6.107 -0.718,-14.601 1.608,-17.866 4.038,-0.452 6.198,1.159 9.196,1.853 1.647,-0.042 1.374,-2.049 3.02,-2.085 1.649,2.37 3.712,1.058 5.727,-0.107 1.249,1.375 3.255,1.92 3.883,3.977 -0.826,0.581 -0.111,1.15 -0.345,2.034 -0.199,0.75 -0.894,0.985 -1.119,1.642 -0.199,0.591 -0.122,1.249 -0.347,2.035 -0.217,0.752 -0.705,1.37 -0.73,2.043 -0.018,0.46 0.292,2.576 0.437,3.235 0.326,1.487 1.347,2.496 1.596,4.02 -1.235,3.722 2.024,6.55 0.558,10.53 -1.375,1.338 -3.057,2.551 -4.909,3.335 -1.771,0.753 -5.124,0.271 -6.475,0.936 -1.357,0.663 -2.996,0.932 -4.179,1.294 -1.83,0.558 -3.82,0.836 -4.929,2.121 -0.174,1.567 1.237,2.564 1.971,3.612 2.218,3.158 4.325,6.105 7.388,7.966 1.057,0.766 0.7,3.084 2.721,2.786 1.316,0.366 1.931,-1.325 2.263,-1.666 0.293,-0.298 0.808,-0.141 1.14,-0.426 0.964,-0.832 1.704,-2.19 2.624,-2.887 0.462,-0.351 1.402,-0.53 1.895,-0.847 0.163,-0.105 0.183,-0.696 0.368,-0.819 0.316,-0.206 0.943,-0.309 1.139,-0.426 1.221,-0.725 2.63,-1.09 3.781,-2.098 0.976,-2.319 2.7,-3.875 3.717,-6.154 0.866,-0.439 2.299,-0.297 3.041,-0.864 0.367,-1.487 1.295,-2.389 1.458,-4.084 1.991,-1.038 2.393,-4.235 3.347,-5.332 0.3,-0.346 0.437,-0.879 0.744,-1.229 0.3,-0.348 0.437,-0.881 0.741,-1.232 0.303,-0.346 0.439,-0.881 0.745,-1.23 1.751,-2.012 3.468,-4.014 4.859,-6.174 -0.285,-1.884 0.559,-2.613 0.696,-4.065 1.778,-0.537 4.053,-2.351 5.7,-1.728 l 2.525,0.87 -11.34,38.78 -32.447,25.95 L 63.438,122.061 51.012,78.345 53.56,12.333 52.93,4.8 C 52.084,4.846 51.242,4.909 50.42,4.852 47.973,4.676 45.493,3.714 43.146,3.773 42.338,3.79 41.67,4.273 40.862,4.224 39.549,4.135 37.961,3.413 36.648,3.49 c -1.517,0.092 -4.084,0.838 -4.553,1.708 3.949,1.571 9.623,1.247 14.915,1.336 1.107,1.125 2.495,1.937 2.742,4.005 C 47.76,10.326 45.124,10.553 43.255,10.255 42.697,10.169 42.106,9.269 41.721,9.879 37.791,9.44 32.563,8.475 29.511,10.518 27.636,9.935 26.748,9.111 24.535,9.801 23.724,9.041 22.689,8.53 21.454,8.236 20.204,8.283 20.014,9.417 18.414,9.106 17.058,8.726 15.695,8.138 14.194,7.97 13.299,7.872 12.466,8.444 11.528,8.426 11.152,8.42 10.226,8.183 9.614,8.058 8.079,7.744 6.488,7.655 5.401,7.326 4.708,7.115 4.148,6.677 3.477,6.553 0.516,6.011 -1.196,6.467 -3.006,7.079 -4.221,7.042 -4.701,6.193 -6.074,6.329 -7.064,6.508 -7.206,7.558 -8.343,7.584 -10.524,7.002 -12.6,6.621 -14.097,6.072 -15.76,5.467 -16.65,5.728 -18.693,5.352 c -0.753,-0.14 -1.181,-0.678 -1.922,-0.773 -0.895,-0.122 -1.732,0.21 -2.672,0.049 -0.521,-0.09 -1.024,-0.679 -1.54,-0.781 -0.795,-0.163 -1.429,0.197 -2.29,0.043 -0.66,-0.117 -1.311,-0.689 -1.923,-0.776 -1.668,-0.232 -3.372,-0.008 -4.97,-0.31 -0.872,-0.166 -1.692,-0.897 -2.693,-1.165 -1.011,-0.274 -2.299,-0.082 -3.443,-0.34 -0.214,-0.049 -0.789,-0.71 -1.159,-0.786 -0.764,-0.167 -1.628,0.239 -2.289,0.04 -1.128,-0.336 -2.26,-1.58 -3.465,-1.554 -1.016,0.018 -2.035,0.037 -3.053,0.056 -1.209,-0.456 -2.043,-1.329 -3.463,-1.555 -6.208,0.227 -9.146,-3.147 -14.95,-3.365 -0.875,-0.931 -2.276,-1.467 -3.47,-1.96 -2.721,-1.127 -5.277,-2.074 -7.69,-3.1 -1.308,-0.553 -2.75,-1.343 -4.226,-1.541 -2.672,-2.425 -4.788,-5.68 -3.197,-8.332 8.041,-2.395 6.901,-0.833 10.701,0.488 0.892,-0.014 1.783,-0.034 2.674,-0.053 2.127,1.487 4.945,0.848 7.661,1.479 1.062,0.245 1.973,0.966 3.076,1.159 0.957,0.164 2.065,-0.194 3.053,-0.06 1.661,0.224 3.314,1.263 4.99,1.528 0.962,0.153 2.062,-0.164 3.055,-0.057 1.968,0.215 3.863,1.319 5.752,1.513 0.936,0.093 2.076,-0.215 3.055,-0.059 1.886,0.297 3.716,1.219 5.755,1.513 0.963,0.138 2.013,-0.173 3.054,-0.059 1.937,0.215 4.047,1.212 6.134,1.506 1.901,0.265 3.763,-0.03 5.352,0.304 1.129,0.236 2.285,0.976 3.457,1.15 2.242,0.336 4.662,-0.079 6.878,0.274 1.205,0.191 2.277,0.919 3.457,1.153 3.357,0.664 6.691,0.109 9.938,0.621 1.08,0.169 1.934,0.908 3.075,1.157 4.224,0.929 8.88,0.239 13,0.969 1.333,0.236 2.533,0.954 3.838,1.142 3.104,0.453 7.028,-1.027 8.057,2.28 -1.31,-0.431 -4.624,-0.846 -5.337,0.508 -1.415,0.182 -1.025,-1.623 -2.692,-1.168 -0.622,0.695 -2.237,0.366 -3.431,0.473 -1,0.14 -0.326,-1.565 -1.547,-1.186 -3.325,0.101 -4.947,-1.238 -7.246,0.542 0.295,1.289 1.715,0.91 2.692,1.165 4.716,1.229 11.792,0.931 16.451,1.715 2.977,0.502 5.339,0.862 6.905,1.898 2.678,-1.031 5.483,0.526 8.032,0.657 1.099,0.056 1.998,-0.437 3.045,-0.465 2.175,-0.056 4.299,0.979 6.511,1.096 0.146,0.007 0.294,0 0.441,0.003 l -0.275,-3.282 c -0.207,0.007 -0.411,0.019 -0.602,0.042 -0.019,0.246 -0.048,0.479 -0.374,0.413 -0.505,-1.199 -1.919,-0.52 -3.069,-0.751 -0.767,-0.158 -1.187,-1.352 -1.922,-0.777 -1.508,1.226 -4.117,0.919 -4.976,-0.717 1.422,-0.729 3.309,0.171 5.35,0.305 1.712,0.112 3.596,-0.008 5.35,0.03 0.212,-1.195 3.407,-1.424 3.1,0.203 l 3.415,0.347 c 1.573,-0.12 2.848,0.089 4.022,0.408 l 0.905,0.093 c -0.006,-0.013 -0.018,-0.021 -0.024,-0.034 1.411,-0.725 3.283,0.169 5.31,0.302 3.411,0.221 7.515,-0.485 9.871,1.02 -0.109,0.089 -0.241,0.156 -0.378,0.215 l 6.285,0.639 c 0.878,0.037 1.761,0.07 2.68,0.063 0.071,0.093 0.16,0.15 0.235,0.234 l 29.15,2.963 c 1.014,0.039 1.966,0.11 2.75,0.249 0.057,0.009 0.114,0.032 0.172,0.048 l 3.812,0.388 c 2.108,-0.46 4.167,-0.549 6.337,0.178 0.72,-0.594 1.642,-0.975 2.653,-1.269 3.546,1.127 8.077,0.439 11.078,0.197 4.923,-0.398 10.092,0.707 14.144,0.946 3.073,0.182 6.115,-0.394 8.421,1.056 -2.048,-0.327 -4.406,0.025 -6.491,0.124 -2.376,0.114 -4.948,-0.665 -6.47,1.339 7.146,2.659 15.855,0.366 25.217,0.74 1.647,-0.027 1.44,1.992 3.088,1.966 0.85,-1.98 3.235,-0.271 4.173,-1.701 1.413,0.094 1.404,1.758 3.455,1.151 1.672,-0.412 2.594,-1.59 4.943,-1.309 1.619,-0.27 0.773,2.172 2.699,1.569 1.368,0.606 0.208,-1.38 1.126,-1.236 -0.192,-1.127 2.085,0.277 1.894,-0.849 1.569,-0.076 1.301,1.87 2.707,1.975 0.894,-0.143 0.832,-1.27 1.5,-1.648 1.329,0.301 1.456,-0.632 2.665,-0.456 1.376,-0.136 1.06,1.585 2.316,1.579 1.451,-0.221 3.518,-0.707 3.825,0.334 -1.076,0.483 -3.027,6.179 -3.923,4.084"
               style="fill:#1b1716;fill-opacity:1;fill-rule:evenodd;stroke:none"
               id="path858" />
          </g>
          <g
             id="g860"
             transform="translate(58.2422,385.4751)">
            <path
               d="m 0,0 -5.565,24.924 h -0.221 c 0.254,-1.922 0.381,-3.683 0.381,-5.285 V 0 h -5.045 v 29.269 h 8.368 L 2.923,6.266 h 0.16 l 4.965,23.003 h 8.488 V 0 h -5.165 v 19.839 c 0,1.642 0.093,3.324 0.28,5.045 h -0.16 L 5.946,0 Z"
               style="fill:#ffffff;fill-opacity:1;fill-rule:nonzero;stroke:none"
               id="path862" />
          </g>
          <g
             id="g864"
             transform="translate(123.894,397.687)">
            <path
               d="M 0,0 -1.562,6.807 C -1.655,7.22 -1.865,8.258 -2.192,9.92 -2.52,11.581 -2.716,12.692 -2.783,13.253 -2.957,12.105 -3.177,10.841 -3.443,9.459 -3.71,8.078 -4.404,4.925 -5.525,0 Z m 2.703,-12.212 -1.682,7.387 h -7.627 l -1.682,-7.387 h -5.445 l 7.247,29.389 h 7.387 l 7.267,-29.389 z"
               style="fill:#ffffff;fill-opacity:1;fill-rule:nonzero;stroke:none"
               id="path866" />
          </g>
          <g
             id="g868"
             transform="translate(180.4775,400.2295)">
            <path
               d="m 0,0 c 0,6.54 -1.802,9.81 -5.405,9.81 h -2.182 v -19.8 h 1.761 c 1.989,0 3.457,0.831 4.405,2.492 C -0.474,-5.835 0,-3.337 0,0 m 5.585,0.16 c 0,-4.831 -0.984,-8.525 -2.952,-11.08 -1.969,-2.557 -4.802,-3.834 -8.499,-3.834 h -7.167 v 29.268 h 7.828 c 3.403,0 6.052,-1.258 7.948,-3.773 C 4.638,8.225 5.585,4.698 5.585,0.16"
               style="fill:#ffffff;fill-opacity:1;fill-rule:nonzero;stroke:none"
               id="path870" />
          </g>
          <g
             id="g872"
             transform="translate(236.3203,385.4751)">
            <path
               d="M 0,0 H -13.193 V 29.269 H 0 v -4.705 h -7.748 v -6.967 h 7.187 V 12.873 H -7.748 V 4.765 H 0 Z"
               style="fill:#ffffff;fill-opacity:1;fill-rule:nonzero;stroke:none"
               id="path874" />
          </g>
          <g
             id="g876"
             transform="translate(327.4648,397.687)">
            <path
               d="M 0,0 -1.562,6.807 C -1.655,7.22 -1.865,8.258 -2.192,9.92 -2.52,11.581 -2.717,12.692 -2.783,13.253 -2.957,12.105 -3.177,10.841 -3.443,9.459 -3.711,8.078 -4.404,4.925 -5.525,0 Z m 2.703,-12.212 -1.682,7.387 h -7.627 l -1.682,-7.387 h -5.445 l 7.247,29.389 H 0.9 l 7.268,-29.389 z"
               style="fill:#ffffff;fill-opacity:1;fill-rule:nonzero;stroke:none"
               id="path878" />
          </g>
          <g
             id="g880"
             transform="translate(378.6025,385.4751)">
            <path
               d="m 0,0 h -5.425 v 24.484 h -5.605 v 4.785 H 5.605 V 24.484 H 0 Z"
               style="fill:#ffffff;fill-opacity:1;fill-rule:nonzero;stroke:none"
               id="path882" />
          </g>
        </g>
      </g>
    </g>
  </g>
</svg>
