0
SECTION
2
HEADER
9
$INSUNITS
70
1
9
$ACADVER
1
AC1014
9
$HANDSEED
5
FFFF
0
ENDSEC
0
SECTION
2
TABLES
0
TABLE
2
VPORT
5
8
100
AcDbSymbolTable
0
ENDTAB
0
TABLE
2
LTYPE
5
5
100
AcDbSymbolTable
0
LTYPE
5
14
100
AcDbSymbolTableRecord
100
AcDbLinetypeTableRecord
2
BYBLOCK
70
0
0
LTYPE
5
15
100
AcDbSymbolTableRecord
100
AcDbLinetypeTableRecord
2
BYLAYER
70
0
0
ENDTAB
0
TABLE
2
LAYER
5
2
100
AcDbSymbolTable
70
2
0
LAYER
5
50
100
AcDbSymbolTableRecord
100
AcDbLayerTableRecord
2
0
70
0
6
CONTINUOUS
0
ENDTAB
0
TABLE
2
STYLE
5
3
100
AcDbSymbolTable
70
1
0
STYLE
5
11
100
AcDbSymbolTableRecord
100
AcDbTextStyleTableRecord
2
STANDARD
70
0
0
ENDTAB
0
TABLE
2
VIEW
5
6
100
AcDbSymbolTable
70
0
0
ENDTAB
0
TABLE
2
UCS
5
7
100
AcDbSymbolTable
70
0
0
ENDTAB
0
TABLE
2
APPID
5
9
100
AcDbSymbolTable
70
2
0
APPID
5
12
100
AcDbSymbolTableRecord
100
AcDbRegAppTableRecord
2
ACAD
70
0
0
ENDTAB
0
TABLE
2
DIMSTYLE
5
A
100
AcDbSymbolTable
70
1
0
ENDTAB
0
TABLE
2
BLOCK_RECORD
5
1
100
AcDbSymbolTable
70
1
0
BLOCK_RECORD
5
1F
100
AcDbSymbolTableRecord
100
AcDbBlockTableRecord
2
*MODEL_SPACE
0
BLOCK_RECORD
5
1B
100
AcDbSymbolTableRecord
100
AcDbBlockTableRecord
2
*PAPER_SPACE
0
ENDTAB
0
ENDSEC
0
SECTION
2
BLOCKS
0
BLOCK
5
20
100
AcDbEntity
100
AcDbBlockBegin
2
*MODEL_SPACE
0
ENDBLK
5
21
100
AcDbEntity
100
AcDbBlockEnd
0
BLOCK
5
1C
100
AcDbEntity
100
AcDbBlockBegin
2
*PAPER_SPACE
0
ENDBLK
5
1D
100
AcDbEntity
100
AcDbBlockEnd
0
ENDSEC
0
SECTION
2
ENTITIES
0
LWPOLYLINE
5
100
100
AcDbEntity
8
0
100
AcDbPolyline
90
2
70
1
43
0.0
10
-0.85849508659519569
20
-0.15055215143740885
10
-0.85849508659519569
20
-0.30685623430729025
0
LWPOLYLINE
5
101
100
AcDbEntity
8
0
100
AcDbPolyline
90
24
70
1
43
0.0
10
1.1038133131196861
20
0.12961999019128079
10
1.0807970946410583
20
0.12961999019128079
10
-1.1187160819990756
20
0.12961999019128051
10
-1.1417323004777034
20
0.12961999019128051
10
-1.1301395524390792
20
0.18534064442325815
10
-1.1155840114890083
20
0.18534064442325782
10
-1.0908038910456725
20
0.29268028010234742
10
-1.1129195328011356
20
0.37065472044998304
10
-0.91894169178569529
20
0.37065472044998315
10
-0.91894169178569529
20
0.29268028010234737
10
-0.7593000084382322
20
0.29268028010234748
10
-0.74681865545229165
20
0.18534064442325818
10
-0.23143948325940569
20
0.18534064442325834
10
-0.21832919505442713
20
0.38334746538332082
10
0.18041020769640967
20
0.38334746538332087
10
0.19352049590138834
20
0.1853406444232584
10
0.70889966809427474
20
0.18534064442325834
10
0.72138102108021485
20
0.29268028010234765
10
0.88102270442767805
20
0.29268028010234759
10
0.88102270442767805
20
0.37065472044998338
10
1.0750005454431182
20
0.37065472044998332
10
1.0528849036876555
20
0.2926802801023477
10
1.0776650241309911
20
0.18534064442325807
10
1.0922205650810619
20
0.1853406444232584
0
LWPOLYLINE
5
102
100
AcDbEntity
8
0
100
AcDbPolyline
90
4
70
1
43
0.0
10
-0.40942390076282154
20
-0.15055215143740869
10
-0.40942390076282154
20
-0.30685623430729009
10
-0.24268036923767677
20
-0.30685623430729009
10
-0.24268036923767683
20
-0.15055215143740869
0
LWPOLYLINE
5
103
100
AcDbEntity
8
0
100
AcDbPolyline
90
4
70
1
43
0.0
10
0.48150491340480439
20
-0.056856234307290011
10
0.31476138187965952
20
-0.056856234307290025
10
0.31476138187965952
20
0.099447848562591479
10
0.48150491340480439
20
0.099447848562591507
0
LWPOLYLINE
5
104
100
AcDbEntity
8
0
100
AcDbPolyline
90
2
70
1
43
0.0
10
0.71476138187965943
20
0.09944784856259152
10
0.71476138187965943
20
-0.056856234307289914
0
LINE
5
105
100
AcDbEntity
8
0
100
AcDbLine
10
0.94557949560407462
20
-0.056856234307289873
30
0
11
0.90949558331206226
21
0.099447848562591562
31
0
0
LINE
5
106
100
AcDbEntity
8
0
100
AcDbLine
10
1.0807970946410583
20
0.12961999019128079
30
0
11
1.0920594385462286
21
0.0602273952940642
31
0
0
LWPOLYLINE
5
107
100
AcDbEntity
8
0
100
AcDbPolyline
90
4
70
1
43
0.0
10
0.51476138187965959
20
0.099447848562591507
10
0.51476138187965959
20
-0.056856234307290004
10
0.68150491340480424
20
-0.056856234307289914
10
0.68150491340480424
20
0.09944784856259152
0
LWPOLYLINE
5
108
100
AcDbEntity
8
0
100
AcDbPolyline
90
4
70
1
43
0.0
10
0.00057609923717841162
20
-0.15055215143740866
10
0.16731963076232315
20
-0.15055215143740863
10
0.16731963076232317
20
-0.30685623430729003
10
0.00057609923717843081
20
-0.30685623430729003
0
LINE
5
109
100
AcDbEntity
8
0
100
AcDbLine
10
-0.038141558388545639
20
-0.15055215143740866
30
0
11
-0.038141558388545618
21
-0.30685623430729003
31
0
0
LINE
5
110
100
AcDbEntity
8
0
100
AcDbLine
10
-1.0252386181203403
20
-0.15055215143740888
30
0
11
-1.0252386181203403
21
-0.30685623430729031
31
0
0
LWPOLYLINE
5
111
100
AcDbEntity
8
0
100
AcDbPolyline
90
4
70
1
43
0.0
10
-0.2044239007628216
20
-0.30685623430729009
10
-0.20442390076282166
20
-0.15055215143740869
10
-0.037680369237676849
20
-0.15055215143740866
10
-0.037680369237676821
20
-0.30685623430729003
0
LINE
5
112
100
AcDbEntity
8
0
100
AcDbLine
10
1.0920594385462286
20
0.0602273952940642
30
0
11
1.1182505245896133
21
0.060227395294064547
31
0
0
LWPOLYLINE
5
113
100
AcDbEntity
8
0
100
AcDbPolyline
90
4
70
1
43
0.0
10
0.98731963076232321
20
-0.15055215143740852
10
0.98731963076232321
20
-0.30685623430728992
10
0.82057609923717845
20
-0.30685623430728998
10
0.82057609923717845
20
-0.15055215143740855
0
LINE
5
114
100
AcDbEntity
8
0
100
AcDbLine
10
1.316882150401133
20
-0.063437156270153561
30
0
11
1.316882150401133
21
-0.1066004857696234
31
0
0
LWPOLYLINE
5
115
100
AcDbEntity
8
0
100
AcDbPolyline
90
2
70
1
43
0.0
10
-0.75268036923767678
20
0.099447848562591284
10
-0.75268036923767678
20
-0.056856234307290157
0
LWPOLYLINE
5
116
100
AcDbEntity
8
0
100
AcDbPolyline
90
12
70
1
43
0.0
10
1.3626869596444635
20
-0.36066391855325763
10
1.4274835659317651
20
-0.36066391855325763
10
1.4274835659317651
20
-0.42156112038416232
10
1.4778290667244511
20
-0.42156112038416232
10
1.4778290667244511
20
-0.60526927615057791
10
1.4274835659317653
20
-0.74359240274961802
10
-1.4654025532897821
20
-0.74359240274961835
10
-1.5157480540824684
20
-0.60526927615057813
10
-1.5157480540824684
20
-0.42156112038416266
10
-1.4654025532897821
20
-0.42156112038416266
10
-1.4654025532897821
20
-0.36066391855325802
10
-1.4006059470024808
20
-0.36066391855325802
0
LWPOLYLINE
5
117
100
AcDbEntity
8
0
100
AcDbPolyline
90
4
70
1
43
0.0
10
-0.71942390076282159
20
-0.056856234307290157
10
-0.55268036923767672
20
-0.056856234307290136
10
-0.55268036923767672
20
0.099447848562591312
10
-0.71942390076282159
20
0.099447848562591284
0
LINE
5
118
100
AcDbEntity
8
0
100
AcDbLine
10
-1.4654025532897821
20
-0.42156112038416266
30
0
11
1.4274835659317651
21
-0.42156112038416232
31
0
0
LINE
5
119
100
AcDbEntity
8
0
100
AcDbLine
10
1.1182505245896133
20
0.060227395294064547
30
0
11
1.1467993682944126
21
-0.063437156270153588
31
0
0
LINE
5
120
100
AcDbEntity
8
0
100
AcDbLine
10
1.316882150401133
20
-0.1066004857696234
30
0
11
1.3274721251321735
21
-0.15247290322134591
31
0
0
LINE
5
121
100
AcDbEntity
8
0
100
AcDbLine
10
-1.1155840114890083
20
0.18534064442325782
30
0
11
1.0776650241309911
21
0.18534064442325807
31
0
0
LINE
5
122
100
AcDbEntity
8
0
100
AcDbLine
10
0.51522257103052838
20
0.099447848562591507
30
0
11
0.51522257103052838
21
-0.056856234307290004
31
0
0
LINE
5
123
100
AcDbEntity
8
0
100
AcDbLine
10
1.1467993682944126
20
-0.063437156270153588
30
0
11
1.316882150401133
21
-0.063437156270153561
31
0
0
LINE
5
124
100
AcDbEntity
8
0
100
AcDbLine
10
0.71476138187965943
20
-0.056856234307289914
30
0
11
0.94557949560407462
21
-0.056856234307289873
31
0
0
LWPOLYLINE
5
125
100
AcDbEntity
8
0
100
AcDbPolyline
90
4
70
1
43
0.0
10
0.28150491340480432
20
0.099447848562591479
10
0.28150491340480432
20
-0.056856234307290032
10
0.11476138187965955
20
-0.056856234307290067
10
0.11476138187965952
20
0.099447848562591409
0
LWPOLYLINE
5
126
100
AcDbEntity
8
0
100
AcDbPolyline
90
4
70
1
43
0.0
10
-0.51942390076282163
20
0.099447848562591312
10
-0.35268036923767687
20
0.099447848562591326
10
-0.35268036923767687
20
-0.056856234307290109
10
-0.51942390076282163
20
-0.056856234307290136
0
LWPOLYLINE
5
127
100
AcDbEntity
8
0
100
AcDbPolyline
90
6
70
1
43
0.0
10
0.081504913404804341
20
0.099447848562591395
10
-0.01895949367900867
20
0.099447848562591395
10
-0.11942390076282169
20
0.099447848562591354
10
-0.11942390076282167
20
-0.056856234307290081
10
-0.018959493679008649
20
-0.056856234307290046
10
0.081504913404804369
20
-0.056856234307290046
0
LINE
5
128
100
AcDbEntity
8
0
100
AcDbLine
10
-1.365391112490191
20
-0.15247290322134624
30
0
11
-1.3548011377591502
21
-0.10660048576962373
31
0
0
LINE
5
129
100
AcDbEntity
8
0
100
AcDbLine
10
0.68150491340480424
20
0.09944784856259152
30
0
11
0.68150491340480424
21
-0.056856234307289914
31
0
0
LINE
5
130
100
AcDbEntity
8
0
100
AcDbLine
10
-0.44814155838854558
20
-0.15055215143740872
30
0
11
-0.44814155838854558
21
-0.30685623430729009
31
0
0
LINE
5
131
100
AcDbEntity
8
0
100
AcDbLine
10
-0.65314155838854548
20
-0.15055215143740874
30
0
11
-0.65314155838854548
21
-0.30685623430729014
31
0
0
LWPOLYLINE
5
132
100
AcDbEntity
8
0
100
AcDbPolyline
90
4
70
1
43
0.0
10
-0.61442390076282161
20
-0.30685623430729014
10
-0.44768036923767679
20
-0.30685623430729009
10
-0.44768036923767679
20
-0.15055215143740872
10
-0.61442390076282161
20
-0.15055215143740872
0
LWPOLYLINE
5
133
100
AcDbEntity
8
0
100
AcDbPolyline
90
4
70
1
43
0.0
10
0.20557609923717843
20
-0.15055215143740863
10
0.37231963076232316
20
-0.1505521514374086
10
0.37231963076232322
20
-0.30685623430729003
10
0.20557609923717848
20
-0.30685623430729003
0
LINE
5
134
100
AcDbEntity
8
0
100
AcDbLine
10
-0.40942390076282154
20
-0.30685623430729009
30
0
11
-0.40942390076282154
21
-0.15055215143740869
31
0
0
LWPOLYLINE
5
135
100
AcDbEntity
8
0
100
AcDbPolyline
90
4
70
1
43
0.0
10
-0.31942390076282168
20
0.099447848562591326
10
-0.31942390076282168
20
-0.056856234307290109
10
-0.15268036923767683
20
-0.056856234307290088
10
-0.15268036923767686
20
0.099447848562591354
0
LINE
5
136
100
AcDbEntity
8
0
100
AcDbLine
10
0.90949558331206226
20
0.099447848562591562
30
0
11
0.71476138187965943
21
0.09944784856259152
31
0
0
LINE
5
137
100
AcDbEntity
8
0
100
AcDbLine
10
-1.1847183556524299
20
-0.063437156270153866
30
0
11
-1.1561695119476307
21
0.060227395294064276
31
0
0
LINE
5
138
100
AcDbEntity
8
0
100
AcDbLine
10
-0.20442390076282166
20
-0.15055215143740869
30
0
11
-0.2044239007628216
21
-0.30685623430729009
31
0
0
LINE
5
139
100
AcDbEntity
8
0
100
AcDbLine
10
-1.3548011377591502
20
-0.10660048576962373
30
0
11
-1.3548011377591502
21
-0.063437156270153894
31
0
0
LINE
5
140
100
AcDbEntity
8
0
100
AcDbLine
10
0.16685844161145438
20
-0.15055215143740863
30
0
11
0.16685844161145441
21
-0.30685623430729003
31
0
0
LINE
5
141
100
AcDbEntity
8
0
100
AcDbLine
10
-1.3548011377591502
20
-0.063437156270153894
30
0
11
-1.1847183556524299
21
-0.063437156270153866
31
0
0
LINE
5
142
100
AcDbEntity
8
0
100
AcDbLine
10
0.82057609923717845
20
-0.15055215143740855
30
0
11
0.82057609923717845
21
-0.30685623430728998
31
0
0
LINE
5
143
100
AcDbEntity
8
0
100
AcDbLine
10
-1.1299784259042458
20
0.060227395294063922
30
0
11
-1.1187160819990756
21
0.12961999019128051
31
0
0
LINE
5
144
100
AcDbEntity
8
0
100
AcDbLine
10
-1.3548011377591502
20
-0.16225198799899987
30
0
11
-1.365391112490191
21
-0.15247290322134624
31
0
0
LINE
5
145
100
AcDbEntity
8
0
100
AcDbLine
10
-1.1561695119476307
20
0.060227395294064276
30
0
11
-1.1299784259042458
21
0.060227395294063922
31
0
0
LINE
5
146
100
AcDbEntity
8
0
100
AcDbLine
10
1.3274721251321735
20
-0.15247290322134591
30
0
11
1.316882150401133
21
-0.16225198799899954
31
0
0
LINE
5
147
100
AcDbEntity
8
0
100
AcDbLine
10
-0.85849508659519569
20
-0.15055215143740885
30
0
11
-1.0252386181203403
21
-0.15055215143740888
31
0
0
LINE
5
148
100
AcDbEntity
8
0
100
AcDbLine
10
-0.018959493679008715
20
0.38334746538332087
30
0
11
-0.018959493679008538
21
-0.74359240274961824
31
0
0
LINE
5
149
100
AcDbEntity
8
0
100
AcDbLine
10
-0.24314155838854556
20
-0.15055215143740869
30
0
11
-0.24314155838854554
21
-0.30685623430729009
31
0
0
LINE
5
150
100
AcDbEntity
8
0
100
AcDbLine
10
-1.0247774289694715
20
-0.15055215143740888
30
0
11
-1.0247774289694715
21
-0.30685623430729031
31
0
0
LINE
5
151
100
AcDbEntity
8
0
100
AcDbLine
10
-0.75268036923767678
20
-0.056856234307290157
30
0
11
-0.98349848296209164
21
-0.056856234307290185
31
0
0
LINE
5
152
100
AcDbEntity
8
0
100
AcDbLine
10
-0.98349848296209164
20
-0.056856234307290185
30
0
11
-0.9474145706700795
21
0.099447848562591257
31
0
0
LWPOLYLINE
5
153
100
AcDbEntity
8
0
100
AcDbPolyline
90
4
70
1
43
0.0
10
-0.65268036923767669
20
-0.15055215143740874
10
-0.65268036923767669
20
-0.30685623430729014
10
-0.81942390076282146
20
-0.30685623430729014
10
-0.81942390076282146
20
-0.15055215143740877
0
LINE
5
154
100
AcDbEntity
8
0
100
AcDbLine
10
-0.71942390076282159
20
0.099447848562591284
30
0
11
-0.71942390076282159
21
-0.056856234307290157
31
0
0
LINE
5
155
100
AcDbEntity
8
0
100
AcDbLine
10
0.37185844161145437
20
-0.1505521514374086
30
0
11
0.37185844161145443
21
-0.30685623430729003
31
0
0
LINE
5
156
100
AcDbEntity
8
0
100
AcDbLine
10
-0.55314155838854551
20
0.099447848562591312
30
0
11
-0.55314155838854551
21
-0.056856234307290136
31
0
0
LWPOLYLINE
5
157
100
AcDbEntity
8
0
100
AcDbPolyline
90
2
70
1
43
0.0
10
0.61557609923717838
20
-0.30685623430728998
10
0.61557609923717838
20
-0.15055215143740858
0
LINE
5
158
100
AcDbEntity
8
0
100
AcDbLine
10
0.78231963076232292
20
-0.15055215143740858
30
0
11
0.78231963076232292
21
-0.30685623430728998
31
0
0
LINE
5
159
100
AcDbEntity
8
0
100
AcDbLine
10
-0.61442390076282161
20
-0.15055215143740872
30
0
11
-0.61442390076282161
21
-0.30685623430729014
31
0
0
LINE
5
160
100
AcDbEntity
8
0
100
AcDbLine
10
-0.81942390076282146
20
-0.30685623430729014
30
0
11
-0.81942390076282146
21
-0.15055215143740877
31
0
0
LINE
5
161
100
AcDbEntity
8
0
100
AcDbLine
10
-0.85849508659519569
20
-0.30685623430729025
30
0
11
-1.0252386181203403
21
-0.30685623430729031
31
0
0
LWPOLYLINE
5
162
100
AcDbEntity
8
0
100
AcDbPolyline
90
4
70
1
43
0.0
10
0.57731963076232307
20
-0.15055215143740858
10
0.57731963076232307
20
-0.30685623430728998
10
0.4105760992371783
20
-0.30685623430729003
10
0.4105760992371783
20
-0.1505521514374086
0
LINE
5
163
100
AcDbEntity
8
0
100
AcDbLine
10
0.00057609923717841162
20
-0.15055215143740866
30
0
11
0.00057609923717843081
21
-0.30685623430729003
31
0
0
LINE
5
164
100
AcDbEntity
8
0
100
AcDbLine
10
0.98685844161145442
20
-0.15055215143740852
30
0
11
0.98685844161145442
21
-0.30685623430728992
31
0
0
LINE
5
165
100
AcDbEntity
8
0
100
AcDbLine
10
0.4105760992371783
20
-0.1505521514374086
30
0
11
0.4105760992371783
21
-0.30685623430729003
31
0
0
LINE
5
166
100
AcDbEntity
8
0
100
AcDbLine
10
0.57685844161145428
20
-0.15055215143740858
30
0
11
0.57685844161145428
21
-0.30685623430728998
31
0
0
LINE
5
167
100
AcDbEntity
8
0
100
AcDbLine
10
0.78185844161145424
20
-0.15055215143740858
30
0
11
0.78185844161145424
21
-0.30685623430728998
31
0
0
LINE
5
168
100
AcDbEntity
8
0
100
AcDbLine
10
0.20557609923717848
20
-0.30685623430729003
30
0
11
0.20557609923717843
21
-0.15055215143740863
31
0
0
LINE
5
169
100
AcDbEntity
8
0
100
AcDbLine
10
1.316882150401133
20
-0.16225198799899954
30
0
11
1.3626869596444635
21
-0.36066391855325763
31
0
0
LINE
5
170
100
AcDbEntity
8
0
100
AcDbLine
10
0.61557609923717838
20
-0.30685623430728998
30
0
11
0.78231963076232292
21
-0.30685623430728998
31
0
0
LINE
5
171
100
AcDbEntity
8
0
100
AcDbLine
10
0.61557609923717838
20
-0.15055215143740858
30
0
11
0.78231963076232292
21
-0.15055215143740858
31
0
0
LINE
5
172
100
AcDbEntity
8
0
100
AcDbLine
10
-1.4006059470024808
20
-0.36066391855325802
30
0
11
-1.3548011377591502
21
-0.16225198799899987
31
0
0
LINE
5
173
100
AcDbEntity
8
0
100
AcDbLine
10
-0.9474145706700795
20
0.099447848562591257
30
0
11
-0.75268036923767678
21
0.099447848562591284
31
0
0
ENDSEC
0
SECTION
2
OBJECTS
0
DICTIONARY
5
C
100
AcDbDictionary
3
ACAD_GROUP
350
D
3
ACAD_MLINESTYLE
350
17
0
DICTIONARY
5
D
100
AcDbDictionary
0
DICTIONARY
5
1A
330
C
100
AcDbDictionary
0
DICTIONARY
5
17
100
AcDbDictionary
0
ENDSEC
0
EOF
