<?xml version="1.0" encoding="UTF-8" standalone="no"?>
<svg
   xmlns:dc="http://purl.org/dc/elements/1.1/"
   xmlns:cc="http://creativecommons.org/ns#"
   xmlns:rdf="http://www.w3.org/1999/02/22-rdf-syntax-ns#"
   xmlns:svg="http://www.w3.org/2000/svg"
   xmlns="http://www.w3.org/2000/svg"
   xmlns:sodipodi="http://sodipodi.sourceforge.net/DTD/sodipodi-0.dtd"
   xmlns:inkscape="http://www.inkscape.org/namespaces/inkscape"
   viewBox="0 0 1105.0241 1056"
   version="1.1"
   id="svg46"
   sodipodi:docname="Asset 2.svg"
   width="11.510668in"
   height="11in"
   inkscape:version="1.0.1 (3bc2e813f5, 2020-09-07)">
  <metadata
     id="metadata50">
    <rdf:RDF>
      <cc:Work
         rdf:about="">
        <dc:format>image/svg+xml</dc:format>
        <dc:type
           rdf:resource="http://purl.org/dc/dcmitype/StillImage" />
        <dc:title></dc:title>
      </cc:Work>
    </rdf:RDF>
  </metadata>
  <sodipodi:namedview
     pagecolor="#ffffff"
     bordercolor="#666666"
     borderopacity="1"
     objecttolerance="10"
     gridtolerance="10"
     guidetolerance="10"
     inkscape:pageopacity="0"
     inkscape:pageshadow="2"
     inkscape:window-width="1920"
     inkscape:window-height="986"
     id="namedview48"
     showgrid="true"
     inkscape:document-units="in"
     units="in"
     fit-margin-top="0"
     fit-margin-left="0"
     fit-margin-right="0"
     fit-margin-bottom="0"
     inkscape:zoom="1.025641"
     inkscape:cx="610.77048"
     inkscape:cy="541.29755"
     inkscape:window-x="-11"
     inkscape:window-y="-11"
     inkscape:window-maximized="1"
     inkscape:current-layer="svg46">
    <inkscape:grid
       type="xygrid"
       id="grid894" />
  </sodipodi:namedview>
  <defs
     id="defs39">
    <style
       id="style37">.cls-1{fill:none;stroke:#901e1e;stroke-miterlimit:10;}</style>
  </defs>
  <g
     id="Layer_2"
     data-name="Layer 2"
     transform="matrix(5.4156082,0,0,5.4156082,-0.01888983,-0.04456659)">
    <g
       id="Layer_1-2"
       data-name="Layer 1">
      <g
         id="Layer_6"
         data-name="Layer 6">
        <path
           class="cls-1"
           d="m 94.08,7.31 c 25.1,20.4 11.4,40 82,30.3 a 30.25,30.25 0 0 1 5.2,-0.3 c 32.3,1.7 26.9,46.6 0.2,57.9 a 35,35 0 0 1 -4.6,1.4 c -50,11.5 -42.2,51.1 -65.4,86.2 -25.5,34.8 -53.8,-17.1 -66,-38.8 a 33.82,33.82 0 0 0 -7.3,-8.7 C -27.72,81.41 0.68,29.51 63,2.91 a 30.53,30.53 0 0 1 31.08,4.4 z"
           id="path41" />
      </g>
    </g>
  </g>
  <circle
     style="fill:none;stroke:#000000;stroke-width:0.649721"
     id="path54"
     cx="130.88818"
     cy="529.03619"
     r="12.155139" />
  <circle
     style="fill:none;stroke:#000000;stroke-width:0.649721"
     id="path54-8"
     cx="796.9671"
     cy="544.65558"
     r="12.155139" />
</svg>
