<?xml version="1.0" encoding="UTF-8" standalone="no"?>
<svg
   xmlns:dc="http://purl.org/dc/elements/1.1/"
   xmlns:cc="http://creativecommons.org/ns#"
   xmlns:rdf="http://www.w3.org/1999/02/22-rdf-syntax-ns#"
   xmlns:svg="http://www.w3.org/2000/svg"
   xmlns="http://www.w3.org/2000/svg"
   xmlns:sodipodi="http://sodipodi.sourceforge.net/DTD/sodipodi-0.dtd"
   xmlns:inkscape="http://www.inkscape.org/namespaces/inkscape"
   version="1.1"
   id="svg101"
   width="11.458334in"
   height="10.884387in"
   viewBox="0 0 1100.0001 1044.9012"
   sodipodi:docname="new 2.svg"
   inkscape:version="1.0.1 (3bc2e813f5, 2020-09-07)">
  <metadata
     id="metadata107">
    <rdf:RDF>
      <cc:Work
         rdf:about="">
        <dc:format>image/svg+xml</dc:format>
        <dc:type
           rdf:resource="http://purl.org/dc/dcmitype/StillImage" />
        <dc:title></dc:title>
      </cc:Work>
    </rdf:RDF>
  </metadata>
  <defs
     id="defs105" />
  <sodipodi:namedview
     pagecolor="#ffffff"
     bordercolor="#666666"
     borderopacity="1"
     objecttolerance="10"
     gridtolerance="10"
     guidetolerance="10"
     inkscape:pageopacity="0"
     inkscape:pageshadow="2"
     inkscape:window-width="1920"
     inkscape:window-height="986"
     id="namedview103"
     showgrid="false"
     inkscape:document-units="in"
     units="in"
     fit-margin-top="0"
     fit-margin-left="0"
     fit-margin-right="0"
     fit-margin-bottom="0"
     inkscape:zoom="0.75757576"
     inkscape:cx="419.32667"
     inkscape:cy="525.52776"
     inkscape:window-x="-11"
     inkscape:window-y="-11"
     inkscape:window-maximized="1"
     inkscape:current-layer="g109" />
  <g
     inkscape:groupmode="layer"
     inkscape:label="Image"
     id="g109"
     transform="translate(-419.09333,-2.4722366)">
    <path
       style="fill:none;stroke:#000000;stroke-width:1.33333;stroke-opacity:1"
       d="m 901.6358,1045.5743 c 0.88587,-1.4334 -3.81812,-3.7819 -9.8758,-4.9306 -7.53856,-1.4296 -34.4302,-14.1728 -40.07089,-18.9886 -5.15936,-4.4048 -12.41188,-9.6151 -13.38378,-9.6151 -3.25456,0 -53.93018,-51.08501 -55.68169,-56.13153 -0.25833,-0.74432 -1.75833,-2.76642 -3.33333,-4.49355 -1.575,-1.72712 -4.06364,-4.74253 -5.53031,-6.70091 -1.46667,-1.95837 -3.69956,-4.86118 -4.96199,-6.45068 -6.12305,-7.70941 -13.06708,-17.20054 -19.67361,-26.89 -4.00005,-5.86666 -7.75188,-11.26666 -8.3374,-12 -2.74964,-3.44384 -7.69367,-11.57904 -7.69367,-12.65962 0,-0.66432 -0.8187,-1.68768 -1.81936,-2.27412 -1.00065,-0.58644 -2.81889,-2.86626 -4.04054,-5.06626 -1.22166,-2.2 -3.39634,-5.8 -4.83263,-8 -1.43629,-2.2 -3.00677,-4.9 -3.48996,-6 -0.48319,-1.1 -2.19007,-3.8 -3.79305,-6 -1.603,-2.2 -4.63546,-7 -6.73882,-10.66666 -2.10334,-3.66667 -4.15308,-6.96667 -4.55496,-7.33334 -0.40186,-0.36666 -1.81092,-2.76666 -3.1312,-5.33333 -4.89166,-9.50951 -6.76429,-12.68861 -8.49153,-14.41585 -0.97383,-0.97384 -2.13656,-3.22867 -2.58383,-5.01072 -0.44726,-1.78206 -1.28312,-3.2401 -1.85745,-3.2401 -0.57433,0 -1.41019,-1.45804 -1.85745,-3.24009 -0.44727,-1.78205 -1.66774,-4.09461 -2.71214,-5.13901 -1.0444,-1.0444 -2.8478,-3.93636 -4.00754,-6.42658 -1.15976,-2.4902 -3.56691,-6.92765 -5.34923,-9.86098 -5.799,-9.544 -8.59688,-14.59948 -10.14631,-18.33334 -0.83684,-2.01666 -2.0188,-3.66666 -2.62657,-3.66666 -0.60779,0 -2.92108,-3.15 -5.14065,-7 -5.01566,-8.69995 -18.62623,-22.97744 -33.4598,-35.09932 -12.62544,-10.31742 -11.67322,-9.49594 -26.92934,-23.23175 -14.46065,-13.0196 -48.39934,-46.84573 -61.85298,-61.64783 -13.99337,-15.39594 -13.60954,-14.94141 -21.08514,-24.96856 -6.41079,-8.5989 -7.38067,-9.79268 -12.77096,-15.71921 -1.50071,-1.65 -2.72856,-3.55396 -2.72856,-4.23103 0,-0.67708 -1.41986,-2.92708 -3.15525,-5 -3.87273,-4.626 -16.90738,-23.87358 -19.25688,-28.43564 C 473.73701,559.54 471.5313,555.64 469.77962,552.70667 464.0044,543.0356 447.76,509.78751 447.76,507.63819 c 0,-1.15911 -0.59212,-2.47343 -1.31582,-2.9207 -0.72369,-0.44726 -2.30778,-4.22545 -3.52018,-8.39597 -1.2124,-4.17051 -2.67665,-8.48997 -3.2539,-9.5988 -1.9784,-3.80033 -7.92194,-24.68103 -7.97456,-28.01605 -0.0289,-1.83334 -0.92474,-5.73334 -1.9907,-8.66667 -1.06596,-2.93333 -2.59045,-12.83333 -3.38775,-22 -1.6101,-18.51155 -3.3683,-27.14673 -5.28598,-25.96155 -0.76644,0.4737 -1.27111,-3.5546 -1.27111,-10.1461 0,-8.49075 0.47728,-11.2807 2.1375,-12.49468 1.61694,-1.18234 2.57243,-6.15307 3.92334,-20.41024 0.9822,-10.36599 2.72033,-21.59976 3.86249,-24.96394 1.14217,-3.36417 2.08985,-7.74572 2.10595,-9.73676 0.0161,-1.99104 1.21611,-6.23558 2.66667,-9.43233 1.45056,-3.19676 2.64108,-7.09676 2.6456,-8.66667 0.005,-1.56992 0.88471,-4.53481 1.95598,-6.58864 1.07128,-2.05382 2.5238,-5.65382 3.22782,-8 1.8211,-6.06877 7.39638,-19.08394 9.06837,-21.16956 0.77728,-0.96957 1.85764,-3.26286 2.4008,-5.0962 0.54316,-1.83333 1.71586,-4.23333 2.60601,-5.33333 0.89015,-1.1 3.28631,-5.3 5.32482,-9.33333 2.03851,-4.03334 4.46827,-8.23334 5.39947,-9.33334 0.93121,-1.1 2.07938,-3.27086 2.55151,-4.82416 0.47213,-1.55328 2.0431,-3.89626 3.49104,-5.20664 1.44795,-1.31037 2.63263,-2.94486 2.63263,-3.63221 0,-0.68733 1.2099,-2.84435 2.68868,-4.79335 1.47877,-1.949 3.58406,-4.74364 4.67842,-6.2103 1.09437,-1.46667 3.48446,-4.55328 5.31133,-6.85915 1.82686,-2.30585 3.32157,-4.85585 3.32157,-5.66667 0,-0.8108 0.47671,-1.47418 1.05935,-1.47418 0.58265,0 3.43265,-3.12959 6.33334,-6.95464 6.19423,-8.16814 46.5103,-48.84408 59.84931,-60.38352 5.08311,-4.39735 10.33311,-9.04518 11.66667,-10.32851 1.33357,-1.28333 2.78832,-2.33333 3.2328,-2.33333 0.72146,0 10.85018,-7.52584 12.5252,-9.30647 2.03184,-2.15995 10.68929,-8.02687 11.84478,-8.02687 0.74583,0 1.83586,-0.78218 2.4223,-1.73818 0.58644,-0.95599 4.05208,-3.80599 7.70141,-6.33333 3.64933,-2.527333 7.24933,-5.060932 8,-5.630216 0.75067,-0.569284 4.36484,-2.899117 8.03151,-5.177405 3.66666,-2.27829 8.29237,-5.262512 10.27934,-6.631606 1.98698,-1.369093 4.23698,-2.48926 5,-2.48926 0.76303,0 1.38732,-0.541305 1.38732,-1.2029 0,-0.661594 1.6863,-1.790744 3.74732,-2.509221 2.06103,-0.718477 4.61103,-2.134169 5.66667,-3.145985 1.05564,-1.011815 3.41935,-2.594563 5.25268,-3.517219 1.83333,-0.922656 5.73333,-3.124427 8.66667,-4.892824 2.93333,-1.768397 7.13333,-4.144436 9.33333,-5.280087 2.2,-1.13565 4.9,-2.583626 6,-3.217724 1.83693,-1.058902 3.99913,-2.193829 10.33333,-5.423905 1.28334,-0.654425 3.83334,-1.850071 5.66667,-2.656988 1.83333,-0.806919 4.23333,-1.978224 5.33333,-2.602901 1.84156,-1.045798 4.14814,-2.252684 10.33334,-5.406778 1.28333,-0.654425 3.83333,-1.85007 5.66666,-2.656988 1.83334,-0.806918 4.23334,-2.033773 5.33334,-2.726344 1.1,-0.692572 5.3,-2.721574 9.33333,-4.508897 4.03333,-1.787321 12.571,-5.725028 18.97259,-8.750457 6.40158,-3.02543 12.6109,-5.500782 13.79849,-5.500782 1.18759,0 4.04992,-0.879768 6.36075,-1.95504 6.66261,-3.100242 21.62608,-6.1305717 37.72156,-7.6391894 22.94648,-2.1507576 50.88354,1.2481192 69.81328,8.4936164 15.99546,6.122385 24.22936,9.97964 30.66666,14.366124 1.1,0.749557 4.55535,3.04754 7.67854,5.106628 12.05676,7.94888 36.99174,30.884052 49.90844,45.905715 2.70617,3.14718 6.60617,7.601149 8.66666,9.897709 5.33586,5.947151 12.2059,14.899484 24.41303,31.812554 3.3,4.57217 8.25,11.04626 11,14.38686 2.75,3.3406 5,6.52629 5,7.07932 0,2.31256 21.7305,25.55717 33.5757,35.91522 5.1415,4.49596 21.8371,15.29715 23.6451,15.29715 0.9306,0 3.2175,1.2 5.082,2.66667 1.8646,1.46666 4.4358,2.66666 5.7138,2.66666 1.2779,0 3.0084,0.82512 3.8453,1.83362 0.837,1.00849 4.0605,2.23881 7.1633,2.73405 3.1028,0.49524 6.8415,1.68207 8.3081,2.6374 1.4667,0.95532 5.6667,2.15992 9.3334,2.67689 3.6666,0.51696 9.0666,1.78219 12,2.81159 2.9333,1.02941 13.1333,2.51489 22.6666,3.30107 9.5334,0.78616 20.6334,2.04481 24.6667,2.79697 14.9444,2.78697 116.5959,-1.99409 140.6667,-6.61609 3.6666,-0.70407 12.9666,-1.68774 20.6666,-2.18595 7.7,-0.49821 17.6,-1.8602 22,-3.02665 10.4935,-2.78182 61.0151,-3.22875 65.662,-0.58087 1.6474,0.93873 6.3484,2.32663 10.4467,3.08424 4.0982,0.7576 9.3504,2.53537 11.6713,3.95061 2.321,1.41523 5.477,2.5754 7.0134,2.57814 1.5363,0.003 3.8793,1.20498 5.2066,2.67165 1.3274,1.46667 3.3085,2.66667 4.4027,2.66667 3.498,0 23.9623,18.27102 32.5985,29.10476 3.6323,4.55645 14.3312,25.41094 14.3404,27.95238 0,1.25191 0.8605,3.90991 1.9021,5.90668 1.0417,1.99678 2.846,9.61844 4.0095,16.93706 2.3885,15.02316 3.1823,17.73273 4.8865,16.67944 0.6691,-0.4135 1.1937,4.5706 1.1937,11.34098 0,6.64328 -0.504,12.0787 -1.12,12.0787 -1.7637,0 -3.9591,8.90828 -5.525,22.4189 -0.7916,6.8304 -1.9794,13.4304 -2.6396,14.66667 -0.6601,1.23627 -1.7986,4.64776 -2.53,7.58109 -3.2563,13.06039 -16.7374,43.23255 -24.1274,54 -0.755,1.1 -3.2833,4.92522 -5.6184,8.50048 -8.7554,13.40527 -40.3382,43.9424 -52.4396,50.70354 -2.2,1.22914 -6.4,3.68245 -9.3334,5.45178 -2.9333,1.76934 -6.2333,3.58384 -7.3333,4.03224 -1.1,0.44839 -3.8,1.63382 -6,2.63428 -2.2,1.00046 -6.4,2.58736 -9.3333,3.52644 -2.9334,0.9391 -5.9334,2.12614 -6.6667,2.6379 -0.7333,0.51174 -4.3333,1.36516 -8,1.89648 -3.6667,0.5313 -8.7667,1.73977 -11.3333,2.68548 -2.5667,0.9457 -7.9667,2.41988 -12,3.27594 -4.0334,0.85607 -9.1334,2.34047 -11.3334,3.29867 -2.2,0.95819 -5.9904,2.162 -8.4231,2.67513 -2.4327,0.51314 -6.0327,1.77274 -8,2.7991 -1.9673,1.02636 -4.7934,1.86981 -6.2802,1.87433 -1.4868,0.004 -3.8868,0.82284 -5.3333,1.81849 -1.4465,0.99566 -4.7791,2.50888 -7.4057,3.36271 -2.6267,0.85384 -7.1035,2.73921 -9.9486,4.18972 -2.8451,1.45051 -5.8726,2.63729 -6.7277,2.63729 -0.8552,0 -2.3018,0.9 -3.2147,2 -0.9129,1.1 -2.4911,2 -3.5071,2 -1.016,0 -7.2665,3.15 -13.8901,7 -6.6235,3.85 -13.7232,7.9 -15.7769,9 -2.0538,1.1 -6.1661,3.95 -9.1386,6.33334 -2.9724,2.38333 -6.0469,4.33333 -6.8323,4.33333 -0.7853,0 -2.0701,1.2 -2.855,2.66667 -0.7849,1.46666 -2.1349,2.66666 -3,2.66666 -1.759,0 -1.0106,-0.68144 -23.0473,20.98423 -8.8261,8.67741 -17.8225,18.15583 -19.9922,21.06312 -2.1696,2.90729 -4.6983,5.7658 -5.6193,6.35224 -0.921,0.58644 -1.6745,1.72464 -1.6745,2.52935 0,0.80469 -2.093,4.01724 -4.651,7.13897 -2.558,3.12175 -5.2432,7.23353 -5.967,9.13732 -0.7238,1.9038 -1.9309,3.46144 -2.6824,3.46144 -0.7514,0 -1.3663,0.80668 -1.3663,1.79261 0,0.98594 -1.4993,3.53594 -3.3317,5.66667 -1.8324,2.13073 -3.3324,4.72681 -3.3333,5.76907 -9e-4,1.04225 -0.8449,2.84225 -1.8754,4 -3.5087,3.94158 -24.7929,47.8006 -24.7929,51.08908 0,0.99874 -0.6124,2.4283 -1.3609,3.1768 -1.266,1.26593 -4.2193,8.34069 -8.8384,21.17244 -1.056,2.93333 -2.7264,7.13333 -3.712,9.33333 -0.9857,2.2 -2.2323,5.5 -2.7703,7.33333 -0.538,1.83334 -1.4354,3.93334 -1.9943,4.66667 -0.5589,0.73333 -1.4642,3.42453 -2.0117,5.98044 -0.5475,2.55592 -1.7579,5.85592 -2.6897,7.33333 -0.9319,1.47743 -2.1242,4.78623 -2.6496,7.3529 -0.5254,2.56666 -1.5945,5.86666 -2.3757,7.33333 -1.2036,2.25972 -6.4259,16.44499 -13.008,35.33333 -0.8944,2.56667 -2.7013,7.06667 -4.0153,10 -1.3141,2.93334 -2.8203,7.13334 -3.3473,9.33334 -0.5269,2.2 -1.7685,5.1835 -2.7591,6.63001 -0.9906,1.44649 -1.8198,3.54649 -1.8428,4.66667 -0.023,1.12016 -1.5174,5.03665 -3.3211,8.70332 -1.8037,3.66666 -3.2849,7.36804 -3.2916,8.22528 -0.01,0.85724 -0.8591,3.25724 -1.8942,5.33333 -1.77,3.55004 -5.5985,11.95351 -11.7426,25.77472 -1.467,3.3 -3.2016,7.05 -3.8547,8.33333 -3.0005,5.89612 -4.352,8.4803 -5.4043,10.33334 -0.6247,1.1 -1.7955,3.5 -2.6019,5.33333 -0.8063,1.83333 -2.014,4.23333 -2.6838,5.33333 -0.6697,1.1 -2.13,3.8 -3.245,6 -1.1151,2.2 -3.4618,6.4 -5.215,9.33334 -1.7531,2.93333 -4.0358,7.13333 -5.0726,9.33333 -1.0368,2.2 -2.878,4.82347 -4.0916,5.82992 -1.2136,1.00647 -2.2065,2.89227 -2.2065,4.19069 0,1.29842 -0.9,2.70611 -2,3.12823 -1.1,0.42211 -2,1.48288 -2,2.35728 0,0.8744 -3.2393,5.84324 -7.1984,11.04185 -20.39107,26.77503 -44.8339,45.56443 -67.80163,52.11973 -4.73592,1.3517 -7.66667,2.9166 -7.66667,4.0936 0,1.5644 -3.47417,1.9054 -19.41203,1.9054 -10.67661,0 -19.09708,-0.5096 -18.71217,-1.1324 z"
       id="path113" />
  </g>
</svg>
