0
SECTION
2
HEADER
9
$INSUNITS
70
4
9
$ACADVER
1
AC1014
9
$HANDSEED
5
FFFF
0
ENDSEC
0
SECTION
2
TABLES
0
TABLE
2
VPORT
5
8
100
AcDbSymbolTable
0
ENDTAB
0
TABLE
2
LTYPE
5
5
100
AcDbSymbolTable
0
LTYPE
5
14
100
AcDbSymbolTableRecord
100
AcDbLinetypeTableRecord
2
BYBLOCK
70
0
0
LTYPE
5
15
100
AcDbSymbolTableRecord
100
AcDbLinetypeTableRecord
2
BYLAYER
70
0
0
ENDTAB
0
TABLE
2
LAYER
5
2
100
AcDbSymbolTable
70
2
0
LAYER
5
50
100
AcDbSymbolTableRecord
100
AcDbLayerTableRecord
2
0
70
0
6
CONTINUOUS
0
ENDTAB
0
TABLE
2
STYLE
5
3
100
AcDbSymbolTable
70
1
0
STYLE
5
11
100
AcDbSymbolTableRecord
100
AcDbTextStyleTableRecord
2
STANDARD
70
0
0
ENDTAB
0
TABLE
2
VIEW
5
6
100
AcDbSymbolTable
70
0
0
ENDTAB
0
TABLE
2
UCS
5
7
100
AcDbSymbolTable
70
0
0
ENDTAB
0
TABLE
2
APPID
5
9
100
AcDbSymbolTable
70
2
0
APPID
5
12
100
AcDbSymbolTableRecord
100
AcDbRegAppTableRecord
2
ACAD
70
0
0
ENDTAB
0
TABLE
2
DIMSTYLE
5
A
100
AcDbSymbolTable
70
1
0
ENDTAB
0
TABLE
2
BLOCK_RECORD
5
1
100
AcDbSymbolTable
70
1
0
BLOCK_RECORD
5
1F
100
AcDbSymbolTableRecord
100
AcDbBlockTableRecord
2
*MODEL_SPACE
0
BLOCK_RECORD
5
1B
100
AcDbSymbolTableRecord
100
AcDbBlockTableRecord
2
*PAPER_SPACE
0
ENDTAB
0
ENDSEC
0
SECTION
2
BLOCKS
0
BLOCK
5
20
100
AcDbEntity
100
AcDbBlockBegin
2
*MODEL_SPACE
0
ENDBLK
5
21
100
AcDbEntity
100
AcDbBlockEnd
0
BLOCK
5
1C
100
AcDbEntity
100
AcDbBlockBegin
2
*PAPER_SPACE
0
ENDBLK
5
1D
100
AcDbEntity
100
AcDbBlockEnd
0
ENDSEC
0
SECTION
2
ENTITIES
0
CIRCLE
5
100
100
AcDbEntity
8
0
100
AcDbCircle
10
-67.514644244655884
20
21.186543038164135
30
0
40
8.2499999993883684
210
0
220
-0
230
1
0
ARC
5
101
100
AcDbEntity
8
0
100
AcDbCircle
10
-93.514644640333429
20
21.182462163684363
30
0
40
8.2499999993883648
210
0
220
0
230
1
100
AcDbArc
50
-180.02834144167525
51
0.028341441688099496
0
ARC
5
102
100
AcDbEntity
8
0
100
AcDbCircle
10
-93.514644640333429
20
21.190623912643932
30
0
40
8.2499999993883648
210
0
220
0
230
1
100
AcDbArc
50
-0.028341441688084498
51
180.02834144170097
0
ARC
5
103
100
AcDbEntity
8
0
100
AcDbCircle
10
-80.51464393784201
20
34.684802395914559
30
0
40
3.0000000456550908
210
0
220
0
230
1
100
AcDbArc
50
-180.0332332860541
51
0.033233286065053678
0
ARC
5
104
100
AcDbEntity
8
0
100
AcDbCircle
10
-80.51464393784201
20
34.688282577351693
30
0
40
3.0000000456550913
210
0
220
0
230
1
100
AcDbArc
50
-0.033233286076016923
51
180.03323328607601
0
ARC
5
105
100
AcDbEntity
8
0
100
AcDbCircle
10
-61.514644657998332
20
37.686181786558052
30
0
40
1.0000000782999467
210
0
220
0
230
1
100
AcDbArc
50
-180.02035114749287
51
0.020351147510811921
0
ARC
5
106
100
AcDbEntity
8
0
100
AcDbCircle
10
-61.514644657998332
20
37.686892175660041
30
0
40
1.000000078299947
210
0
220
0
230
1
100
AcDbArc
50
-0.020351147510805516
51
180.02035114752871
0
LWPOLYLINE
5
107
100
AcDbEntity
8
0
100
AcDbPolyline
90
8
70
1
43
0.0
10
-74.51463980931058
20
41.68655117225677
10
-74.51464384653174
20
49.686547256782482
42
0.41421448618373308
10
-76.514642867663227
20
51.686554352356396
10
-84.514645008020764
20
51.686554352356382
42
0.41421478180267707
10
-86.51464604776281
20
49.686547256782475
10
-86.514646047762881
20
41.686551172274861
42
0.41421241685674692
10
-84.514645008020764
20
39.686560225567774
10
-76.51464286765443
20
39.686554169737903
42
0.41421182562126085
0
ARC
5
108
100
AcDbEntity
8
0
100
AcDbCircle
10
-99.51464372233832
20
37.685471397590391
30
0
40
1.0000000782999421
210
0
220
0
230
1
100
AcDbArc
50
-180.06105344511192
51
0.061053445105970661
0
ARC
5
109
100
AcDbEntity
8
0
100
AcDbCircle
10
-99.51464372233832
20
37.687602564627646
30
0
40
1.0000000782999421
210
0
220
0
230
1
100
AcDbArc
50
-0.061053445111922733
51
180.06105344509999
0
LWPOLYLINE
5
110
100
AcDbEntity
8
0
100
AcDbPolyline
90
16
70
1
43
0.0
10
-65.500952171537719
20
52.594950155278823
10
-59.854208769013425
20
45.865433449269105
42
-0.17632717017724756
10
-57.514649622747029
20
39.437554851846372
10
-57.514649643643892
20
20.270694967974041
42
-0.35365326216739273
10
-65.419352277930273
20
10.49267618299667
10
-70.478782582894738
20
9.4085111339498724
42
-0.053249440523777586
10
-72.591111023211653
20
9.1865488940254441
10
-88.455198552749565
20
9.1865327624424697
42
-0.052822538914287981
10
-90.550495910521846
20
9.4085078257600685
10
-95.609928624516968
20
10.492669960200836
42
-0.35365343241605146
10
-103.514640918694
20
20.270693780553852
10
-103.51464176459145
20
39.437556225677085
42
-0.17632728306787415
10
-101.17507890416462
20
45.865441509067637
10
-95.51199750832204
20
52.614423635632939
42
-0.22169480479472398
10
-87.851567818169229
20
56.18654955685227
10
-73.177728900691775
20
56.186570317399934
42
-0.22236118324762255
0
ENDSEC
0
SECTION
2
OBJECTS
0
DICTIONARY
5
C
100
AcDbDictionary
3
ACAD_GROUP
350
D
3
ACAD_MLINESTYLE
350
17
0
DICTIONARY
5
D
100
AcDbDictionary
0
DICTIONARY
5
1A
330
C
100
AcDbDictionary
0
DICTIONARY
5
17
100
AcDbDictionary
0
ENDSEC
0
EOF
