<?xml version="1.0" encoding="UTF-8"?>
<svg xmlns="http://www.w3.org/2000/svg" width="103.000mm" height="57.101mm" viewBox="-504.000000 271.449524 103.000000 57.100983">
    <circle transform="matrix(1,0,0,-1,-458.75,316.199554)" style="stroke:#000000;stroke-width:0.05mm;fill:none" r="0.600002" cx="0" cy="0"/>
    <circle transform="matrix(1,0,0,-1,-461,290.949524)" style="stroke:#000000;stroke-width:0.05mm;fill:none" r="1.000002" cx="0" cy="0"/>
    <circle transform="matrix(1,0,0,-1,-458.75,298.699554)" style="stroke:#000000;stroke-width:0.05mm;fill:none" r="0.600002" cx="0" cy="0"/>
    <path transform="matrix(1,0,0,-1,-399.393127,328.668549)" style="stroke:#000000;stroke-width:0.05mm;fill:none" d="M-69.756859,34.218998C-69.756615,34.004478,-69.870926,33.806149,-70.056664,33.698818C-70.242401,33.591492,-70.471313,33.591492,-70.657051,33.698818C-70.842789,33.806149,-70.9571,34.004478,-70.956856,34.218998C-70.9571,34.433514,-70.842789,34.631844,-70.657051,34.739174C-70.471313,34.8465,-70.242401,34.8465,-70.056664,34.739174C-69.870926,34.631844,-69.756615,34.433514,-69.756859,34.218998z"/>
    <path transform="matrix(1,0,0,-1,-399.393127,328.668549)" style="stroke:#000000;stroke-width:0.05mm;fill:none" d="M-90.256859,46.920513C-90.256432,46.705872,-90.370697,46.507347,-90.556511,46.399899C-90.742325,46.292454,-90.97139,46.292454,-91.157204,46.399899C-91.343018,46.507347,-91.457283,46.705872,-91.456856,46.920513C-91.457283,47.135159,-91.343018,47.333683,-91.157204,47.441132C-90.97139,47.548576,-90.742325,47.548576,-90.556511,47.441132C-90.370697,47.333683,-90.256432,47.135159,-90.256859,46.920513z"/>
    <path transform="matrix(1,0,0,-1,-399.393127,328.668549)" style="stroke:#000000;stroke-width:0.05mm;fill:none" d="M-101.256859,29.968981C-101.256615,29.754461,-101.370926,29.556133,-101.556664,29.448805C-101.742401,29.341475,-101.971313,29.341475,-102.157051,29.448805C-102.342789,29.556133,-102.4571,29.754461,-102.456856,29.968981C-102.4571,30.1835,-102.342789,30.381828,-102.157051,30.489157C-101.971313,30.596487,-101.742401,30.596487,-101.556664,30.489157C-101.370926,30.381828,-101.256615,30.1835,-101.256859,29.968981z"/>
    <path transform="matrix(1,0,0,-1,-399.393127,328.668549)" style="stroke:#000000;stroke-width:0.05mm;fill:none" d="M-97.106865,43.218994L-102.106865,43.218994L-102.106865,40.218987L-97.106865,40.218987L-97.106865,43.218994z"/>
    <path transform="matrix(1,0,0,-1,-399.393127,328.668549)" style="stroke:#000000;stroke-width:0.05mm;fill:none" d="M-90.256859,34.218994C-90.256432,34.004353,-90.370697,33.805828,-90.556511,33.69838C-90.742325,33.590935,-90.97139,33.590935,-91.157204,33.69838C-91.343018,33.805828,-91.457283,34.004353,-91.456856,34.218994C-91.457283,34.43364,-91.343018,34.632164,-91.157204,34.739613C-90.97139,34.847057,-90.742325,34.847057,-90.556511,34.739613C-90.370697,34.632164,-90.256432,34.43364,-90.256859,34.218994z"/>
    <path transform="matrix(1,0,0,-1,-399.393127,328.668549)" style="stroke:#000000;stroke-width:0.05mm;fill:none" d="M-89.256866,34.22591C-89.259644,34.86932,-89.647552,35.448475,-90.241478,35.695942C-90.615479,35.851772,-90.858482,36.217876,-90.856857,36.623035L-90.856865,40.818981C-90.856865,41.371269,-90.409149,41.818989,-89.856865,41.818985L-88.60685,41.818993C-88.054573,41.818993,-87.606857,42.266705,-87.606857,42.818989L-87.60685,52.218994C-87.60685,52.771278,-87.159142,53.218994,-86.606857,53.218998L-74.606865,53.218998C-74.054573,53.219002,-73.606857,52.771282,-73.606857,52.218994L-73.606857,42.810978C-73.602448,42.261829,-73.156021,41.818981,-72.60685,41.818985L-71.356857,41.818985C-70.804573,41.818989,-70.356857,41.371269,-70.356857,40.818981L-70.356865,36.619011C-70.356857,36.215309,-70.599602,35.851196,-70.972252,35.695923C-71.568489,35.447491,-71.956871,34.864918,-71.956863,34.218994L-71.956863,30.469C-71.956863,29.916716,-71.509155,29.468998,-70.956871,29.468996L-67.606865,29.468996C-63.053493,29.464781,-59.364494,25.772366,-59.364494,21.218998C-59.364494,16.66563,-63.053493,12.973215,-67.606857,12.969001L-73.606865,12.969001C-74.159149,12.969003,-74.606865,12.521285,-74.606865,11.968997C-74.606865,11.416714,-75.054573,10.968997,-75.606857,10.968994L-85.606857,10.968994C-86.159142,10.968992,-86.606857,11.41671,-86.606857,11.968997C-86.606857,12.23422,-86.712219,12.488579,-86.899757,12.676117C-87.087303,12.863655,-87.341667,12.969008,-87.606888,12.969001L-93.606857,12.969001C-98.1632,12.973215,-101.853432,16.670282,-101.84922,21.226631C-101.845001,25.782978,-98.147934,29.473213,-93.591583,29.468994L-90.256859,29.468996C-89.704575,29.468998,-89.256866,29.916716,-89.256866,30.469L-89.256866,34.22591z"/>
    <path transform="matrix(1,0,0,-1,-399.393127,328.668549)" style="stroke:#000000;stroke-width:0.05mm;fill:none" d="M-97.106865,32.219006L-97.106865,35.219017L-102.106865,35.219017L-102.106865,32.219006L-97.106865,32.219006z"/>
    <path transform="matrix(1,0,0,-1,-399.393127,328.668549)" style="stroke:#000000;stroke-width:0.05mm;fill:none" d="M-98.606857,37.719006C-98.606476,37.361488,-98.796989,37.030964,-99.106552,36.852093C-99.416107,36.673225,-99.797607,36.673225,-100.107162,36.852093C-100.416725,37.030964,-100.607239,37.361488,-100.606857,37.719006C-100.607239,38.076527,-100.416725,38.407051,-100.107162,38.585922C-99.797607,38.76479,-99.416107,38.76479,-99.106552,38.585922C-98.796989,38.407051,-98.606476,38.076527,-98.606857,37.719006z"/>
    <path transform="matrix(1,0,0,-1,-399.393127,328.668549)" style="stroke:#000000;stroke-width:0.05mm;fill:none" d="M-64.106857,32.219006L-59.106857,32.219006L-59.106857,35.219017L-64.106857,35.219017L-64.106857,32.219006z"/>
    <path transform="matrix(1,0,0,-1,-399.393127,328.668549)" style="stroke:#000000;stroke-width:0.05mm;fill:none" d="M-64.106857,43.218994L-64.106857,40.218987L-59.106857,40.218987L-59.106857,43.218994L-64.106857,43.218994z"/>
    <path transform="matrix(1,0,0,-1,-399.393127,328.668549)" style="stroke:#000000;stroke-width:0.05mm;fill:none" d="M-69.756859,46.920513C-69.756615,46.705994,-69.870926,46.507664,-70.056664,46.400333C-70.242401,46.293007,-70.471313,46.293007,-70.657051,46.400333C-70.842789,46.507664,-70.9571,46.705994,-70.956856,46.920513C-70.9571,47.135033,-70.842789,47.333363,-70.657051,47.440693C-70.471313,47.548019,-70.242401,47.548019,-70.056664,47.440693C-69.870926,47.333363,-69.756615,47.135033,-69.756859,46.920513z"/>
    <path transform="matrix(1,0,0,-1,-399.393127,328.668549)" style="stroke:#000000;stroke-width:0.05mm;fill:none" d="M-101.256859,12.469C-101.256615,12.254479,-101.370926,12.056152,-101.556664,11.948823C-101.742401,11.841494,-101.971313,11.841494,-102.157051,11.948823C-102.342789,12.056152,-102.4571,12.254479,-102.456856,12.469C-102.4571,12.683519,-102.342789,12.881846,-102.157051,12.989176C-101.971313,13.096506,-101.742401,13.096506,-101.556664,12.989176C-101.370926,12.881846,-101.256615,12.683519,-101.256859,12.469z"/>
    <path transform="matrix(1,0,0,-1,-399.393127,328.668549)" style="stroke:#000000;stroke-width:0.05mm;fill:none" d="M-87.485535,7.340323L-93.829521,0.996331C-94.490677,0.335174,-95.422302,0.020088,-96.349045,0.144196C-97.275787,0.268304,-98.091675,0.817414,-98.555573,1.629238L-104.211586,11.527277C-104.470612,11.980567,-104.606865,12.493608,-104.606857,13.015688L-104.606857,40.470001C-104.606857,42.821026,-103.778519,45.096886,-102.267303,46.897873L-96.604225,53.646881C-94.704193,55.911255,-91.899712,57.219009,-88.943787,57.219013L-72.269943,57.219013C-69.314011,57.219017,-66.509521,55.911263,-64.609489,53.646881L-58.946415,46.897873C-57.435207,45.096882,-56.606861,42.821026,-56.606861,40.470001L-56.606861,13.015688C-56.606861,12.493609,-56.743107,11.980568,-57.002132,11.527277L-62.65815,1.629238C-63.122051,0.817417,-63.937939,0.268306,-64.864685,0.144197C-65.791428,0.020087,-66.723045,0.335172,-67.384201,0.996331L-73.72818,7.340323C-74.290787,7.902933,-75.053848,8.219003,-75.849495,8.219001L-85.36422,8.219001C-86.159866,8.219002,-86.922928,7.902934,-87.485535,7.340323z"/>
    <circle transform="matrix(1,0,0,-1,-411,310.5)" style="stroke:#000000;stroke-width:0.05mm;fill:none" r="8.25" cx="0" cy="0"/>
    <path transform="matrix(1,0,0,-1,-343.485352,331.686554)" style="stroke:#000000;stroke-width:0.05mm;fill:none" d="M-85.264648,21.186544C-85.263191,18.238132,-86.835312,15.513062,-89.388474,14.038434C-91.941628,12.563806,-95.087669,12.563806,-97.640823,14.038433C-100.193985,15.51306,-101.766106,18.238131,-101.764648,21.186543C-101.766106,24.134954,-100.193985,26.860025,-97.640831,28.334652C-95.087669,29.80928,-91.941628,29.80928,-89.388474,28.334654C-86.835312,26.860027,-85.263191,24.134956,-85.264648,21.186544z"/>
    <path transform="matrix(1,0,0,-1,-343.485352,331.686554)" style="stroke:#000000;stroke-width:0.05mm;fill:none" d="M-77.514641,34.686543C-77.514023,33.614334,-78.085678,32.623302,-79.014137,32.087017C-79.942596,31.550732,-81.086685,31.550732,-82.015144,32.087017C-82.943604,32.623302,-83.515259,33.61433,-83.514641,34.686543C-83.515259,35.758755,-82.943604,36.749783,-82.015144,37.286068C-81.086685,37.822353,-79.942596,37.822353,-79.014137,37.286068C-78.085678,36.749783,-77.514023,35.758755,-77.514641,34.686543z"/>
    <path transform="matrix(1,0,0,-1,-343.485352,331.686554)" style="stroke:#000000;stroke-width:0.05mm;fill:none" d="M-60.514645,37.686535C-60.514519,37.329185,-60.70509,36.998924,-61.014542,36.820213C-61.323994,36.641502,-61.705296,36.641502,-62.014748,36.820213C-62.3242,36.998924,-62.514771,37.329185,-62.514645,37.686535C-62.514771,38.043888,-62.3242,38.374149,-62.014748,38.55286C-61.705296,38.731571,-61.323994,38.731571,-61.014542,38.55286C-60.70509,38.374149,-60.514519,38.043888,-60.514645,37.686535z"/>
    <path transform="matrix(1,0,0,-1,-343.485352,331.686554)" style="stroke:#000000;stroke-width:0.05mm;fill:none" d="M-74.514641,41.68655L-74.514641,49.686546C-74.514633,50.791119,-75.410065,51.686554,-76.514641,51.686554L-84.514648,51.686554C-85.619225,51.686554,-86.514656,50.791119,-86.514648,49.686546L-86.514648,41.68655C-86.514641,40.581985,-85.619217,39.686562,-84.514648,39.686562L-76.514641,39.686554C-75.410072,39.686558,-74.514648,40.581985,-74.514641,41.68655z"/>
    <path transform="matrix(1,0,0,-1,-343.485352,331.686554)" style="stroke:#000000;stroke-width:0.05mm;fill:none" d="M-98.514641,37.686535C-98.514259,37.329018,-98.704773,36.998493,-99.014336,36.819622C-99.323891,36.640755,-99.705391,36.640755,-100.014946,36.819622C-100.324509,36.998493,-100.515022,37.329018,-100.514641,37.686535C-100.515022,38.044056,-100.324509,38.37458,-100.014946,38.553452C-99.705391,38.732319,-99.323891,38.732319,-99.014336,38.553452C-98.704773,38.37458,-98.514259,38.044056,-98.514641,37.686535z"/>
    <path transform="matrix(1,0,0,-1,-343.485352,331.686554)" style="stroke:#000000;stroke-width:0.05mm;fill:none" d="M-65.500954,52.594952L-59.85421,45.865433C-58.342999,44.064442,-57.514652,41.788582,-57.514648,39.437553L-57.514648,20.270695C-57.514645,15.55532,-60.808643,11.480684,-65.41935,10.492676L-70.478783,9.408511C-71.173019,9.259747,-71.881111,9.185341,-72.59111,9.186549L-88.4552,9.186533C-89.1595,9.186532,-89.861832,9.260936,-90.550499,9.408508L-95.609932,10.49267C-100.220642,11.48068,-103.514641,15.55532,-103.514641,20.270695L-103.514641,39.437557C-103.514648,41.788586,-102.686295,44.064453,-101.175079,45.86544L-95.512001,52.614422C-93.611969,54.878796,-90.807495,56.18655,-87.85157,56.18655L-73.177727,56.186569C-70.212898,56.186573,-67.400925,54.870979,-65.500954,52.594952z"/>
</svg>
