0
SECTION
2
HEADER
9
$INSUNITS
70
4
9
$ACADVER
1
AC1014
9
$HANDSEED
5
FFFF
0
ENDSEC
0
SECTION
2
TABLES
0
TABLE
2
VPORT
5
8
100
AcDbSymbolTable
0
ENDTAB
0
TABLE
2
LTYPE
5
5
100
AcDbSymbolTable
0
LTYPE
5
14
100
AcDbSymbolTableRecord
100
AcDbLinetypeTableRecord
2
BYBLOCK
70
0
0
LTYPE
5
15
100
AcDbSymbolTableRecord
100
AcDbLinetypeTableRecord
2
BYLAYER
70
0
0
ENDTAB
0
TABLE
2
LAYER
5
2
100
AcDbSymbolTable
70
2
0
LAYER
5
50
100
AcDbSymbolTableRecord
100
AcDbLayerTableRecord
2
0
70
0
6
CONTINUOUS
0
ENDTAB
0
TABLE
2
STYLE
5
3
100
AcDbSymbolTable
70
1
0
STYLE
5
11
100
AcDbSymbolTableRecord
100
AcDbTextStyleTableRecord
2
STANDARD
70
0
0
ENDTAB
0
TABLE
2
VIEW
5
6
100
AcDbSymbolTable
70
0
0
ENDTAB
0
TABLE
2
UCS
5
7
100
AcDbSymbolTable
70
0
0
ENDTAB
0
TABLE
2
APPID
5
9
100
AcDbSymbolTable
70
2
0
APPID
5
12
100
AcDbSymbolTableRecord
100
AcDbRegAppTableRecord
2
ACAD
70
0
0
ENDTAB
0
TABLE
2
DIMSTYLE
5
A
100
AcDbSymbolTable
70
1
0
ENDTAB
0
TABLE
2
BLOCK_RECORD
5
1
100
AcDbSymbolTable
70
1
0
BLOCK_RECORD
5
1F
100
AcDbSymbolTableRecord
100
AcDbBlockTableRecord
2
*MODEL_SPACE
0
BLOCK_RECORD
5
1B
100
AcDbSymbolTableRecord
100
AcDbBlockTableRecord
2
*PAPER_SPACE
0
ENDTAB
0
ENDSEC
0
SECTION
2
BLOCKS
0
BLOCK
5
20
100
AcDbEntity
100
AcDbBlockBegin
2
*MODEL_SPACE
0
ENDBLK
5
21
100
AcDbEntity
100
AcDbBlockEnd
0
BLOCK
5
1C
100
AcDbEntity
100
AcDbBlockBegin
2
*PAPER_SPACE
0
ENDBLK
5
1D
100
AcDbEntity
100
AcDbBlockEnd
0
ENDSEC
0
SECTION
2
ENTITIES
0
ARC
5
100
100
AcDbEntity
8
0
100
AcDbCircle
10
-70.356860698191952
20
34.21832189897961
30
0
40
0.60000008482894085
210
0
220
0
230
1
100
AcDbArc
50
-180.0643559801552
51
0.064355980155205189
0
ARC
5
101
100
AcDbEntity
8
0
100
AcDbCircle
10
-70.356860698191952
20
34.219669767383245
30
0
40
0.60000008482894085
210
0
220
0
230
1
100
AcDbArc
50
-0.064355980155190257
51
180.0643559801552
0
ARC
5
102
100
AcDbEntity
8
0
100
AcDbCircle
10
-90.856860757842128
20
46.91931439326585
30
0
40
0.60000090488947488
210
0
220
0
230
1
100
AcDbArc
50
-180.1145222408054
51
0.11452224080539056
0
ARC
5
103
100
AcDbEntity
8
0
100
AcDbCircle
10
-90.856860757842114
20
46.921712943488686
30
0
40
0.60000090488945712
210
0
220
0
230
1
100
AcDbArc
50
-0.11452224080219787
51
180.1145222408054
0
ARC
5
104
100
AcDbEntity
8
0
100
AcDbCircle
10
-101.85685941128619
20
29.968306820885118
30
0
40
0.60000008482893197
210
0
220
0
230
1
100
AcDbArc
50
-180.0643559801552
51
0.064355980155205189
0
ARC
5
105
100
AcDbEntity
8
0
100
AcDbCircle
10
-101.85685941128624
20
29.969654689288753
30
0
40
0.60000008482896749
210
0
220
0
230
1
100
AcDbArc
50
-0.064355980155190257
51
180.0643559801552
0
LWPOLYLINE
5
106
100
AcDbEntity
8
0
100
AcDbPolyline
90
4
70
1
43
0.0
10
-97.106862745404371
20
43.218995465494075
10
-102.10686433545416
20
43.218995465494068
10
-102.10686433545416
20
40.218984822133272
10
-97.106862745404371
20
40.21898482213328
0
CIRCLE
5
107
100
AcDbEntity
8
0
100
AcDbCircle
10
-59.356860026137241
20
12.468999403405141
30
0
40
0.60000172495003679
210
-0
220
0
230
1
0
ARC
5
108
100
AcDbEntity
8
0
100
AcDbCircle
10
-90.856860757842128
20
34.217796558069985
30
0
40
0.600000904889475
210
0
220
0
230
1
100
AcDbArc
50
-180.11452224080858
51
0.11452224080539056
0
ARC
5
109
100
AcDbEntity
8
0
100
AcDbCircle
10
-90.856860757842114
20
34.22019510829282
30
0
40
0.60000090488945712
210
0
220
0
230
1
100
AcDbArc
50
-0.11452224080219787
51
180.11452224080219
0
LINE
5
110
100
AcDbEntity
8
0
100
AcDbLine
10
-75.606859137967248
20
10.968994091559603
30
0
11
-85.606854243624383
21
10.968994091559594
31
0
0
ARC
5
111
100
AcDbEntity
8
0
100
AcDbCircle
10
-85.606857713117378
20
11.968994169853524
30
0
40
1.0000000782999554
210
0
220
0
230
1
100
AcDbArc
50
179.99980121369813
51
270.00019878729012
0
ARC
5
112
100
AcDbEntity
8
0
100
AcDbCircle
10
-87.606857869705266
20
11.969001108844111
30
0
40
1.0000000782999732
210
-0
220
0
230
1
100
AcDbArc
50
-0.00019878630188768732
51
90.001667734754875
0
LINE
5
113
100
AcDbEntity
8
0
100
AcDbLine
10
-87.606886977170063
20
12.969001186715852
30
0
11
-93.606858402592565
21
12.969001187133458
31
0
0
ARC
5
114
100
AcDbEntity
8
0
100
AcDbCircle
10
-93.5992237858717
20
21.218998158605942
30
0
40
8.2500005040410525
210
0
220
-0
230
1
100
AcDbArc
50
89.946978017510745
51
269.94697801793757
0
LINE
5
115
100
AcDbEntity
8
0
100
AcDbLine
10
-93.591589169089374
20
29.468995130078369
30
0
11
-90.256861051502725
21
29.468995130078376
31
0
0
ARC
5
116
100
AcDbEntity
8
0
100
AcDbCircle
10
-90.256865656452149
20
30.468995208367712
30
0
40
1.0000000782999388
210
-0
220
0
230
1
100
AcDbArc
50
-89.999736155853768
51
0.00019878630189099501
0
LINE
5
117
100
AcDbEntity
8
0
100
AcDbLine
10
-89.256865578158227
20
30.468998677865301
30
0
11
-89.256865578158227
21
34.225908691531671
31
0
0
ARC
5
118
100
AcDbEntity
8
0
100
AcDbCircle
10
-90.856865552030229
20
34.219002057226909
30
0
40
1.6000148805519918
210
0
220
-0
230
1
100
AcDbArc
50
0.24732409056974297
51
67.380291207618882
0
ARC
5
119
100
AcDbEntity
8
0
100
AcDbCircle
10
-89.856864716788692
20
36.619017914625523
30
0
40
1.0000000782998841
210
0
220
0
230
1
100
AcDbArc
50
179.76986374005094
51
247.38019047290697
0
LINE
5
120
100
AcDbEntity
8
0
100
AcDbLine
10
-90.856856728418563
20
36.62303453960407
30
0
11
-90.856864795063345
21
40.818980491251445
31
0
0
ARC
5
121
100
AcDbEntity
8
0
100
AcDbCircle
10
-89.856864716769437
20
40.818983960744497
30
0
40
1.0000000782999288
210
0
220
-0
230
1
100
AcDbArc
50
89.999801212709102
51
180.00019878630189
0
LINE
5
122
100
AcDbEntity
8
0
100
AcDbLine
10
-89.856861247276427
20
41.818984039038405
30
0
11
-88.606856812514735
21
41.818992112847198
31
0
0
ARC
5
123
100
AcDbEntity
8
0
100
AcDbCircle
10
-88.60685334304975
20
42.81898411733232
30
0
40
0.99999200449114267
210
0
220
0
230
1
100
AcDbArc
50
-90.000198787290259
51
0.00019878630189099501
0
LINE
5
124
100
AcDbEntity
8
0
100
AcDbLine
10
-87.606861338564642
20
42.818987586797348
30
0
11
-87.606853264755813
21
52.218995097806705
31
0
0
ARC
5
125
100
AcDbEntity
8
0
100
AcDbCircle
10
-86.606853186461905
20
52.218998567304304
30
0
40
1.000000078299921
210
0
220
0
230
1
100
AcDbArc
50
90.000263844142154
51
180.00019878630189
0
LINE
5
126
100
AcDbEntity
8
0
100
AcDbLine
10
-86.606857791411258
20
53.218998645593622
30
0
11
-74.60686366462275
21
53.218998645593636
31
0
0
ARC
5
127
100
AcDbEntity
8
0
100
AcDbCircle
10
-74.606860195129741
20
52.218998567299757
30
0
40
1.0000000782999021
210
0
220
0
230
1
100
AcDbArc
50
-0.00019878630188768732
51
90.000198787290927
0
LINE
5
128
100
AcDbEntity
8
0
100
AcDbLine
10
-73.606860116835847
20
52.218995097806712
30
0
11
-73.606860116835819
21
42.810979214114688
31
0
0
ARC
5
129
100
AcDbEntity
8
0
100
AcDbCircle
10
-72.606860038541868
20
42.819016415102112
30
0
40
1.0000323760696999
210
0
220
0
230
1
100
AcDbArc
50
180.46048774448101
51
270.00019878086908
0
LINE
5
130
100
AcDbEntity
8
0
100
AcDbLine
10
-72.606856569048887
20
41.81898403903844
30
0
11
-71.356860208757652
21
41.818984039038433
31
0
0
ARC
5
131
100
AcDbEntity
8
0
100
AcDbCircle
10
-71.356856739264629
20
40.818983960744497
30
0
40
1.0000000782999554
210
0
220
0
230
1
100
AcDbArc
50
-0.00019878813531207235
51
90.000198787291737
0
LINE
5
132
100
AcDbEntity
8
0
100
AcDbLine
10
-70.356856660970692
20
40.818980491230448
30
0
11
-70.356864735413154
21
36.619010807424004
31
0
0
ARC
5
133
100
AcDbEntity
8
0
100
AcDbCircle
10
-71.356864813672217
20
36.619001765747164
30
0
40
1.0000000782999428
210
0
220
0
230
1
100
AcDbArc
50
-67.380190472403939
51
0.00051804998118559309
0
ARC
5
134
100
AcDbEntity
8
0
100
AcDbCircle
10
-70.35686397844627
20
34.219002057226909
30
0
40
1.5999999738841144
210
0
220
0
230
1
100
AcDbArc
50
112.61993120898813
51
180.00022288234848
0
LINE
5
135
100
AcDbEntity
8
0
100
AcDbLine
10
-71.956855877875867
20
34.218995833181431
30
0
11
-71.956863952322919
21
30.468998677865294
31
0
0
ARC
5
136
100
AcDbEntity
8
0
100
AcDbCircle
10
-70.956863874024378
20
30.468995208372313
30
0
40
1.0000000783045562
210
0
220
0
230
1
100
AcDbArc
50
179.99980121369813
51
269.99973615585378
0
LINE
5
137
100
AcDbEntity
8
0
100
AcDbLine
10
-70.956868478973803
20
29.468995130078369
30
0
11
-67.606863053441543
21
29.468995130078369
31
0
0
ARC
5
138
100
AcDbEntity
8
0
100
AcDbCircle
10
-67.614497670162365
20
21.218998158605942
30
0
40
8.2500005040409992
210
0
220
0
230
1
100
AcDbArc
50
-89.946978017943024
51
89.946978017937894
0
LINE
5
139
100
AcDbEntity
8
0
100
AcDbLine
10
-67.606863053442282
20
12.969001187133511
30
0
11
-73.606860116835819
21
12.969001187133458
31
0
0
ARC
5
140
100
AcDbEntity
8
0
100
AcDbCircle
10
-73.606863586328828
20
11.969001108839535
30
0
40
1.0000000782999421
210
0
220
-0
230
1
100
AcDbArc
50
89.999801212709102
51
180.00019878630189
0
ARC
5
141
100
AcDbEntity
8
0
100
AcDbCircle
10
-75.606863742916659
20
11.968994169848933
30
0
40
1.0000000782999343
210
0
220
0
230
1
100
AcDbArc
50
-89.999736155854592
51
0.00019878630189099501
0
LWPOLYLINE
5
142
100
AcDbEntity
8
0
100
AcDbPolyline
90
4
70
1
43
0.0
10
-97.106862745404371
20
32.219004886492442
10
-97.106862745404371
20
35.21901552985323
10
-102.10686433545416
20
35.21901552985323
10
-102.10686433545416
20
32.219004886492442
0
ARC
5
143
100
AcDbEntity
8
0
100
AcDbCircle
10
-99.606859503208071
20
37.717942666917075
30
0
40
1.0000000782999598
210
0
220
0
230
1
100
AcDbArc
50
-180.06105344511192
51
0.061053445105970661
0
ARC
5
144
100
AcDbEntity
8
0
100
AcDbCircle
10
-99.606859503208071
20
37.720073833954316
30
0
40
1.0000000782999598
210
0
220
0
230
1
100
AcDbArc
50
-0.061053445105968732
51
180.06105344509999
0
LWPOLYLINE
5
145
100
AcDbEntity
8
0
100
AcDbPolyline
90
4
70
1
43
0.0
10
-64.10685871062968
20
32.219004886492442
10
-59.106857120579896
20
32.219004886492442
10
-59.106857120579896
20
35.21901552985323
10
-64.10685871062968
20
35.21901552985323
0
LWPOLYLINE
5
146
100
AcDbEntity
8
0
100
AcDbPolyline
90
4
70
1
43
0.0
10
-64.10685871062968
20
43.218995465494068
10
-64.10685871062968
20
40.21898482213328
10
-59.106857120579896
20
40.21898482213328
10
-59.106857120579896
20
43.218995465494075
0
CIRCLE
5
147
100
AcDbEntity
8
0
100
AcDbCircle
10
-61.606859934215407
20
37.719008233745413
30
0
40
1.0000015291763289
210
-0
220
0
230
1
0
ARC
5
148
100
AcDbEntity
8
0
100
AcDbCircle
10
-70.356860698191952
20
46.919839734175426
30
0
40
0.60000008482894085
210
0
220
0
230
1
100
AcDbArc
50
-180.0643559801552
51
0.064355980160868451
0
ARC
5
149
100
AcDbEntity
8
0
100
AcDbCircle
10
-70.356860698191952
20
46.921187602579117
30
0
40
0.60000008482894085
210
0
220
0
230
1
100
AcDbArc
50
-0.064355980155190257
51
180.06435598016085
0
ARC
5
150
100
AcDbEntity
8
0
100
AcDbCircle
10
-101.85685941128619
20
12.468325479038176
30
0
40
0.60000008482893197
210
0
220
0
230
1
100
AcDbArc
50
-180.06435598014389
51
0.064355980155205189
0
ARC
5
151
100
AcDbEntity
8
0
100
AcDbCircle
10
-101.85685941128622
20
12.469673347441834
30
0
40
0.60000008482894973
210
0
220
0
230
1
100
AcDbArc
50
-0.064355980155190257
51
180.06435598016085
0
CIRCLE
5
152
100
AcDbEntity
8
0
100
AcDbCircle
10
-59.356860026137241
20
29.968980745252118
30
0
40
0.60000172495003679
210
-0
220
0
230
1
0
LWPOLYLINE
5
153
100
AcDbEntity
8
0
100
AcDbPolyline
90
20
70
1
43
0.0
10
-87.485534767036839
20
7.340323508404869
10
-93.82951922742437
20
0.99633097357489375
42
-0.49453049581249142
10
-98.555571134238988
20
1.6292380700942743
10
-104.21158887508243
20
11.527277191012812
42
-0.13051960620439879
10
-104.60685705603663
20
13.015687613343845
10
-104.6068570560366
20
40.470003088827923
42
-0.17632679769549606
10
-102.26730350681359
20
46.897872931764681
10
-96.604228703274231
20
53.646879499578581
42
-0.2216946989036479
10
-88.943787146840037
20
57.219012836741399
10
-72.269942383636447
20
57.21901283674142
42
-0.22169491068589051
10
-64.609492752764069
20
53.646879499575057
10
-58.946413911999215
20
46.897872931764688
42
-0.1763267976954957
10
-56.60686036277621
20
40.470003088827909
10
-56.60686036277621
20
13.01568761334385
42
-0.13051969707188382
10
-57.002132580951624
20
11.527277191012812
10
-62.658150321795112
20
1.6292380700942877
42
-0.4945304958124897
10
-67.384202228609695
20
0.99633097357489042
10
-73.728178614554793
20
7.3403235084048752
42
0.19891202320012594
10
-75.849496133405168
20
8.2190004840303921
10
-85.364217248186463
20
8.2190004840303867
42
0.19891202320012949
0
ENDSEC
0
SECTION
2
OBJECTS
0
DICTIONARY
5
C
100
AcDbDictionary
3
ACAD_GROUP
350
D
3
ACAD_MLINESTYLE
350
17
0
DICTIONARY
5
D
100
AcDbDictionary
0
DICTIONARY
5
1A
330
C
100
AcDbDictionary
0
DICTIONARY
5
17
100
AcDbDictionary
0
ENDSEC
0
EOF
