0
SECTION
2
HEADER
9
$INSUNITS
70
4
9
$ACADVER
1
AC1014
9
$HANDSEED
5
FFFF
0
ENDSEC
0
SECTION
2
TABLES
0
TABLE
2
VPORT
5
8
100
AcDbSymbolTable
0
ENDTAB
0
TABLE
2
LTYPE
5
5
100
AcDbSymbolTable
0
LTYPE
5
14
100
AcDbSymbolTableRecord
100
AcDbLinetypeTableRecord
2
BYBLOCK
70
0
0
LTYPE
5
15
100
AcDbSymbolTableRecord
100
AcDbLinetypeTableRecord
2
BYLAYER
70
0
0
ENDTAB
0
TABLE
2
LAYER
5
2
100
AcDbSymbolTable
70
2
0
LAYER
5
50
100
AcDbSymbolTableRecord
100
AcDbLayerTableRecord
2
0
70
0
6
CONTINUOUS
0
ENDTAB
0
TABLE
2
STYLE
5
3
100
AcDbSymbolTable
70
1
0
STYLE
5
11
100
AcDbSymbolTableRecord
100
AcDbTextStyleTableRecord
2
STANDARD
70
0
0
ENDTAB
0
TABLE
2
VIEW
5
6
100
AcDbSymbolTable
70
0
0
ENDTAB
0
TABLE
2
UCS
5
7
100
AcDbSymbolTable
70
0
0
ENDTAB
0
TABLE
2
APPID
5
9
100
AcDbSymbolTable
70
2
0
APPID
5
12
100
AcDbSymbolTableRecord
100
AcDbRegAppTableRecord
2
ACAD
70
0
0
ENDTAB
0
TABLE
2
DIMSTYLE
5
A
100
AcDbSymbolTable
70
1
0
ENDTAB
0
TABLE
2
BLOCK_RECORD
5
1
100
AcDbSymbolTable
70
1
0
BLOCK_RECORD
5
1F
100
AcDbSymbolTableRecord
100
AcDbBlockTableRecord
2
*MODEL_SPACE
0
BLOCK_RECORD
5
1B
100
AcDbSymbolTableRecord
100
AcDbBlockTableRecord
2
*PAPER_SPACE
0
ENDTAB
0
ENDSEC
0
SECTION
2
BLOCKS
0
BLOCK
5
20
100
AcDbEntity
100
AcDbBlockBegin
2
*MODEL_SPACE
0
ENDBLK
5
21
100
AcDbEntity
100
AcDbBlockEnd
0
BLOCK
5
1C
100
AcDbEntity
100
AcDbBlockBegin
2
*PAPER_SPACE
0
ENDBLK
5
1D
100
AcDbEntity
100
AcDbBlockEnd
0
ENDSEC
0
SECTION
2
ENTITIES
0
CIRCLE
5
100
100
AcDbEntity
8
0
100
AcDbCircle
10
21.201325762783682
20
-0.18854484046813891
30
0
40
0.60000172495003667
210
0
220
-0
230
1
0
ARC
5
101
100
AcDbEntity
8
0
100
AcDbCircle
10
-10.298674968921162
20
4.0602709723496941
30
0
40
0.60000090488947277
210
0
220
0
230
1
100
AcDbArc
50
-180.11452224080858
51
0.11452224080539056
0
ARC
5
102
100
AcDbEntity
8
0
100
AcDbCircle
10
-10.298674968921164
20
4.0626695225725316
30
0
40
0.60000090488947488
210
0
220
0
230
1
100
AcDbArc
50
-0.11452224080219787
51
180.11452224080219
0
ARC
5
103
100
AcDbEntity
8
0
100
AcDbCircle
10
-10.29867496892116
20
16.761788807545525
30
0
40
0.60000090488947488
210
0
220
0
230
1
100
AcDbArc
50
-180.11452224080219
51
0.11452224080220809
0
ARC
5
104
100
AcDbEntity
8
0
100
AcDbCircle
10
-10.298674968921162
20
16.764187357768364
30
0
40
0.6000009048894771
210
0
220
0
230
1
100
AcDbArc
50
-0.11452224080219787
51
180.1145222408054
0
CIRCLE
5
105
100
AcDbEntity
8
0
100
AcDbCircle
10
21.201325762783696
20
-17.68852618231508
30
0
40
0.60000172495003667
210
0
220
-0
230
1
0
ARC
5
106
100
AcDbEntity
8
0
100
AcDbCircle
10
10.201325090728988
20
4.0607963132593419
30
0
40
0.60000008482893974
210
0
220
0
230
1
100
AcDbArc
50
-180.0643559801552
51
0.064355980149541928
0
ARC
5
107
100
AcDbEntity
8
0
100
AcDbCircle
10
10.201325090728988
20
4.0621441816629753
30
0
40
0.60000008482893863
210
0
220
0
230
1
100
AcDbArc
50
-0.064355980155190257
51
180.0643559801552
0
ARC
5
108
100
AcDbEntity
8
0
100
AcDbCircle
10
-21.298673622365225
20
-0.18921876483517505
30
0
40
0.6000000848289142
210
0
220
0
230
1
100
AcDbArc
50
-180.06435598014951
51
0.064355980149541928
0
ARC
5
109
100
AcDbEntity
8
0
100
AcDbCircle
10
-21.298673622365222
20
-0.18787089643154339
30
0
40
0.60000008482890976
210
0
220
0
230
1
100
AcDbArc
50
-0.064355980155190257
51
180.0643559801552
0
ARC
5
110
100
AcDbEntity
8
0
100
AcDbCircle
10
10.201325090728979
20
16.762314148455125
30
0
40
0.60000008482893974
210
0
220
0
230
1
100
AcDbArc
50
-180.0643559801552
51
0.064355980155205189
0
ARC
5
111
100
AcDbEntity
8
0
100
AcDbCircle
10
10.201325090728981
20
16.763662016858813
30
0
40
0.60000008482893652
210
0
220
0
230
1
100
AcDbArc
50
-0.064355980160889809
51
180.06435598016085
0
ARC
5
112
100
AcDbEntity
8
0
100
AcDbCircle
10
-21.298673622365207
20
-17.689200106682083
30
0
40
0.6000000848289142
210
0
220
0
230
1
100
AcDbArc
50
-180.06435598014951
51
0.064355980155205189
0
ARC
5
113
100
AcDbEntity
8
0
100
AcDbCircle
10
-21.298673622365207
20
-17.687852238278424
30
0
40
0.6000000848289142
210
0
220
0
230
1
100
AcDbArc
50
-0.064355980155190257
51
180.06435598016085
0
LWPOLYLINE
5
114
100
AcDbEntity
8
0
100
AcDbPolyline
90
4
70
1
43
0.0
10
16.451327078291232
20
13.06146987977378
10
16.451327078291236
20
10.061459236413
10
21.451328668341013
20
10.061459236413006
10
21.451328668341006
20
13.06146987977379
0
ARC
5
115
100
AcDbEntity
8
0
100
AcDbCircle
10
10.201321810474662
20
4.0614764715066345
30
0
40
1.5999918994416955
210
0
220
0
230
1
100
AcDbArc
50
112.61993120898786
51
180.00022288234848
0
LINE
5
116
100
AcDbEntity
8
0
100
AcDbLine
10
8.6013299110450721
20
4.0614702474611555
30
0
11
8.6013218365980411
21
0.31147309214502983
31
0
0
ARC
5
117
100
AcDbEntity
8
0
100
AcDbCircle
10
9.6013219148965696
20
0.31146962265204625
30
0
40
1.0000000783045473
210
0
220
0
230
1
100
AcDbArc
50
179.99980121369813
51
269.99973615585367
0
LINE
5
118
100
AcDbEntity
8
0
100
AcDbLine
10
9.6013173099471434
20
-0.68853045564189819
30
0
11
12.951322735479398
21
-0.68853045564189252
31
0
0
ARC
5
119
100
AcDbEntity
8
0
100
AcDbCircle
10
12.943688118758574
20
-8.9385274271143054
30
0
40
8.2500005040409814
210
0
220
0
230
1
100
AcDbArc
50
-89.946978017942868
51
89.946978017937894
0
LINE
5
120
100
AcDbEntity
8
0
100
AcDbLine
10
12.951322735478675
20
-17.188524398586718
30
0
11
6.9513256720851437
21
-17.188524398586772
31
0
0
ARC
5
121
100
AcDbEntity
8
0
100
AcDbCircle
10
6.9513222025921459
20
-18.188524476880701
30
0
40
1.0000000782999465
210
0
220
-0
230
1
100
AcDbArc
50
89.999801212709741
51
180.00019878630189
0
ARC
5
122
100
AcDbEntity
8
0
100
AcDbCircle
10
4.9513220460042966
20
-18.188531415871292
30
0
40
1.000000078299941
210
0
220
0
230
1
100
AcDbArc
50
-89.999736155853569
51
0.00019878630189099501
0
LINE
5
123
100
AcDbEntity
8
0
100
AcDbLine
10
4.9513266509537246
20
-19.188531494160628
30
0
11
-5.0486684547033871
21
-19.18853149416065
31
0
0
ARC
5
124
100
AcDbEntity
8
0
100
AcDbCircle
10
-5.0486719241964026
20
-18.188531415866727
30
0
40
1.0000000782999388
210
0
220
0
230
1
100
AcDbArc
50
179.99980121369813
51
270.00019878729125
0
ARC
5
125
100
AcDbEntity
8
0
100
AcDbCircle
10
-7.0486720807842751
20
-18.188524476876136
30
0
40
1.000000078299971
210
-0
220
0
230
1
100
AcDbArc
50
-0.00019878630188768732
51
90.001667734754676
0
LINE
5
126
100
AcDbEntity
8
0
100
AcDbLine
10
-7.0487011882490691
20
-17.188524399004397
30
0
11
-13.048672613671556
21
-17.188524398586797
31
0
0
ARC
5
127
100
AcDbEntity
8
0
100
AcDbCircle
10
-13.041037996950688
20
-8.9385274271143302
30
0
40
8.2500005040410365
210
0
220
-0
230
1
100
AcDbArc
50
89.946978017510801
51
269.94697801793757
0
LINE
5
128
100
AcDbEntity
8
0
100
AcDbLine
10
-13.033403380168371
20
-0.68853045564192028
30
0
11
-9.6986752625817445
21
-0.68853045564190674
31
0
0
ARC
5
129
100
AcDbEntity
8
0
100
AcDbCircle
10
-9.6986798675311725
20
0.31146962264742589
30
0
40
1.0000000782999354
210
-0
220
0
230
1
100
AcDbArc
50
-89.999736155853569
51
0.00019878630189099501
0
LINE
5
130
100
AcDbEntity
8
0
100
AcDbLine
10
-8.6986797892372554
20
0.31147309214501478
30
0
11
-8.6986797892372572
21
4.0683831058113737
31
0
0
ARC
5
131
100
AcDbEntity
8
0
100
AcDbCircle
10
-10.298679763109249
20
4.0614764715066185
30
0
40
1.6000148805519885
210
0
220
-0
230
1
100
AcDbArc
50
0.24732409056826934
51
67.380291207618981
0
ARC
5
132
100
AcDbEntity
8
0
100
AcDbCircle
10
-9.2986789278676802
20
6.4614923289052637
30
0
40
1.0000000782999283
210
0
220
0
230
1
100
AcDbArc
50
179.76986374005253
51
247.38019047290587
0
LINE
5
133
100
AcDbEntity
8
0
100
AcDbLine
10
-10.298670939497596
20
6.4655089538837736
30
0
11
-10.298679006142372
21
10.661454905531143
31
0
0
ARC
5
134
100
AcDbEntity
8
0
100
AcDbCircle
10
-9.2986789278484494
20
10.66145837502418
30
0
40
1.0000000782999399
210
0
220
-0
230
1
100
AcDbArc
50
89.999801212709897
51
180.00019878630189
0
LINE
5
135
100
AcDbEntity
8
0
100
AcDbLine
10
-9.2986754583554543
20
11.661458453318101
30
0
11
-8.0486710235937604
21
11.661466527126905
31
0
0
ARC
5
136
100
AcDbEntity
8
0
100
AcDbCircle
10
-8.0486675541287749
20
12.661458531612016
30
0
40
0.99999200449112935
210
0
220
0
230
1
100
AcDbArc
50
-90.000198787290259
51
0.00019878630189099501
0
LINE
5
137
100
AcDbEntity
8
0
100
AcDbLine
10
-7.0486755496436633
20
12.661462001077041
30
0
11
-7.0486674758348489
21
22.061469512086379
31
0
0
ARC
5
138
100
AcDbEntity
8
0
100
AcDbCircle
10
-6.0486673975409353
20
22.061472981583961
30
0
40
1.0000000782999343
210
0
220
0
230
1
100
AcDbArc
50
90.000263844143987
51
180.00019878630189
0
LINE
5
139
100
AcDbEntity
8
0
100
AcDbLine
10
-6.0486720024903207
20
23.061473059873293
30
0
11
5.9513221242981746
21
23.061473059873325
31
0
0
ARC
5
140
100
AcDbEntity
8
0
100
AcDbCircle
10
5.9513255937911858
20
22.061472981579428
30
0
40
1.0000000782999166
210
0
220
0
230
1
100
AcDbArc
50
-0.00019878630188768732
51
90.000198787291041
0
LINE
5
141
100
AcDbEntity
8
0
100
AcDbLine
10
6.9513256720850833
20
22.061469512086397
30
0
11
6.9513256720851171
21
12.653453628394388
31
0
0
ARC
5
142
100
AcDbEntity
8
0
100
AcDbCircle
10
7.9513257503790582
20
12.661490829381814
30
0
40
1.0000323760696954
210
0
220
0
230
1
100
AcDbArc
50
180.46048774448184
51
270.00019878086897
0
LINE
5
143
100
AcDbEntity
8
0
100
AcDbLine
10
7.9513292198720364
20
11.661458453318136
30
0
11
9.2013255801632869
21
11.661458453318144
31
0
0
ARC
5
144
100
AcDbEntity
8
0
100
AcDbCircle
10
9.2013290496562998
20
10.661458375024193
30
0
40
1.0000000782999676
210
0
220
0
230
1
100
AcDbArc
50
-0.00019878813531207235
51
90.000198787291126
0
LINE
5
145
100
AcDbEntity
8
0
100
AcDbLine
10
10.201329127950249
20
10.661454905510158
30
0
11
10.201321053507794
21
6.4614852217037289
31
0
0
ARC
5
146
100
AcDbEntity
8
0
100
AcDbCircle
10
9.2013209752487093
20
6.4614761800268923
30
0
40
1.0000081527423699
210
0
220
0
230
1
100
AcDbArc
50
-67.380190471420761
51
0.00051804998118559309
0
ARC
5
147
100
AcDbEntity
8
0
100
AcDbCircle
10
-19.048673714287077
20
7.5604170811967544
30
0
40
1.0000000782999556
210
0
220
0
230
1
100
AcDbArc
50
-180.06105344511192
51
0.061053445105970661
0
ARC
5
148
100
AcDbEntity
8
0
100
AcDbCircle
10
-19.048673714287077
20
7.5625482482340045
30
0
40
1.0000000782999576
210
0
220
0
230
1
100
AcDbArc
50
-0.061053445105968732
51
180.06105344509999
0
CIRCLE
5
149
100
AcDbEntity
8
0
100
AcDbCircle
10
18.951325854705516
20
7.5614826480251374
30
0
40
1.0000015291763262
210
0
220
-0
230
1
0
LWPOLYLINE
5
150
100
AcDbEntity
8
0
100
AcDbPolyline
90
4
70
1
43
0.0
10
-16.54867695648338
20
2.0614793007721417
10
-16.548676956483384
20
5.0614899441329264
10
-21.548678546533168
20
5.0614899441329246
10
-21.548678546533154
20
2.0614793007721395
0
LWPOLYLINE
5
151
100
AcDbEntity
8
0
100
AcDbPolyline
90
4
70
1
43
0.0
10
-16.548676956483391
20
13.061469879773755
10
-21.548678546533164
20
13.061469879773743
10
-21.548678546533154
20
10.06145923641296
10
-16.54867695648338
20
10.06145923641297
0
LWPOLYLINE
5
152
100
AcDbEntity
8
0
100
AcDbPolyline
90
4
70
1
43
0.0
10
16.451327078291243
20
2.061479300772175
10
21.451328668341027
20
2.0614793007721799
10
21.451328668341016
20
5.0614899441329619
10
16.451327078291243
20
5.0614899441329602
0
SPLINE
5
153
100
AcDbEntity
8
0
100
AcDbSpline
70
4
71
5
72
101
73
95
74
0
42
0.000000001
43
0.0000000001
44
0.0000000001
40
0
40
0
40
0
40
0
40
0
40
0
40
0.011111111111111112
40
0.022222222222222223
40
0.033333333333333333
40
0.044444444444444446
40
0.055555555555555559
40
0.066666666666666666
40
0.077777777777777779
40
0.088888888888888892
40
0.10000000000000001
40
0.11111111111111112
40
0.12222222222222223
40
0.13333333333333333
40
0.14444444444444443
40
0.15555555555555553
40
0.16666666666666663
40
0.17777777777777773
40
0.18888888888888883
40
0.19999999999999993
40
0.21111111111111103
40
0.22222222222222213
40
0.23333333333333323
40
0.24444444444444433
40
0.25555555555555542
40
0.26666666666666655
40
0.27777777777777768
40
0.28888888888888881
40
0.29999999999999993
40
0.31111111111111106
40
0.32222222222222219
40
0.33333333333333331
40
0.34444444444444444
40
0.35555555555555557
40
0.3666666666666667
40
0.37777777777777782
40
0.38888888888888895
40
0.40000000000000008
40
0.4111111111111112
40
0.42222222222222233
40
0.43333333333333346
40
0.44444444444444459
40
0.45555555555555571
40
0.46666666666666684
40
0.47777777777777797
40
0.48888888888888909
40
0.50000000000000022
40
0.51111111111111129
40
0.52222222222222237
40
0.53333333333333344
40
0.54444444444444451
40
0.55555555555555558
40
0.56666666666666665
40
0.57777777777777772
40
0.5888888888888888
40
0.59999999999999987
40
0.61111111111111094
40
0.62222222222222201
40
0.63333333333333308
40
0.64444444444444415
40
0.65555555555555522
40
0.6666666666666663
40
0.67777777777777737
40
0.68888888888888844
40
0.69999999999999951
40
0.71111111111111058
40
0.72222222222222165
40
0.73333333333333273
40
0.7444444444444438
40
0.75555555555555487
40
0.76666666666666594
40
0.77777777777777701
40
0.78888888888888808
40
0.79999999999999916
40
0.81111111111111023
40
0.8222222222222213
40
0.83333333333333237
40
0.84444444444444344
40
0.85555555555555451
40
0.86666666666666559
40
0.87777777777777666
40
0.88888888888888773
40
0.8999999999999988
40
0.91111111111110987
40
0.92222222222222094
40
0.93333333333333202
40
0.94444444444444309
40
0.95555555555555416
40
0.96666666666666523
40
0.9777777777777763
40
0.98888888888888737
40
1
40
1
40
1
40
1
40
1
40
1
41
1
41
1
41
1
41
1
41
1
41
1
41
1
41
1
41
1
41
1
41
1
41
1
41
1
41
1
41
1
41
1
41
1
41
1
41
1
41
1
41
1
41
1
41
1
41
1
41
1
41
1
41
1
41
1
41
1
41
1
41
1
41
1
41
1
41
1
41
1
41
1
41
1
41
1
41
1
41
1
41
1
41
1
41
1
41
1
41
1
41
1
41
1
41
1
41
1
41
1
41
1
41
1
41
1
41
1
41
1
41
1
41
1
41
1
41
1
41
1
41
1
41
1
41
1
41
1
41
1
41
1
41
1
41
1
41
1
41
1
41
1
41
1
41
1
41
1
41
1
41
1
41
1
41
1
41
1
41
1
41
1
41
1
41
1
41
1
41
1
41
1
41
1
41
1
41
1
41
1
41
1
41
1
41
1
41
1
41
1
10
-0.052832737465182689
20
-37.772762966879839
30
0
10
0.1070802567737731
20
-37.78520349714077
30
0
10
0.4396753586538884
20
-37.80232103088143
30
0
10
0.97687536258591334
20
-37.804706708642655
30
0
10
1.7692392954375991
20
-37.759655639970092
30
0
10
2.8823346824039255
20
-37.613660927052841
30
0
10
4.1106749996095235
20
-37.366616356920197
30
0
10
5.4433486014351464
20
-37.008152081088816
30
0
10
6.8656033177876949
20
-36.532011977418925
30
0
10
8.3585553831477029
20
-35.939063178412091
30
0
10
9.9004588519097645
20
-35.235744589960241
30
0
10
11.467931842355942
20
-34.432624497419766
30
0
10
13.037209844098498
20
-33.542914146209952
30
0
10
14.585358056390128
20
-32.581019460919592
30
0
10
16.091568339872854
20
-31.561039688615189
30
0
10
17.538265564277783
20
-30.495378815684688
30
0
10
18.912684178531624
20
-29.39308557093057
30
0
10
20.206698603985728
20
-28.259201134389507
30
0
10
21.415004421288259
20
-27.09507060048109
30
0
10
22.533740919095724
20
-25.898376170692487
30
0
10
23.558965879000262
20
-24.66330452661914
30
0
10
24.485122786212262
20
-23.380600067783877
30
0
10
25.303676853277324
20
-22.037789400695068
30
0
10
26.001276771539786
20
-20.61902889801873
30
0
10
26.559361921292705
20
-19.106048942134048
30
0
10
26.958827453318808
20
-17.482929189027804
30
0
10
27.183826168776196
20
-15.740199970790743
30
0
10
27.225993106514355
20
-13.879322038939064
30
0
10
27.088309807671944
20
-11.91676473847158
30
0
10
26.789563984259669
20
-9.8888462112826652
30
0
10
26.36755755601445
20
-7.8549120983671479
30
0
10
25.885377110288879
20
-5.9046051971856333
30
0
10
25.42591506879106
20
-4.1494090642640336
30
0
10
25.075877969530982
20
-2.7001172153578246
30
0
10
24.91326176583933
20
-1.6489372145423564
30
0
10
24.992300516222862
20
-1.0482135478189358
30
0
10
25.332028651647278
20
-0.89397098508385953
30
0
10
25.896930383304714
20
-1.0988616132529483
30
0
10
26.607763207709368
20
-1.5062196029986441
30
0
10
27.372087239834929
20
-1.9341317962175364
30
0
10
28.114010399736049
20
-2.2123135999683385
30
0
10
28.781756932492048
20
-2.2131473063995633
30
0
10
29.340267934991555
20
-1.8700315861377625
30
0
10
29.76802817300754
20
-1.2096163395864756
30
0
10
30.053981679872351
20
-0.34436633013076756
30
0
10
30.19856978211298
20
0.59150816587861477
30
0
10
30.213095000674034
20
1.4870866689260287
30
0
10
30.121000979819264
20
2.3197660138655918
30
0
10
29.95104708137811
20
3.1407009605573251
30
0
10
29.726735317980054
20
4.0289769200012273
30
0
10
29.458167251551348
20
5.0588856928146919
30
0
10
29.1298973041457
20
6.254368555822964
30
0
10
28.706856410981061
20
7.5893092851095698
30
0
10
28.148201949074686
20
9.006478123522232
30
0
10
27.418309585420428
20
10.430366696950619
30
0
10
26.499671406804325
20
11.782970001251234
30
0
10
25.403330582297027
20
12.997304724184747
30
0
10
24.184437073461879
20
14.034324002828377
30
0
10
22.941576585138112
20
14.890034557745855
30
0
10
21.788019827879928
20
15.586517645778315
30
0
10
20.830202267927895
20
16.166457430993905
30
0
10
20.141526711613459
20
16.68662217859249
30
0
10
19.74223894476204
20
17.211014634752971
30
0
10
19.566203019749533
20
17.806158467017042
30
0
10
19.495684224946444
20
18.524924769935144
30
0
10
19.41284383480691
20
19.390098660900478
30
0
10
19.257227833751575
20
20.37108172610008
30
0
10
19.034767679251093
20
21.39125004678931
30
0
10
18.780576294698758
20
22.363230930825281
30
0
10
18.536374154945069
20
23.214565045883653
30
0
10
18.318841767101588
20
23.921118846921978
30
0
10
18.10115009662875
20
24.525702187784432
30
0
10
17.838164676402069
20
25.10198919074729
30
0
10
17.485276742455888
20
25.726643291498227
30
0
10
17.020194823265815
20
26.447574517157886
30
0
10
16.437845362541673
20
27.287302591979874
30
0
10
15.744902313652563
20
28.246535760961947
30
0
10
14.954771700398993
20
29.307785194284158
30
0
10
14.081581731477817
20
30.438707261630253
30
0
10
13.138035060556065
20
31.596565837895788
30
0
10
12.136359323437658
20
32.733646041001585
30
0
10
11.088365405970448
20
33.802336380045013
30
0
10
10.005884347762059
20
34.760463078755485
30
0
10
8.9010139514068687
20
35.576249686820141
30
0
10
7.7865147437842168
20
36.234092162747189
30
0
10
6.6759386934727436
20
36.738037402128882
30
0
10
5.5827128822168293
20
37.105070801002434
30
0
10
4.5193615153381872
20
37.359816715798353
30
0
10
3.4966820016437001
20
37.528737350602377
30
0
10
2.522919842023033
20
37.634454189279879
30
0
10
1.6029965294502533
20
37.690281045963104
30
0
10
0.91210243906036104
20
37.70028119381243
30
0
10
0.41963795225204487
20
37.689210694234198
30
0
10
0.10275332614708613
20
37.67356602442139
30
0
10
-0.052832737465182689
20
37.663677562217792
30
0
0
SPLINE
5
154
100
AcDbEntity
8
0
100
AcDbSpline
70
4
71
5
72
101
73
95
74
0
42
0.000000001
43
0.0000000001
44
0.0000000001
40
-1
40
-1
40
-1
40
-1
40
-1
40
-1
40
-0.98888888888888737
40
-0.9777777777777763
40
-0.96666666666666523
40
-0.95555555555555416
40
-0.94444444444444309
40
-0.93333333333333202
40
-0.92222222222222094
40
-0.91111111111110987
40
-0.8999999999999988
40
-0.88888888888888773
40
-0.87777777777777666
40
-0.86666666666666559
40
-0.85555555555555451
40
-0.84444444444444344
40
-0.83333333333333237
40
-0.8222222222222213
40
-0.81111111111111023
40
-0.79999999999999916
40
-0.78888888888888808
40
-0.77777777777777701
40
-0.76666666666666594
40
-0.75555555555555487
40
-0.7444444444444438
40
-0.73333333333333273
40
-0.72222222222222165
40
-0.71111111111111058
40
-0.69999999999999951
40
-0.68888888888888844
40
-0.67777777777777737
40
-0.6666666666666663
40
-0.65555555555555522
40
-0.64444444444444415
40
-0.63333333333333308
40
-0.62222222222222201
40
-0.61111111111111094
40
-0.59999999999999987
40
-0.5888888888888888
40
-0.57777777777777772
40
-0.56666666666666665
40
-0.55555555555555558
40
-0.54444444444444451
40
-0.53333333333333344
40
-0.52222222222222237
40
-0.51111111111111129
40
-0.50000000000000022
40
-0.48888888888888909
40
-0.47777777777777797
40
-0.46666666666666684
40
-0.45555555555555571
40
-0.44444444444444459
40
-0.43333333333333346
40
-0.42222222222222233
40
-0.4111111111111112
40
-0.40000000000000008
40
-0.38888888888888895
40
-0.37777777777777782
40
-0.3666666666666667
40
-0.35555555555555557
40
-0.34444444444444444
40
-0.33333333333333331
40
-0.32222222222222219
40
-0.31111111111111106
40
-0.29999999999999993
40
-0.28888888888888881
40
-0.27777777777777768
40
-0.26666666666666655
40
-0.25555555555555542
40
-0.24444444444444433
40
-0.23333333333333323
40
-0.22222222222222213
40
-0.21111111111111103
40
-0.19999999999999993
40
-0.18888888888888883
40
-0.17777777777777773
40
-0.16666666666666663
40
-0.15555555555555553
40
-0.14444444444444443
40
-0.13333333333333333
40
-0.12222222222222223
40
-0.11111111111111112
40
-0.10000000000000001
40
-0.088888888888888892
40
-0.077777777777777779
40
-0.066666666666666666
40
-0.055555555555555559
40
-0.044444444444444446
40
-0.033333333333333333
40
-0.022222222222222223
40
-0.011111111111111112
40
0
40
0
40
0
40
0
40
0
40
0
41
1
41
1
41
1
41
1
41
1
41
1
41
1
41
1
41
1
41
1
41
1
41
1
41
1
41
1
41
1
41
1
41
1
41
1
41
1
41
1
41
1
41
1
41
1
41
1
41
1
41
1
41
1
41
1
41
1
41
1
41
1
41
1
41
1
41
1
41
1
41
1
41
1
41
1
41
1
41
1
41
1
41
1
41
1
41
1
41
1
41
1
41
1
41
1
41
1
41
1
41
1
41
1
41
1
41
1
41
1
41
1
41
1
41
1
41
1
41
1
41
1
41
1
41
1
41
1
41
1
41
1
41
1
41
1
41
1
41
1
41
1
41
1
41
1
41
1
41
1
41
1
41
1
41
1
41
1
41
1
41
1
41
1
41
1
41
1
41
1
41
1
41
1
41
1
41
1
41
1
41
1
41
1
41
1
41
1
41
1
10
-0.052832737465182689
20
37.663677562217792
30
0
10
-0.20841880107745148
20
37.67356602442139
30
0
10
-0.52530342718241174
20
37.689210694234198
30
0
10
-1.0177679139907339
20
37.70028119381243
30
0
10
-1.708662004380638
20
37.690281045963104
30
0
10
-2.6285853169534206
20
37.634454189279879
30
0
10
-3.6023474765740691
20
37.528737350602377
30
0
10
-4.6250269902685242
20
37.359816715798353
30
0
10
-5.6883783571471529
20
37.105070801002434
30
0
10
-6.7816041684030628
20
36.738037402128882
30
0
10
-7.8921802187145493
20
36.234092162747189
30
0
10
-9.0066794263372323
20
35.576249686820141
30
0
10
-10.111549822692442
20
34.760463078755485
30
0
10
-11.194030880900836
20
33.802336380045013
30
0
10
-12.242024798368043
20
32.733646041001585
30
0
10
-13.243700535486454
20
31.596565837895788
30
0
10
-14.187247206408216
20
30.438707261630253
30
0
10
-15.060437175329371
20
29.307785194284158
30
0
10
-15.850567788582923
20
28.246535760961947
30
0
10
-16.543510837472017
20
27.287302591979874
30
0
10
-17.125860298196102
20
26.447574517157886
30
0
10
-17.590942217386175
20
25.726643291498227
30
0
10
-17.943830151332431
20
25.10198919074729
30
0
10
-18.206815571559211
20
24.525702187784432
30
0
10
-18.424507242032057
20
23.921118846921978
30
0
10
-18.64203962987547
20
23.214565045883653
30
0
10
-18.886241769629031
20
22.363230930825281
30
0
10
-19.140433154181377
20
21.39125004678931
30
0
10
-19.362893308681869
20
20.37108172610008
30
0
10
-19.51850930973724
20
19.390098660900478
30
0
10
-19.601349699876842
20
18.524924769935144
30
0
10
-19.671868494679984
20
17.806158467017042
30
0
10
-19.847904419692448
20
17.211014634752971
30
0
10
-20.247192186543799
20
16.68662217859249
30
0
10
-20.935867742858193
20
16.166457430993905
30
0
10
-21.893685302810233
20
15.586517645778315
30
0
10
-23.047242060068495
20
14.890034557745855
30
0
10
-24.290102548392341
20
14.034324002828377
30
0
10
-25.508996057227485
20
12.997304724184747
30
0
10
-26.605336881734594
20
11.782970001251234
30
0
10
-27.523975060350381
20
10.430366696950619
30
0
10
-28.253867424004323
20
9.006478123522232
30
0
10
-28.812521885910645
20
7.5893092851095698
30
0
10
-29.235562779075526
20
6.254368555822964
30
0
10
-29.563832726481529
20
5.0588856928146919
30
0
10
-29.832400792910533
20
4.0289769200012273
30
0
10
-30.056712556308728
20
3.1407009605573251
30
0
10
-30.226666454749861
20
2.3197660138655918
30
0
10
-30.318760475604506
20
1.4870866689260287
30
0
10
-30.304235257043281
20
0.59150816587861477
30
0
10
-30.159647154802556
20
-0.34436633013076756
30
0
10
-29.873693647937781
20
-1.2096163395864756
30
0
10
-29.445933409921885
20
-1.8700315861377625
30
0
10
-28.88742240742247
20
-2.2131473063995633
30
0
10
-28.219675874666482
20
-2.2123135999683385
30
0
10
-27.477752714765323
20
-1.9341317962175364
30
0
10
-26.713428682639716
20
-1.5062196029986441
30
0
10
-26.002595858235029
20
-1.0988616132529483
30
0
10
-25.4376941265776
20
-0.89397098508385953
30
0
10
-25.097965991153263
20
-1.0482135478189358
30
0
10
-25.018927240769692
20
-1.6489372145423564
30
0
10
-25.18154344446117
20
-2.7001172153578246
30
0
10
-25.531580543721123
20
-4.1494090642640336
30
0
10
-25.991042585218928
20
-5.9046051971856333
30
0
10
-26.473223030944652
20
-7.8549120983671479
30
0
10
-26.895229459190148
20
-9.8888462112826652
30
0
10
-27.193975282602803
20
-11.91676473847158
30
0
10
-27.331658581445591
20
-13.879322038939064
30
0
10
-27.289491643707706
20
-15.740199970790743
30
0
10
-27.064492928250395
20
-17.482929189027804
30
0
10
-26.665027396224051
20
-19.106048942134048
30
0
10
-26.106942246470727
20
-20.61902889801873
30
0
10
-25.40934232820776
20
-22.037789400695068
30
0
10
-24.590788261142301
20
-23.380600067783877
30
0
10
-23.664631353929991
20
-24.66330452661914
30
0
10
-22.639406394025347
20
-25.898376170692487
30
0
10
-21.520669896217992
20
-27.09507060048109
30
0
10
-20.312364078915714
20
-28.259201134389507
30
0
10
-19.018349653461854
20
-29.39308557093057
30
0
10
-17.643931039208177
20
-30.495378815684688
30
0
10
-16.197233814803234
20
-31.561039688615189
30
0
10
-14.691023531320349
20
-32.581019460919592
30
0
10
-13.142875319028573
20
-33.542914146209952
30
0
10
-11.573597317285971
20
-34.432624497419766
30
0
10
-10.006124326839769
20
-35.235744589960241
30
0
10
-8.4642208580777574
20
-35.939063178412091
30
0
10
-6.9712687927178916
20
-36.532011977418925
30
0
10
-5.5490140763655296
20
-37.008152081088816
30
0
10
-4.2163404745400088
20
-37.366616356920197
30
0
10
-2.9880001573344268
20
-37.613660927052841
30
0
10
-1.8749047703680468
20
-37.759655639970092
30
0
10
-1.082540837516309
20
-37.804706708642655
30
0
10
-0.54534083358425933
20
-37.80232103088143
30
0
10
-0.21274573170413846
20
-37.78520349714077
30
0
10
-0.052832737465182689
20
-37.772762966879839
30
0
0
ENDSEC
0
SECTION
2
OBJECTS
0
DICTIONARY
5
C
100
AcDbDictionary
3
ACAD_GROUP
350
D
3
ACAD_MLINESTYLE
350
17
0
DICTIONARY
5
D
100
AcDbDictionary
0
DICTIONARY
5
1A
330
C
100
AcDbDictionary
0
DICTIONARY
5
17
100
AcDbDictionary
0
ENDSEC
0
EOF
