<?xml version="1.0" encoding="UTF-8"?>
<svg xmlns="http://www.w3.org/2000/svg" width="127.490mm" height="75.489mm" viewBox="-510.245056 262.255280 127.490082 75.489410">
    <circle transform="matrix(1,0,0,-1,-458.74585,300.135956)" style="stroke:#000000;stroke-width:0.05mm;fill:none" r="0.600002" cx="0" cy="0"/>
    <circle transform="matrix(1,0,0,-1,-458.74585,317.635956)" style="stroke:#000000;stroke-width:0.05mm;fill:none" r="0.600002" cx="0" cy="0"/>
    <circle transform="matrix(1,0,0,-1,-460.99585,292.385925)" style="stroke:#000000;stroke-width:0.05mm;fill:none" r="1.000002" cx="0" cy="0"/>
    <path transform="matrix(1,0,0,-1,-479.947174,299.947418)" style="stroke:#000000;stroke-width:0.05mm;fill:none" d="M-9.698675,4.06147C-9.698246,3.846825,-9.812511,3.648301,-9.998328,3.540855C-10.184145,3.433408,-10.413204,3.433408,-10.599021,3.540855C-10.784838,3.648301,-10.899103,3.846825,-10.898674,4.06147C-10.899103,4.276115,-10.784838,4.474639,-10.599021,4.582086C-10.413204,4.689532,-10.184145,4.689532,-9.998328,4.582086C-9.812511,4.474639,-9.698246,4.276115,-9.698675,4.06147z"/>
    <path transform="matrix(1,0,0,-1,-479.947174,299.947418)" style="stroke:#000000;stroke-width:0.05mm;fill:none" d="M-9.698675,16.762989C-9.698246,16.548344,-9.812511,16.349819,-9.998328,16.242373C-10.184145,16.134926,-10.413204,16.134926,-10.599021,16.242373C-10.784838,16.349819,-10.899103,16.548344,-10.898674,16.762989C-10.899103,16.977633,-10.784838,17.176157,-10.599021,17.283604C-10.413204,17.391048,-10.184145,17.391048,-9.998328,17.283604C-9.812511,17.176157,-9.698246,16.977633,-9.698675,16.762989z"/>
    <path transform="matrix(1,0,0,-1,-479.947174,299.947418)" style="stroke:#000000;stroke-width:0.05mm;fill:none" d="M10.801325,4.06147C10.801566,3.84695,10.68726,3.648623,10.50152,3.541293C10.315781,3.433964,10.08687,3.433964,9.901131,3.541293C9.715391,3.648623,9.601085,3.846951,9.601326,4.06147C9.601085,4.27599,9.715391,4.474318,9.901131,4.581647C10.08687,4.688977,10.315781,4.688977,10.50152,4.581647C10.68726,4.474318,10.801566,4.27599,10.801325,4.06147z"/>
    <path transform="matrix(1,0,0,-1,-479.947174,299.947418)" style="stroke:#000000;stroke-width:0.05mm;fill:none" d="M-20.698673,-0.188545C-20.698433,-0.403065,-20.81274,-0.601392,-20.99848,-0.708722C-21.184219,-0.816051,-21.413128,-0.816051,-21.598867,-0.708722C-21.784607,-0.601392,-21.898914,-0.403065,-21.898674,-0.188545C-21.898914,0.025975,-21.784607,0.224303,-21.598867,0.331632C-21.413128,0.438962,-21.184219,0.438962,-20.99848,0.331632C-20.81274,0.224303,-20.698433,0.025975,-20.698673,-0.188545z"/>
    <path transform="matrix(1,0,0,-1,-479.947174,299.947418)" style="stroke:#000000;stroke-width:0.05mm;fill:none" d="M10.801325,16.762987C10.801566,16.548468,10.68726,16.35014,10.50152,16.242811C10.315781,16.135481,10.08687,16.135481,9.901131,16.242811C9.715391,16.35014,9.601085,16.548468,9.601326,16.762987C9.601085,16.977509,9.715391,17.175837,9.901131,17.283165C10.08687,17.390495,10.315781,17.390495,10.50152,17.283165C10.68726,17.175837,10.801566,16.977509,10.801325,16.762987z"/>
    <path transform="matrix(1,0,0,-1,-479.947174,299.947418)" style="stroke:#000000;stroke-width:0.05mm;fill:none" d="M-20.698673,-17.688526C-20.698433,-17.903046,-20.81274,-18.101374,-20.99848,-18.208702C-21.184219,-18.316032,-21.413128,-18.316032,-21.598867,-18.208702C-21.784607,-18.101374,-21.898914,-17.903046,-21.898674,-17.688526C-21.898914,-17.474007,-21.784607,-17.275679,-21.598867,-17.16835C-21.413128,-17.06102,-21.184219,-17.06102,-20.99848,-17.16835C-20.81274,-17.275679,-20.698433,-17.474007,-20.698673,-17.688526z"/>
    <path transform="matrix(1,0,0,-1,-479.947174,299.947418)" style="stroke:#000000;stroke-width:0.05mm;fill:none" d="M16.451326,13.06147L16.451326,10.06146L21.451328,10.06146L21.451328,13.06147L16.451326,13.06147z"/>
    <path transform="matrix(1,0,0,-1,-479.947174,299.947418)" style="stroke:#000000;stroke-width:0.05mm;fill:none" d="M-9.698675,-0.688531C-9.146391,-0.688528,-8.698678,-0.240811,-8.69868,0.311473L-8.69868,4.068383C-8.701457,4.711794,-9.08937,5.290949,-9.683293,5.538415C-10.057291,5.694247,-10.300299,6.060349,-10.298672,6.465509L-10.298679,10.661455C-10.298681,11.213742,-9.850964,11.66146,-9.298676,11.661458L-8.048672,11.661467C-7.496388,11.661465,-7.048674,12.109179,-7.048676,12.661463L-7.048667,22.06147C-7.048669,22.613754,-6.600956,23.061472,-6.048672,23.061474L5.951322,23.061474C6.50361,23.061476,6.951327,22.613758,6.951325,22.06147L6.951326,12.653453C6.955739,12.104303,7.402162,11.661456,7.95133,11.661458L9.201325,11.661458C9.753613,11.66146,10.201331,11.213742,10.201329,10.661454L10.201328,6.461485C10.201332,6.057777,9.958591,5.693664,9.585938,5.538392C8.989705,5.28996,8.601327,4.70739,8.60133,4.061471L8.601322,0.311473C8.60132,-0.240811,9.049033,-0.688528,9.601317,-0.688531L12.951323,-0.68853C17.50469,-0.692744,21.193689,-4.385159,21.193689,-8.938527C21.193689,-13.491896,17.50469,-17.184311,12.951324,-17.188524L6.951326,-17.188524C6.399038,-17.188522,5.95132,-17.63624,5.951322,-18.188528C5.951324,-18.740812,5.503611,-19.18853,4.951327,-19.188532L-5.048668,-19.188532C-5.600955,-19.188534,-6.048674,-18.740816,-6.048672,-18.188528C-6.048671,-17.923306,-6.154032,-17.668945,-6.341575,-17.481409C-6.529117,-17.293871,-6.783479,-17.188517,-7.048701,-17.188524L-13.048673,-17.188524C-17.605019,-17.184311,-21.29525,-13.487243,-21.291035,-8.930894C-21.286819,-4.374547,-17.58975,-0.684313,-13.033402,-0.68853L-9.698675,-0.688531z"/>
    <path transform="matrix(1,0,0,-1,-479.947174,299.947418)" style="stroke:#000000;stroke-width:0.05mm;fill:none" d="M-18.048674,7.561482C-18.048294,7.203963,-18.23881,6.873439,-18.548367,6.694569C-18.857924,6.515699,-19.239424,6.515699,-19.548981,6.69457C-19.85854,6.873439,-20.049053,7.203963,-20.048674,7.561483C-20.049053,7.919002,-19.85854,8.249526,-19.548981,8.428396C-19.239424,8.607265,-18.857924,8.607265,-18.548367,8.428396C-18.238808,8.249526,-18.048294,7.919002,-18.048674,7.561482z"/>
    <path transform="matrix(1,0,0,-1,-479.947174,299.947418)" style="stroke:#000000;stroke-width:0.05mm;fill:none" d="M-16.548677,2.061479L-16.548677,5.06149L-21.548679,5.06149L-21.548679,2.061479L-16.548677,2.061479z"/>
    <path transform="matrix(1,0,0,-1,-479.947174,299.947418)" style="stroke:#000000;stroke-width:0.05mm;fill:none" d="M-16.548677,13.06147L-21.548679,13.06147L-21.548679,10.06146L-16.548677,10.06146L-16.548677,13.06147z"/>
    <path transform="matrix(1,0,0,-1,-479.947174,299.947418)" style="stroke:#000000;stroke-width:0.05mm;fill:none" d="M16.451326,2.061479L21.451328,2.061479L21.451328,5.06149L16.451326,5.06149L16.451326,2.061479z"/>
    <path transform="matrix(1,0,0,-1,-479.947174,299.947418)" style="stroke:#000000;stroke-width:0.05mm;fill:none" d="M-0.052833,37.663677L0.322068,37.682461L0.709782,37.691967L1.110288,37.692127L1.523515,37.6828L1.949344,37.663666L2.387574,37.634182L2.837908,37.593559L3.299927,37.540676L3.773081,37.47403L4.256658,37.391697L4.749796,37.291348L5.251498,37.170418L5.505206,37.101379L5.760631,37.026176L6.01761,36.944469L6.275978,36.855927L6.535574,36.760239L6.796236,36.657097L7.057786,36.54623L7.320042,36.42738L7.582835,36.300335L7.845991,36.164894L8.109328,36.020924L8.372659,35.868309L8.635815,35.706974L8.898616,35.536926L9.160875,35.358208L9.422438,35.170929L9.683125,34.97525L9.942755,34.771397L10.201174,34.55965L10.458222,34.340324L10.71373,34.113808L10.967531,33.880527L11.219471,33.640926L11.469395,33.395489L11.962547,32.889282L12.445732,32.366367L12.917679,31.831573L13.377135,31.289879L13.822817,30.746332L14.253424,30.205917L14.667632,29.673447L15.064085,29.153418L15.255212,28.899355L15.441366,28.649879L15.622357,28.405424L15.798007,28.166348L15.968133,27.932991L16.132551,27.705658L16.291098,27.48456L16.443619,27.269886L16.589968,27.061758L16.730034,26.86026L16.863722,26.665388L16.990976,26.477093L17.111763,26.295248L17.226095,26.119671L17.334019,25.9501L17.435633,25.786196L17.531082,25.627548L17.620558,25.473675L17.704321,25.32399L17.782684,25.177851L17.924797,24.89312L18.050699,24.612572L18.16489,24.328447L18.272078,24.032867L18.376699,23.718565L18.482462,23.379532L18.5366,23.199396L18.591808,23.011806L18.6481,22.816706L18.705374,22.614244L18.821882,22.188791L18.938509,21.740095L19.051462,21.27494L19.156681,20.801493L19.250532,20.328541L19.330376,19.864889L19.364645,19.639145L19.395203,19.418667L19.422318,19.204245L19.446453,18.996517L19.529428,18.239929L19.552439,18.069817L19.579132,17.906963L19.611052,17.750967L19.649754,17.601328L19.696779,17.457447L19.753607,17.318649L19.821613,17.184212L19.902046,17.053343L19.995977,16.925222L20.10428,16.799002L20.227615,16.673817L20.366386,16.548792L20.520739,16.423071L20.690573,16.295807L20.875568,16.166162L21.07523,16.033323L21.288858,15.896501L21.515612,15.754921L21.754526,15.60786L22.004499,15.454618L22.264307,15.294546L22.532667,15.127035L22.808201,14.951531L23.089478,14.76755L23.37505,14.57465L23.663448,14.372459L23.953201,14.160688L24.242855,13.939122L24.530991,13.707609L24.816252,13.466087L25.09734,13.214595L25.373053,12.953268L25.642313,12.682326L25.904163,12.402117L26.157782,12.113083L26.4025,11.815765L26.637777,11.510804L26.863203,11.198936L27.07851,10.880957L27.28355,10.557733L27.478262,10.230189L27.662701,9.899302L27.836992,9.566054L28.001354,9.23145L28.156063,8.896519L28.301458,8.562287L28.437941,8.229754L28.565943,7.899898L28.685949,7.573674L28.798456,7.251992L28.90398,6.935681L29.003036,6.625524L29.096155,6.322225L29.183847,6.026381L29.266603,5.738511L29.344898,5.459024L29.419155,5.188191L29.489763,4.926147L29.557041,4.672884L29.621248,4.428237L29.850105,3.526859L29.947569,3.112269L30.032074,2.711688L30.101496,2.317063L30.153217,1.920966L30.171566,1.720422L30.18441,1.517451L30.191408,1.311705L30.192207,1.103066L30.186497,0.891649L30.173979,0.677823L30.154385,0.462217L30.127487,0.245732L30.093098,0.029515L30.051065,-0.185087L30.001261,-0.396565L29.943611,-0.603312L29.878059,-0.803655L29.804598,-0.995891L29.723246,-1.178322L29.634052,-1.349292L29.537117,-1.507218L29.43257,-1.650639L29.320564,-1.778266L29.201302,-1.889021L29.075012,-1.982088L28.941956,-2.056926L28.802444,-2.11327L28.656811,-2.151144L28.505436,-2.170861L28.348757,-2.173008L28.187237,-2.158428L28.021404,-2.128191L27.851837,-2.083575L27.679157,-2.026042L27.504061,-1.95723L27.327305,-1.878932L26.972185,-1.701765L26.621273,-1.511455L26.450014,-1.417039L26.283045,-1.326238L26.12155,-1.241414L25.966696,-1.164907L25.819645,-1.099014L25.681524,-1.045956L25.553406,-1.00785L25.436266,-0.986674L25.330982,-0.984237L25.238312,-1.002145L25.196901,-1.01917L25.158859,-1.041782L25.124247,-1.070117L25.093102,-1.104296L25.065453,-1.144426L25.041327,-1.190593L25.020735,-1.242872L25.003681,-1.301321L24.990149,-1.365982L24.980131,-1.436879L24.973597,-1.514028L24.970507,-1.597429L24.970821,-1.687068L24.974483,-1.782917L24.98144,-1.884943L24.991623,-1.993097L25.004959,-2.107316L25.021372,-2.227539L25.040773,-2.353683L25.06308,-2.485656L25.115999,-2.766707L25.179298,-3.069813L25.252075,-3.393966L25.333359,-3.738051L25.422129,-4.100856L25.517313,-4.481086L25.617821,-4.877392L25.722527,-5.288358L25.830303,-5.712544L25.940018,-6.148493L26.050547,-6.594719L26.160778,-7.049759L26.376072,-7.98053L26.577833,-8.929792L26.671377,-9.408198L26.758961,-9.887595L26.839872,-10.366951L26.913475,-10.84531L26.979223,-11.321828L27.036625,-11.795732L27.085257,-12.266336L27.124769,-12.733021L27.154848,-13.195244L27.175249,-13.652531L27.185787,-14.104463L27.186317,-14.550696L27.176741,-14.990945L27.157011,-15.424976L27.127121,-15.852615L27.087099,-16.273737L27.037001,-16.688251L26.97694,-17.096132L26.907024,-17.497375L26.827414,-17.892017L26.738279,-18.280136L26.639822,-18.661833L26.532242,-19.037239L26.41577,-19.406507L26.290642,-19.769823L26.157104,-20.127371L26.0154,-20.479361L25.86578,-20.826012L25.708496,-21.167559L25.543791,-21.504219L25.371908,-21.836245L25.193062,-22.163858L25.007488,-22.487289L24.815357,-22.806753L24.616858,-23.122459L24.41217,-23.434616L24.201424,-23.74341L23.984768,-24.049025L23.762312,-24.351624L23.534174,-24.651373L23.061232,-25.242895L22.566618,-25.824673L22.050901,-26.397604L21.514557,-26.962429L20.958019,-27.519697L20.381706,-28.069798L19.786066,-28.61293L19.171595,-29.14912L18.538897,-29.678194L17.888699,-30.199816L17.221889,-30.713434L16.539572,-31.218313L15.843083,-31.713522L15.133987,-32.197956L14.414085,-32.670349L13.685366,-33.12933L12.949974,-33.573429L12.210191,-34.001156L11.46839,-34.410984L10.727031,-34.801441L9.988605,-35.171085L9.255624,-35.518593L8.891954,-35.683659L8.530575,-35.842751L8.171796,-35.995743L7.81591,-36.142521L7.463215,-36.28299L7.113997,-36.417065L6.768534,-36.544674L6.427099,-36.665768L6.089954,-36.780315L5.75735,-36.888306L5.429529,-36.989742L5.106716,-37.084644L4.789129,-37.173073L4.476971,-37.255081L4.170432,-37.330772L3.869689,-37.400242L3.574908,-37.463593L3.286244,-37.520977L3.003838,-37.572502L2.727822,-37.618328L2.458315,-37.658588L2.195427,-37.693439L1.939255,-37.723011L1.689888,-37.747463L1.447402,-37.766922L1.211866,-37.781513L0.983337,-37.791367L0.761863,-37.796597L0.547484,-37.797283L0.340229,-37.793499L0.140119,-37.78532L-0.052833,-37.772762L-0.245782,-37.785316L-0.445893,-37.793503L-0.65315,-37.797279L-0.867527,-37.796597L-1.089003,-37.79137L-1.317535,-37.781517L-1.553068,-37.766914L-1.795555,-37.747456L-2.044926,-37.723015L-2.301095,-37.693436L-2.563979,-37.658592L-2.833488,-37.618332L-3.109507,-37.572506L-3.39191,-37.520977L-3.680571,-37.4636L-3.975354,-37.400246L-4.276099,-37.330765L-4.582635,-37.255085L-4.894789,-37.173077L-5.212379,-37.084641L-5.535193,-36.989735L-5.863012,-36.888309L-6.19562,-36.780319L-6.532767,-36.665768L-6.874197,-36.544674L-7.219664,-36.417065L-7.568885,-36.282986L-7.921576,-36.142517L-8.277457,-35.995743L-8.636241,-35.842751L-8.997622,-35.683659L-9.361288,-35.5186L-10.094269,-35.171089L-10.832693,-34.801445L-11.574059,-34.410984L-12.315856,-34.001156L-13.055642,-33.573433L-13.791032,-33.12933L-14.51975,-32.670349L-15.239653,-32.19796L-15.948745,-31.713526L-16.645243,-31.218309L-17.327559,-30.71343L-17.994362,-30.19981L-18.644566,-29.678198L-19.27726,-29.149118L-19.891729,-28.61293L-20.48737,-28.069799L-21.063686,-27.519693L-21.620224,-26.962425L-22.156567,-26.397604L-22.672283,-25.824675L-23.166897,-25.242899L-23.639837,-24.651373L-23.867977,-24.351624L-24.090425,-24.049025L-24.307085,-23.743422L-24.51783,-23.434622L-24.722525,-23.122461L-24.921017,-22.806755L-25.113148,-22.487286L-25.298733,-22.163855L-25.477571,-21.836248L-25.64946,-21.504221L-25.814161,-21.167553L-25.971445,-20.826015L-26.121065,-20.479366L-26.26277,-20.127371L-26.396307,-19.769819L-26.521437,-19.406511L-26.637909,-19.037239L-26.745485,-18.661825L-26.843945,-18.280134L-26.933077,-17.892015L-27.01269,-17.497366L-27.082602,-17.09613L-27.142668,-16.688259L-27.192759,-16.273735L-27.232788,-15.852612L-27.262678,-15.424976L-27.282404,-14.990948L-27.291985,-14.550695L-27.291454,-14.104457L-27.280916,-13.652531L-27.260511,-13.195253L-27.230431,-12.733026L-27.190922,-12.266335L-27.14229,-11.795738L-27.084888,-11.321829L-27.019138,-10.845304L-26.945536,-10.36695L-26.864624,-9.887595L-26.777044,-9.408194L-26.6835,-8.929792L-26.481737,-7.98053L-26.266443,-7.049759L-26.156214,-6.594724L-26.045687,-6.148493L-25.935974,-5.712544L-25.828196,-5.288362L-25.723482,-4.877392L-25.622984,-4.481087L-25.527796,-4.10086L-25.43903,-3.738052L-25.357742,-3.393963L-25.284962,-3.069813L-25.221663,-2.76671L-25.168743,-2.485656L-25.146441,-2.353683L-25.127037,-2.227536L-25.110624,-2.107317L-25.097284,-1.993097L-25.087105,-1.884945L-25.080149,-1.782921L-25.076483,-1.687068L-25.076174,-1.597431L-25.07926,-1.514031L-25.085796,-1.436879L-25.095818,-1.365982L-25.109343,-1.301323L-25.126398,-1.242872L-25.14699,-1.190593L-25.171118,-1.144426L-25.198769,-1.104296L-25.229912,-1.070117L-25.264524,-1.041782L-25.302565,-1.019169L-25.343977,-1.002145L-25.436646,-0.984237L-25.541927,-0.986674L-25.659069,-1.007849L-25.787191,-1.045956L-25.925314,-1.099015L-26.072359,-1.164907L-26.227209,-1.241413L-26.38871,-1.326238L-26.555674,-1.417039L-26.726936,-1.511454L-27.07785,-1.701766L-27.432974,-1.878933L-27.609732,-1.957231L-27.784824,-2.026042L-27.9575,-2.083574L-28.127073,-2.128191L-28.292902,-2.158428L-28.45442,-2.173008L-28.611099,-2.170861L-28.762472,-2.151144L-28.908112,-2.113269L-29.047625,-2.056926L-29.180676,-1.98209L-29.306965,-1.889022L-29.426229,-1.778266L-29.538231,-1.650642L-29.642784,-1.507219L-29.739719,-1.349292L-29.828909,-1.178324L-29.910265,-0.995891L-29.98373,-0.803653L-30.049273,-0.603312L-30.106928,-0.396568L-30.156727,-0.185087L-30.198761,0.029515L-30.233149,0.24573L-30.260046,0.462217L-30.27964,0.677825L-30.29216,0.891649L-30.297874,1.103068L-30.297075,1.31171L-30.290077,1.517451L-30.277227,1.72042L-30.258888,1.920966L-30.207157,2.317062L-30.137741,2.711688L-30.053236,3.112269L-29.955772,3.526865L-29.726915,4.428237L-29.662706,4.672884L-29.595428,4.926147L-29.52482,5.188191L-29.450565,5.459024L-29.372272,5.738512L-29.289511,6.026381L-29.201818,6.322225L-29.108702,6.625524L-29.009642,6.935673L-28.904125,7.251985L-28.791615,7.573674L-28.67161,7.89989L-28.543606,8.229747L-28.407125,8.562287L-28.261726,8.896518L-28.107019,9.231449L-27.942657,9.566054L-27.768366,9.899302L-27.583933,10.23019L-27.389215,10.557732L-27.184179,10.880958L-26.96887,11.198936L-26.743439,11.510813L-26.50816,11.815772L-26.263445,12.113083L-26.00983,12.402116L-25.74798,12.682327L-25.478718,12.953269L-25.203005,13.214596L-24.921919,13.466088L-24.636654,13.707608L-24.348516,13.93912L-24.058867,14.160687L-23.769115,14.372459L-23.480715,14.574648L-23.195143,14.76755L-22.913866,14.951533L-22.63833,15.127032L-22.369974,15.294546L-22.110163,15.454617L-21.860193,15.607862L-21.621277,15.754923L-21.394526,15.896501L-21.180899,16.033319L-20.981239,16.166161L-20.796238,16.295807L-20.626406,16.423071L-20.472052,16.548792L-20.333275,16.673813L-20.209946,16.799004L-20.101643,16.925222L-20.00771,17.053341L-19.92728,17.184214L-19.859272,17.318649L-19.802443,17.457443L-19.755421,17.60133L-19.716721,17.750969L-19.684799,17.906963L-19.658102,18.069817L-19.635096,18.239929L-19.552118,18.996519L-19.527985,19.204243L-19.50087,19.418667L-19.47031,19.639145L-19.436041,19.864891L-19.356199,20.328543L-19.262348,20.801485L-19.157129,21.274942L-19.044176,21.740095L-18.927546,22.188791L-18.811041,22.614248L-18.753767,22.816704L-18.697472,23.011805L-18.642263,23.199404L-18.588129,23.379538L-18.482367,23.718565L-18.377743,24.032867L-18.270555,24.328447L-18.156364,24.612572L-18.030464,24.89312L-17.88835,25.177851L-17.809988,25.323996L-17.726223,25.473673L-17.636747,25.62755L-17.5413,25.786188L-17.439686,25.950098L-17.33176,26.119671L-17.217428,26.295248L-17.096642,26.477091L-16.969387,26.665388L-16.835697,26.86026L-16.695633,27.061756L-16.54928,27.269882L-16.396763,27.48456L-16.238218,27.705658L-16.073799,27.932997L-15.903671,28.166344L-15.728021,28.40542L-15.54703,28.649876L-15.360878,28.899353L-15.16975,29.153419L-14.773299,29.673452L-14.35909,30.205917L-13.928483,30.746332L-13.482801,31.289879L-13.023339,31.831577L-12.551395,32.366364L-12.068213,32.889275L-11.57506,33.395489L-11.325142,33.640919L-11.073195,33.880524L-10.819395,34.113811L-10.563887,34.340328L-10.30684,34.55965L-10.048421,34.7714L-9.788781,34.97525L-9.528103,35.170925L-9.266541,35.358208L-9.004281,35.536926L-8.741481,35.706978L-8.478324,35.868305L-8.214993,36.020924L-7.951658,36.164898L-7.688508,36.300335L-7.425707,36.42738L-7.163451,36.546223L-6.901902,36.657097L-6.641239,36.760235L-6.381643,36.85593L-6.12327,36.944473L-5.866297,37.02618L-5.610872,37.101383L-5.357164,37.170414L-4.855463,37.291351L-4.362323,37.391693L-3.878746,37.47403L-3.405593,37.540672L-2.943573,37.593563L-2.49324,37.634182L-2.055009,37.663666L-1.629181,37.682804L-1.215949,37.692131L-0.815447,37.691963L-0.427734,37.682465L-0.052833,37.663677z"/>
    <circle transform="matrix(1,0,0,-1,-399.903625,308.918396)" style="stroke:#000000;stroke-width:0.05mm;fill:none" r="8.25" cx="0" cy="0"/>
    <path transform="matrix(1,0,0,-1,-412.947174,299.947418)" style="stroke:#000000;stroke-width:0.05mm;fill:none" d="M-4.70646,-8.970982C-4.705001,-11.919394,-6.277123,-14.644464,-8.83028,-16.119091C-11.383438,-17.593719,-14.529479,-17.593719,-17.082636,-16.119093C-19.635794,-14.644466,-21.207916,-11.919395,-21.206459,-8.970984C-21.207916,-6.022572,-19.635796,-3.297501,-17.082638,-1.822873C-14.52948,-0.348245,-11.38344,-0.348245,-8.830281,-1.822872C-6.277123,-3.2975,-4.705001,-6.022571,-4.70646,-8.970982z"/>
    <path transform="matrix(1,0,0,-1,-412.947174,299.947418)" style="stroke:#000000;stroke-width:0.05mm;fill:none" d="M3.043541,4.529017C3.044163,3.456806,2.472503,2.465776,1.544044,1.929491C0.615586,1.393206,-0.528502,1.393206,-1.45696,1.929491C-2.385419,2.465776,-2.957079,3.456806,-2.956458,4.529017C-2.957079,5.601229,-2.385418,6.592258,-1.45696,7.128543C-0.528502,7.664828,0.615586,7.664828,1.544044,7.128543C2.472503,6.592258,3.044163,5.601228,3.043541,4.529017z"/>
    <path transform="matrix(1,0,0,-1,-412.947174,299.947418)" style="stroke:#000000;stroke-width:0.05mm;fill:none" d="M6.043546,11.529026L6.043542,19.529022C6.043546,20.633595,5.148115,21.52903,4.043543,21.529028L-3.956459,21.529028C-5.061032,21.52903,-5.956465,20.633595,-5.95646,19.529022L-5.95646,11.529026C-5.956456,10.424459,-5.061027,9.529034,-3.956459,9.529035L4.043543,9.529029C5.148111,9.529031,6.043541,10.424458,6.043546,11.529026z"/>
    <path transform="matrix(1,0,0,-1,-412.947174,299.947418)" style="stroke:#000000;stroke-width:0.05mm;fill:none" d="M-0.052833,37.663677L0.322068,37.682461L0.709782,37.691967L1.110288,37.692127L1.523515,37.6828L1.949344,37.663666L2.387574,37.634182L2.837908,37.593559L3.299927,37.540676L3.773081,37.47403L4.256658,37.391697L4.749796,37.291348L5.251498,37.170418L5.505206,37.101379L5.760631,37.026176L6.01761,36.944469L6.275978,36.855927L6.535574,36.760239L6.796236,36.657097L7.057786,36.54623L7.320042,36.42738L7.582835,36.300335L7.845991,36.164894L8.109328,36.020924L8.372659,35.868309L8.635815,35.706974L8.898616,35.536926L9.160875,35.358208L9.422438,35.170929L9.683125,34.97525L9.942755,34.771397L10.201174,34.55965L10.458222,34.340324L10.71373,34.113808L10.967531,33.880527L11.219471,33.640926L11.469395,33.395489L11.962547,32.889282L12.445732,32.366367L12.917679,31.831573L13.377135,31.289879L13.822817,30.746332L14.253424,30.205917L14.667632,29.673447L15.064085,29.153418L15.255212,28.899355L15.441366,28.649879L15.622357,28.405424L15.798007,28.166348L15.968133,27.932991L16.132551,27.705658L16.291098,27.48456L16.443619,27.269886L16.589968,27.061758L16.730034,26.86026L16.863722,26.665388L16.990976,26.477093L17.111763,26.295248L17.226095,26.119671L17.334019,25.9501L17.435633,25.786196L17.531082,25.627548L17.620558,25.473675L17.704321,25.32399L17.782684,25.177851L17.924797,24.89312L18.050699,24.612572L18.16489,24.328447L18.272078,24.032867L18.376699,23.718565L18.482462,23.379532L18.5366,23.199396L18.591808,23.011806L18.6481,22.816706L18.705374,22.614244L18.821882,22.188791L18.938509,21.740095L19.051462,21.27494L19.156681,20.801493L19.250532,20.328541L19.330376,19.864889L19.364645,19.639145L19.395203,19.418667L19.422318,19.204245L19.446453,18.996517L19.529428,18.239929L19.552439,18.069817L19.579132,17.906963L19.611052,17.750967L19.649754,17.601328L19.696779,17.457447L19.753607,17.318649L19.821613,17.184212L19.902046,17.053343L19.995977,16.925222L20.10428,16.799002L20.227615,16.673817L20.366386,16.548792L20.520739,16.423071L20.690573,16.295807L20.875568,16.166162L21.07523,16.033323L21.288858,15.896501L21.515612,15.754921L21.754526,15.60786L22.004499,15.454618L22.264307,15.294546L22.532667,15.127035L22.808201,14.951531L23.089478,14.76755L23.37505,14.57465L23.663448,14.372459L23.953201,14.160688L24.242855,13.939122L24.530991,13.707609L24.816252,13.466087L25.09734,13.214595L25.373053,12.953268L25.642313,12.682326L25.904163,12.402117L26.157782,12.113083L26.4025,11.815765L26.637777,11.510804L26.863203,11.198936L27.07851,10.880957L27.28355,10.557733L27.478262,10.230189L27.662701,9.899302L27.836992,9.566054L28.001354,9.23145L28.156063,8.896519L28.301458,8.562287L28.437941,8.229754L28.565943,7.899898L28.685949,7.573674L28.798456,7.251992L28.90398,6.935681L29.003036,6.625524L29.096155,6.322225L29.183847,6.026381L29.266603,5.738511L29.344898,5.459024L29.419155,5.188191L29.489763,4.926147L29.557041,4.672884L29.621248,4.428237L29.850105,3.526859L29.947569,3.112269L30.032074,2.711688L30.101496,2.317063L30.153217,1.920966L30.171566,1.720422L30.18441,1.517451L30.191408,1.311705L30.192207,1.103066L30.186497,0.891649L30.173979,0.677823L30.154385,0.462217L30.127487,0.245732L30.093098,0.029515L30.051065,-0.185087L30.001261,-0.396565L29.943611,-0.603312L29.878059,-0.803655L29.804598,-0.995891L29.723246,-1.178322L29.634052,-1.349292L29.537117,-1.507218L29.43257,-1.650639L29.320564,-1.778266L29.201302,-1.889021L29.075012,-1.982088L28.941956,-2.056926L28.802444,-2.11327L28.656811,-2.151144L28.505436,-2.170861L28.348757,-2.173008L28.187237,-2.158428L28.021404,-2.128191L27.851837,-2.083575L27.679157,-2.026042L27.504061,-1.95723L27.327305,-1.878932L26.972185,-1.701765L26.621273,-1.511455L26.450014,-1.417039L26.283045,-1.326238L26.12155,-1.241414L25.966696,-1.164907L25.819645,-1.099014L25.681524,-1.045956L25.553406,-1.00785L25.436266,-0.986674L25.330982,-0.984237L25.238312,-1.002145L25.196901,-1.01917L25.158859,-1.041782L25.124247,-1.070117L25.093102,-1.104296L25.065453,-1.144426L25.041327,-1.190593L25.020735,-1.242872L25.003681,-1.301321L24.990149,-1.365982L24.980131,-1.436879L24.973597,-1.514028L24.970507,-1.597429L24.970821,-1.687068L24.974483,-1.782917L24.98144,-1.884943L24.991623,-1.993097L25.004959,-2.107316L25.021372,-2.227539L25.040773,-2.353683L25.06308,-2.485656L25.115999,-2.766707L25.179298,-3.069813L25.252075,-3.393966L25.333359,-3.738051L25.422129,-4.100856L25.517313,-4.481086L25.617821,-4.877392L25.722527,-5.288358L25.830303,-5.712544L25.940018,-6.148493L26.050547,-6.594719L26.160778,-7.049759L26.376072,-7.98053L26.577833,-8.929792L26.671377,-9.408198L26.758961,-9.887595L26.839872,-10.366951L26.913475,-10.84531L26.979223,-11.321828L27.036625,-11.795732L27.085257,-12.266336L27.124769,-12.733021L27.154848,-13.195244L27.175249,-13.652531L27.185787,-14.104463L27.186317,-14.550696L27.176741,-14.990945L27.157011,-15.424976L27.127121,-15.852615L27.087099,-16.273737L27.037001,-16.688251L26.97694,-17.096132L26.907024,-17.497375L26.827414,-17.892017L26.738279,-18.280136L26.639822,-18.661833L26.532242,-19.037239L26.41577,-19.406507L26.290642,-19.769823L26.157104,-20.127371L26.0154,-20.479361L25.86578,-20.826012L25.708496,-21.167559L25.543791,-21.504219L25.371908,-21.836245L25.193062,-22.163858L25.007488,-22.487289L24.815357,-22.806753L24.616858,-23.122459L24.41217,-23.434616L24.201424,-23.74341L23.984768,-24.049025L23.762312,-24.351624L23.534174,-24.651373L23.061232,-25.242895L22.566618,-25.824673L22.050901,-26.397604L21.514557,-26.962429L20.958019,-27.519697L20.381706,-28.069798L19.786066,-28.61293L19.171595,-29.14912L18.538897,-29.678194L17.888699,-30.199816L17.221889,-30.713434L16.539572,-31.218313L15.843083,-31.713522L15.133987,-32.197956L14.414085,-32.670349L13.685366,-33.12933L12.949974,-33.573429L12.210191,-34.001156L11.46839,-34.410984L10.727031,-34.801441L9.988605,-35.171085L9.255624,-35.518593L8.891954,-35.683659L8.530575,-35.842751L8.171796,-35.995743L7.81591,-36.142521L7.463215,-36.28299L7.113997,-36.417065L6.768534,-36.544674L6.427099,-36.665768L6.089954,-36.780315L5.75735,-36.888306L5.429529,-36.989742L5.106716,-37.084644L4.789129,-37.173073L4.476971,-37.255081L4.170432,-37.330772L3.869689,-37.400242L3.574908,-37.463593L3.286244,-37.520977L3.003838,-37.572502L2.727822,-37.618328L2.458315,-37.658588L2.195427,-37.693439L1.939255,-37.723011L1.689888,-37.747463L1.447402,-37.766922L1.211866,-37.781513L0.983337,-37.791367L0.761863,-37.796597L0.547484,-37.797283L0.340229,-37.793499L0.140119,-37.78532L-0.052833,-37.772762L-0.245782,-37.785316L-0.445893,-37.793503L-0.65315,-37.797279L-0.867527,-37.796597L-1.089003,-37.79137L-1.317535,-37.781517L-1.553068,-37.766914L-1.795555,-37.747456L-2.044926,-37.723015L-2.301095,-37.693436L-2.563979,-37.658592L-2.833488,-37.618332L-3.109507,-37.572506L-3.39191,-37.520977L-3.680571,-37.4636L-3.975354,-37.400246L-4.276099,-37.330765L-4.582635,-37.255085L-4.894789,-37.173077L-5.212379,-37.084641L-5.535193,-36.989735L-5.863012,-36.888309L-6.19562,-36.780319L-6.532767,-36.665768L-6.874197,-36.544674L-7.219664,-36.417065L-7.568885,-36.282986L-7.921576,-36.142517L-8.277457,-35.995743L-8.636241,-35.842751L-8.997622,-35.683659L-9.361288,-35.5186L-10.094269,-35.171089L-10.832693,-34.801445L-11.574059,-34.410984L-12.315856,-34.001156L-13.055642,-33.573433L-13.791032,-33.12933L-14.51975,-32.670349L-15.239653,-32.19796L-15.948745,-31.713526L-16.645243,-31.218309L-17.327559,-30.71343L-17.994362,-30.19981L-18.644566,-29.678198L-19.27726,-29.149118L-19.891729,-28.61293L-20.48737,-28.069799L-21.063686,-27.519693L-21.620224,-26.962425L-22.156567,-26.397604L-22.672283,-25.824675L-23.166897,-25.242899L-23.639837,-24.651373L-23.867977,-24.351624L-24.090425,-24.049025L-24.307085,-23.743422L-24.51783,-23.434622L-24.722525,-23.122461L-24.921017,-22.806755L-25.113148,-22.487286L-25.298733,-22.163855L-25.477571,-21.836248L-25.64946,-21.504221L-25.814161,-21.167553L-25.971445,-20.826015L-26.121065,-20.479366L-26.26277,-20.127371L-26.396307,-19.769819L-26.521437,-19.406511L-26.637909,-19.037239L-26.745485,-18.661825L-26.843945,-18.280134L-26.933077,-17.892015L-27.01269,-17.497366L-27.082602,-17.09613L-27.142668,-16.688259L-27.192759,-16.273735L-27.232788,-15.852612L-27.262678,-15.424976L-27.282404,-14.990948L-27.291985,-14.550695L-27.291454,-14.104457L-27.280916,-13.652531L-27.260511,-13.195253L-27.230431,-12.733026L-27.190922,-12.266335L-27.14229,-11.795738L-27.084888,-11.321829L-27.019138,-10.845304L-26.945536,-10.36695L-26.864624,-9.887595L-26.777044,-9.408194L-26.6835,-8.929792L-26.481737,-7.98053L-26.266443,-7.049759L-26.156214,-6.594724L-26.045687,-6.148493L-25.935974,-5.712544L-25.828196,-5.288362L-25.723482,-4.877392L-25.622984,-4.481087L-25.527796,-4.10086L-25.43903,-3.738052L-25.357742,-3.393963L-25.284962,-3.069813L-25.221663,-2.76671L-25.168743,-2.485656L-25.146441,-2.353683L-25.127037,-2.227536L-25.110624,-2.107317L-25.097284,-1.993097L-25.087105,-1.884945L-25.080149,-1.782921L-25.076483,-1.687068L-25.076174,-1.597431L-25.07926,-1.514031L-25.085796,-1.436879L-25.095818,-1.365982L-25.109343,-1.301323L-25.126398,-1.242872L-25.14699,-1.190593L-25.171118,-1.144426L-25.198769,-1.104296L-25.229912,-1.070117L-25.264524,-1.041782L-25.302565,-1.019169L-25.343977,-1.002145L-25.436646,-0.984237L-25.541927,-0.986674L-25.659069,-1.007849L-25.787191,-1.045956L-25.925314,-1.099015L-26.072359,-1.164907L-26.227209,-1.241413L-26.38871,-1.326238L-26.555674,-1.417039L-26.726936,-1.511454L-27.07785,-1.701766L-27.432974,-1.878933L-27.609732,-1.957231L-27.784824,-2.026042L-27.9575,-2.083574L-28.127073,-2.128191L-28.292902,-2.158428L-28.45442,-2.173008L-28.611099,-2.170861L-28.762472,-2.151144L-28.908112,-2.113269L-29.047625,-2.056926L-29.180676,-1.98209L-29.306965,-1.889022L-29.426229,-1.778266L-29.538231,-1.650642L-29.642784,-1.507219L-29.739719,-1.349292L-29.828909,-1.178324L-29.910265,-0.995891L-29.98373,-0.803653L-30.049273,-0.603312L-30.106928,-0.396568L-30.156727,-0.185087L-30.198761,0.029515L-30.233149,0.24573L-30.260046,0.462217L-30.27964,0.677825L-30.29216,0.891649L-30.297874,1.103068L-30.297075,1.31171L-30.290077,1.517451L-30.277227,1.72042L-30.258888,1.920966L-30.207157,2.317062L-30.137741,2.711688L-30.053236,3.112269L-29.955772,3.526865L-29.726915,4.428237L-29.662706,4.672884L-29.595428,4.926147L-29.52482,5.188191L-29.450565,5.459024L-29.372272,5.738512L-29.289511,6.026381L-29.201818,6.322225L-29.108702,6.625524L-29.009642,6.935673L-28.904125,7.251985L-28.791615,7.573674L-28.67161,7.89989L-28.543606,8.229747L-28.407125,8.562287L-28.261726,8.896518L-28.107019,9.231449L-27.942657,9.566054L-27.768366,9.899302L-27.583933,10.23019L-27.389215,10.557732L-27.184179,10.880958L-26.96887,11.198936L-26.743439,11.510813L-26.50816,11.815772L-26.263445,12.113083L-26.00983,12.402116L-25.74798,12.682327L-25.478718,12.953269L-25.203005,13.214596L-24.921919,13.466088L-24.636654,13.707608L-24.348516,13.93912L-24.058867,14.160687L-23.769115,14.372459L-23.480715,14.574648L-23.195143,14.76755L-22.913866,14.951533L-22.63833,15.127032L-22.369974,15.294546L-22.110163,15.454617L-21.860193,15.607862L-21.621277,15.754923L-21.394526,15.896501L-21.180899,16.033319L-20.981239,16.166161L-20.796238,16.295807L-20.626406,16.423071L-20.472052,16.548792L-20.333275,16.673813L-20.209946,16.799004L-20.101643,16.925222L-20.00771,17.053341L-19.92728,17.184214L-19.859272,17.318649L-19.802443,17.457443L-19.755421,17.60133L-19.716721,17.750969L-19.684799,17.906963L-19.658102,18.069817L-19.635096,18.239929L-19.552118,18.996519L-19.527985,19.204243L-19.50087,19.418667L-19.47031,19.639145L-19.436041,19.864891L-19.356199,20.328543L-19.262348,20.801485L-19.157129,21.274942L-19.044176,21.740095L-18.927546,22.188791L-18.811041,22.614248L-18.753767,22.816704L-18.697472,23.011805L-18.642263,23.199404L-18.588129,23.379538L-18.482367,23.718565L-18.377743,24.032867L-18.270555,24.328447L-18.156364,24.612572L-18.030464,24.89312L-17.88835,25.177851L-17.809988,25.323996L-17.726223,25.473673L-17.636747,25.62755L-17.5413,25.786188L-17.439686,25.950098L-17.33176,26.119671L-17.217428,26.295248L-17.096642,26.477091L-16.969387,26.665388L-16.835697,26.86026L-16.695633,27.061756L-16.54928,27.269882L-16.396763,27.48456L-16.238218,27.705658L-16.073799,27.932997L-15.903671,28.166344L-15.728021,28.40542L-15.54703,28.649876L-15.360878,28.899353L-15.16975,29.153419L-14.773299,29.673452L-14.35909,30.205917L-13.928483,30.746332L-13.482801,31.289879L-13.023339,31.831577L-12.551395,32.366364L-12.068213,32.889275L-11.57506,33.395489L-11.325142,33.640919L-11.073195,33.880524L-10.819395,34.113811L-10.563887,34.340328L-10.30684,34.55965L-10.048421,34.7714L-9.788781,34.97525L-9.528103,35.170925L-9.266541,35.358208L-9.004281,35.536926L-8.741481,35.706978L-8.478324,35.868305L-8.214993,36.020924L-7.951658,36.164898L-7.688508,36.300335L-7.425707,36.42738L-7.163451,36.546223L-6.901902,36.657097L-6.641239,36.760235L-6.381643,36.85593L-6.12327,36.944473L-5.866297,37.02618L-5.610872,37.101383L-5.357164,37.170414L-4.855463,37.291351L-4.362323,37.391693L-3.878746,37.47403L-3.405593,37.540672L-2.943573,37.593563L-2.49324,37.634182L-2.055009,37.663666L-1.629181,37.682804L-1.215949,37.692131L-0.815447,37.691963L-0.427734,37.682465L-0.052833,37.663677z"/>
</svg>
