0
SECTION
2
HEADER
9
$INSUNITS
70
4
9
$ACADVER
1
AC1014
9
$HANDSEED
5
FFFF
0
ENDSEC
0
SECTION
2
TABLES
0
TABLE
2
VPORT
5
8
100
AcDbSymbolTable
0
ENDTAB
0
TABLE
2
LTYPE
5
5
100
AcDbSymbolTable
0
LTYPE
5
14
100
AcDbSymbolTableRecord
100
AcDbLinetypeTableRecord
2
BYBLOCK
70
0
0
LTYPE
5
15
100
AcDbSymbolTableRecord
100
AcDbLinetypeTableRecord
2
BYLAYER
70
0
0
ENDTAB
0
TABLE
2
LAYER
5
2
100
AcDbSymbolTable
70
2
0
LAYER
5
50
100
AcDbSymbolTableRecord
100
AcDbLayerTableRecord
2
0
70
0
6
CONTINUOUS
0
ENDTAB
0
TABLE
2
STYLE
5
3
100
AcDbSymbolTable
70
1
0
STYLE
5
11
100
AcDbSymbolTableRecord
100
AcDbTextStyleTableRecord
2
STANDARD
70
0
0
ENDTAB
0
TABLE
2
VIEW
5
6
100
AcDbSymbolTable
70
0
0
ENDTAB
0
TABLE
2
UCS
5
7
100
AcDbSymbolTable
70
0
0
ENDTAB
0
TABLE
2
APPID
5
9
100
AcDbSymbolTable
70
2
0
APPID
5
12
100
AcDbSymbolTableRecord
100
AcDbRegAppTableRecord
2
ACAD
70
0
0
ENDTAB
0
TABLE
2
DIMSTYLE
5
A
100
AcDbSymbolTable
70
1
0
ENDTAB
0
TABLE
2
BLOCK_RECORD
5
1
100
AcDbSymbolTable
70
1
0
BLOCK_RECORD
5
1F
100
AcDbSymbolTableRecord
100
AcDbBlockTableRecord
2
*MODEL_SPACE
0
BLOCK_RECORD
5
1B
100
AcDbSymbolTableRecord
100
AcDbBlockTableRecord
2
*PAPER_SPACE
0
ENDTAB
0
ENDSEC
0
SECTION
2
BLOCKS
0
BLOCK
5
20
100
AcDbEntity
100
AcDbBlockBegin
2
*MODEL_SPACE
0
ENDBLK
5
21
100
AcDbEntity
100
AcDbBlockEnd
0
BLOCK
5
1C
100
AcDbEntity
100
AcDbBlockBegin
2
*PAPER_SPACE
0
ENDBLK
5
1D
100
AcDbEntity
100
AcDbBlockEnd
0
ENDSEC
0
SECTION
2
ENTITIES
0
ARC
5
100
100
AcDbEntity
8
0
100
AcDbCircle
10
-12.956458851412425
20
-8.9750634220359071
30
0
40
8.249999999388347
210
0
220
0
230
1
100
AcDbArc
50
-180.02834144167525
51
0.028341441688099496
0
ARC
5
101
100
AcDbEntity
8
0
100
AcDbCircle
10
-12.956458851412425
20
-8.9669016730763378
30
0
40
8.2499999993883488
210
0
220
0
230
1
100
AcDbArc
50
-0.028341441700959383
51
180.02834144170097
0
ARC
5
102
100
AcDbEntity
8
0
100
AcDbCircle
10
0.043541851078945926
20
4.5272768101942793
30
0
40
3.0000000456550953
210
0
220
0
230
1
100
AcDbArc
50
-180.03323328606507
51
0.033233286076020538
0
ARC
5
103
100
AcDbEntity
8
0
100
AcDbCircle
10
0.043541851078945648
20
4.5307569916313941
30
0
40
3.0000000456550957
210
0
220
0
230
1
100
AcDbArc
50
-0.033233286065075814
51
180.03323328606507
0
CIRCLE
5
104
100
AcDbEntity
8
0
100
AcDbCircle
10
13.043541544265063
20
-8.97098254755611
30
0
40
8.2499999993883542
210
0
220
0
230
1
0
LWPOLYLINE
5
105
100
AcDbEntity
8
0
100
AcDbPolyline
90
8
70
1
43
0.0
10
6.0435459796103705
20
11.529025586536481
10
6.043541942389199
20
19.529021671062171
42
0.41421448618373374
10
4.043542921257715
20
21.529028766636085
10
-3.9564592190998145
20
21.52902876663606
42
0.41421478180267801
10
-5.9564602588418483
20
19.529021671062157
10
-5.9564602588419149
20
11.529025586554551
42
0.41421241685674232
10
-3.9564592190998065
20
9.5290346398474846
10
4.0435429212665115
20
9.5290285840176185
42
0.41421182562126679
0
SPLINE
5
106
100
AcDbEntity
8
0
100
AcDbSpline
70
4
71
5
72
101
73
95
74
0
42
0.000000001
43
0.0000000001
44
0.0000000001
40
0
40
0
40
0
40
0
40
0
40
0
40
0.011111111111111112
40
0.022222222222222223
40
0.033333333333333333
40
0.044444444444444446
40
0.055555555555555559
40
0.066666666666666666
40
0.077777777777777779
40
0.088888888888888892
40
0.10000000000000001
40
0.11111111111111112
40
0.12222222222222223
40
0.13333333333333333
40
0.14444444444444443
40
0.15555555555555553
40
0.16666666666666663
40
0.17777777777777773
40
0.18888888888888883
40
0.19999999999999993
40
0.21111111111111103
40
0.22222222222222213
40
0.23333333333333323
40
0.24444444444444433
40
0.25555555555555542
40
0.26666666666666655
40
0.27777777777777768
40
0.28888888888888881
40
0.29999999999999993
40
0.31111111111111106
40
0.32222222222222219
40
0.33333333333333331
40
0.34444444444444444
40
0.35555555555555557
40
0.3666666666666667
40
0.37777777777777782
40
0.38888888888888895
40
0.40000000000000008
40
0.4111111111111112
40
0.42222222222222233
40
0.43333333333333346
40
0.44444444444444459
40
0.45555555555555571
40
0.46666666666666684
40
0.47777777777777797
40
0.48888888888888909
40
0.50000000000000022
40
0.51111111111111129
40
0.52222222222222237
40
0.53333333333333344
40
0.54444444444444451
40
0.55555555555555558
40
0.56666666666666665
40
0.57777777777777772
40
0.5888888888888888
40
0.59999999999999987
40
0.61111111111111094
40
0.62222222222222201
40
0.63333333333333308
40
0.64444444444444415
40
0.65555555555555522
40
0.6666666666666663
40
0.67777777777777737
40
0.68888888888888844
40
0.69999999999999951
40
0.71111111111111058
40
0.72222222222222165
40
0.73333333333333273
40
0.7444444444444438
40
0.75555555555555487
40
0.76666666666666594
40
0.77777777777777701
40
0.78888888888888808
40
0.79999999999999916
40
0.81111111111111023
40
0.8222222222222213
40
0.83333333333333237
40
0.84444444444444344
40
0.85555555555555451
40
0.86666666666666559
40
0.87777777777777666
40
0.88888888888888773
40
0.8999999999999988
40
0.91111111111110987
40
0.92222222222222094
40
0.93333333333333202
40
0.94444444444444309
40
0.95555555555555416
40
0.96666666666666523
40
0.9777777777777763
40
0.98888888888888737
40
1
40
1
40
1
40
1
40
1
40
1
41
1
41
1
41
1
41
1
41
1
41
1
41
1
41
1
41
1
41
1
41
1
41
1
41
1
41
1
41
1
41
1
41
1
41
1
41
1
41
1
41
1
41
1
41
1
41
1
41
1
41
1
41
1
41
1
41
1
41
1
41
1
41
1
41
1
41
1
41
1
41
1
41
1
41
1
41
1
41
1
41
1
41
1
41
1
41
1
41
1
41
1
41
1
41
1
41
1
41
1
41
1
41
1
41
1
41
1
41
1
41
1
41
1
41
1
41
1
41
1
41
1
41
1
41
1
41
1
41
1
41
1
41
1
41
1
41
1
41
1
41
1
41
1
41
1
41
1
41
1
41
1
41
1
41
1
41
1
41
1
41
1
41
1
41
1
41
1
41
1
41
1
41
1
41
1
41
1
41
1
41
1
41
1
41
1
41
1
41
1
10
-0.052832737465182689
20
-37.772762966879839
30
0
10
0.1070802567737731
20
-37.78520349714077
30
0
10
0.4396753586538884
20
-37.80232103088143
30
0
10
0.97687536258591334
20
-37.804706708642655
30
0
10
1.7692392954375991
20
-37.759655639970092
30
0
10
2.8823346824039255
20
-37.613660927052841
30
0
10
4.1106749996095235
20
-37.366616356920197
30
0
10
5.4433486014351464
20
-37.008152081088816
30
0
10
6.8656033177876949
20
-36.532011977418925
30
0
10
8.3585553831477029
20
-35.939063178412091
30
0
10
9.9004588519097645
20
-35.235744589960241
30
0
10
11.467931842355942
20
-34.432624497419766
30
0
10
13.037209844098498
20
-33.542914146209952
30
0
10
14.585358056390128
20
-32.581019460919592
30
0
10
16.091568339872854
20
-31.561039688615189
30
0
10
17.538265564277783
20
-30.495378815684688
30
0
10
18.912684178531624
20
-29.39308557093057
30
0
10
20.206698603985728
20
-28.259201134389507
30
0
10
21.415004421288259
20
-27.09507060048109
30
0
10
22.533740919095724
20
-25.898376170692487
30
0
10
23.558965879000262
20
-24.66330452661914
30
0
10
24.485122786212262
20
-23.380600067783877
30
0
10
25.303676853277324
20
-22.037789400695068
30
0
10
26.001276771539786
20
-20.61902889801873
30
0
10
26.559361921292705
20
-19.106048942134048
30
0
10
26.958827453318808
20
-17.482929189027804
30
0
10
27.183826168776196
20
-15.740199970790743
30
0
10
27.225993106514355
20
-13.879322038939064
30
0
10
27.088309807671944
20
-11.91676473847158
30
0
10
26.789563984259669
20
-9.8888462112826652
30
0
10
26.36755755601445
20
-7.8549120983671479
30
0
10
25.885377110288879
20
-5.9046051971856333
30
0
10
25.42591506879106
20
-4.1494090642640336
30
0
10
25.075877969530982
20
-2.7001172153578246
30
0
10
24.91326176583933
20
-1.6489372145423564
30
0
10
24.992300516222862
20
-1.0482135478189358
30
0
10
25.332028651647278
20
-0.89397098508385953
30
0
10
25.896930383304714
20
-1.0988616132529483
30
0
10
26.607763207709368
20
-1.5062196029986441
30
0
10
27.372087239834929
20
-1.9341317962175364
30
0
10
28.114010399736049
20
-2.2123135999683385
30
0
10
28.781756932492048
20
-2.2131473063995633
30
0
10
29.340267934991555
20
-1.8700315861377625
30
0
10
29.76802817300754
20
-1.2096163395864756
30
0
10
30.053981679872351
20
-0.34436633013076756
30
0
10
30.19856978211298
20
0.59150816587861477
30
0
10
30.213095000674034
20
1.4870866689260287
30
0
10
30.121000979819264
20
2.3197660138655918
30
0
10
29.95104708137811
20
3.1407009605573251
30
0
10
29.726735317980054
20
4.0289769200012273
30
0
10
29.458167251551348
20
5.0588856928146919
30
0
10
29.1298973041457
20
6.254368555822964
30
0
10
28.706856410981061
20
7.5893092851095698
30
0
10
28.148201949074686
20
9.006478123522232
30
0
10
27.418309585420428
20
10.430366696950619
30
0
10
26.499671406804325
20
11.782970001251234
30
0
10
25.403330582297027
20
12.997304724184747
30
0
10
24.184437073461879
20
14.034324002828377
30
0
10
22.941576585138112
20
14.890034557745855
30
0
10
21.788019827879928
20
15.586517645778315
30
0
10
20.830202267927895
20
16.166457430993905
30
0
10
20.141526711613459
20
16.68662217859249
30
0
10
19.74223894476204
20
17.211014634752971
30
0
10
19.566203019749533
20
17.806158467017042
30
0
10
19.495684224946444
20
18.524924769935144
30
0
10
19.41284383480691
20
19.390098660900478
30
0
10
19.257227833751575
20
20.37108172610008
30
0
10
19.034767679251093
20
21.39125004678931
30
0
10
18.780576294698758
20
22.363230930825281
30
0
10
18.536374154945069
20
23.214565045883653
30
0
10
18.318841767101588
20
23.921118846921978
30
0
10
18.10115009662875
20
24.525702187784432
30
0
10
17.838164676402069
20
25.10198919074729
30
0
10
17.485276742455888
20
25.726643291498227
30
0
10
17.020194823265815
20
26.447574517157886
30
0
10
16.437845362541673
20
27.287302591979874
30
0
10
15.744902313652563
20
28.246535760961947
30
0
10
14.954771700398993
20
29.307785194284158
30
0
10
14.081581731477817
20
30.438707261630253
30
0
10
13.138035060556065
20
31.596565837895788
30
0
10
12.136359323437658
20
32.733646041001585
30
0
10
11.088365405970448
20
33.802336380045013
30
0
10
10.005884347762059
20
34.760463078755485
30
0
10
8.9010139514068687
20
35.576249686820141
30
0
10
7.7865147437842168
20
36.234092162747189
30
0
10
6.6759386934727436
20
36.738037402128882
30
0
10
5.5827128822168293
20
37.105070801002434
30
0
10
4.5193615153381872
20
37.359816715798353
30
0
10
3.4966820016437001
20
37.528737350602377
30
0
10
2.522919842023033
20
37.634454189279879
30
0
10
1.6029965294502533
20
37.690281045963104
30
0
10
0.91210243906036104
20
37.70028119381243
30
0
10
0.41963795225204487
20
37.689210694234198
30
0
10
0.10275332614708613
20
37.67356602442139
30
0
10
-0.052832737465182689
20
37.663677562217792
30
0
0
SPLINE
5
107
100
AcDbEntity
8
0
100
AcDbSpline
70
4
71
5
72
101
73
95
74
0
42
0.000000001
43
0.0000000001
44
0.0000000001
40
-1
40
-1
40
-1
40
-1
40
-1
40
-1
40
-0.98888888888888737
40
-0.9777777777777763
40
-0.96666666666666523
40
-0.95555555555555416
40
-0.94444444444444309
40
-0.93333333333333202
40
-0.92222222222222094
40
-0.91111111111110987
40
-0.8999999999999988
40
-0.88888888888888773
40
-0.87777777777777666
40
-0.86666666666666559
40
-0.85555555555555451
40
-0.84444444444444344
40
-0.83333333333333237
40
-0.8222222222222213
40
-0.81111111111111023
40
-0.79999999999999916
40
-0.78888888888888808
40
-0.77777777777777701
40
-0.76666666666666594
40
-0.75555555555555487
40
-0.7444444444444438
40
-0.73333333333333273
40
-0.72222222222222165
40
-0.71111111111111058
40
-0.69999999999999951
40
-0.68888888888888844
40
-0.67777777777777737
40
-0.6666666666666663
40
-0.65555555555555522
40
-0.64444444444444415
40
-0.63333333333333308
40
-0.62222222222222201
40
-0.61111111111111094
40
-0.59999999999999987
40
-0.5888888888888888
40
-0.57777777777777772
40
-0.56666666666666665
40
-0.55555555555555558
40
-0.54444444444444451
40
-0.53333333333333344
40
-0.52222222222222237
40
-0.51111111111111129
40
-0.50000000000000022
40
-0.48888888888888909
40
-0.47777777777777797
40
-0.46666666666666684
40
-0.45555555555555571
40
-0.44444444444444459
40
-0.43333333333333346
40
-0.42222222222222233
40
-0.4111111111111112
40
-0.40000000000000008
40
-0.38888888888888895
40
-0.37777777777777782
40
-0.3666666666666667
40
-0.35555555555555557
40
-0.34444444444444444
40
-0.33333333333333331
40
-0.32222222222222219
40
-0.31111111111111106
40
-0.29999999999999993
40
-0.28888888888888881
40
-0.27777777777777768
40
-0.26666666666666655
40
-0.25555555555555542
40
-0.24444444444444433
40
-0.23333333333333323
40
-0.22222222222222213
40
-0.21111111111111103
40
-0.19999999999999993
40
-0.18888888888888883
40
-0.17777777777777773
40
-0.16666666666666663
40
-0.15555555555555553
40
-0.14444444444444443
40
-0.13333333333333333
40
-0.12222222222222223
40
-0.11111111111111112
40
-0.10000000000000001
40
-0.088888888888888892
40
-0.077777777777777779
40
-0.066666666666666666
40
-0.055555555555555559
40
-0.044444444444444446
40
-0.033333333333333333
40
-0.022222222222222223
40
-0.011111111111111112
40
0
40
0
40
0
40
0
40
0
40
0
41
1
41
1
41
1
41
1
41
1
41
1
41
1
41
1
41
1
41
1
41
1
41
1
41
1
41
1
41
1
41
1
41
1
41
1
41
1
41
1
41
1
41
1
41
1
41
1
41
1
41
1
41
1
41
1
41
1
41
1
41
1
41
1
41
1
41
1
41
1
41
1
41
1
41
1
41
1
41
1
41
1
41
1
41
1
41
1
41
1
41
1
41
1
41
1
41
1
41
1
41
1
41
1
41
1
41
1
41
1
41
1
41
1
41
1
41
1
41
1
41
1
41
1
41
1
41
1
41
1
41
1
41
1
41
1
41
1
41
1
41
1
41
1
41
1
41
1
41
1
41
1
41
1
41
1
41
1
41
1
41
1
41
1
41
1
41
1
41
1
41
1
41
1
41
1
41
1
41
1
41
1
41
1
41
1
41
1
41
1
10
-0.052832737465182689
20
37.663677562217792
30
0
10
-0.20841880107745148
20
37.67356602442139
30
0
10
-0.52530342718241174
20
37.689210694234198
30
0
10
-1.0177679139907339
20
37.70028119381243
30
0
10
-1.708662004380638
20
37.690281045963104
30
0
10
-2.6285853169534206
20
37.634454189279879
30
0
10
-3.6023474765740691
20
37.528737350602377
30
0
10
-4.6250269902685242
20
37.359816715798353
30
0
10
-5.6883783571471529
20
37.105070801002434
30
0
10
-6.7816041684030628
20
36.738037402128882
30
0
10
-7.8921802187145493
20
36.234092162747189
30
0
10
-9.0066794263372323
20
35.576249686820141
30
0
10
-10.111549822692442
20
34.760463078755485
30
0
10
-11.194030880900836
20
33.802336380045013
30
0
10
-12.242024798368043
20
32.733646041001585
30
0
10
-13.243700535486454
20
31.596565837895788
30
0
10
-14.187247206408216
20
30.438707261630253
30
0
10
-15.060437175329371
20
29.307785194284158
30
0
10
-15.850567788582923
20
28.246535760961947
30
0
10
-16.543510837472017
20
27.287302591979874
30
0
10
-17.125860298196102
20
26.447574517157886
30
0
10
-17.590942217386175
20
25.726643291498227
30
0
10
-17.943830151332431
20
25.10198919074729
30
0
10
-18.206815571559211
20
24.525702187784432
30
0
10
-18.424507242032057
20
23.921118846921978
30
0
10
-18.64203962987547
20
23.214565045883653
30
0
10
-18.886241769629031
20
22.363230930825281
30
0
10
-19.140433154181377
20
21.39125004678931
30
0
10
-19.362893308681869
20
20.37108172610008
30
0
10
-19.51850930973724
20
19.390098660900478
30
0
10
-19.601349699876842
20
18.524924769935144
30
0
10
-19.671868494679984
20
17.806158467017042
30
0
10
-19.847904419692448
20
17.211014634752971
30
0
10
-20.247192186543799
20
16.68662217859249
30
0
10
-20.935867742858193
20
16.166457430993905
30
0
10
-21.893685302810233
20
15.586517645778315
30
0
10
-23.047242060068495
20
14.890034557745855
30
0
10
-24.290102548392341
20
14.034324002828377
30
0
10
-25.508996057227485
20
12.997304724184747
30
0
10
-26.605336881734594
20
11.782970001251234
30
0
10
-27.523975060350381
20
10.430366696950619
30
0
10
-28.253867424004323
20
9.006478123522232
30
0
10
-28.812521885910645
20
7.5893092851095698
30
0
10
-29.235562779075526
20
6.254368555822964
30
0
10
-29.563832726481529
20
5.0588856928146919
30
0
10
-29.832400792910533
20
4.0289769200012273
30
0
10
-30.056712556308728
20
3.1407009605573251
30
0
10
-30.226666454749861
20
2.3197660138655918
30
0
10
-30.318760475604506
20
1.4870866689260287
30
0
10
-30.304235257043281
20
0.59150816587861477
30
0
10
-30.159647154802556
20
-0.34436633013076756
30
0
10
-29.873693647937781
20
-1.2096163395864756
30
0
10
-29.445933409921885
20
-1.8700315861377625
30
0
10
-28.88742240742247
20
-2.2131473063995633
30
0
10
-28.219675874666482
20
-2.2123135999683385
30
0
10
-27.477752714765323
20
-1.9341317962175364
30
0
10
-26.713428682639716
20
-1.5062196029986441
30
0
10
-26.002595858235029
20
-1.0988616132529483
30
0
10
-25.4376941265776
20
-0.89397098508385953
30
0
10
-25.097965991153263
20
-1.0482135478189358
30
0
10
-25.018927240769692
20
-1.6489372145423564
30
0
10
-25.18154344446117
20
-2.7001172153578246
30
0
10
-25.531580543721123
20
-4.1494090642640336
30
0
10
-25.991042585218928
20
-5.9046051971856333
30
0
10
-26.473223030944652
20
-7.8549120983671479
30
0
10
-26.895229459190148
20
-9.8888462112826652
30
0
10
-27.193975282602803
20
-11.91676473847158
30
0
10
-27.331658581445591
20
-13.879322038939064
30
0
10
-27.289491643707706
20
-15.740199970790743
30
0
10
-27.064492928250395
20
-17.482929189027804
30
0
10
-26.665027396224051
20
-19.106048942134048
30
0
10
-26.106942246470727
20
-20.61902889801873
30
0
10
-25.40934232820776
20
-22.037789400695068
30
0
10
-24.590788261142301
20
-23.380600067783877
30
0
10
-23.664631353929991
20
-24.66330452661914
30
0
10
-22.639406394025347
20
-25.898376170692487
30
0
10
-21.520669896217992
20
-27.09507060048109
30
0
10
-20.312364078915714
20
-28.259201134389507
30
0
10
-19.018349653461854
20
-29.39308557093057
30
0
10
-17.643931039208177
20
-30.495378815684688
30
0
10
-16.197233814803234
20
-31.561039688615189
30
0
10
-14.691023531320349
20
-32.581019460919592
30
0
10
-13.142875319028573
20
-33.542914146209952
30
0
10
-11.573597317285971
20
-34.432624497419766
30
0
10
-10.006124326839769
20
-35.235744589960241
30
0
10
-8.4642208580777574
20
-35.939063178412091
30
0
10
-6.9712687927178916
20
-36.532011977418925
30
0
10
-5.5490140763655296
20
-37.008152081088816
30
0
10
-4.2163404745400088
20
-37.366616356920197
30
0
10
-2.9880001573344268
20
-37.613660927052841
30
0
10
-1.8749047703680468
20
-37.759655639970092
30
0
10
-1.082540837516309
20
-37.804706708642655
30
0
10
-0.54534083358425933
20
-37.80232103088143
30
0
10
-0.21274573170413846
20
-37.78520349714077
30
0
10
-0.052832737465182689
20
-37.772762966879839
30
0
0
ENDSEC
0
SECTION
2
OBJECTS
0
DICTIONARY
5
C
100
AcDbDictionary
3
ACAD_GROUP
350
D
3
ACAD_MLINESTYLE
350
17
0
DICTIONARY
5
D
100
AcDbDictionary
0
DICTIONARY
5
1A
330
C
100
AcDbDictionary
0
DICTIONARY
5
17
100
AcDbDictionary
0
ENDSEC
0
EOF
