0
SECTION
2
HEADER
9
$INSUNITS
70
4
9
$ACADVER
1
AC1014
9
$HANDSEED
5
FFFF
0
ENDSEC
0
SECTION
2
TABLES
0
TABLE
2
VPORT
5
8
100
AcDbSymbolTable
0
ENDTAB
0
TABLE
2
LTYPE
5
5
100
AcDbSymbolTable
0
LTYPE
5
14
100
AcDbSymbolTableRecord
100
AcDbLinetypeTableRecord
2
BYBLOCK
70
0
0
LTYPE
5
15
100
AcDbSymbolTableRecord
100
AcDbLinetypeTableRecord
2
BYLAYER
70
0
0
ENDTAB
0
TABLE
2
LAYER
5
2
100
AcDbSymbolTable
70
2
0
LAYER
5
50
100
AcDbSymbolTableRecord
100
AcDbLayerTableRecord
2
0
70
0
6
CONTINUOUS
0
ENDTAB
0
TABLE
2
STYLE
5
3
100
AcDbSymbolTable
70
1
0
STYLE
5
11
100
AcDbSymbolTableRecord
100
AcDbTextStyleTableRecord
2
STANDARD
70
0
0
ENDTAB
0
TABLE
2
VIEW
5
6
100
AcDbSymbolTable
70
0
0
ENDTAB
0
TABLE
2
UCS
5
7
100
AcDbSymbolTable
70
0
0
ENDTAB
0
TABLE
2
APPID
5
9
100
AcDbSymbolTable
70
2
0
APPID
5
12
100
AcDbSymbolTableRecord
100
AcDbRegAppTableRecord
2
ACAD
70
0
0
ENDTAB
0
TABLE
2
DIMSTYLE
5
A
100
AcDbSymbolTable
70
1
0
ENDTAB
0
TABLE
2
BLOCK_RECORD
5
1
100
AcDbSymbolTable
70
1
0
BLOCK_RECORD
5
1F
100
AcDbSymbolTableRecord
100
AcDbBlockTableRecord
2
*MODEL_SPACE
0
BLOCK_RECORD
5
1B
100
AcDbSymbolTableRecord
100
AcDbBlockTableRecord
2
*PAPER_SPACE
0
ENDTAB
0
ENDSEC
0
SECTION
2
BLOCKS
0
BLOCK
5
20
100
AcDbEntity
100
AcDbBlockBegin
2
*MODEL_SPACE
0
ENDBLK
5
21
100
AcDbEntity
100
AcDbBlockEnd
0
BLOCK
5
1C
100
AcDbEntity
100
AcDbBlockBegin
2
*PAPER_SPACE
0
ENDBLK
5
1D
100
AcDbEntity
100
AcDbBlockEnd
0
ENDSEC
0
SECTION
2
ENTITIES
0
CIRCLE
5
100
100
AcDbEntity
8
0
100
AcDbCircle
10
29.126178479395332
20
-94.142427215558399
30
0
40
1.0000000000000009
210
0
220
-0
230
1
0
CIRCLE
5
101
100
AcDbEntity
8
0
100
AcDbCircle
10
29.126178479395332
20
-121.64242721555843
30
0
40
1.0000000000000009
210
0
220
-0
230
1
0
LWPOLYLINE
5
102
100
AcDbEntity
8
0
100
AcDbPolyline
90
4
70
1
43
0.0
10
23.501178479395332
20
-96.142427215558413
10
23.501178479395332
20
-119.64242721555843
10
35.001178479395335
20
-119.64242721555843
10
35.001178479395335
20
-96.142427215558399
0
ARC
5
103
100
AcDbEntity
8
0
100
AcDbCircle
10
35.383521848372432
20
-59.236859405536613
30
0
40
4.0000000000000018
210
-0
220
0
230
1
100
AcDbArc
50
337.70873238005305
51
352.79121641560863
0
ARC
5
104
100
AcDbEntity
8
0
100
AcDbCircle
10
39.375846532909819
20
-58.989182977038382
30
0
40
0.74999999999979439
210
0
220
0
230
1
100
AcDbArc
50
98.929353388942175
51
268.17059540671778
0
ARC
5
105
100
AcDbEntity
8
0
100
AcDbCircle
10
35.383521848372432
20
-59.236859405536613
30
0
40
4.0000000000000053
210
0
220
-0
230
1
100
AcDbArc
50
14.308732380051003
51
29.391216415603022
0
ARC
5
106
100
AcDbEntity
8
0
100
AcDbCircle
10
38.440959024142607
20
-56.65769715468489
30
0
40
0.75000000000017031
210
0
220
0
230
1
100
AcDbArc
50
135.52935338894383
51
304.77059540671615
0
ARC
5
107
100
AcDbEntity
8
0
100
AcDbCircle
10
35.383521848372432
20
-59.236859405536613
30
0
40
3.9999999999999969
210
0
220
-0
230
1
100
AcDbArc
50
50.9087323800563
51
65.991216415606814
0
ARC
5
108
100
AcDbEntity
8
0
100
AcDbCircle
10
36.300325151849584
20
-55.343342781360818
30
0
40
0.74999999999991096
210
0
220
0
230
1
100
AcDbArc
50
172.12935338893988
51
341.37059540671885
0
ARC
5
109
100
AcDbEntity
8
0
100
AcDbCircle
10
35.383521848372432
20
-59.236859405536613
30
0
40
4.0000000000000044
210
0
220
-0
230
1
100
AcDbArc
50
87.508732380052606
51
102.59121641560566
0
ARC
5
110
100
AcDbEntity
8
0
100
AcDbCircle
10
33.798136099291064
20
-55.564455284717425
30
0
40
0.74999999999999178
210
0
220
0
230
1
100
AcDbArc
50
-151.27064661105786
51
17.970595406718097
0
ARC
5
111
100
AcDbEntity
8
0
100
AcDbCircle
10
35.383521848372432
20
-59.236859405536613
30
0
40
4.0000000000000044
210
0
220
0
230
1
100
AcDbArc
50
124.10873238005381
51
139.19121641560838
0
ARC
5
112
100
AcDbEntity
8
0
100
AcDbCircle
10
31.921167776332318
20
-57.233835621397418
30
0
40
0.74999999999999645
210
0
220
0
230
1
100
AcDbArc
50
-114.89889506777178
51
54.570595406718994
0
LINE
5
113
100
AcDbEntity
8
0
100
AcDbLine
10
31.605404035422865
20
-57.914124721653231
30
0
11
19.783340207888827
21
-87.91986141111893
31
0
0
SPLINE
5
114
100
AcDbEntity
8
0
100
AcDbSpline
70
4
71
5
72
21
73
15
74
0
42
0.000000001
43
0.0000000001
44
0.0000000001
40
-1
40
-1
40
-1
40
-1
40
-1
40
-1
40
-0.89999999999999991
40
-0.79999999999999993
40
-0.69999999999999996
40
-0.59999999999999998
40
-0.5
40
-0.40000000000000002
40
-0.30000000000000004
40
-0.20000000000000001
40
-0.10000000000000001
40
0
40
0
40
0
40
0
40
0
40
0
41
1
41
1
41
1
41
1
41
1
41
1
41
1
41
1
41
1
41
1
41
1
41
1
41
1
41
1
41
1
10
19.783340207888827
20
-87.91986141111893
30
0
10
19.773278737641185
20
-87.995440440543717
30
0
10
19.753551295476672
20
-88.148287851981948
30
0
10
19.725146642625166
20
-88.382627092698414
30
0
10
19.689685699661929
20
-88.705381848981006
30
0
10
19.649643543224418
20
-89.127124294710313
30
0
10
19.614234131342606
20
-89.568655291727879
30
0
10
19.583782518274955
20
-90.031363294060696
30
0
10
19.558367469675989
20
-90.515584745504754
30
0
10
19.537690697097762
20
-91.020045520925748
30
0
10
19.52135065532666
20
-91.543030438752879
30
0
10
19.511442326057651
20
-91.97493198701153
30
0
10
19.505674244084585
20
-92.305962279462278
30
0
10
19.502555888230798
20
-92.529754624756578
30
0
10
19.501178479395335
20
-92.642427215558428
30
0
0
LINE
5
115
100
AcDbEntity
8
0
100
AcDbLine
10
19.501178479395335
20
-92.642427215558399
30
0
11
19.501178479395335
21
-118.64242721555843
31
0
0
ARC
5
116
100
AcDbEntity
8
0
100
AcDbCircle
10
24.501178479395342
20
-118.64242721555843
30
0
40
5.0000000000000089
210
0
220
0
230
1
100
AcDbArc
50
180
51
270
0
LINE
5
117
100
AcDbEntity
8
0
100
AcDbLine
10
24.501178479395342
20
-123.64242721555843
30
0
11
34.501178479395335
21
-123.64242721555843
31
0
0
ARC
5
118
100
AcDbEntity
8
0
100
AcDbCircle
10
34.501178479395335
20
-118.64242721555843
30
0
40
5
210
-0
220
0
230
1
100
AcDbArc
50
-90
51
0
0
LINE
5
119
100
AcDbEntity
8
0
100
AcDbLine
10
39.501178479395335
20
-118.64242721555843
30
0
11
39.501178479395342
21
-92.642427215558428
31
0
0
SPLINE
5
120
100
AcDbEntity
8
0
100
AcDbSpline
70
4
71
5
72
41
73
35
74
0
42
0.000000001
43
0.0000000001
44
0.0000000001
40
0
40
0
40
0
40
0
40
0
40
0
40
0.033333333333333333
40
0.066666666666666666
40
0.10000000000000001
40
0.13333333333333333
40
0.16666666666666666
40
0.19999999999999998
40
0.23333333333333331
40
0.26666666666666666
40
0.29999999999999999
40
0.33333333333333331
40
0.36666666666666664
40
0.39999999999999997
40
0.43333333333333329
40
0.46666666666666662
40
0.49999999999999994
40
0.53333333333333333
40
0.56666666666666665
40
0.59999999999999998
40
0.6333333333333333
40
0.66666666666666663
40
0.69999999999999996
40
0.73333333333333328
40
0.76666666666666661
40
0.79999999999999993
40
0.83333333333333326
40
0.86666666666666659
40
0.89999999999999991
40
0.93333333333333324
40
0.96666666666666656
40
1
40
1
40
1
40
1
40
1
40
1
41
1
41
1
41
1
41
1
41
1
41
1
41
1
41
1
41
1
41
1
41
1
41
1
41
1
41
1
41
1
41
1
41
1
41
1
41
1
41
1
41
1
41
1
41
1
41
1
41
1
41
1
41
1
41
1
41
1
41
1
41
1
41
1
41
1
41
1
41
1
10
39.501178479395342
20
-92.642427215558428
30
0
10
39.504131883106297
20
-92.496943541633357
30
0
10
39.506288671124096
20
-92.209618289104696
30
0
10
39.498273771971526
20
-91.789556895437997
30
0
10
39.465046535006437
20
-91.251365861802199
30
0
10
39.385800342032425
20
-90.614590095421406
30
0
10
39.268826725902755
20
-90.011774531632227
30
0
10
39.114405241005265
20
-89.438651815816286
30
0
10
38.923312258840653
20
-88.887674475578223
30
0
10
38.696951662397872
20
-88.347575830260411
30
0
10
38.437068021302778
20
-87.806253614460047
30
0
10
38.145478300703687
20
-87.253459178297149
30
0
10
37.823880838508401
20
-86.683177965471316
30
0
10
37.473452779244553
20
-86.097125553730336
30
0
10
37.095324729980199
20
-85.503753675732597
30
0
10
36.691694376384369
20
-84.913857040446516
30
0
10
36.266844813044358
20
-84.336995240862279
30
0
10
35.828050441204212
20
-83.777998763258097
30
0
10
35.386970127159721
20
-83.232390871384325
30
0
10
34.959417705629711
20
-82.685777990915824
30
0
10
34.562580708402287
20
-82.119572828101042
30
0
10
34.212788301786944
20
-81.515308940849877
30
0
10
33.923180779610135
20
-80.859265711993999
30
0
10
33.701083716924657
20
-80.147592376912741
30
0
10
33.546414737170011
20
-79.38943754642699
30
0
10
33.454096497460469
20
-78.602275112233528
30
0
10
33.415751307488065
20
-77.808615431728086
30
0
10
33.421696597681631
20
-77.032091509629041
30
0
10
33.462644876895375
20
-76.294138395984874
30
0
10
33.531874082843729
20
-75.609631316943265
30
0
10
33.625378439364674
20
-74.986907651856271
30
0
10
33.717898433575563
20
-74.541329086693764
30
0
10
33.796906960910754
20
-74.237201077288518
30
0
10
33.853845637858129
20
-74.04778493586241
30
0
10
33.883381607062709
20
-73.956410725511589
30
0
0
LINE
5
121
100
AcDbEntity
8
0
100
AcDbLine
10
33.883381607062709
20
-73.956410725511574
30
0
11
38.538287622229547
21
-62.141732151362277
31
0
0
ARC
5
122
100
AcDbEntity
8
0
100
AcDbCircle
10
38.736300719369169
20
-61.418343726405752
30
0
40
0.74999999999993405
210
0
220
-0
230
1
100
AcDbArc
50
62.329353388941669
51
254.69142153873889
0
ENDSEC
0
SECTION
2
OBJECTS
0
DICTIONARY
5
C
100
AcDbDictionary
3
ACAD_GROUP
350
D
3
ACAD_MLINESTYLE
350
17
0
DICTIONARY
5
D
100
AcDbDictionary
0
DICTIONARY
5
1A
330
C
100
AcDbDictionary
0
DICTIONARY
5
17
100
AcDbDictionary
0
ENDSEC
0
EOF
