<?xml version="1.0" encoding="UTF-8"?>
<svg xmlns="http://www.w3.org/2000/svg" width="47.001mm" height="73.500mm" viewBox="-489.000000 263.250000 47.001434 73.500000">
    <circle transform="matrix(1,0,0,-1,-473.454559,329.5)" style="stroke:#000000;stroke-width:0.05mm;fill:none" r="0.75" cx="0" cy="0"/>
    <circle transform="matrix(1,0,0,-1,-486.545471,274)" style="stroke:#000000;stroke-width:0.05mm;fill:none" r="0.75" cx="0" cy="0"/>
    <circle transform="matrix(1,0,0,-1,-486.545471,329.5)" style="stroke:#000000;stroke-width:0.05mm;fill:none" r="0.75" cx="0" cy="0"/>
    <circle transform="matrix(1,0,0,-1,-473.454559,274)" style="stroke:#000000;stroke-width:0.05mm;fill:none" r="0.75" cx="0" cy="0"/>
    <circle transform="matrix(1,0,0,-1,-473.454559,270.5)" style="stroke:#000000;stroke-width:0.05mm;fill:none" r="0.75" cx="0" cy="0"/>
    <circle transform="matrix(1,0,0,-1,-480,327.75)" style="stroke:#000000;stroke-width:0.05mm;fill:none" r="3.25" cx="0" cy="0"/>
    <circle transform="matrix(1,0,0,-1,-486.545471,326)" style="stroke:#000000;stroke-width:0.05mm;fill:none" r="0.75" cx="0" cy="0"/>
    <circle transform="matrix(1,0,0,-1,-480.006714,272.25)" style="stroke:#000000;stroke-width:0.05mm;fill:none" r="3.25" cx="0" cy="0"/>
    <circle transform="matrix(1,0,0,-1,-486.545471,270.5)" style="stroke:#000000;stroke-width:0.05mm;fill:none" r="0.75" cx="0" cy="0"/>
    <circle transform="matrix(1,0,0,-1,-473.454559,326)" style="stroke:#000000;stroke-width:0.05mm;fill:none" r="0.75" cx="0" cy="0"/>
    <path transform="matrix(1,0,0,-1,-415.669159,211.201828)" style="stroke:#000000;stroke-width:0.05mm;fill:none" d="M-73.330849,-61.048176C-73.330849,-56.077614,-69.301414,-52.048176,-64.330849,-52.048176C-59.360287,-52.048176,-55.330849,-56.077614,-55.330849,-61.048176L-55.330849,-71.048172C-59.330849,-82.543472,-59.330849,-95.052879,-55.330849,-106.548172L-55.330849,-116.548172C-55.330849,-121.518738,-59.360287,-125.548172,-64.330849,-125.548172C-69.301414,-125.548172,-73.330849,-121.518738,-73.330849,-116.548172L-73.330849,-106.548172C-69.330841,-95.052864,-69.330841,-82.54348,-73.330849,-71.048172L-73.330849,-61.048176z"/>
    <circle transform="matrix(1,0,0,-1,-452.376434,306.700897)" style="stroke:#000000;stroke-width:0.05mm;fill:none" r="1" cx="0" cy="0"/>
    <circle transform="matrix(1,0,0,-1,-452.376434,334.200897)" style="stroke:#000000;stroke-width:0.05mm;fill:none" r="1" cx="0" cy="0"/>
    <path transform="matrix(1,0,0,-1,-481.502625,212.558472)" style="stroke:#000000;stroke-width:0.05mm;fill:none" d="M23.501179,-96.142426L23.501179,-119.642426L35.001179,-119.642426L35.001179,-96.142426L23.501179,-96.142426z"/>
    <path transform="matrix(1,0,0,-1,-481.502625,212.558472)" style="stroke:#000000;stroke-width:0.05mm;fill:none" d="M39.259434,-58.248272C39.172565,-57.907684,39.04118,-57.580029,38.868679,-57.273777C38.5508,-57.494465,38.117207,-57.437077,37.867691,-57.141289C37.618172,-56.845501,37.634659,-56.408436,37.905754,-56.13229C37.632942,-55.910652,37.332111,-55.725941,37.011028,-55.582928C36.887409,-55.949623,36.505096,-56.162071,36.128422,-56.073376C35.751751,-55.98468,35.504398,-55.623966,35.557392,-55.240639C35.20623,-55.225361,34.854588,-55.256435,34.511547,-55.333061C34.630943,-55.701157,34.45068,-56.099655,34.095398,-56.253033C33.740116,-56.40641,33.326469,-56.264297,33.140461,-55.924957C32.849434,-56.122063,32.585655,-56.35667,32.355942,-56.622715C32.671726,-56.847374,32.764343,-57.275627,32.569611,-57.610695C32.374874,-57.945766,31.956928,-58.07729,31.605404,-57.914124L19.78334,-87.919861L19.76679,-88.046768L19.750683,-88.17556L19.73502,-88.306236L19.719807,-88.438858L19.705048,-88.573402L19.690758,-88.709961L19.676945,-88.848557L19.663622,-88.989235L19.650801,-89.132065L19.638494,-89.277092L19.626717,-89.424377L19.615473,-89.573944L19.604774,-89.725838L19.594631,-89.880104L19.585037,-90.036728L19.575998,-90.195702L19.567507,-90.357033L19.559549,-90.520653L19.552118,-90.686493L19.545195,-90.854515L19.538776,-91.024673L19.532833,-91.196892L19.527359,-91.371109L19.522341,-91.547264L19.517763,-91.725304L19.513617,-91.905174L19.50989,-92.086861L19.50658,-92.270309L19.503674,-92.455498L19.501179,-92.642426L19.501179,-118.642426C19.501179,-121.403847,21.739756,-123.642426,24.501179,-123.642426L34.501179,-123.642426C37.262604,-123.642426,39.501179,-121.403847,39.501179,-118.642426L39.501179,-92.642426L39.504066,-92.334023L39.500057,-92.03231L39.489151,-91.737274L39.471336,-91.448906L39.446606,-91.167168L39.414951,-90.891922L39.376373,-90.623062L39.330872,-90.360367L39.278469,-90.103539L39.219185,-89.852188L39.153076,-89.605881L39.0802,-89.36396L39.000641,-89.12574L38.914501,-88.890381L38.821892,-88.656998L38.722942,-88.42466L38.617794,-88.192444L38.506577,-87.959511L38.389454,-87.72506L38.266533,-87.488434L38.13797,-87.249153L38.003876,-87.006912L37.864361,-86.761673L37.719528,-86.513649L37.569447,-86.263252L37.414238,-86.011116L37.254025,-85.75798L37.088966,-85.504608L36.9193,-85.251854L36.745312,-85.00045L36.567379,-84.751099L36.385971,-84.504311L36.201691,-84.260414L36.015251,-84.019501L35.827515,-83.781265L35.452343,-83.310303L35.267288,-83.075539L35.08564,-82.839569L34.908722,-82.600967L34.737854,-82.358284L34.574318,-82.1101L34.419308,-81.855087L34.273937,-81.592072L34.139145,-81.320114L34.015697,-81.038605L33.904163,-80.747269L33.804871,-80.446228L33.717903,-80.13604L33.643147,-79.817596L33.58033,-79.492073L33.529026,-79.160866L33.488689,-78.825592L33.458683,-78.487968L33.438309,-78.149788L33.426826,-77.812881L33.423492,-77.47905L33.427582,-77.150024L33.438393,-76.827354L33.455322,-76.512459L33.477833,-76.206512L33.505501,-75.910461L33.53796,-75.625038L33.57494,-75.350815L33.616234,-75.088226L33.661678,-74.837524L33.71117,-74.598923L33.764641,-74.372505L33.822048,-74.158333L33.883381,-73.956413L38.538288,-62.141731C38.261166,-62.065876,38.051739,-61.838367,37.999031,-61.555931C37.946323,-61.273491,38.059601,-60.98576,38.29071,-60.81506C38.52182,-60.64436,38.830135,-60.620693,39.084591,-60.75412C39.217918,-60.428894,39.307796,-60.087513,39.351906,-59.7388C38.965126,-59.726444,38.651245,-59.421852,38.627285,-59.035622C38.603325,-58.649387,38.877151,-58.308334,39.259434,-58.248272z"/>
</svg>
