0
SECTION
2
HEADER
9
$INSUNITS
70
4
9
$ACADVER
1
AC1014
9
$HANDSEED
5
FFFF
0
ENDSEC
0
SECTION
2
TABLES
0
TABLE
2
VPORT
5
8
100
AcDbSymbolTable
0
ENDTAB
0
TABLE
2
LTYPE
5
5
100
AcDbSymbolTable
0
LTYPE
5
14
100
AcDbSymbolTableRecord
100
AcDbLinetypeTableRecord
2
BYBLOCK
70
0
0
LTYPE
5
15
100
AcDbSymbolTableRecord
100
AcDbLinetypeTableRecord
2
BYLAYER
70
0
0
ENDTAB
0
TABLE
2
LAYER
5
2
100
AcDbSymbolTable
70
2
0
LAYER
5
50
100
AcDbSymbolTableRecord
100
AcDbLayerTableRecord
2
0
70
0
6
CONTINUOUS
0
ENDTAB
0
TABLE
2
STYLE
5
3
100
AcDbSymbolTable
70
1
0
STYLE
5
11
100
AcDbSymbolTableRecord
100
AcDbTextStyleTableRecord
2
STANDARD
70
0
0
ENDTAB
0
TABLE
2
VIEW
5
6
100
AcDbSymbolTable
70
0
0
ENDTAB
0
TABLE
2
UCS
5
7
100
AcDbSymbolTable
70
0
0
ENDTAB
0
TABLE
2
APPID
5
9
100
AcDbSymbolTable
70
2
0
APPID
5
12
100
AcDbSymbolTableRecord
100
AcDbRegAppTableRecord
2
ACAD
70
0
0
ENDTAB
0
TABLE
2
DIMSTYLE
5
A
100
AcDbSymbolTable
70
1
0
ENDTAB
0
TABLE
2
BLOCK_RECORD
5
1
100
AcDbSymbolTable
70
1
0
BLOCK_RECORD
5
1F
100
AcDbSymbolTableRecord
100
AcDbBlockTableRecord
2
*MODEL_SPACE
0
BLOCK_RECORD
5
1B
100
AcDbSymbolTableRecord
100
AcDbBlockTableRecord
2
*PAPER_SPACE
0
ENDTAB
0
ENDSEC
0
SECTION
2
BLOCKS
0
BLOCK
5
20
100
AcDbEntity
100
AcDbBlockBegin
2
*MODEL_SPACE
0
ENDBLK
5
21
100
AcDbEntity
100
AcDbBlockEnd
0
BLOCK
5
1C
100
AcDbEntity
100
AcDbBlockBegin
2
*PAPER_SPACE
0
ENDBLK
5
1D
100
AcDbEntity
100
AcDbBlockEnd
0
ENDSEC
0
SECTION
2
ENTITIES
0
LWPOLYLINE
5
100
100
AcDbEntity
8
0
100
AcDbPolyline
90
4
70
1
43
0.0
10
-52.75221009221994
20
-55.660895288806927
10
-52.752210092219904
20
-45.660895288806927
10
-57.752210092219926
20
-45.660895288806941
10
-57.752210092219926
20
-55.660895288806941
0
CIRCLE
5
101
100
AcDbEntity
8
0
100
AcDbCircle
10
42.747789907780067
20
-60.660895288806884
30
0
40
1.5000000000000036
210
0
220
-0
230
1
0
CIRCLE
5
102
100
AcDbEntity
8
0
100
AcDbCircle
10
42.747789907780067
20
-40.660895288806891
30
0
40
1.5000000000000036
210
0
220
-0
230
1
0
LWPOLYLINE
5
103
100
AcDbEntity
8
0
100
AcDbPolyline
90
30
70
1
43
0.0
10
-30.252210867080397
20
-26.910895288806991
10
-30.252210867080393
20
-19.410895288806969
42
0.41421356237309553
10
-34.252210867080393
20
-15.410895288806969
10
-42.252210867080024
20
-15.410895288806966
42
0.41421356237309359
10
-46.252210867080024
20
-19.410895288806962
10
-46.252210867080024
20
-81.910895288806955
42
0.41421356237309437
10
-42.252210867080024
20
-85.910895288806984
10
-34.252210867080343
20
-85.910895288806984
42
0.41421356237309404
10
-30.252210867080336
20
-81.910895288806984
10
-30.252210867080347
20
-74.410895288806856
42
-0.4142135623730937
10
-28.252210867080343
20
-72.41089528880687
10
-24.252210867080382
20
-72.41089528880687
42
-0.41421356237309631
10
-22.252210867080379
20
-74.41089528880687
10
-22.252210867080375
20
-81.910895288806941
42
0.41421356237309015
10
-18.252210867080372
20
-85.910895288806941
10
25.747789907779968
20
-85.910895288806898
42
0.41421356237309959
10
29.747789907779953
20
-81.91089528880687
10
29.74778990777989
20
-74.660895288806898
42
-0.41421356237309631
10
31.747789907779893
20
-72.660895288806898
10
35.999833391613961
20
-72.660895288806884
10
35.99983339161394
20
-28.660895288807318
10
31.747789907779893
20
-28.660895288807051
42
-0.41421356237309503
10
29.747789907779882
20
-26.660895288807041
10
29.74778990777989
20
-19.410895288806898
42
0.41421356237309537
10
25.747789907779893
20
-15.410895288806902
10
-18.252210867080375
20
-15.4108952888069
42
0.41421356237309359
10
-22.252210867080379
20
-19.410895288806902
10
-22.252210867080379
20
-26.910895288806923
42
-0.41421356237309437
10
-24.252210867080382
20
-28.91089528880692
10
-28.252210867080358
20
-28.910895288806991
42
-0.41421356237309892
0
LWPOLYLINE
5
104
100
AcDbEntity
8
0
100
AcDbPolyline
90
4
70
1
43
0.0
10
62.747789907780067
20
-43.660895288806898
10
62.747789907780067
20
-57.660895288806906
10
67.74778990778006
20
-57.660895288806906
10
67.74778990778006
20
-43.660895288806898
0
CIRCLE
5
105
100
AcDbEntity
8
0
100
AcDbCircle
10
-26.250000327825536
20
-75.160895288806898
30
0
40
1.25
210
0
220
-0
230
1
0
LWPOLYLINE
5
106
100
AcDbEntity
8
0
100
AcDbPolyline
90
4
70
1
43
0.0
10
-61.752210092219926
20
-56.660895288806898
10
-61.752210092219926
20
-44.660895288806913
10
-73.75221009221994
20
-44.660895288806913
10
-73.752210092219926
20
-56.660895288806898
0
CIRCLE
5
107
100
AcDbEntity
8
0
100
AcDbCircle
10
31.74858009086579
20
-75.566690084974283
30
0
40
1.25
210
0
220
-0
230
1
0
CIRCLE
5
108
100
AcDbEntity
8
0
100
AcDbCircle
10
-55.25221009221994
20
-40.660895288806948
30
0
40
1.5000000000000036
210
0
220
-0
230
1
0
CIRCLE
5
109
100
AcDbEntity
8
0
100
AcDbCircle
10
-55.252210092219926
20
-60.660895288806927
30
0
40
1.5000000000000036
210
0
220
-0
230
1
0
CIRCLE
5
110
100
AcDbEntity
8
0
100
AcDbCircle
10
31.748580090865772
20
-25.755100492639503
30
0
40
1.25
210
0
220
-0
230
1
0
CIRCLE
5
111
100
AcDbEntity
8
0
100
AcDbCircle
10
-26.250000327825514
20
-26.160895288806895
30
0
40
1.25
210
0
220
-0
230
1
0
LWPOLYLINE
5
112
100
AcDbEntity
8
0
100
AcDbPolyline
90
4
70
1
43
0.0
10
40.247789907780067
20
-45.660895288806884
10
40.247789907780067
20
-55.660895288806884
10
45.247789907780067
20
-55.660895288806884
10
45.247789907780067
20
-45.660895288806884
0
LWPOLYLINE
5
113
100
AcDbEntity
8
0
100
AcDbPolyline
90
66
70
1
43
0.0
10
40.247789907780067
20
-12.910895288806902
10
40.247789907780032
20
-17.950788432425149
42
0.40221148328605266
10
45.247789907780067
20
-23.160895288806877
10
45.247789907780067
20
-32.905579946214687
42
0.25304597331721618
10
50.74778990778006
20
-38.660895288806863
10
50.747789907780074
20
-43.66089528880687
10
58.74778990778006
20
-43.66089528880687
10
58.74778990778006
20
-38.66089528880687
10
83.74778990778006
20
-38.660895288806898
10
83.74778990778006
20
-44.66089528880687
10
78.747789907780088
20
-44.66089528880687
10
78.747789907780088
20
-49.16089528880687
10
74.74778990778006
20
-49.16089528880687
10
74.74778990778006
20
-48.160895288806877
10
70.747789907780074
20
-48.16089528880687
10
70.747789907780074
20
-53.160895288806898
10
74.74778990778006
20
-53.160895288806891
10
74.74778990778006
20
-52.160895288806898
10
78.747789907780088
20
-52.160895288806898
10
78.747789907780088
20
-56.660895288806898
10
83.74778990778006
20
-56.660895288806898
10
83.74778990778006
20
-62.660895288806906
10
58.74778990778006
20
-62.660895288806906
10
58.74778990778006
20
-57.660895288806906
10
50.747789907780074
20
-57.660895288806906
10
50.747789907780067
20
-62.660895288806906
42
0.25304597331721673
10
45.247789907780067
20
-68.416210631399096
10
45.247789907780067
20
-78.160895288806898
42
0.40221148328605294
10
40.247789907780046
20
-83.371002145188626
10
40.247789907780067
20
-88.410895288806884
42
-0.4142135623730937
10
35.247789907780067
20
-93.410895288806898
10
-47.752210092219904
20
-93.410895288806898
42
-0.41421356237309764
10
-52.752210092219912
20
-88.41089528880687
10
-52.752210092219869
20
-83.371002145188683
42
0.40221148328605144
10
-57.752210092219904
20
-78.160895288806955
10
-57.752210092219904
20
-68.416210631399139
42
0.2530459733172169
10
-63.252210092219904
20
-62.660895288806955
10
-78.252210092219926
20
-62.66089528880692
10
-78.252210092219926
20
-57.66089528880692
10
-86.25221009221994
20
-57.66089528880692
10
-86.25221009221994
20
-62.66089528880692
10
-96.25221009221994
20
-62.660895288806906
10
-96.25221009221994
20
-56.660895288806984
10
-91.25221009221994
20
-56.660895288806977
10
-91.25221009221994
20
-52.160895288806984
10
-87.25221009221994
20
-52.160895288806977
10
-87.25221009221994
20
-53.160895288806969
10
-83.252210092219926
20
-53.160895288806984
10
-83.252210092219926
20
-48.160895288806948
10
-87.25221009221994
20
-48.160895288806955
10
-87.25221009221994
20
-49.160895288806955
10
-91.25221009221994
20
-49.160895288806962
10
-91.25221009221994
20
-44.660895288806955
10
-96.25221009221994
20
-44.660895288806955
10
-96.25221009221994
20
-38.660895288806898
10
-86.25221009221994
20
-38.660895288806898
10
-86.25221009221994
20
-43.660895288806898
10
-78.252210092219926
20
-43.660895288806891
10
-78.252210092219926
20
-38.660895288806898
10
-63.252210092219926
20
-38.660895288806927
42
0.25304597331721762
10
-57.75221009221994
20
-32.905579946214736
10
-57.752210092219947
20
-23.160895288806927
42
0.4022114832860495
10
-52.752210092219933
20
-17.950788432425195
10
-52.75221009221994
20
-12.910895288806895
42
-0.41421356237309531
10
-47.75221009221994
20
-7.9108952888068895
10
35.247789907780046
20
-7.9108952888068806
42
-0.41421356237309476
0
ENDSEC
0
SECTION
2
OBJECTS
0
DICTIONARY
5
C
100
AcDbDictionary
3
ACAD_GROUP
350
D
3
ACAD_MLINESTYLE
350
17
0
DICTIONARY
5
D
100
AcDbDictionary
0
DICTIONARY
5
1A
330
C
100
AcDbDictionary
0
DICTIONARY
5
17
100
AcDbDictionary
0
ENDSEC
0
EOF
