<?xml version="1.0" encoding="UTF-8"?>
<svg xmlns="http://www.w3.org/2000/svg" width="180.000mm" height="85.500mm" viewBox="-570.000000 257.250000 180.000000 85.500000">
    <circle transform="matrix(1,0,0,-1,-431,310)" style="stroke:#000000;stroke-width:0.05mm;fill:none" r="1.5" cx="0" cy="0"/>
    <circle transform="matrix(1,0,0,-1,-431,290)" style="stroke:#000000;stroke-width:0.05mm;fill:none" r="1.5" cx="0" cy="0"/>
    <circle transform="matrix(1,0,0,-1,-499.997803,324.5)" style="stroke:#000000;stroke-width:0.05mm;fill:none" r="1.25" cx="0" cy="0"/>
    <circle transform="matrix(1,0,0,-1,-441.999207,324.905792)" style="stroke:#000000;stroke-width:0.05mm;fill:none" r="1.25" cx="0" cy="0"/>
    <circle transform="matrix(1,0,0,-1,-529,290)" style="stroke:#000000;stroke-width:0.05mm;fill:none" r="1.5" cx="0" cy="0"/>
    <circle transform="matrix(1,0,0,-1,-529,310)" style="stroke:#000000;stroke-width:0.05mm;fill:none" r="1.5" cx="0" cy="0"/>
    <circle transform="matrix(1,0,0,-1,-441.999207,275.094208)" style="stroke:#000000;stroke-width:0.05mm;fill:none" r="1.25" cx="0" cy="0"/>
    <circle transform="matrix(1,0,0,-1,-499.997803,275.5)" style="stroke:#000000;stroke-width:0.05mm;fill:none" r="1.25" cx="0" cy="0"/>
    <path transform="matrix(1,0,0,-1,-473.747803,249.339111)" style="stroke:#000000;stroke-width:0.05mm;fill:none" d="M-52.752209,-55.660896L-52.752209,-45.660896L-57.752209,-45.660896L-57.752209,-55.660896L-52.752209,-55.660896z"/>
    <path transform="matrix(1,0,0,-1,-473.747803,249.339111)" style="stroke:#000000;stroke-width:0.05mm;fill:none" d="M-30.252211,-26.910894L-30.252211,-19.410894C-30.252213,-17.201756,-32.043076,-15.410895,-34.252213,-15.410895L-42.252213,-15.410895C-44.461349,-15.410894,-46.252213,-17.201756,-46.252213,-19.410894L-46.252213,-81.910896C-46.252213,-84.120033,-44.461349,-85.910896,-42.252213,-85.910896L-34.252213,-85.910896C-32.043072,-85.910896,-30.252213,-84.120033,-30.252211,-81.910896L-30.252211,-74.410896C-30.252211,-73.306328,-29.356781,-72.410896,-28.252211,-72.410896L-24.252211,-72.410896C-23.14764,-72.410896,-22.252211,-73.306328,-22.252211,-74.410896L-22.252211,-81.910896C-22.252211,-84.120033,-20.461349,-85.910896,-18.252211,-85.910896L25.747789,-85.910896C27.956928,-85.910896,29.747789,-84.120033,29.747789,-81.910896L29.747789,-74.660896C29.747789,-73.556328,30.643219,-72.660896,31.747789,-72.660896L35.999832,-72.660896L35.999832,-28.660894L31.747789,-28.660894C30.643219,-28.660894,29.747789,-27.765463,29.747789,-26.660894L29.747789,-19.410894C29.747789,-17.201756,27.956928,-15.410894,25.747789,-15.410895L-18.252211,-15.410895C-20.461349,-15.410894,-22.252211,-17.201756,-22.252211,-19.410894L-22.252211,-26.910894C-22.252211,-28.015465,-23.14764,-28.910894,-24.252211,-28.910894L-28.252211,-28.910894C-29.356781,-28.910894,-30.252211,-28.015463,-30.252211,-26.910894z"/>
    <path transform="matrix(1,0,0,-1,-473.747803,249.339111)" style="stroke:#000000;stroke-width:0.05mm;fill:none" d="M62.747791,-43.660896L62.747791,-57.660896L67.747787,-57.660896L67.747787,-43.660896L62.747791,-43.660896z"/>
    <path transform="matrix(1,0,0,-1,-473.747803,249.339111)" style="stroke:#000000;stroke-width:0.05mm;fill:none" d="M-61.752209,-56.660896L-61.752209,-44.660896L-73.752213,-44.660896L-73.752213,-56.660896L-61.752209,-56.660896z"/>
    <path transform="matrix(1,0,0,-1,-473.747803,249.339111)" style="stroke:#000000;stroke-width:0.05mm;fill:none" d="M40.247791,-45.660896L40.247791,-55.660896L45.247791,-55.660896L45.247791,-45.660896L40.247791,-45.660896z"/>
    <path transform="matrix(1,0,0,-1,-473.747803,249.339111)" style="stroke:#000000;stroke-width:0.05mm;fill:none" d="M40.247791,-12.910895L40.247791,-17.950788C40.247791,-20.747246,42.453705,-23.045853,45.247791,-23.160894L45.247791,-32.905579C45.992825,-35.629013,48.060944,-37.793133,50.747791,-38.660896L50.747791,-43.660896L58.747791,-43.660896L58.747791,-38.660896L83.747787,-38.660896L83.747787,-44.660896L78.747787,-44.660896L78.747787,-49.160896L74.747787,-49.160896L74.747787,-48.160896L70.747787,-48.160896L70.747787,-53.160896L74.747787,-53.160896L74.747787,-52.160896L78.747787,-52.160896L78.747787,-56.660896L83.747787,-56.660896L83.747787,-62.660896L58.747791,-62.660896L58.747791,-57.660896L50.747791,-57.660896L50.747791,-62.660896C48.060944,-63.52866,45.992828,-65.69278,45.247791,-68.416214L45.247791,-78.160896C42.453705,-78.27594,40.247791,-80.574547,40.247791,-83.371002L40.247791,-88.410896C40.247791,-91.172318,38.009216,-93.410896,35.247791,-93.410896L-47.752209,-93.410896C-50.513634,-93.410896,-52.752209,-91.172318,-52.752209,-88.410896L-52.752209,-83.371002C-52.752205,-80.574547,-54.958122,-78.275932,-57.752209,-78.160896L-57.752209,-68.416214C-58.497246,-65.692787,-60.565365,-63.528664,-63.252209,-62.660896L-78.252213,-62.660896L-78.252213,-57.660896L-86.252213,-57.660896L-86.252213,-62.660896L-96.252213,-62.660896L-96.252213,-56.660896L-91.252213,-56.660896L-91.252213,-52.160896L-87.252213,-52.160896L-87.252213,-53.160896L-83.252213,-53.160896L-83.252213,-48.160896L-87.252213,-48.160896L-87.252213,-49.160896L-91.252213,-49.160896L-91.252213,-44.660896L-96.252213,-44.660896L-96.252213,-38.660896L-86.252213,-38.660896L-86.252213,-43.660896L-78.252213,-43.660896L-78.252213,-38.660896L-63.252209,-38.660896C-60.565361,-37.793137,-58.497242,-35.629013,-57.752209,-32.905579L-57.752209,-23.160894C-54.958122,-23.045853,-52.752209,-20.747242,-52.752209,-17.950788L-52.752209,-12.910895C-52.752209,-10.149471,-50.513634,-7.910895,-47.752209,-7.910895L35.247791,-7.910895C38.009216,-7.910895,40.247791,-10.149471,40.247791,-12.910895z"/>
</svg>
