<?xml version="1.0" encoding="UTF-8"?>
<svg xmlns="http://www.w3.org/2000/svg" width="179.000mm" height="85.000mm" viewBox="-569.500000 257.500000 179.000000 85.000000">
    <circle transform="matrix(1,0,0,-1,-522.5,310.707336)" style="stroke:#000000;stroke-width:0.05mm;fill:none" r="1.5" cx="0" cy="0"/>
    <circle transform="matrix(1,0,0,-1,-522.5,289.707336)" style="stroke:#000000;stroke-width:0.05mm;fill:none" r="1.5" cx="0" cy="0"/>
    <path transform="matrix(1,0,0,-1,-475.179382,294.074493)" style="stroke:#000000;stroke-width:0.05mm;fill:none" d="M-51.320621,-10.132848L-51.320621,-2.132848L-56.320621,-2.132848L-56.320621,-10.132848L-51.320621,-10.132848z"/>
    <path transform="matrix(1,0,0,-1,-475.179382,294.074493)" style="stroke:#000000;stroke-width:0.05mm;fill:none" d="M-69.320618,-7.632848L-65.320618,-7.632848C-64.492188,-7.632848,-63.820618,-6.961275,-63.820618,-6.132848C-63.820618,-5.30442,-64.492188,-4.632848,-65.320618,-4.632848L-69.320618,-4.632848L-69.320618,-1.132848C-69.320618,-0.304421,-69.992188,0.367152,-70.820618,0.367152C-71.649048,0.367152,-72.320618,-0.304421,-72.320618,-1.132848L-72.320618,-11.132848C-72.320618,-11.961275,-71.649048,-12.632848,-70.820618,-12.632848C-69.992188,-12.632848,-69.320618,-11.961274,-69.320618,-11.132848L-69.320618,-7.632848z"/>
    <path transform="matrix(1,0,0,-1,-475.179382,294.074493)" style="stroke:#000000;stroke-width:0.05mm;fill:none" d="M41.679379,-2.132848L41.679379,-10.132848L46.679379,-10.132848L46.679379,-2.132848L41.679379,-2.132848z"/>
    <path transform="matrix(1,0,0,-1,-475.179382,294.074493)" style="stroke:#000000;stroke-width:0.05mm;fill:none" d="M59.679379,-1.132848C59.679379,-0.304421,60.350952,0.367152,61.179379,0.367152C62.007805,0.367152,62.679379,-0.304421,62.679379,-1.132848L62.679379,-11.132848C62.679379,-11.961275,62.007805,-12.632848,61.179379,-12.632848C60.350952,-12.632848,59.679379,-11.961275,59.679379,-11.132848L59.679379,-7.632848L55.679379,-7.632848C54.850952,-7.632848,54.179379,-6.961275,54.179379,-6.132848C54.179379,-5.30442,54.850952,-4.632848,55.679379,-4.632848L59.679379,-4.632848L59.679379,-1.132848z"/>
    <path transform="matrix(1,0,0,-1,-475.179382,294.074493)" style="stroke:#000000;stroke-width:0.05mm;fill:none" d="M-44.320621,23.574505C-44.320621,26.888214,-41.634331,29.574505,-38.320621,29.574505L30.679379,29.574505C33.993088,29.574505,36.679379,26.888214,36.679379,23.574505L36.679379,-35.425495C36.679379,-38.739204,33.993088,-41.425495,30.679379,-41.425495L-38.320621,-41.425495C-41.634331,-41.425495,-44.320621,-38.739201,-44.320621,-35.425495L-44.320621,23.574505z"/>
    <path transform="matrix(1,0,0,-1,-475.179382,294.074493)" style="stroke:#000000;stroke-width:0.05mm;fill:none" d="M-89.320618,-0.340201L-94.320618,-0.340201L-94.320618,6.074505L-68.320618,6.074505C-61.693199,6.074507,-56.320618,11.447088,-56.320621,18.074505L-56.320621,26.074505L-51.320621,26.074505L-51.320621,36.574505L41.679379,36.574505L41.679379,26.074505L46.679379,26.074505L46.679379,18.074505C46.679382,11.447086,52.051964,6.074505,58.679379,6.074505L84.679382,6.074505L84.679382,-0.340201L79.679382,-0.340201L79.679382,-4.340201L75.679382,-4.340201L75.679382,-3.132848L71.679382,-3.132848L71.679382,-9.132848L75.679382,-9.132848L75.679382,-7.925495L79.679382,-7.925495L79.679382,-11.925495L84.679382,-11.925495L84.679382,-17.925495L58.679379,-17.925495C52.05196,-17.925495,46.679379,-23.298077,46.679379,-29.925495L46.679379,-37.925495L41.679379,-37.925495L41.679379,-48.425495L-51.320621,-48.425495L-51.320621,-37.925495L-56.320621,-37.925495L-56.320621,-29.925495C-56.320618,-23.298077,-61.693203,-17.925491,-68.320618,-17.925495L-94.320618,-17.925495L-94.320618,-11.925495L-89.320618,-11.925495L-89.320618,-7.925495L-85.320618,-7.925495L-85.320618,-9.132848L-81.320618,-9.132848L-81.320618,-3.132848L-85.320618,-3.132848L-85.320618,-4.340201L-89.320618,-4.340201L-89.320618,-0.340201z"/>
</svg>
