0
SECTION
2
HEADER
9
$INSUNITS
70
4
9
$ACADVER
1
AC1014
9
$HANDSEED
5
FFFF
0
ENDSEC
0
SECTION
2
TABLES
0
TABLE
2
VPORT
5
8
100
AcDbSymbolTable
0
ENDTAB
0
TABLE
2
LTYPE
5
5
100
AcDbSymbolTable
0
LTYPE
5
14
100
AcDbSymbolTableRecord
100
AcDbLinetypeTableRecord
2
BYBLOCK
70
0
0
LTYPE
5
15
100
AcDbSymbolTableRecord
100
AcDbLinetypeTableRecord
2
BYLAYER
70
0
0
ENDTAB
0
TABLE
2
LAYER
5
2
100
AcDbSymbolTable
70
2
0
LAYER
5
50
100
AcDbSymbolTableRecord
100
AcDbLayerTableRecord
2
0
70
0
6
CONTINUOUS
0
ENDTAB
0
TABLE
2
STYLE
5
3
100
AcDbSymbolTable
70
1
0
STYLE
5
11
100
AcDbSymbolTableRecord
100
AcDbTextStyleTableRecord
2
STANDARD
70
0
0
ENDTAB
0
TABLE
2
VIEW
5
6
100
AcDbSymbolTable
70
0
0
ENDTAB
0
TABLE
2
UCS
5
7
100
AcDbSymbolTable
70
0
0
ENDTAB
0
TABLE
2
APPID
5
9
100
AcDbSymbolTable
70
2
0
APPID
5
12
100
AcDbSymbolTableRecord
100
AcDbRegAppTableRecord
2
ACAD
70
0
0
ENDTAB
0
TABLE
2
DIMSTYLE
5
A
100
AcDbSymbolTable
70
1
0
ENDTAB
0
TABLE
2
BLOCK_RECORD
5
1
100
AcDbSymbolTable
70
1
0
BLOCK_RECORD
5
1F
100
AcDbSymbolTableRecord
100
AcDbBlockTableRecord
2
*MODEL_SPACE
0
BLOCK_RECORD
5
1B
100
AcDbSymbolTableRecord
100
AcDbBlockTableRecord
2
*PAPER_SPACE
0
ENDTAB
0
ENDSEC
0
SECTION
2
BLOCKS
0
BLOCK
5
20
100
AcDbEntity
100
AcDbBlockBegin
2
*MODEL_SPACE
0
ENDBLK
5
21
100
AcDbEntity
100
AcDbBlockEnd
0
BLOCK
5
1C
100
AcDbEntity
100
AcDbBlockBegin
2
*PAPER_SPACE
0
ENDBLK
5
1D
100
AcDbEntity
100
AcDbBlockEnd
0
ENDSEC
0
SECTION
2
ENTITIES
0
CIRCLE
5
100
100
AcDbEntity
8
0
100
AcDbCircle
10
-47.320621073311202
20
-16.632847927008218
30
0
40
1.5000000000000036
210
0
220
-0
230
1
0
LWPOLYLINE
5
101
100
AcDbEntity
8
0
100
AcDbPolyline
90
4
70
1
43
0.0
10
-51.320621073311202
20
-10.132847927008214
10
-51.320621073311202
20
-2.1328479270082212
10
-56.320621073311216
20
-2.1328479270082212
10
-56.320621073311216
20
-10.132847927008214
0
CIRCLE
5
102
100
AcDbEntity
8
0
100
AcDbCircle
10
-47.320621073311202
20
4.3671520729917841
30
0
40
1.5000000000000036
210
0
220
-0
230
1
0
LINE
5
103
100
AcDbEntity
8
0
100
AcDbLine
10
-69.32062107331123
20
-1.1328479270082159
30
0
11
-69.32062107331123
21
-4.6328479270082212
31
0
0
LINE
5
104
100
AcDbEntity
8
0
100
AcDbLine
10
-69.32062107331123
20
-4.6328479270082212
30
0
11
-65.320621073311216
21
-4.6328479270082124
31
0
0
ARC
5
105
100
AcDbEntity
8
0
100
AcDbCircle
10
-65.32062107331123
20
-6.1328479270082177
30
0
40
1.5000000000000022
210
0
220
0
230
1
100
AcDbArc
50
-90.000003531273222
51
89.99999999999946
0
LINE
5
106
100
AcDbEntity
8
0
100
AcDbLine
10
-65.320621165759746
20
-7.6328479270082177
30
0
11
-69.32062107331123
21
-7.6328479270082106
31
0
0
LINE
5
107
100
AcDbEntity
8
0
100
AcDbLine
10
-69.32062107331123
20
-7.6328479270082106
30
0
11
-69.32062107331123
21
-11.132847927008216
31
0
0
ARC
5
108
100
AcDbEntity
8
0
100
AcDbCircle
10
-70.82062107331123
20
-11.132847927008211
30
0
40
1.4999999999999947
210
0
220
0
230
1
100
AcDbArc
50
180
51
360
0
LINE
5
109
100
AcDbEntity
8
0
100
AcDbLine
10
-72.32062107331123
20
-11.132847927008216
30
0
11
-72.320621073311216
21
-1.1328479270082159
31
0
0
ARC
5
110
100
AcDbEntity
8
0
100
AcDbCircle
10
-70.82062107331123
20
-1.1328479270082117
30
0
40
1.4999999999999858
210
0
220
0
230
1
100
AcDbArc
50
0
51
180
0
LWPOLYLINE
5
111
100
AcDbEntity
8
0
100
AcDbPolyline
90
4
70
1
43
0.0
10
41.679378926688806
20
-2.1328479270082168
10
41.679378926688806
20
-10.132847927008214
10
46.679378926688806
20
-10.132847927008214
10
46.679378926688806
20
-2.1328479270082168
0
LWPOLYLINE
5
112
100
AcDbEntity
8
0
100
AcDbPolyline
90
8
70
1
43
0.0
10
59.679378926688827
20
-1.1328479270082075
42
-0.99999999999999989
10
62.67937892668882
20
-1.1328479270082159
10
62.679378926688827
20
-11.132847927008207
42
-0.99999999999999989
10
59.679378926688841
20
-11.132847927008216
10
59.679378926688848
20
-7.632847927008215
10
55.679378926688855
20
-7.632847927008215
42
-0.99999999999999989
10
55.679378926688813
20
-4.6328479270082124
10
59.679378926688848
20
-4.6328479270082168
0
LWPOLYLINE
5
113
100
AcDbEntity
8
0
100
AcDbPolyline
90
8
70
1
43
0.0
10
-44.320621073311202
20
23.574505021928882
42
-0.41421356237309481
10
-38.320621073311194
20
29.574505021928882
10
30.679378926688806
20
29.574505021928886
42
-0.41421356237309398
10
36.679378926688806
20
23.574505021928893
10
36.679378926688806
20
-35.425494978071121
42
-0.41421356237309437
10
30.679378926688802
20
-41.425494978071114
10
-38.320621073311202
20
-41.425494978071114
42
-0.41421356237309531
10
-44.320621073311202
20
-35.425494978071114
0
LWPOLYLINE
5
114
100
AcDbEntity
8
0
100
AcDbPolyline
90
48
70
1
43
0.0
10
-89.320621073311258
20
-0.34020087594530679
10
-94.320621073311258
20
-0.34020087594530679
10
-94.320621073311187
20
6.074505021928875
10
-68.320621073311202
20
6.0745050219288821
42
0.41421356237309559
10
-56.320621073311202
20
18.074505021928854
10
-56.320621073311194
20
26.074505021928882
10
-51.320621073311194
20
26.074505021928882
10
-51.320621073311202
20
36.574505021928879
10
41.679378926688806
20
36.574505021928879
10
41.679378926688841
20
26.074505021928882
10
46.679378926688806
20
26.074505021928882
10
46.679378926688841
20
18.074505021928879
42
0.41421356237309459
10
58.679378926688834
20
6.0745050219288714
10
84.679378926688855
20
6.074505021928875
10
84.679378926688855
20
-0.34020087594530457
10
79.679378926688841
20
-0.34020087594530457
10
79.679378926688841
20
-4.3402008759453032
10
75.679378926688827
20
-4.3402008759453032
10
75.679378926688827
20
-3.1328479270082155
10
71.679378926688841
20
-3.1328479270082155
10
71.679378926688841
20
-9.1328479270082159
10
75.679378926688827
20
-9.1328479270082159
10
75.679378926688827
20
-7.9254949780711268
10
79.679378926688841
20
-7.9254949780711268
10
79.679378926688841
20
-11.925494978071127
10
84.679378926688855
20
-11.925494978071127
10
84.679378926688855
20
-17.925494978071129
10
58.679378926688784
20
-17.925494978071121
42
0.41421356237309503
10
46.67937892668877
20
-29.925494978071114
10
46.679378926688806
20
-37.925494978071129
10
41.679378926688806
20
-37.925494978071129
10
41.679378926688806
20
-48.425494978071129
10
-51.320621073311202
20
-48.425494978071129
10
-51.320621073311216
20
-37.925494978071121
10
-56.320621073311194
20
-37.925494978071121
10
-56.320621073311194
20
-29.925494978071121
42
0.41421356237309592
10
-68.32062107331123
20
-17.925494978071125
10
-94.320621073311187
20
-17.925494978071125
10
-94.320621073311258
20
-11.925494978071125
10
-89.320621073311258
20
-11.925494978071125
10
-89.320621073311258
20
-7.9254949780711303
10
-85.320621073311258
20
-7.9254949780711303
10
-85.320621073311258
20
-9.1328479270082141
10
-81.32062107331123
20
-9.1328479270082141
10
-81.32062107331123
20
-3.1328479270082177
10
-85.320621073311258
20
-3.1328479270082177
10
-85.320621073311258
20
-4.3402008759453015
10
-89.320621073311258
20
-4.3402008759453015
0
ENDSEC
0
SECTION
2
OBJECTS
0
DICTIONARY
5
C
100
AcDbDictionary
3
ACAD_GROUP
350
D
3
ACAD_MLINESTYLE
350
17
0
DICTIONARY
5
D
100
AcDbDictionary
0
DICTIONARY
5
1A
330
C
100
AcDbDictionary
0
DICTIONARY
5
17
100
AcDbDictionary
0
ENDSEC
0
EOF
