0
SECTION
2
HEADER
9
$INSUNITS
70
1
9
$ACADVER
1
AC1014
9
$HANDSEED
5
FFFF
0
ENDSEC
0
SECTION
2
TABLES
0
TABLE
2
VPORT
5
8
100
AcDbSymbolTable
0
ENDTAB
0
TABLE
2
LTYPE
5
5
100
AcDbSymbolTable
0
LTYPE
5
14
100
AcDbSymbolTableRecord
100
AcDbLinetypeTableRecord
2
BYBLOCK
70
0
0
LTYPE
5
15
100
AcDbSymbolTableRecord
100
AcDbLinetypeTableRecord
2
BYLAYER
70
0
0
ENDTAB
0
TABLE
2
LAYER
5
2
100
AcDbSymbolTable
70
2
0
LAYER
5
50
100
AcDbSymbolTableRecord
100
AcDbLayerTableRecord
2
0
70
0
6
CONTINUOUS
0
ENDTAB
0
TABLE
2
STYLE
5
3
100
AcDbSymbolTable
70
1
0
STYLE
5
11
100
AcDbSymbolTableRecord
100
AcDbTextStyleTableRecord
2
STANDARD
70
0
0
ENDTAB
0
TABLE
2
VIEW
5
6
100
AcDbSymbolTable
70
0
0
ENDTAB
0
TABLE
2
UCS
5
7
100
AcDbSymbolTable
70
0
0
ENDTAB
0
TABLE
2
APPID
5
9
100
AcDbSymbolTable
70
2
0
APPID
5
12
100
AcDbSymbolTableRecord
100
AcDbRegAppTableRecord
2
ACAD
70
0
0
ENDTAB
0
TABLE
2
DIMSTYLE
5
A
100
AcDbSymbolTable
70
1
0
ENDTAB
0
TABLE
2
BLOCK_RECORD
5
1
100
AcDbSymbolTable
70
1
0
BLOCK_RECORD
5
1F
100
AcDbSymbolTableRecord
100
AcDbBlockTableRecord
2
*MODEL_SPACE
0
BLOCK_RECORD
5
1B
100
AcDbSymbolTableRecord
100
AcDbBlockTableRecord
2
*PAPER_SPACE
0
ENDTAB
0
ENDSEC
0
SECTION
2
BLOCKS
0
BLOCK
5
20
100
AcDbEntity
100
AcDbBlockBegin
2
*MODEL_SPACE
0
ENDBLK
5
21
100
AcDbEntity
100
AcDbBlockEnd
0
BLOCK
5
1C
100
AcDbEntity
100
AcDbBlockBegin
2
*PAPER_SPACE
0
ENDBLK
5
1D
100
AcDbEntity
100
AcDbBlockEnd
0
ENDSEC
0
SECTION
2
ENTITIES
0
LINE
5
100
100
AcDbEntity
8
0
100
AcDbLine
10
3.2549794332102304
20
-0.32586277473152891
30
0
11
6.5933287598429473
21
-0.49303431314821866
31
0
0
ARC
5
101
100
AcDbEntity
8
0
100
AcDbCircle
10
6.4470174020516433
20
-0.1497283254138618
30
0
40
0.37318362053149845
210
-0
220
0
230
1
100
AcDbArc
50
-66.917095701990306
51
0
0
LINE
5
102
100
AcDbEntity
8
0
100
AcDbLine
10
6.8202010225831406
20
-0.1497283254138618
30
0
11
6.8202010225831415
21
0.47615969911742445
31
0
0
ARC
5
103
100
AcDbEntity
8
0
100
AcDbCircle
10
6.4470174020516433
20
0.47615969911742451
30
0
40
0.37318362053149895
210
-0
220
0
230
1
100
AcDbArc
50
0
51
66.917095701990192
0
LINE
5
104
100
AcDbEntity
8
0
100
AcDbLine
10
6.5933287598429482
20
0.81946568685178134
30
0
11
3.2549794332102304
21
0.65229414843509126
31
0
0
SPLINE
5
105
100
AcDbEntity
8
0
100
AcDbSpline
70
4
71
5
72
21
73
15
74
0
42
0.000000001
43
0.0000000001
44
0.0000000001
40
0
40
0
40
0
40
0
40
0
40
0
40
0.10000000000000001
40
0.20000000000000001
40
0.30000000000000004
40
0.40000000000000002
40
0.5
40
0.59999999999999998
40
0.69999999999999996
40
0.79999999999999993
40
0.89999999999999991
40
1
40
1
40
1
40
1
40
1
40
1
41
1
41
1
41
1
41
1
41
1
41
1
41
1
41
1
41
1
41
1
41
1
41
1
41
1
41
1
41
1
10
3.2549794332102304
20
0.65229414843509126
30
0
10
3.2031719904971809
20
0.64947308872312637
30
0
10
3.0975175970408073
20
0.64417883670727638
30
0
10
2.9329185942317904
20
0.63728157630845195
30
0
10
2.7026628719113925
20
0.63115637398457969
30
0
10
2.4046566645968257
20
0.6346696906291095
30
0
10
2.1056921659981014
20
0.6576991126445525
30
0
10
1.814122550671591
20
0.70970690559669791
30
0
10
1.5345206736105406
20
0.79955543646376903
30
0
10
1.266233581143444
20
0.93444559879939648
30
0
10
1.005981655951121
20
1.1209899739374745
30
0
10
0.80067284814651241
20
1.3163409133696002
30
0
10
0.64656912894070795
20
1.4909835406239167
30
0
10
0.54353170101081105
20
1.6202285891430281
30
0
10
0.49193760491789679
20
1.6880554646500452
30
0
0
LINE
5
106
100
AcDbEntity
8
0
100
AcDbLine
10
0.49193760491789668
20
1.6880554646500452
30
0
11
-0.78783142949257667
21
3.3704715073378351
31
0
0
SPLINE
5
107
100
AcDbEntity
8
0
100
AcDbSpline
70
4
71
5
72
21
73
15
74
0
42
0.000000001
43
0.0000000001
44
0.0000000001
40
0
40
0
40
0
40
0
40
0
40
0
40
0.10000000000000001
40
0.20000000000000001
40
0.30000000000000004
40
0.40000000000000002
40
0.5
40
0.59999999999999998
40
0.69999999999999996
40
0.79999999999999993
40
0.89999999999999991
40
1
40
1
40
1
40
1
40
1
40
1
41
1
41
1
41
1
41
1
41
1
41
1
41
1
41
1
41
1
41
1
41
1
41
1
41
1
41
1
41
1
10
-0.78783142949257667
20
3.3704715073378351
30
0
10
-0.82546882545171985
20
3.4165022712124302
30
0
10
-0.89906984842154691
20
3.5012912318054195
30
0
10
-1.0044505321207424
20
3.6066590491677237
30
0
10
-1.1357234799142115
20
3.7064362835663789
30
0
10
-1.2891325755152268
20
3.7788897137937272
30
0
10
-1.4382105441116242
20
3.817734661058676
30
0
10
-1.5901490562989147
20
3.8405526367931069
30
0
10
-1.7521967362134718
20
3.8594859898695271
30
0
10
-1.9310610926771723
20
3.8785065099200597
30
0
10
-2.1329876584914014
20
3.8967305757037671
30
0
10
-2.3173791572970752
20
3.9077604517996205
30
0
10
-2.4704167172629887
20
3.9122238349659493
30
0
10
-2.5792479379339568
20
3.9132156868517813
30
0
10
-2.6353651972488237
20
3.9132156868517813
30
0
0
LINE
5
108
100
AcDbEntity
8
0
100
AcDbLine
10
-2.6353651972488241
20
3.9132156868517813
30
0
11
-6.6797989774168576
21
3.9132156868517813
31
0
0
ARC
5
109
100
AcDbEntity
8
0
100
AcDbCircle
10
-6.6797989774168576
20
2.4132156868517818
30
0
40
1.4999999999999993
210
0
220
-0
230
1
100
AcDbArc
50
90
51
180
0
LINE
5
110
100
AcDbEntity
8
0
100
AcDbLine
10
-8.1797989774168567
20
2.4132156868517813
30
0
11
-8.1797989774168567
21
-2.0867843131482195
31
0
0
ARC
5
111
100
AcDbEntity
8
0
100
AcDbCircle
10
-6.6797989774168576
20
-2.0867843131482204
30
0
40
1.499999999999998
210
0
220
0
230
1
100
AcDbArc
50
180
51
270
0
LINE
5
112
100
AcDbEntity
8
0
100
AcDbLine
10
-6.6797989774168576
20
-3.58678431314822
30
0
11
-2.6353651972488228
21
-3.58678431314822
31
0
0
SPLINE
5
113
100
AcDbEntity
8
0
100
AcDbSpline
70
4
71
5
72
21
73
15
74
0
42
0.000000001
43
0.0000000001
44
0.0000000001
40
-1
40
-1
40
-1
40
-1
40
-1
40
-1
40
-0.89999999999999991
40
-0.79999999999999993
40
-0.69999999999999996
40
-0.59999999999999998
40
-0.5
40
-0.40000000000000002
40
-0.30000000000000004
40
-0.20000000000000001
40
-0.10000000000000001
40
0
40
0
40
0
40
0
40
0
40
0
41
1
41
1
41
1
41
1
41
1
41
1
41
1
41
1
41
1
41
1
41
1
41
1
41
1
41
1
41
1
10
-2.6353651972488228
20
-3.58678431314822
30
0
10
-2.5792479379339559
20
-3.58678431314822
30
0
10
-2.4704167172629869
20
-3.5857924612623866
30
0
10
-2.317379157297073
20
-3.5813290780960543
30
0
10
-2.1329876584913978
20
-3.5702992020001876
30
0
10
-1.9310610926771659
20
-3.5520751362164691
30
0
10
-1.7521967362134654
20
-3.5330546161659351
30
0
10
-1.5901490562989127
20
-3.5141212630895344
30
0
10
-1.4382105441116291
20
-3.4913032873551417
30
0
10
-1.2891325755152352
20
-3.4524583400902307
30
0
10
-1.1357234799142182
20
-3.3800049098628859
30
0
10
-1.0044505321207446
20
-3.2802276754642063
30
0
10
-0.89906984842154736
20
-3.1748598581018648
30
0
10
-0.82546882545171951
20
-3.0900708975088689
30
0
10
-0.78783142949257634
20
-3.0440401336342737
30
0
0
LINE
5
114
100
AcDbEntity
8
0
100
AcDbLine
10
-0.78783142949257634
20
-3.0440401336342737
30
0
11
0.49193760491789723
21
-1.3616240909464818
31
0
0
SPLINE
5
115
100
AcDbEntity
8
0
100
AcDbSpline
70
4
71
5
72
21
73
15
74
0
42
0.000000001
43
0.0000000001
44
0.0000000001
40
-1
40
-1
40
-1
40
-1
40
-1
40
-1
40
-0.89999999999999991
40
-0.79999999999999993
40
-0.69999999999999996
40
-0.59999999999999998
40
-0.5
40
-0.40000000000000002
40
-0.30000000000000004
40
-0.20000000000000001
40
-0.10000000000000001
40
0
40
0
40
0
40
0
40
0
40
0
41
1
41
1
41
1
41
1
41
1
41
1
41
1
41
1
41
1
41
1
41
1
41
1
41
1
41
1
41
1
10
0.49193760491789706
20
-1.3616240909464818
30
0
10
0.54353170101081139
20
-1.293797215439465
30
0
10
0.64656912894070961
20
-1.1645521669203547
30
0
10
0.8006728481465214
20
-0.989909539666044
30
0
10
1.0059816559511414
20
-0.79455860023392944
30
0
10
1.2662335811434704
20
-0.60801422509585679
30
0
10
1.5345206736105599
20
-0.47312406276022395
30
0
10
1.8141225506715943
20
-0.38327553189313956
30
0
10
2.1056921659980916
20
-0.33126773894098005
30
0
10
2.4046566645968115
20
-0.30823831692552867
30
0
10
2.7026628719113845
20
-0.30472500028100119
30
0
10
2.9329185942317877
20
-0.31085020260488067
30
0
10
3.0975175970408064
20
-0.31774746300371298
30
0
10
3.2031719904971809
20
-0.32304171501956414
30
0
10
3.2549794332102304
20
-0.32586277473152891
30
0
0
ENDSEC
0
SECTION
2
OBJECTS
0
DICTIONARY
5
C
100
AcDbDictionary
3
ACAD_GROUP
350
D
3
ACAD_MLINESTYLE
350
17
0
DICTIONARY
5
D
100
AcDbDictionary
0
DICTIONARY
5
1A
330
C
100
AcDbDictionary
0
DICTIONARY
5
17
100
AcDbDictionary
0
ENDSEC
0
EOF
