<?xml version="1.0" encoding="UTF-8" standalone="no"?>
<svg
   xmlns:dc="http://purl.org/dc/elements/1.1/"
   xmlns:cc="http://creativecommons.org/ns#"
   xmlns:rdf="http://www.w3.org/1999/02/22-rdf-syntax-ns#"
   xmlns:svg="http://www.w3.org/2000/svg"
   xmlns="http://www.w3.org/2000/svg"
   xmlns:sodipodi="http://sodipodi.sourceforge.net/DTD/sodipodi-0.dtd"
   xmlns:inkscape="http://www.inkscape.org/namespaces/inkscape"
   sodipodi:docname="pickles bone and paddles.svg"
   inkscape:version="1.0 (4035a4fb49, 2020-05-01)"
   id="svg793"
   version="1.1"
   viewBox="0 0 1432.1049 544.09241"
   height="544.09241mm"
   width="1432.1049mm">
  <defs
     id="defs787">
    <clipPath
       id="clipPath340"
       clipPathUnits="userSpaceOnUse">
      <path
         id="path338"
         d="M 0,0 H 5184 V 4032 H 0 Z" />
    </clipPath>
  </defs>
  <sodipodi:namedview
     inkscape:window-maximized="1"
     inkscape:window-y="-8"
     inkscape:window-x="-8"
     inkscape:window-height="1002"
     inkscape:window-width="1920"
     fit-margin-bottom="0"
     fit-margin-right="0"
     fit-margin-left="0"
     fit-margin-top="0"
     showgrid="false"
     inkscape:document-rotation="0"
     inkscape:current-layer="layer1"
     inkscape:document-units="mm"
     inkscape:cy="524.24537"
     inkscape:cx="2610.5479"
     inkscape:zoom="0.7"
     inkscape:pageshadow="2"
     inkscape:pageopacity="0.0"
     borderopacity="1.0"
     bordercolor="#666666"
     pagecolor="#ffffff"
     id="base" />
  <metadata
     id="metadata790">
    <rdf:RDF>
      <cc:Work
         rdf:about="">
        <dc:format>image/svg+xml</dc:format>
        <dc:type
           rdf:resource="http://purl.org/dc/dcmitype/StillImage" />
        <dc:title></dc:title>
      </cc:Work>
    </rdf:RDF>
  </metadata>
  <g
     transform="translate(610.21908,123.87952)"
     id="layer1"
     inkscape:groupmode="layer"
     inkscape:label="Layer 1">
    <g
       id="g342"
       transform="matrix(0.35277777,0,0,-0.35277777,391.38175,206.93013)">
      <path
         d="m 0,0 c -6.268,45.369 31.12,87.969 31.12,87.969 l 215.797,264.543 c 0,0 37.958,59.057 73.327,66.809 23.467,5.144 227.697,-9.268 227.697,-9.268 0,0 60.831,0.644 86.219,20.338 24.879,19.298 35.368,27.361 50.45,43.224 15.17,15.957 148.668,206.796 148.668,206.796 0,0 32.36,49.493 47.165,47.764 14.806,-1.73 43.515,-20.477 43.515,-20.477 0,0 45.922,-32.497 39.196,-53.047 -6.726,-20.549 -29.529,-40.63 -29.529,-40.63 L 765.176,434.523 c 0,0 -31.818,-33.905 -47.381,-67.192 -15.563,-33.287 -14.23,-48.665 -15.007,-62.274 -0.778,-13.608 45.513,-190.929 45.513,-190.929 0,0 10.474,-37.974 1.424,-65.939 -12.25,-37.85 -39.393,-59.635 -39.393,-59.635 l -216.344,-274.78 c 0,0 -35.667,-36.023 -78.119,-36.047 -42.396,-0.024 -70.564,16.437 -78.563,19.585 -7.999,3.147 -263.613,208.756 -263.613,208.756 0,0 -54.875,48.727 -61.771,61.644 C 5.027,-19.371 0,0 0,0"
         style="fill:#cd9700;fill-opacity:1;fill-rule:nonzero;stroke:none"
         id="path344" />
    </g>
    <g
       id="g346"
       transform="matrix(0.35277777,0,0,-0.35277777,391.38175,206.93013)">
      <path
         d="m 0,0 c -6.268,45.369 31.12,87.969 31.12,87.969 l 215.797,264.543 c 0,0 37.958,59.057 73.327,66.809 23.467,5.144 227.697,-9.268 227.697,-9.268 0,0 60.831,0.644 86.219,20.338 24.879,19.298 35.368,27.361 50.45,43.224 15.17,15.957 148.668,206.796 148.668,206.796 0,0 32.36,49.493 47.165,47.764 14.806,-1.73 43.515,-20.477 43.515,-20.477 0,0 45.922,-32.497 39.196,-53.047 -6.726,-20.549 -29.529,-40.63 -29.529,-40.63 L 765.176,434.523 c 0,0 -31.818,-33.905 -47.381,-67.192 -15.563,-33.287 -14.23,-48.665 -15.007,-62.274 -0.778,-13.608 45.513,-190.929 45.513,-190.929 0,0 10.474,-37.974 1.424,-65.939 -12.25,-37.85 -39.393,-59.635 -39.393,-59.635 l -216.344,-274.78 c 0,0 -35.667,-36.023 -78.119,-36.047 -42.396,-0.024 -70.564,16.437 -78.563,19.585 -7.999,3.147 -263.613,208.756 -263.613,208.756 0,0 -54.875,48.727 -61.771,61.644 C 5.027,-19.371 0,0 0,0 Z"
         style="fill:none;stroke:#000000;stroke-width:20;stroke-linecap:butt;stroke-linejoin:miter;stroke-miterlimit:4;stroke-dasharray:none;stroke-opacity:1"
         id="path348" />
    </g>
    <g
       id="g350"
       transform="matrix(0.35277777,0,0,-0.35277777,-438.83921,9.4919825)">
      <path
         d="m 0,0 c 43.738,-13.494 66.527,-65.397 66.527,-65.397 l 148.441,-307.465 c 0,0 37.453,-59.375 29.535,-94.717 -5.254,-23.45 -104.573,-202.516 -104.573,-202.516 0,0 -25.111,-55.422 -17.999,-86.763 6.969,-30.713 9.841,-43.63 17.838,-64.009 8.043,-20.498 124.494,-222.194 124.494,-222.194 0,0 31.157,-50.258 23.337,-62.95 -7.82,-12.692 -36.926,-30.796 -36.926,-30.796 0,0 -48.829,-27.896 -64.6,-13.113 -15.77,14.784 -24.325,43.945 -24.325,43.945 l -91.416,228.59 c 0,0 -17.268,43.178 -40.841,71.357 -23.574,28.18 -38.065,33.472 -50.062,39.929 -11.996,6.457 -192.146,39.441 -192.146,39.441 0,0 -38.816,6.555 -60.321,26.581 -29.106,27.104 -37.372,60.921 -37.372,60.921 L -467.89,-326.87 c 0,0 -17.56,47.563 0.351,86.061 17.886,38.446 44.693,57.026 50.922,62.947 6.229,5.921 300.416,150.756 300.416,150.756 0,0 67.31,29.153 81.922,29.945 C -19.667,3.63 0,0 0,0"
         style="fill:#cd9700;fill-opacity:1;fill-rule:nonzero;stroke:none"
         id="path352" />
    </g>
    <g
       id="g354"
       transform="matrix(0.35277777,0,0,-0.35277777,-438.83921,9.4919825)">
      <path
         d="m 0,0 c 43.738,-13.494 66.527,-65.397 66.527,-65.397 l 148.441,-307.465 c 0,0 37.453,-59.375 29.535,-94.717 -5.254,-23.45 -104.573,-202.516 -104.573,-202.516 0,0 -25.111,-55.422 -17.999,-86.763 6.969,-30.713 9.841,-43.63 17.838,-64.009 8.043,-20.498 124.494,-222.194 124.494,-222.194 0,0 31.157,-50.258 23.337,-62.95 -7.82,-12.692 -36.926,-30.796 -36.926,-30.796 0,0 -48.829,-27.896 -64.6,-13.113 -15.77,14.784 -24.325,43.945 -24.325,43.945 l -91.416,228.59 c 0,0 -17.268,43.178 -40.841,71.357 -23.574,28.18 -38.065,33.472 -50.062,39.929 -11.996,6.457 -192.146,39.441 -192.146,39.441 0,0 -38.816,6.555 -60.321,26.581 -29.106,27.104 -37.372,60.921 -37.372,60.921 L -467.89,-326.87 c 0,0 -17.56,47.563 0.351,86.061 17.886,38.446 44.693,57.026 50.922,62.947 6.229,5.921 300.416,150.756 300.416,150.756 0,0 67.31,29.153 81.922,29.945 C -19.667,3.63 0,0 0,0 Z"
         style="fill:none;stroke:#000000;stroke-width:20;stroke-linecap:butt;stroke-linejoin:miter;stroke-miterlimit:4;stroke-dasharray:none;stroke-opacity:1"
         id="path356" />
    </g>
    <g
       id="g362"
       transform="matrix(0.35277777,0,0,-0.35277777,772.35574,127.61905)">
      <path
         d="M 0,0 C 75.608,0 136.9,61.292 136.9,136.9 136.9,212.508 75.608,273.8 0,273.8 -75.607,273.8 -136.9,212.508 -136.9,136.9 -136.9,61.292 -75.607,0 0,0"
         style="fill:#95d500;fill-opacity:1;fill-rule:nonzero;stroke:none"
         id="path364" />
    </g>
    <g
       id="g366"
       transform="matrix(0.35277777,0,0,-0.35277777,772.35574,127.61905)">
      <path
         d="M 0,0 C 75.608,0 136.9,61.292 136.9,136.9 136.9,212.508 75.608,273.8 0,273.8 -75.607,273.8 -136.9,212.508 -136.9,136.9 -136.9,61.292 -75.607,0 0,0 Z"
         style="fill:none;stroke:#000000;stroke-width:7;stroke-linecap:butt;stroke-linejoin:miter;stroke-miterlimit:4;stroke-dasharray:none;stroke-opacity:1"
         id="path368" />
    </g>
    <g
       id="g378"
       transform="matrix(0.35277777,0,0,-0.35277777,39.461406,-72.915388)">
      <path
         d="m 0,0 h -308.872 c 0,0 -234.743,0.971 -250.349,2.948 -87.784,185.723 -235.857,117.17 -235.857,117.17 0,0 -143.057,-38.695 -130.052,-159.399 13.005,-120.703 193.777,-126.173 191.176,-137.965 -2.601,-11.792 -126.01,-14.366 -152.021,-105.76 -33.807,-118.794 20.005,-207.952 164.19,-214.995 185.323,-9.052 245.332,163.922 245.332,163.922 l 476.284,-0.191 474.772,2.182 c 0,0 60.009,-172.974 245.332,-163.922 144.185,7.043 197.998,96.201 164.19,214.995 -26.01,91.394 -149.419,93.968 -152.021,105.76 -2.601,11.792 178.171,17.262 191.176,137.965 13.005,120.704 -130.051,159.399 -130.051,159.399 0,0 -148.073,68.553 -235.858,-117.17 C 541.765,2.962 307.022,1.991 307.022,1.991 H -1.85"
         style="fill:#ffffff;fill-opacity:1;fill-rule:nonzero;stroke:none"
         id="path380" />
    </g>
    <g
       id="g382"
       transform="matrix(0.35277777,0,0,-0.35277777,39.461406,-72.915388)">
      <path
         sodipodi:nodetypes="ccccsscccccsscscccc"
         d="m 0,0 h -308.872 c 0,0 -234.743,0.971 -250.349,2.948 -87.784,185.723 -235.857,117.17 -235.857,117.17 0,0 -143.057,-38.695 -130.052,-159.399 13.005,-120.703 193.777,-126.173 191.176,-137.965 -2.601,-11.792 -126.01,-14.366 -152.021,-105.76 -33.807,-118.794 20.005,-207.952 164.19,-214.995 185.323,-9.052 245.332,163.922 245.332,163.922 l 476.284,-0.191 474.772,2.182 c 0,0 60.009,-172.974 245.332,-163.922 144.185,7.043 197.998,96.201 164.19,214.995 -26.01,91.394 -149.419,93.968 -152.021,105.76 -2.601,11.792 178.171,17.262 191.176,137.965 13.005,120.704 -130.051,159.399 -130.051,159.399 0,0 -148.073,68.553 -235.858,-117.17 C 541.765,2.962 307.022,1.991 307.022,1.991 L 0,0"
         style="fill:none;stroke:#000000;stroke-width:20;stroke-linecap:butt;stroke-linejoin:miter;stroke-miterlimit:4;stroke-dasharray:none;stroke-opacity:1"
         id="path384" />
    </g>
  </g>
</svg>
