<?xml version="1.0" encoding="UTF-8" standalone="no"?>
<svg
   xmlns:dc="http://purl.org/dc/elements/1.1/"
   xmlns:cc="http://creativecommons.org/ns#"
   xmlns:rdf="http://www.w3.org/1999/02/22-rdf-syntax-ns#"
   xmlns:svg="http://www.w3.org/2000/svg"
   xmlns="http://www.w3.org/2000/svg"
   xmlns:sodipodi="http://sodipodi.sourceforge.net/DTD/sodipodi-0.dtd"
   xmlns:inkscape="http://www.inkscape.org/namespaces/inkscape"
   sodipodi:docname="pickles.svg"
   inkscape:version="1.0 (4035a4fb49, 2020-05-01)"
   id="svg8"
   version="1.1"
   viewBox="0 0 210 297"
   height="11.692913in"
   width="8.2677164in">
  <defs
     id="defs2">
    <clipPath
       clipPathUnits="userSpaceOnUse"
       id="clipPath28">
      <path
         d="M 0,0 H 5184 V 4032 H 0 Z"
         id="path26" />
    </clipPath>
    <clipPath
       clipPathUnits="userSpaceOnUse"
       id="clipPath44">
      <path
         d="m 597.599,2131.2 694.801,-594 c 0,0 455.785,522 1277.999,522 v 0 c 828,0 1342.801,-480.6 1342.801,-480.6 v 0 l 601.2,581.4 c 0,0 -482.458,737.447 -1935.511,766.119 v 0 c -20.335,0.401 -40.586,0.599 -60.613,0.599 v 0 C 1246.529,2926.747 597.599,2131.2 597.599,2131.2"
         id="path42" />
    </clipPath>
    <clipPath
       clipPathUnits="userSpaceOnUse"
       id="clipPath312">
      <path
         d="M 0,0 H 5184 V 4032 H 0 Z"
         id="path310" />
    </clipPath>
    <clipPath
       clipPathUnits="userSpaceOnUse"
       id="clipPath340">
      <path
         d="M 0,0 H 5184 V 4032 H 0 Z"
         id="path338" />
    </clipPath>
  </defs>
  <sodipodi:namedview
     inkscape:window-maximized="1"
     inkscape:window-y="-8"
     inkscape:window-x="-8"
     inkscape:window-height="1002"
     inkscape:window-width="1920"
     units="in"
     showgrid="false"
     inkscape:document-rotation="0"
     inkscape:current-layer="layer1"
     inkscape:document-units="in"
     inkscape:cy="-1130.4762"
     inkscape:cx="400"
     inkscape:zoom="0.35"
     inkscape:pageshadow="2"
     inkscape:pageopacity="0.0"
     borderopacity="1.0"
     bordercolor="#666666"
     pagecolor="#ffffff"
     id="base" />
  <metadata
     id="metadata5">
    <rdf:RDF>
      <cc:Work
         rdf:about="">
        <dc:format>image/svg+xml</dc:format>
        <dc:type
           rdf:resource="http://purl.org/dc/dcmitype/StillImage" />
        <dc:title></dc:title>
      </cc:Work>
    </rdf:RDF>
  </metadata>
  <g
     id="layer1"
     inkscape:groupmode="layer"
     inkscape:label="Layer 1">
    <g
       id="g18"
       inkscape:label="PballShedSgn"
       transform="matrix(0.35277777,0,0,-0.35277777,-1345.6553,430.05104)">
      <path
         d="M 79.2,849.6 H 5183.998 V 3139.199 H 79.2 Z"
         style="fill:#bcbec0;fill-opacity:1;fill-rule:nonzero;stroke:none"
         id="path20" />
      <g
         id="g22">
        <g
           id="g24"
           clip-path="url(#clipPath28)">
          <g
             id="g30"
             transform="translate(4343.6001,164.6)">
            <path
               d="M 0,0 C 0,945.291 -773.428,1711.6 -1727.5,1711.6 -2681.572,1711.6 -3455,945.291 -3455,0"
               style="fill:none;stroke:#ec008c;stroke-width:6;stroke-linecap:butt;stroke-linejoin:miter;stroke-miterlimit:4;stroke-dasharray:none;stroke-opacity:1"
               id="path32" />
          </g>
          <g
             id="g34"
             transform="translate(3960,1558.7999)">
            <path
               d="M 0,0 C -158.4,172.8 -747.011,496.686 -1389.6,500.4 -2012.4,504 -2426.4,205.2 -2678.4,-32.4 m -684,651.6 734.4,-648 M 554.4,630 C 439.2,752.4 -215.721,1364.244 -1367.51,1364.318 -2642.4,1364.4 -3362.4,565.2 -3362.4,565.2"
               style="fill:none;stroke:#000000;stroke-width:80;stroke-linecap:butt;stroke-linejoin:miter;stroke-miterlimit:4;stroke-dasharray:none;stroke-opacity:1"
               id="path36" />
          </g>
        </g>
      </g>
      <g
         id="g38">
        <g
           id="g40"
           clip-path="url(#clipPath44)">
          <g
             id="g46"
             transform="translate(5037.1812,1545.9844)" />
          <g
             id="g48"
             transform="translate(22.889,2865.6382)">
            <path
               d="M 0,0 H 5019.906"
               style="fill:none;stroke:#000000;stroke-width:7;stroke-linecap:butt;stroke-linejoin:miter;stroke-miterlimit:4;stroke-dasharray:none;stroke-opacity:1"
               id="path50" />
          </g>
          <g
             id="g52"
             transform="translate(22.889,2757.6382)">
            <path
               d="M 0,0 H 5019.906"
               style="fill:none;stroke:#000000;stroke-width:7;stroke-linecap:butt;stroke-linejoin:miter;stroke-miterlimit:4;stroke-dasharray:none;stroke-opacity:1"
               id="path54" />
          </g>
          <g
             id="g56"
             transform="translate(22.889,2649.6382)">
            <path
               d="M 0,0 H 5019.906"
               style="fill:none;stroke:#000000;stroke-width:7;stroke-linecap:butt;stroke-linejoin:miter;stroke-miterlimit:4;stroke-dasharray:none;stroke-opacity:1"
               id="path58" />
          </g>
          <g
             id="g60"
             transform="translate(22.889,2541.6382)">
            <path
               d="M 0,0 H 5019.906"
               style="fill:none;stroke:#000000;stroke-width:7;stroke-linecap:butt;stroke-linejoin:miter;stroke-miterlimit:4;stroke-dasharray:none;stroke-opacity:1"
               id="path62" />
          </g>
          <g
             id="g64"
             transform="translate(22.889,2433.6382)">
            <path
               d="M 0,0 H 5019.906"
               style="fill:none;stroke:#000000;stroke-width:7;stroke-linecap:butt;stroke-linejoin:miter;stroke-miterlimit:4;stroke-dasharray:none;stroke-opacity:1"
               id="path66" />
          </g>
          <g
             id="g68"
             transform="translate(22.889,2325.6382)">
            <path
               d="M 0,0 H 5019.906"
               style="fill:none;stroke:#000000;stroke-width:7;stroke-linecap:butt;stroke-linejoin:miter;stroke-miterlimit:4;stroke-dasharray:none;stroke-opacity:1"
               id="path70" />
          </g>
          <g
             id="g72"
             transform="translate(22.889,2217.6382)">
            <path
               d="M 0,0 H 5019.906"
               style="fill:none;stroke:#000000;stroke-width:7;stroke-linecap:butt;stroke-linejoin:miter;stroke-miterlimit:4;stroke-dasharray:none;stroke-opacity:1"
               id="path74" />
          </g>
          <g
             id="g76"
             transform="translate(22.889,2109.6382)">
            <path
               d="M 0,0 H 5019.906"
               style="fill:none;stroke:#000000;stroke-width:7;stroke-linecap:butt;stroke-linejoin:miter;stroke-miterlimit:4;stroke-dasharray:none;stroke-opacity:1"
               id="path78" />
          </g>
          <g
             id="g80"
             transform="translate(22.889,2001.6381)">
            <path
               d="M 0,0 H 5019.906"
               style="fill:none;stroke:#000000;stroke-width:7;stroke-linecap:butt;stroke-linejoin:miter;stroke-miterlimit:4;stroke-dasharray:none;stroke-opacity:1"
               id="path82" />
          </g>
          <g
             id="g84"
             transform="translate(22.889,1893.6381)">
            <path
               d="M 0,0 H 5019.906"
               style="fill:none;stroke:#000000;stroke-width:7;stroke-linecap:butt;stroke-linejoin:miter;stroke-miterlimit:4;stroke-dasharray:none;stroke-opacity:1"
               id="path86" />
          </g>
          <g
             id="g88"
             transform="translate(22.889,1785.6381)">
            <path
               d="M 0,0 H 5019.906"
               style="fill:none;stroke:#000000;stroke-width:7;stroke-linecap:butt;stroke-linejoin:miter;stroke-miterlimit:4;stroke-dasharray:none;stroke-opacity:1"
               id="path90" />
          </g>
          <g
             id="g92"
             transform="translate(22.889,1677.6381)">
            <path
               d="M 0,0 H 5019.906"
               style="fill:none;stroke:#000000;stroke-width:7;stroke-linecap:butt;stroke-linejoin:miter;stroke-miterlimit:4;stroke-dasharray:none;stroke-opacity:1"
               id="path94" />
          </g>
          <g
             id="g96"
             transform="translate(22.889,1569.6381)">
            <path
               d="M 0,0 H 5019.906"
               style="fill:none;stroke:#000000;stroke-width:7;stroke-linecap:butt;stroke-linejoin:miter;stroke-miterlimit:4;stroke-dasharray:none;stroke-opacity:1"
               id="path98" />
          </g>
          <g
             id="g100"
             transform="translate(22.889,1461.6381)">
            <path
               d="M 0,0 H 5019.906"
               style="fill:none;stroke:#000000;stroke-width:7;stroke-linecap:butt;stroke-linejoin:miter;stroke-miterlimit:4;stroke-dasharray:none;stroke-opacity:1"
               id="path102" />
          </g>
          <g
             id="g104"
             transform="translate(22.889,1353.6381)">
            <path
               d="M 0,0 H 5019.906"
               style="fill:none;stroke:#000000;stroke-width:7;stroke-linecap:butt;stroke-linejoin:miter;stroke-miterlimit:4;stroke-dasharray:none;stroke-opacity:1"
               id="path106" />
          </g>
          <g
             id="g108"
             transform="translate(22.889,1245.6381)">
            <path
               d="M 0,0 H 5019.906"
               style="fill:none;stroke:#000000;stroke-width:7;stroke-linecap:butt;stroke-linejoin:miter;stroke-miterlimit:4;stroke-dasharray:none;stroke-opacity:1"
               id="path110" />
          </g>
          <g
             id="g112"
             transform="translate(22.889,1137.6381)">
            <path
               d="M 0,0 H 5019.906"
               style="fill:none;stroke:#000000;stroke-width:7;stroke-linecap:butt;stroke-linejoin:miter;stroke-miterlimit:4;stroke-dasharray:none;stroke-opacity:1"
               id="path114" />
          </g>
          <g
             id="g116"
             transform="translate(22.889,1029.6381)">
            <path
               d="M 0,0 H 5019.906"
               style="fill:none;stroke:#000000;stroke-width:7;stroke-linecap:butt;stroke-linejoin:miter;stroke-miterlimit:4;stroke-dasharray:none;stroke-opacity:1"
               id="path118" />
          </g>
          <g
             id="g120"
             transform="translate(227.4479,2923.438)">
            <path
               d="M 0,0 V -1932.5"
               style="fill:none;stroke:#000000;stroke-width:7;stroke-linecap:butt;stroke-linejoin:miter;stroke-miterlimit:4;stroke-dasharray:none;stroke-opacity:1"
               id="path122" />
          </g>
          <g
             id="g124"
             transform="translate(335.4479,2923.438)">
            <path
               d="M 0,0 V -1932.5"
               style="fill:none;stroke:#000000;stroke-width:7;stroke-linecap:butt;stroke-linejoin:miter;stroke-miterlimit:4;stroke-dasharray:none;stroke-opacity:1"
               id="path126" />
          </g>
          <g
             id="g128"
             transform="translate(443.4479,2923.438)">
            <path
               d="M 0,0 V -1932.5"
               style="fill:none;stroke:#000000;stroke-width:7;stroke-linecap:butt;stroke-linejoin:miter;stroke-miterlimit:4;stroke-dasharray:none;stroke-opacity:1"
               id="path130" />
          </g>
          <g
             id="g132"
             transform="translate(551.4479,2923.438)">
            <path
               d="M 0,0 V -1932.5"
               style="fill:none;stroke:#000000;stroke-width:7;stroke-linecap:butt;stroke-linejoin:miter;stroke-miterlimit:4;stroke-dasharray:none;stroke-opacity:1"
               id="path134" />
          </g>
          <g
             id="g136"
             transform="translate(659.4479,2923.438)">
            <path
               d="M 0,0 V -1932.5"
               style="fill:none;stroke:#000000;stroke-width:7;stroke-linecap:butt;stroke-linejoin:miter;stroke-miterlimit:4;stroke-dasharray:none;stroke-opacity:1"
               id="path138" />
          </g>
          <g
             id="g140"
             transform="translate(767.4479,2923.438)">
            <path
               d="M 0,0 V -1932.5"
               style="fill:none;stroke:#000000;stroke-width:7;stroke-linecap:butt;stroke-linejoin:miter;stroke-miterlimit:4;stroke-dasharray:none;stroke-opacity:1"
               id="path142" />
          </g>
          <g
             id="g144"
             transform="translate(875.4479,2923.438)">
            <path
               d="M 0,0 V -1932.5"
               style="fill:none;stroke:#000000;stroke-width:7;stroke-linecap:butt;stroke-linejoin:miter;stroke-miterlimit:4;stroke-dasharray:none;stroke-opacity:1"
               id="path146" />
          </g>
          <g
             id="g148"
             transform="translate(983.4479,2923.438)">
            <path
               d="M 0,0 V -1932.5"
               style="fill:none;stroke:#000000;stroke-width:7;stroke-linecap:butt;stroke-linejoin:miter;stroke-miterlimit:4;stroke-dasharray:none;stroke-opacity:1"
               id="path150" />
          </g>
          <g
             id="g152"
             transform="translate(1091.4479,2923.438)">
            <path
               d="M 0,0 V -1932.5"
               style="fill:none;stroke:#000000;stroke-width:7;stroke-linecap:butt;stroke-linejoin:miter;stroke-miterlimit:4;stroke-dasharray:none;stroke-opacity:1"
               id="path154" />
          </g>
          <g
             id="g156"
             transform="translate(1199.4478,2923.438)">
            <path
               d="M 0,0 V -1932.5"
               style="fill:none;stroke:#000000;stroke-width:7;stroke-linecap:butt;stroke-linejoin:miter;stroke-miterlimit:4;stroke-dasharray:none;stroke-opacity:1"
               id="path158" />
          </g>
          <g
             id="g160"
             transform="translate(1307.4478,2923.438)">
            <path
               d="M 0,0 V -1932.5"
               style="fill:none;stroke:#000000;stroke-width:7;stroke-linecap:butt;stroke-linejoin:miter;stroke-miterlimit:4;stroke-dasharray:none;stroke-opacity:1"
               id="path162" />
          </g>
          <g
             id="g164"
             transform="translate(1415.4478,2923.438)">
            <path
               d="M 0,0 V -1932.5"
               style="fill:none;stroke:#000000;stroke-width:7;stroke-linecap:butt;stroke-linejoin:miter;stroke-miterlimit:4;stroke-dasharray:none;stroke-opacity:1"
               id="path166" />
          </g>
          <g
             id="g168"
             transform="translate(1523.4478,2923.438)">
            <path
               d="M 0,0 V -1932.5"
               style="fill:none;stroke:#000000;stroke-width:7;stroke-linecap:butt;stroke-linejoin:miter;stroke-miterlimit:4;stroke-dasharray:none;stroke-opacity:1"
               id="path170" />
          </g>
          <g
             id="g172"
             transform="translate(1631.4478,2923.438)">
            <path
               d="M 0,0 V -1932.5"
               style="fill:none;stroke:#000000;stroke-width:7;stroke-linecap:butt;stroke-linejoin:miter;stroke-miterlimit:4;stroke-dasharray:none;stroke-opacity:1"
               id="path174" />
          </g>
          <g
             id="g176"
             transform="translate(1739.4478,2923.438)">
            <path
               d="M 0,0 V -1932.5"
               style="fill:none;stroke:#000000;stroke-width:7;stroke-linecap:butt;stroke-linejoin:miter;stroke-miterlimit:4;stroke-dasharray:none;stroke-opacity:1"
               id="path178" />
          </g>
          <g
             id="g180"
             transform="translate(1847.4478,2923.438)">
            <path
               d="M 0,0 V -1932.5"
               style="fill:none;stroke:#000000;stroke-width:7;stroke-linecap:butt;stroke-linejoin:miter;stroke-miterlimit:4;stroke-dasharray:none;stroke-opacity:1"
               id="path182" />
          </g>
          <g
             id="g184"
             transform="translate(1955.4478,2923.438)">
            <path
               d="M 0,0 V -1932.5"
               style="fill:none;stroke:#000000;stroke-width:7;stroke-linecap:butt;stroke-linejoin:miter;stroke-miterlimit:4;stroke-dasharray:none;stroke-opacity:1"
               id="path186" />
          </g>
          <g
             id="g188"
             transform="translate(2063.4478,2923.438)">
            <path
               d="M 0,0 V -1932.5"
               style="fill:none;stroke:#000000;stroke-width:7;stroke-linecap:butt;stroke-linejoin:miter;stroke-miterlimit:4;stroke-dasharray:none;stroke-opacity:1"
               id="path190" />
          </g>
          <g
             id="g192"
             transform="translate(2171.4478,2923.438)">
            <path
               d="M 0,0 V -1932.5"
               style="fill:none;stroke:#000000;stroke-width:7;stroke-linecap:butt;stroke-linejoin:miter;stroke-miterlimit:4;stroke-dasharray:none;stroke-opacity:1"
               id="path194" />
          </g>
          <g
             id="g196"
             transform="translate(2279.4478,2923.438)">
            <path
               d="M 0,0 V -1932.5"
               style="fill:none;stroke:#000000;stroke-width:7;stroke-linecap:butt;stroke-linejoin:miter;stroke-miterlimit:4;stroke-dasharray:none;stroke-opacity:1"
               id="path198" />
          </g>
          <g
             id="g200"
             transform="translate(2387.4478,2923.438)">
            <path
               d="M 0,0 V -1932.5"
               style="fill:none;stroke:#000000;stroke-width:7;stroke-linecap:butt;stroke-linejoin:miter;stroke-miterlimit:4;stroke-dasharray:none;stroke-opacity:1"
               id="path202" />
          </g>
          <g
             id="g204"
             transform="translate(2495.4478,2923.438)">
            <path
               d="M 0,0 V -1932.5"
               style="fill:none;stroke:#000000;stroke-width:7;stroke-linecap:butt;stroke-linejoin:miter;stroke-miterlimit:4;stroke-dasharray:none;stroke-opacity:1"
               id="path206" />
          </g>
          <g
             id="g208"
             transform="translate(2603.4478,2923.438)">
            <path
               d="M 0,0 V -1932.5"
               style="fill:none;stroke:#000000;stroke-width:7;stroke-linecap:butt;stroke-linejoin:miter;stroke-miterlimit:4;stroke-dasharray:none;stroke-opacity:1"
               id="path210" />
          </g>
          <g
             id="g212"
             transform="translate(2711.4478,2923.438)">
            <path
               d="M 0,0 V -1932.5"
               style="fill:none;stroke:#000000;stroke-width:7;stroke-linecap:butt;stroke-linejoin:miter;stroke-miterlimit:4;stroke-dasharray:none;stroke-opacity:1"
               id="path214" />
          </g>
          <g
             id="g216"
             transform="translate(2819.4478,2923.438)">
            <path
               d="M 0,0 V -1932.5"
               style="fill:none;stroke:#000000;stroke-width:7;stroke-linecap:butt;stroke-linejoin:miter;stroke-miterlimit:4;stroke-dasharray:none;stroke-opacity:1"
               id="path218" />
          </g>
          <g
             id="g220"
             transform="translate(2927.4478,2923.438)">
            <path
               d="M 0,0 V -1932.5"
               style="fill:none;stroke:#000000;stroke-width:7;stroke-linecap:butt;stroke-linejoin:miter;stroke-miterlimit:4;stroke-dasharray:none;stroke-opacity:1"
               id="path222" />
          </g>
          <g
             id="g224"
             transform="translate(3035.4478,2923.438)">
            <path
               d="M 0,0 V -1932.5"
               style="fill:none;stroke:#000000;stroke-width:7;stroke-linecap:butt;stroke-linejoin:miter;stroke-miterlimit:4;stroke-dasharray:none;stroke-opacity:1"
               id="path226" />
          </g>
          <g
             id="g228"
             transform="translate(3143.4478,2923.438)">
            <path
               d="M 0,0 V -1932.5"
               style="fill:none;stroke:#000000;stroke-width:7;stroke-linecap:butt;stroke-linejoin:miter;stroke-miterlimit:4;stroke-dasharray:none;stroke-opacity:1"
               id="path230" />
          </g>
          <g
             id="g232"
             transform="translate(3251.4478,2923.438)">
            <path
               d="M 0,0 V -1932.5"
               style="fill:none;stroke:#000000;stroke-width:7;stroke-linecap:butt;stroke-linejoin:miter;stroke-miterlimit:4;stroke-dasharray:none;stroke-opacity:1"
               id="path234" />
          </g>
          <g
             id="g236"
             transform="translate(3359.4478,2923.438)">
            <path
               d="M 0,0 V -1932.5"
               style="fill:none;stroke:#000000;stroke-width:7;stroke-linecap:butt;stroke-linejoin:miter;stroke-miterlimit:4;stroke-dasharray:none;stroke-opacity:1"
               id="path238" />
          </g>
          <g
             id="g240"
             transform="translate(3467.4478,2923.438)">
            <path
               d="M 0,0 V -1932.5"
               style="fill:none;stroke:#000000;stroke-width:7;stroke-linecap:butt;stroke-linejoin:miter;stroke-miterlimit:4;stroke-dasharray:none;stroke-opacity:1"
               id="path242" />
          </g>
          <g
             id="g244"
             transform="translate(3575.4478,2923.438)">
            <path
               d="M 0,0 V -1932.5"
               style="fill:none;stroke:#000000;stroke-width:7;stroke-linecap:butt;stroke-linejoin:miter;stroke-miterlimit:4;stroke-dasharray:none;stroke-opacity:1"
               id="path246" />
          </g>
          <g
             id="g248"
             transform="translate(3683.4478,2923.438)">
            <path
               d="M 0,0 V -1932.5"
               style="fill:none;stroke:#000000;stroke-width:7;stroke-linecap:butt;stroke-linejoin:miter;stroke-miterlimit:4;stroke-dasharray:none;stroke-opacity:1"
               id="path250" />
          </g>
          <g
             id="g252"
             transform="translate(3791.4478,2923.438)">
            <path
               d="M 0,0 V -1932.5"
               style="fill:none;stroke:#000000;stroke-width:7;stroke-linecap:butt;stroke-linejoin:miter;stroke-miterlimit:4;stroke-dasharray:none;stroke-opacity:1"
               id="path254" />
          </g>
          <g
             id="g256"
             transform="translate(3899.4478,2923.438)">
            <path
               d="M 0,0 V -1932.5"
               style="fill:none;stroke:#000000;stroke-width:7;stroke-linecap:butt;stroke-linejoin:miter;stroke-miterlimit:4;stroke-dasharray:none;stroke-opacity:1"
               id="path258" />
          </g>
          <g
             id="g260"
             transform="translate(4007.4478,2923.438)">
            <path
               d="M 0,0 V -1932.5"
               style="fill:none;stroke:#000000;stroke-width:7;stroke-linecap:butt;stroke-linejoin:miter;stroke-miterlimit:4;stroke-dasharray:none;stroke-opacity:1"
               id="path262" />
          </g>
          <g
             id="g264"
             transform="translate(4115.4478,2923.438)">
            <path
               d="M 0,0 V -1932.5"
               style="fill:none;stroke:#000000;stroke-width:7;stroke-linecap:butt;stroke-linejoin:miter;stroke-miterlimit:4;stroke-dasharray:none;stroke-opacity:1"
               id="path266" />
          </g>
          <g
             id="g268"
             transform="translate(4223.4478,2923.438)">
            <path
               d="M 0,0 V -1932.5"
               style="fill:none;stroke:#000000;stroke-width:7;stroke-linecap:butt;stroke-linejoin:miter;stroke-miterlimit:4;stroke-dasharray:none;stroke-opacity:1"
               id="path270" />
          </g>
          <g
             id="g272"
             transform="translate(4331.4482,2923.438)">
            <path
               d="M 0,0 V -1932.5"
               style="fill:none;stroke:#000000;stroke-width:7;stroke-linecap:butt;stroke-linejoin:miter;stroke-miterlimit:4;stroke-dasharray:none;stroke-opacity:1"
               id="path274" />
          </g>
          <g
             id="g276"
             transform="translate(4439.4482,2923.438)">
            <path
               d="M 0,0 V -1932.5"
               style="fill:none;stroke:#000000;stroke-width:7;stroke-linecap:butt;stroke-linejoin:miter;stroke-miterlimit:4;stroke-dasharray:none;stroke-opacity:1"
               id="path278" />
          </g>
          <g
             id="g280"
             transform="translate(4547.4482,2923.438)">
            <path
               d="M 0,0 V -1932.5"
               style="fill:none;stroke:#000000;stroke-width:7;stroke-linecap:butt;stroke-linejoin:miter;stroke-miterlimit:4;stroke-dasharray:none;stroke-opacity:1"
               id="path282" />
          </g>
          <g
             id="g284"
             transform="translate(4655.4482,2923.438)">
            <path
               d="M 0,0 V -1932.5"
               style="fill:none;stroke:#000000;stroke-width:7;stroke-linecap:butt;stroke-linejoin:miter;stroke-miterlimit:4;stroke-dasharray:none;stroke-opacity:1"
               id="path286" />
          </g>
          <g
             id="g288"
             transform="translate(4763.4482,2923.438)">
            <path
               d="M 0,0 V -1932.5"
               style="fill:none;stroke:#000000;stroke-width:7;stroke-linecap:butt;stroke-linejoin:miter;stroke-miterlimit:4;stroke-dasharray:none;stroke-opacity:1"
               id="path290" />
          </g>
          <g
             id="g292"
             transform="translate(4871.4482,2923.438)">
            <path
               d="M 0,0 V -1932.5"
               style="fill:none;stroke:#000000;stroke-width:7;stroke-linecap:butt;stroke-linejoin:miter;stroke-miterlimit:4;stroke-dasharray:none;stroke-opacity:1"
               id="path294" />
          </g>
          <g
             id="g296"
             transform="translate(4979.4482,2923.438)">
            <path
               d="M 0,0 V -1932.5"
               style="fill:none;stroke:#000000;stroke-width:7;stroke-linecap:butt;stroke-linejoin:miter;stroke-miterlimit:4;stroke-dasharray:none;stroke-opacity:1"
               id="path298" />
          </g>
          <g
             id="g300"
             transform="translate(5042.7949,1545.9971)" />
          <g
             id="g302"
             transform="translate(119.4479,2923.438)">
            <path
               d="M 0,0 V -1932.5"
               style="fill:none;stroke:#000000;stroke-width:7;stroke-linecap:butt;stroke-linejoin:miter;stroke-miterlimit:4;stroke-dasharray:none;stroke-opacity:1"
               id="path304" />
          </g>
        </g>
      </g>
      <g
         id="g306">
        <g
           id="g308"
           clip-path="url(#clipPath312)">
          <g
             id="g314"
             transform="translate(1292.3999,1537.2)">
            <path
               d="M 0,0 C 0,0 455.786,522 1278,522 2106,522 2620.8,41.4 2620.8,41.4 L 3222,622.8 c 0,0 -482.458,737.447 -1935.511,766.118 C -25.2,1414.8 -694.8,594 -694.8,594 Z"
               style="fill:none;stroke:#000000;stroke-width:7;stroke-linecap:butt;stroke-linejoin:miter;stroke-miterlimit:4;stroke-dasharray:none;stroke-opacity:1"
               id="path316" />
          </g>
          <g
             id="g318"
             transform="translate(673.2,2167.2002)">
            <path
               d="M 0,0 C 0,0 695.283,761.718 1907.833,761.718 3246.44,761.718 3837.6,9 3837.6,9"
               style="fill:none;stroke:#ffffff;stroke-width:140;stroke-linecap:butt;stroke-linejoin:miter;stroke-miterlimit:4;stroke-dasharray:none;stroke-opacity:1"
               id="path320" />
          </g>
        </g>
      </g>
      <g
         id="g322"
         transform="translate(3911.3999,1555.1992)">
        <path
           d="M 0,0 667.8,637.2"
           style="fill:none;stroke:#000000;stroke-width:80;stroke-linecap:butt;stroke-linejoin:miter;stroke-miterlimit:4;stroke-dasharray:none;stroke-opacity:1"
           id="path324" />
      </g>
      <g
         id="g326"
         transform="translate(912.4663,1064.9314)" />
      <g
         id="g328"
         transform="translate(1324.6294,1954.8003)" />
      <g
         id="g330"
         transform="translate(3017.3831,1950.3448)" />
      <g
         id="g332"
         transform="translate(3110.9829,1788.2249)" />
      <g
         id="g334">
        <g
           id="g336"
           clip-path="url(#clipPath340)">
          <g
             id="g342"
             transform="translate(3571.3735,2114.981)">
            <path
               d="m 0,0 c -6.268,45.369 31.12,87.969 31.12,87.969 l 215.797,264.543 c 0,0 37.958,59.057 73.327,66.809 23.467,5.144 227.697,-9.268 227.697,-9.268 0,0 60.831,0.644 86.219,20.338 24.879,19.298 35.368,27.361 50.45,43.224 15.17,15.957 148.668,206.796 148.668,206.796 0,0 32.36,49.493 47.165,47.764 14.806,-1.73 43.515,-20.477 43.515,-20.477 0,0 45.922,-32.497 39.196,-53.047 -6.726,-20.549 -29.529,-40.63 -29.529,-40.63 L 765.176,434.523 c 0,0 -31.818,-33.905 -47.381,-67.192 -15.563,-33.287 -14.23,-48.665 -15.007,-62.274 -0.778,-13.608 45.513,-190.929 45.513,-190.929 0,0 10.474,-37.974 1.424,-65.939 -12.25,-37.85 -39.393,-59.635 -39.393,-59.635 l -216.344,-274.78 c 0,0 -35.667,-36.023 -78.119,-36.047 -42.396,-0.024 -70.564,16.437 -78.563,19.585 -7.999,3.147 -263.613,208.756 -263.613,208.756 0,0 -54.875,48.727 -61.771,61.644 C 5.027,-19.371 0,0 0,0"
               style="fill:#cd9700;fill-opacity:1;fill-rule:nonzero;stroke:none"
               id="path344" />
          </g>
          <g
             id="g346"
             transform="translate(3571.3735,2114.981)">
            <path
               d="m 0,0 c -6.268,45.369 31.12,87.969 31.12,87.969 l 215.797,264.543 c 0,0 37.958,59.057 73.327,66.809 23.467,5.144 227.697,-9.268 227.697,-9.268 0,0 60.831,0.644 86.219,20.338 24.879,19.298 35.368,27.361 50.45,43.224 15.17,15.957 148.668,206.796 148.668,206.796 0,0 32.36,49.493 47.165,47.764 14.806,-1.73 43.515,-20.477 43.515,-20.477 0,0 45.922,-32.497 39.196,-53.047 -6.726,-20.549 -29.529,-40.63 -29.529,-40.63 L 765.176,434.523 c 0,0 -31.818,-33.905 -47.381,-67.192 -15.563,-33.287 -14.23,-48.665 -15.007,-62.274 -0.778,-13.608 45.513,-190.929 45.513,-190.929 0,0 10.474,-37.974 1.424,-65.939 -12.25,-37.85 -39.393,-59.635 -39.393,-59.635 l -216.344,-274.78 c 0,0 -35.667,-36.023 -78.119,-36.047 -42.396,-0.024 -70.564,16.437 -78.563,19.585 -7.999,3.147 -263.613,208.756 -263.613,208.756 0,0 -54.875,48.727 -61.771,61.644 C 5.027,-19.371 0,0 0,0 Z"
               style="fill:none;stroke:#000000;stroke-width:20;stroke-linecap:butt;stroke-linejoin:miter;stroke-miterlimit:4;stroke-dasharray:none;stroke-opacity:1"
               id="path348" />
          </g>
          <g
             id="g350"
             transform="translate(1217.9912,2674.6482)">
            <path
               d="m 0,0 c 43.738,-13.494 66.527,-65.397 66.527,-65.397 l 148.441,-307.465 c 0,0 37.453,-59.375 29.535,-94.717 -5.254,-23.45 -104.573,-202.516 -104.573,-202.516 0,0 -25.111,-55.422 -17.999,-86.763 6.969,-30.713 9.841,-43.63 17.838,-64.009 8.043,-20.498 124.494,-222.194 124.494,-222.194 0,0 31.157,-50.258 23.337,-62.95 -7.82,-12.692 -36.926,-30.796 -36.926,-30.796 0,0 -48.829,-27.896 -64.6,-13.113 -15.77,14.784 -24.325,43.945 -24.325,43.945 l -91.416,228.59 c 0,0 -17.268,43.178 -40.841,71.357 -23.574,28.18 -38.065,33.472 -50.062,39.929 -11.996,6.457 -192.146,39.441 -192.146,39.441 0,0 -38.816,6.555 -60.321,26.581 -29.106,27.104 -37.372,60.921 -37.372,60.921 L -467.89,-326.87 c 0,0 -17.56,47.563 0.351,86.061 17.886,38.446 44.693,57.026 50.922,62.947 6.229,5.921 300.416,150.756 300.416,150.756 0,0 67.31,29.153 81.922,29.945 C -19.667,3.63 0,0 0,0"
               style="fill:#cd9700;fill-opacity:1;fill-rule:nonzero;stroke:none"
               id="path352" />
          </g>
          <g
             id="g354"
             transform="translate(1217.9912,2674.6482)">
            <path
               d="m 0,0 c 43.738,-13.494 66.527,-65.397 66.527,-65.397 l 148.441,-307.465 c 0,0 37.453,-59.375 29.535,-94.717 -5.254,-23.45 -104.573,-202.516 -104.573,-202.516 0,0 -25.111,-55.422 -17.999,-86.763 6.969,-30.713 9.841,-43.63 17.838,-64.009 8.043,-20.498 124.494,-222.194 124.494,-222.194 0,0 31.157,-50.258 23.337,-62.95 -7.82,-12.692 -36.926,-30.796 -36.926,-30.796 0,0 -48.829,-27.896 -64.6,-13.113 -15.77,14.784 -24.325,43.945 -24.325,43.945 l -91.416,228.59 c 0,0 -17.268,43.178 -40.841,71.357 -23.574,28.18 -38.065,33.472 -50.062,39.929 -11.996,6.457 -192.146,39.441 -192.146,39.441 0,0 -38.816,6.555 -60.321,26.581 -29.106,27.104 -37.372,60.921 -37.372,60.921 L -467.89,-326.87 c 0,0 -17.56,47.563 0.351,86.061 17.886,38.446 44.693,57.026 50.922,62.947 6.229,5.921 300.416,150.756 300.416,150.756 0,0 67.31,29.153 81.922,29.945 C -19.667,3.63 0,0 0,0 Z"
               style="fill:none;stroke:#000000;stroke-width:20;stroke-linecap:butt;stroke-linejoin:miter;stroke-miterlimit:4;stroke-dasharray:none;stroke-opacity:1"
               id="path356" />
          </g>
          <g
             id="g358"
             transform="translate(1197.0952,2189.7861)">
            <path
               d="m 0,0 c 0,0 86.77,135.146 449.109,224.148 284.355,69.847 465.325,46.984 730.704,-50.395 510.115,-187.182 1034.017,-633.54 1034.017,-633.54 0,0 289.875,358.001 563.475,494.801 303.233,151.616 683.387,201.604 669.6,244.8 -13.787,43.196 -489.6,-43.2 -712.8,-136.8 -247.862,-103.942 -534.063,-278.831 -534.063,-278.831 0,0 -791.393,577.247 -1544.13,532.749 C 290.56,375.334 -26.531,95.271 -26.531,95.271 L -9.298,52.076 Z"
               style="fill:#dfe3eb;fill-opacity:1;fill-rule:nonzero;stroke:none"
               id="path360" />
          </g>
          <g
             id="g362"
             transform="translate(4651.2998,2339.7998)">
            <path
               d="M 0,0 C 75.608,0 136.9,61.292 136.9,136.9 136.9,212.508 75.608,273.8 0,273.8 -75.607,273.8 -136.9,212.508 -136.9,136.9 -136.9,61.292 -75.607,0 0,0"
               style="fill:#95d500;fill-opacity:1;fill-rule:nonzero;stroke:none"
               id="path364" />
          </g>
          <g
             id="g366"
             transform="translate(4651.2998,2339.7998)">
            <path
               d="M 0,0 C 75.608,0 136.9,61.292 136.9,136.9 136.9,212.508 75.608,273.8 0,273.8 -75.607,273.8 -136.9,212.508 -136.9,136.9 -136.9,61.292 -75.607,0 0,0 Z"
               style="fill:none;stroke:#000000;stroke-width:7;stroke-linecap:butt;stroke-linejoin:miter;stroke-miterlimit:4;stroke-dasharray:none;stroke-opacity:1"
               id="path368" />
          </g>
          <g
             id="g370"
             transform="translate(1126.8,2062.6997)">
            <path
               d="M 0,0 C 75.608,0 136.9,61.292 136.9,136.9 136.9,212.508 75.608,273.8 0,273.8 -75.608,273.8 -136.9,212.508 -136.9,136.9 -136.9,61.292 -75.608,0 0,0"
               style="fill:#95d500;fill-opacity:1;fill-rule:nonzero;stroke:none"
               id="path372" />
          </g>
          <g
             id="g374"
             transform="translate(1126.8,2062.6997)">
            <path
               d="M 0,0 C 75.608,0 136.9,61.292 136.9,136.9 136.9,212.508 75.608,273.8 0,273.8 -75.608,273.8 -136.9,212.508 -136.9,136.9 -136.9,61.292 -75.608,0 0,0 Z"
               style="fill:none;stroke:#000000;stroke-width:7;stroke-linecap:butt;stroke-linejoin:miter;stroke-miterlimit:4;stroke-dasharray:none;stroke-opacity:1"
               id="path376" />
          </g>
          <g
             id="g378"
             transform="translate(2573.804,2908.2439)">
            <path
               d="m 0,0 h -308.872 c 0,0 -234.743,0.971 -250.349,2.948 -87.784,185.723 -235.857,117.17 -235.857,117.17 0,0 -143.057,-38.695 -130.052,-159.399 13.005,-120.703 193.777,-126.173 191.176,-137.965 -2.601,-11.792 -126.01,-14.366 -152.021,-105.76 -33.807,-118.794 20.005,-207.952 164.19,-214.995 185.323,-9.052 245.332,163.922 245.332,163.922 l 476.284,-0.191 474.772,2.182 c 0,0 60.009,-172.974 245.332,-163.922 144.185,7.043 197.998,96.201 164.19,214.995 -26.01,91.394 -149.419,93.968 -152.021,105.76 -2.601,11.792 178.171,17.262 191.176,137.965 13.005,120.704 -130.051,159.399 -130.051,159.399 0,0 -148.073,68.553 -235.858,-117.17 C 541.765,2.962 307.022,1.991 307.022,1.991 H -1.85"
               style="fill:#ffffff;fill-opacity:1;fill-rule:nonzero;stroke:none"
               id="path380" />
          </g>
          <g
             id="g382"
             transform="translate(2573.804,2908.2439)">
            <path
               d="m 0,0 h -308.872 c 0,0 -234.743,0.971 -250.349,2.948 -87.784,185.723 -235.857,117.17 -235.857,117.17 0,0 -143.057,-38.695 -130.052,-159.399 13.005,-120.703 193.777,-126.173 191.176,-137.965 -2.601,-11.792 -126.01,-14.366 -152.021,-105.76 -33.807,-118.794 20.005,-207.952 164.19,-214.995 185.323,-9.052 245.332,163.922 245.332,163.922 l 476.284,-0.191 474.772,2.182 c 0,0 60.009,-172.974 245.332,-163.922 144.185,7.043 197.998,96.201 164.19,214.995 -26.01,91.394 -149.419,93.968 -152.021,105.76 -2.601,11.792 178.171,17.262 191.176,137.965 13.005,120.704 -130.051,159.399 -130.051,159.399 0,0 -148.073,68.553 -235.858,-117.17 C 541.765,2.962 307.022,1.991 307.022,1.991 H -1.85"
               style="fill:none;stroke:#000000;stroke-width:20;stroke-linecap:butt;stroke-linejoin:miter;stroke-miterlimit:4;stroke-dasharray:none;stroke-opacity:1"
               id="path384" />
          </g>
        </g>
      </g>
      <text
         transform="matrix(1,0,0,-1,1889.8429,2614.323)"
         style="font-variant:normal;font-weight:normal;font-stretch:normal;font-size:400px;font-family:'Apple Casual';-inkscape-font-specification:AppleCasual;writing-mode:lr-tb;fill:#95d500;fill-opacity:1;fill-rule:nonzero;stroke:none"
         id="text388"><tspan
           x="0 200 368.79999 568.79999 794 981.59998 1181.6"
           y="0"
           sodipodi:role="line"
           id="tspan386">pickles</tspan></text>
    </g>
  </g>
</svg>
