<?xml version="1.0" encoding="UTF-8" standalone="no"?>
<!-- Created with Inkscape (http://www.inkscape.org/) -->

<svg
   xmlns:dc="http://purl.org/dc/elements/1.1/"
   xmlns:cc="http://creativecommons.org/ns#"
   xmlns:rdf="http://www.w3.org/1999/02/22-rdf-syntax-ns#"
   xmlns:svg="http://www.w3.org/2000/svg"
   xmlns="http://www.w3.org/2000/svg"
   xmlns:sodipodi="http://sodipodi.sourceforge.net/DTD/sodipodi-0.dtd"
   xmlns:inkscape="http://www.inkscape.org/namespaces/inkscape"
   width="58.380733in"
   height="21.32206in"
   viewBox="0 0 1482.8706 541.58032"
   version="1.1"
   id="svg8"
   inkscape:version="0.92.4 (5da689c313, 2019-01-14)"
   sodipodi:docname="ungrouped.svg">
  <defs
     id="defs2">
    <clipPath
       id="clipPath26"
       clipPathUnits="userSpaceOnUse">
      <path
         inkscape:connector-curvature="0"
         id="path24"
         d="M 141.96,669.6 815.76,87.599 c 0,0 455.785,490.999 1278,490.999 v 0 c 828,0 1366.8,-483.598 1366.8,-483.598 v 0 l 580.2,583.4 c 0,0 -602.76,783.2 -1938.511,786.118 v 0 c -2.341,0 -4.829,0.01 -7.164,0.01 v 0 C 777.356,1464.585 141.96,669.6 141.96,669.6" />
    </clipPath>
    <clipPath
       id="clipPath246"
       clipPathUnits="userSpaceOnUse">
      <path
         inkscape:connector-curvature="0"
         id="path244"
         d="M 0,0 H 4319.999 V 1656 H 0 Z" />
    </clipPath>
    <clipPath
       id="clipPath258"
       clipPathUnits="userSpaceOnUse">
      <path
         inkscape:connector-curvature="0"
         id="path256"
         d="M 0,1656 H 4320 V 0 H 0 Z" />
    </clipPath>
  </defs>
  <sodipodi:namedview
     id="base"
     pagecolor="#ffffff"
     bordercolor="#666666"
     borderopacity="1.0"
     inkscape:pageopacity="0.0"
     inkscape:pageshadow="2"
     inkscape:zoom="0.35"
     inkscape:cx="1610.8464"
     inkscape:cy="1145.4126"
     inkscape:document-units="in"
     inkscape:current-layer="layer1"
     showgrid="false"
     fit-margin-top="0"
     fit-margin-left="0"
     fit-margin-right="0"
     fit-margin-bottom="0"
     units="in"
     inkscape:window-width="1920"
     inkscape:window-height="986"
     inkscape:window-x="-11"
     inkscape:window-y="-11"
     inkscape:window-maximized="1" />
  <metadata
     id="metadata5">
    <rdf:RDF>
      <cc:Work
         rdf:about="">
        <dc:format>image/svg+xml</dc:format>
        <dc:type
           rdf:resource="http://purl.org/dc/dcmitype/StillImage" />
        <dc:title></dc:title>
      </cc:Work>
    </rdf:RDF>
  </metadata>
  <g
     inkscape:label="Layer 1"
     inkscape:groupmode="layer"
     id="layer1"
     transform="translate(320.36978,-114.65628)">
    <g
       clip-path="url(#clipPath26)"
       id="g22"
       transform="matrix(0.35277777,0,0,-0.35277777,-347.56437,668.69376)">
      <g
         transform="translate(-449.0371,1389.8203)"
         id="g28">
        <path
           inkscape:connector-curvature="0"
           id="path30"
           style="fill:none;stroke:#000000;stroke-width:7;stroke-linecap:butt;stroke-linejoin:miter;stroke-miterlimit:4;stroke-dasharray:none;stroke-opacity:1"
           d="M 0,0 H 5019.906" />
      </g>
      <g
         transform="translate(-449.0371,1281.8203)"
         id="g32">
        <path
           inkscape:connector-curvature="0"
           id="path34"
           style="fill:none;stroke:#000000;stroke-width:7;stroke-linecap:butt;stroke-linejoin:miter;stroke-miterlimit:4;stroke-dasharray:none;stroke-opacity:1"
           d="M 0,0 H 5019.906" />
      </g>
      <g
         transform="translate(-449.0371,1173.8203)"
         id="g36">
        <path
           inkscape:connector-curvature="0"
           id="path38"
           style="fill:none;stroke:#000000;stroke-width:7;stroke-linecap:butt;stroke-linejoin:miter;stroke-miterlimit:4;stroke-dasharray:none;stroke-opacity:1"
           d="M 0,0 H 5019.906" />
      </g>
      <g
         transform="translate(-449.0371,1065.8203)"
         id="g40">
        <path
           inkscape:connector-curvature="0"
           id="path42"
           style="fill:none;stroke:#000000;stroke-width:7;stroke-linecap:butt;stroke-linejoin:miter;stroke-miterlimit:4;stroke-dasharray:none;stroke-opacity:1"
           d="M 0,0 H 5019.906" />
      </g>
      <g
         transform="translate(-449.0371,957.8203)"
         id="g44">
        <path
           inkscape:connector-curvature="0"
           id="path46"
           style="fill:none;stroke:#000000;stroke-width:7;stroke-linecap:butt;stroke-linejoin:miter;stroke-miterlimit:4;stroke-dasharray:none;stroke-opacity:1"
           d="M 0,0 H 5019.906" />
      </g>
      <g
         transform="translate(-449.0371,849.8203)"
         id="g48">
        <path
           inkscape:connector-curvature="0"
           id="path50"
           style="fill:none;stroke:#000000;stroke-width:7;stroke-linecap:butt;stroke-linejoin:miter;stroke-miterlimit:4;stroke-dasharray:none;stroke-opacity:1"
           d="M 0,0 H 5019.906" />
      </g>
      <g
         transform="translate(-449.0371,741.8203)"
         id="g52">
        <path
           inkscape:connector-curvature="0"
           id="path54"
           style="fill:none;stroke:#000000;stroke-width:7;stroke-linecap:butt;stroke-linejoin:miter;stroke-miterlimit:4;stroke-dasharray:none;stroke-opacity:1"
           d="M 0,0 H 5019.906" />
      </g>
      <g
         transform="translate(-449.0371,633.8203)"
         id="g56">
        <path
           inkscape:connector-curvature="0"
           id="path58"
           style="fill:none;stroke:#000000;stroke-width:7;stroke-linecap:butt;stroke-linejoin:miter;stroke-miterlimit:4;stroke-dasharray:none;stroke-opacity:1"
           d="M 0,0 H 5019.906" />
      </g>
      <g
         transform="translate(-449.0371,525.8203)"
         id="g60">
        <path
           inkscape:connector-curvature="0"
           id="path62"
           style="fill:none;stroke:#000000;stroke-width:7;stroke-linecap:butt;stroke-linejoin:miter;stroke-miterlimit:4;stroke-dasharray:none;stroke-opacity:1"
           d="M 0,0 H 5019.906" />
      </g>
      <g
         transform="translate(-449.0371,417.8203)"
         id="g64">
        <path
           inkscape:connector-curvature="0"
           id="path66"
           style="fill:none;stroke:#000000;stroke-width:7;stroke-linecap:butt;stroke-linejoin:miter;stroke-miterlimit:4;stroke-dasharray:none;stroke-opacity:1"
           d="M 0,0 H 5019.906" />
      </g>
      <g
         transform="translate(-449.0371,309.8203)"
         id="g68">
        <path
           inkscape:connector-curvature="0"
           id="path70"
           style="fill:none;stroke:#000000;stroke-width:7;stroke-linecap:butt;stroke-linejoin:miter;stroke-miterlimit:4;stroke-dasharray:none;stroke-opacity:1"
           d="M 0,0 H 5019.906" />
      </g>
      <g
         transform="translate(-449.0371,201.8203)"
         id="g72">
        <path
           inkscape:connector-curvature="0"
           id="path74"
           style="fill:none;stroke:#000000;stroke-width:7;stroke-linecap:butt;stroke-linejoin:miter;stroke-miterlimit:4;stroke-dasharray:none;stroke-opacity:1"
           d="M 0,0 H 5019.906" />
      </g>
      <g
         transform="translate(-449.0371,93.8203)"
         id="g76">
        <path
           inkscape:connector-curvature="0"
           id="path78"
           style="fill:none;stroke:#000000;stroke-width:7;stroke-linecap:butt;stroke-linejoin:miter;stroke-miterlimit:4;stroke-dasharray:none;stroke-opacity:1"
           d="M 0,0 H 5019.906" />
      </g>
      <g
         transform="translate(79.522,1447.6206)"
         id="g80">
        <path
           inkscape:connector-curvature="0"
           id="path82"
           style="fill:none;stroke:#000000;stroke-width:7;stroke-linecap:butt;stroke-linejoin:miter;stroke-miterlimit:4;stroke-dasharray:none;stroke-opacity:1"
           d="M 0,0 V -1932.5" />
      </g>
      <g
         transform="translate(187.522,1447.6206)"
         id="g84">
        <path
           inkscape:connector-curvature="0"
           id="path86"
           style="fill:none;stroke:#000000;stroke-width:7;stroke-linecap:butt;stroke-linejoin:miter;stroke-miterlimit:4;stroke-dasharray:none;stroke-opacity:1"
           d="M 0,0 V -1932.5" />
      </g>
      <g
         transform="translate(295.522,1447.6206)"
         id="g88">
        <path
           inkscape:connector-curvature="0"
           id="path90"
           style="fill:none;stroke:#000000;stroke-width:7;stroke-linecap:butt;stroke-linejoin:miter;stroke-miterlimit:4;stroke-dasharray:none;stroke-opacity:1"
           d="M 0,0 V -1932.5" />
      </g>
      <g
         transform="translate(403.522,1447.6206)"
         id="g92">
        <path
           inkscape:connector-curvature="0"
           id="path94"
           style="fill:none;stroke:#000000;stroke-width:7;stroke-linecap:butt;stroke-linejoin:miter;stroke-miterlimit:4;stroke-dasharray:none;stroke-opacity:1"
           d="M 0,0 V -1932.5" />
      </g>
      <g
         transform="translate(511.522,1447.6206)"
         id="g96">
        <path
           inkscape:connector-curvature="0"
           id="path98"
           style="fill:none;stroke:#000000;stroke-width:7;stroke-linecap:butt;stroke-linejoin:miter;stroke-miterlimit:4;stroke-dasharray:none;stroke-opacity:1"
           d="M 0,0 V -1932.5" />
      </g>
      <g
         transform="translate(619.522,1447.6206)"
         id="g100">
        <path
           inkscape:connector-curvature="0"
           id="path102"
           style="fill:none;stroke:#000000;stroke-width:7;stroke-linecap:butt;stroke-linejoin:miter;stroke-miterlimit:4;stroke-dasharray:none;stroke-opacity:1"
           d="M 0,0 V -1932.5" />
      </g>
      <g
         transform="translate(727.522,1447.6206)"
         id="g104">
        <path
           inkscape:connector-curvature="0"
           id="path106"
           style="fill:none;stroke:#000000;stroke-width:7;stroke-linecap:butt;stroke-linejoin:miter;stroke-miterlimit:4;stroke-dasharray:none;stroke-opacity:1"
           d="M 0,0 V -1932.5" />
      </g>
      <g
         transform="translate(835.522,1447.6206)"
         id="g108">
        <path
           inkscape:connector-curvature="0"
           id="path110"
           style="fill:none;stroke:#000000;stroke-width:7;stroke-linecap:butt;stroke-linejoin:miter;stroke-miterlimit:4;stroke-dasharray:none;stroke-opacity:1"
           d="M 0,0 V -1932.5" />
      </g>
      <g
         transform="translate(943.522,1447.6206)"
         id="g112">
        <path
           inkscape:connector-curvature="0"
           id="path114"
           style="fill:none;stroke:#000000;stroke-width:7;stroke-linecap:butt;stroke-linejoin:miter;stroke-miterlimit:4;stroke-dasharray:none;stroke-opacity:1"
           d="M 0,0 V -1932.5" />
      </g>
      <g
         transform="translate(1051.522,1447.6206)"
         id="g116">
        <path
           inkscape:connector-curvature="0"
           id="path118"
           style="fill:none;stroke:#000000;stroke-width:7;stroke-linecap:butt;stroke-linejoin:miter;stroke-miterlimit:4;stroke-dasharray:none;stroke-opacity:1"
           d="M 0,0 V -1932.5" />
      </g>
      <g
         transform="translate(1159.522,1447.6206)"
         id="g120">
        <path
           inkscape:connector-curvature="0"
           id="path122"
           style="fill:none;stroke:#000000;stroke-width:7;stroke-linecap:butt;stroke-linejoin:miter;stroke-miterlimit:4;stroke-dasharray:none;stroke-opacity:1"
           d="M 0,0 V -1932.5" />
      </g>
      <g
         transform="translate(1267.522,1447.6206)"
         id="g124">
        <path
           inkscape:connector-curvature="0"
           id="path126"
           style="fill:none;stroke:#000000;stroke-width:7;stroke-linecap:butt;stroke-linejoin:miter;stroke-miterlimit:4;stroke-dasharray:none;stroke-opacity:1"
           d="M 0,0 V -1932.5" />
      </g>
      <g
         transform="translate(1375.522,1447.6206)"
         id="g128">
        <path
           inkscape:connector-curvature="0"
           id="path130"
           style="fill:none;stroke:#000000;stroke-width:7;stroke-linecap:butt;stroke-linejoin:miter;stroke-miterlimit:4;stroke-dasharray:none;stroke-opacity:1"
           d="M 0,0 V -1932.5" />
      </g>
      <g
         transform="translate(1483.522,1447.6206)"
         id="g132">
        <path
           inkscape:connector-curvature="0"
           id="path134"
           style="fill:none;stroke:#000000;stroke-width:7;stroke-linecap:butt;stroke-linejoin:miter;stroke-miterlimit:4;stroke-dasharray:none;stroke-opacity:1"
           d="M 0,0 V -1932.5" />
      </g>
      <g
         transform="translate(1591.522,1447.6206)"
         id="g136">
        <path
           inkscape:connector-curvature="0"
           id="path138"
           style="fill:none;stroke:#000000;stroke-width:7;stroke-linecap:butt;stroke-linejoin:miter;stroke-miterlimit:4;stroke-dasharray:none;stroke-opacity:1"
           d="M 0,0 V -1932.5" />
      </g>
      <g
         transform="translate(1699.522,1447.6206)"
         id="g140">
        <path
           inkscape:connector-curvature="0"
           id="path142"
           style="fill:none;stroke:#000000;stroke-width:7;stroke-linecap:butt;stroke-linejoin:miter;stroke-miterlimit:4;stroke-dasharray:none;stroke-opacity:1"
           d="M 0,0 V -1932.5" />
      </g>
      <g
         transform="translate(1807.522,1447.6206)"
         id="g144">
        <path
           inkscape:connector-curvature="0"
           id="path146"
           style="fill:none;stroke:#000000;stroke-width:7;stroke-linecap:butt;stroke-linejoin:miter;stroke-miterlimit:4;stroke-dasharray:none;stroke-opacity:1"
           d="M 0,0 V -1932.5" />
      </g>
      <g
         transform="translate(1915.522,1447.6206)"
         id="g148">
        <path
           inkscape:connector-curvature="0"
           id="path150"
           style="fill:none;stroke:#000000;stroke-width:7;stroke-linecap:butt;stroke-linejoin:miter;stroke-miterlimit:4;stroke-dasharray:none;stroke-opacity:1"
           d="M 0,0 V -1932.5" />
      </g>
      <g
         transform="translate(2023.522,1447.6206)"
         id="g152">
        <path
           inkscape:connector-curvature="0"
           id="path154"
           style="fill:none;stroke:#000000;stroke-width:7;stroke-linecap:butt;stroke-linejoin:miter;stroke-miterlimit:4;stroke-dasharray:none;stroke-opacity:1"
           d="M 0,0 V -1932.5" />
      </g>
      <g
         transform="translate(2131.522,1447.6206)"
         id="g156">
        <path
           inkscape:connector-curvature="0"
           id="path158"
           style="fill:none;stroke:#000000;stroke-width:7;stroke-linecap:butt;stroke-linejoin:miter;stroke-miterlimit:4;stroke-dasharray:none;stroke-opacity:1"
           d="M 0,0 V -1932.5" />
      </g>
      <g
         transform="translate(2239.5215,1447.6206)"
         id="g160">
        <path
           inkscape:connector-curvature="0"
           id="path162"
           style="fill:none;stroke:#000000;stroke-width:7;stroke-linecap:butt;stroke-linejoin:miter;stroke-miterlimit:4;stroke-dasharray:none;stroke-opacity:1"
           d="M 0,0 V -1932.5" />
      </g>
      <g
         transform="translate(2347.5215,1447.6206)"
         id="g164">
        <path
           inkscape:connector-curvature="0"
           id="path166"
           style="fill:none;stroke:#000000;stroke-width:7;stroke-linecap:butt;stroke-linejoin:miter;stroke-miterlimit:4;stroke-dasharray:none;stroke-opacity:1"
           d="M 0,0 V -1932.5" />
      </g>
      <g
         transform="translate(2455.5215,1447.6206)"
         id="g168">
        <path
           inkscape:connector-curvature="0"
           id="path170"
           style="fill:none;stroke:#000000;stroke-width:7;stroke-linecap:butt;stroke-linejoin:miter;stroke-miterlimit:4;stroke-dasharray:none;stroke-opacity:1"
           d="M 0,0 V -1932.5" />
      </g>
      <g
         transform="translate(2563.5215,1447.6206)"
         id="g172">
        <path
           inkscape:connector-curvature="0"
           id="path174"
           style="fill:none;stroke:#000000;stroke-width:7;stroke-linecap:butt;stroke-linejoin:miter;stroke-miterlimit:4;stroke-dasharray:none;stroke-opacity:1"
           d="M 0,0 V -1932.5" />
      </g>
      <g
         transform="translate(2671.5215,1447.6206)"
         id="g176">
        <path
           inkscape:connector-curvature="0"
           id="path178"
           style="fill:none;stroke:#000000;stroke-width:7;stroke-linecap:butt;stroke-linejoin:miter;stroke-miterlimit:4;stroke-dasharray:none;stroke-opacity:1"
           d="M 0,0 V -1932.5" />
      </g>
      <g
         transform="translate(2779.5215,1447.6206)"
         id="g180">
        <path
           inkscape:connector-curvature="0"
           id="path182"
           style="fill:none;stroke:#000000;stroke-width:7;stroke-linecap:butt;stroke-linejoin:miter;stroke-miterlimit:4;stroke-dasharray:none;stroke-opacity:1"
           d="M 0,0 V -1932.5" />
      </g>
      <g
         transform="translate(2887.5215,1447.6206)"
         id="g184">
        <path
           inkscape:connector-curvature="0"
           id="path186"
           style="fill:none;stroke:#000000;stroke-width:7;stroke-linecap:butt;stroke-linejoin:miter;stroke-miterlimit:4;stroke-dasharray:none;stroke-opacity:1"
           d="M 0,0 V -1932.5" />
      </g>
      <g
         transform="translate(2995.5215,1447.6206)"
         id="g188">
        <path
           inkscape:connector-curvature="0"
           id="path190"
           style="fill:none;stroke:#000000;stroke-width:7;stroke-linecap:butt;stroke-linejoin:miter;stroke-miterlimit:4;stroke-dasharray:none;stroke-opacity:1"
           d="M 0,0 V -1932.5" />
      </g>
      <g
         transform="translate(3103.5215,1447.6206)"
         id="g192">
        <path
           inkscape:connector-curvature="0"
           id="path194"
           style="fill:none;stroke:#000000;stroke-width:7;stroke-linecap:butt;stroke-linejoin:miter;stroke-miterlimit:4;stroke-dasharray:none;stroke-opacity:1"
           d="M 0,0 V -1932.5" />
      </g>
      <g
         transform="translate(3211.5215,1447.6206)"
         id="g196">
        <path
           inkscape:connector-curvature="0"
           id="path198"
           style="fill:none;stroke:#000000;stroke-width:7;stroke-linecap:butt;stroke-linejoin:miter;stroke-miterlimit:4;stroke-dasharray:none;stroke-opacity:1"
           d="M 0,0 V -1932.5" />
      </g>
      <g
         transform="translate(3319.5215,1447.6206)"
         id="g200">
        <path
           inkscape:connector-curvature="0"
           id="path202"
           style="fill:none;stroke:#000000;stroke-width:7;stroke-linecap:butt;stroke-linejoin:miter;stroke-miterlimit:4;stroke-dasharray:none;stroke-opacity:1"
           d="M 0,0 V -1932.5" />
      </g>
      <g
         transform="translate(3427.5215,1447.6206)"
         id="g204">
        <path
           inkscape:connector-curvature="0"
           id="path206"
           style="fill:none;stroke:#000000;stroke-width:7;stroke-linecap:butt;stroke-linejoin:miter;stroke-miterlimit:4;stroke-dasharray:none;stroke-opacity:1"
           d="M 0,0 V -1932.5" />
      </g>
      <g
         transform="translate(3535.5215,1447.6206)"
         id="g208">
        <path
           inkscape:connector-curvature="0"
           id="path210"
           style="fill:none;stroke:#000000;stroke-width:7;stroke-linecap:butt;stroke-linejoin:miter;stroke-miterlimit:4;stroke-dasharray:none;stroke-opacity:1"
           d="M 0,0 V -1932.5" />
      </g>
      <g
         transform="translate(3643.5215,1447.6206)"
         id="g212">
        <path
           inkscape:connector-curvature="0"
           id="path214"
           style="fill:none;stroke:#000000;stroke-width:7;stroke-linecap:butt;stroke-linejoin:miter;stroke-miterlimit:4;stroke-dasharray:none;stroke-opacity:1"
           d="M 0,0 V -1932.5" />
      </g>
      <g
         transform="translate(3751.5215,1447.6206)"
         id="g216">
        <path
           inkscape:connector-curvature="0"
           id="path218"
           style="fill:none;stroke:#000000;stroke-width:7;stroke-linecap:butt;stroke-linejoin:miter;stroke-miterlimit:4;stroke-dasharray:none;stroke-opacity:1"
           d="M 0,0 V -1932.5" />
      </g>
      <g
         transform="translate(3859.5215,1447.6206)"
         id="g220">
        <path
           inkscape:connector-curvature="0"
           id="path222"
           style="fill:none;stroke:#000000;stroke-width:7;stroke-linecap:butt;stroke-linejoin:miter;stroke-miterlimit:4;stroke-dasharray:none;stroke-opacity:1"
           d="M 0,0 V -1932.5" />
      </g>
      <g
         transform="translate(3967.5215,1447.6206)"
         id="g224">
        <path
           inkscape:connector-curvature="0"
           id="path226"
           style="fill:none;stroke:#000000;stroke-width:7;stroke-linecap:butt;stroke-linejoin:miter;stroke-miterlimit:4;stroke-dasharray:none;stroke-opacity:1"
           d="M 0,0 V -1932.5" />
      </g>
      <g
         transform="translate(4075.5215,1447.6206)"
         id="g228">
        <path
           inkscape:connector-curvature="0"
           id="path230"
           style="fill:none;stroke:#000000;stroke-width:7;stroke-linecap:butt;stroke-linejoin:miter;stroke-miterlimit:4;stroke-dasharray:none;stroke-opacity:1"
           d="M 0,0 V -1932.5" />
      </g>
      <g
         transform="translate(4183.5215,1447.6206)"
         id="g232">
        <path
           inkscape:connector-curvature="0"
           id="path234"
           style="fill:none;stroke:#000000;stroke-width:7;stroke-linecap:butt;stroke-linejoin:miter;stroke-miterlimit:4;stroke-dasharray:none;stroke-opacity:1"
           d="M 0,0 V -1932.5" />
      </g>
      <g
         transform="translate(4291.5215,1447.6206)"
         id="g236">
        <path
           inkscape:connector-curvature="0"
           id="path238"
           style="fill:none;stroke:#000000;stroke-width:7;stroke-linecap:butt;stroke-linejoin:miter;stroke-miterlimit:4;stroke-dasharray:none;stroke-opacity:1"
           d="M 0,0 V -1932.5" />
      </g>
    </g>
    <g
       clip-path="url(#clipPath246)"
       id="g242"
       transform="matrix(0.35277777,0,0,-0.35277777,-347.56437,668.69376)">
      <g
         transform="translate(815.7598,87.5996)"
         id="g248">
        <path
           inkscape:connector-curvature="0"
           id="path250"
           style="fill:none;stroke:#000000;stroke-width:7;stroke-linecap:butt;stroke-linejoin:miter;stroke-miterlimit:4;stroke-dasharray:none;stroke-opacity:1"
           d="M 0,0 C 0,0 455.786,491 1278,491 2106,491 2644.801,7.4 2644.801,7.4 L 3225,590.801 c 0,0 -602.76,783.199 -1938.511,786.117 C -36,1379.808 -673.8,582 -673.8,582 Z" />
      </g>
    </g>
    <g
       id="g260"
       transform="matrix(0.35277777,0,0,-0.35277777,-262.98244,438.18862)">
      <path
         d="M 0,0 C 0,0 664.56,720 1845,720 3025.439,720 3709.439,-9 3709.439,-9 L 3216.24,-498.601 c 0,0 -553.679,464.401 -1371.24,462.601 C 1027.44,-37.801 570.24,-509.4 570.24,-509.4 Z"
         style="fill:none;stroke:#000000;stroke-width:1;stroke-linecap:butt;stroke-linejoin:miter;stroke-miterlimit:4;stroke-dasharray:none;stroke-opacity:1"
         id="path262"
         inkscape:connector-curvature="0" />
    </g>
    <g
       id="g264"
       transform="matrix(0.35277777,0,0,-0.35277777,-61.814376,655.99376)">
      <path
         d="M 0,0 C 0,0 486.72,504 1274.76,500.4 2062.8,496.8 2653.2,0 2653.2,0 l 637.2,651.6 c 0,0 -620.64,828 -2015.64,829.8 -1395,1.8 -2007,-846 -2007,-846 z"
         style="fill:none;stroke:#000000;stroke-width:1;stroke-linecap:butt;stroke-linejoin:miter;stroke-miterlimit:4;stroke-dasharray:none;stroke-opacity:1"
         id="path266"
         inkscape:connector-curvature="0" />
    </g>
    <g
       id="g268"
       transform="matrix(0.35277777,0,0,-0.35277777,754.93643,461.49401)">
      <path
         d="m 0,0 c -7.369,42.418 26.399,83.682 26.399,83.682 l 186.504,255.953 c 0,0 34.98,57.38 63.599,60.589 44.57,4.997 145.678,4.516 145.678,4.516 0,0 61.615,1.512 94.963,5.763 27.291,3.478 52.824,11.459 71.868,37.671 12.175,16.756 151.669,225.364 159.538,239.186 6.453,11.331 12.369,39.072 32.483,42.258 15.774,2.498 47.122,-20.887 47.122,-20.887 0,0 38.551,-28.744 38.559,-44.924 0.01,-19.586 -16.291,-27.323 -27.086,-37.279 -7.483,-6.904 -159.353,-185.033 -183.789,-226.017 -13.598,-22.806 -14.161,-52.464 -7.899,-86.818 7.856,-43.086 24.923,-90.64 29.272,-106.704 3.349,-12.369 20.889,-66.794 20.889,-66.794 0,0 12.838,-33.631 10.721,-61.189 C 707.139,57.09 649.473,-14.93 649.473,-14.93 L 477.651,-251.421 c 0,0 -26.975,-44.479 -71.864,-47.465 -41.668,-2.771 -63.346,17.545 -78.818,25.677 C 319.813,-269.448 76.006,-91.325 67.852,-85.4 59.696,-79.475 25.274,-50.906 12.258,-29.941 4.822,-17.964 0,0 0,0"
         style="fill:#cd9700;fill-opacity:1;fill-rule:nonzero;stroke:none"
         id="path270"
         inkscape:connector-curvature="0" />
    </g>
    <g
       id="g272"
       transform="matrix(0.35277777,0,0,-0.35277777,-81.351527,236.91857)">
      <path
         d="m 0,0 c 39.877,-16.23 56.977,-66.733 56.977,-66.733 l 118.228,-293.799 c 0,0 30.125,-60.071 17.68,-86.042 -19.38,-40.447 -73.367,-125.934 -73.367,-125.934 0,0 -31.37,-53.054 -45.436,-83.588 -11.512,-24.987 -18.275,-50.869 -6.137,-80.91 7.758,-19.203 110.748,-248.047 118.298,-262.047 6.19,-11.476 26.581,-31.193 18.624,-49.939 -6.24,-14.7 -42.685,-28.893 -42.685,-28.893 0,0 -44.804,-17.461 -58.53,-8.894 -16.615,10.371 -14.538,28.294 -17.262,42.724 -1.889,10.006 -72.472,233.192 -94.279,275.634 -12.134,23.616 -36.987,39.812 -69.44,52.705 -40.701,16.17 -90.074,26.896 -106.001,31.721 -12.264,3.715 -67.714,17.681 -67.714,17.681 0,0 -35.324,6.933 -57.573,23.332 -17.694,13.041 -48.212,100.109 -48.212,100.109 l -109.505,271.034 c 0,0 -23.425,46.447 -2.17,86.097 19.73,36.805 48.446,44.422 63.542,53.235 6.982,4.075 287.237,116.444 296.583,120.22 9.346,3.777 51.814,17.829 76.491,17.757 C -17.79,5.43 0,0 0,0"
         style="fill:#cd9700;fill-opacity:1;fill-rule:nonzero;stroke:none"
         id="path274"
         inkscape:connector-curvature="0" />
    </g>
    <g
       id="g276"
       transform="matrix(0.35277777,0,0,-0.35277777,54.074497,340.32243)">
      <path
         d="m 0,0 c 284.355,69.847 465.326,46.983 730.705,-50.395 510.114,-187.182 1034.016,-633.54 1034.016,-633.54 0,0 289.875,358 563.475,494.8 303.234,151.617 683.387,201.604 669.6,244.8 -13.786,43.196 -489.6,-43.2 -712.8,-136.8 -247.861,-103.942 -534.062,-278.831 -534.062,-278.831 0,0 -791.394,577.248 -1544.131,532.75 C -158.549,151.186 -584.104,-210.817 -562.504,-232.417 -540.904,-254.017 -362.339,-89.002 0,0"
         style="fill:#dfe3eb;fill-opacity:1;fill-rule:nonzero;stroke:none"
         id="path278"
         inkscape:connector-curvature="0" />
    </g>
    <g
       id="g280"
       transform="matrix(0.35277777,0,0,-0.35277777,1114.2055,366.47554)">
      <path
         d="M 0,0 C 75.608,0 136.9,61.292 136.9,136.9 136.9,212.508 75.608,273.8 0,273.8 -75.607,273.8 -136.899,212.508 -136.899,136.9 -136.899,61.292 -75.607,0 0,0"
         style="fill:#95d500;fill-opacity:1;fill-rule:nonzero;stroke:none"
         id="path282"
         inkscape:connector-curvature="0" />
    </g>
    <g
       id="g284"
       transform="matrix(0.35277777,0,0,-0.35277777,381.31119,165.94099)">
      <path
         d="m 0,0 h -308.872 c 0,0 -234.743,0.971 -250.349,2.948 -87.784,185.723 -235.857,117.17 -235.857,117.17 0,0 -143.057,-38.695 -130.052,-159.399 13.005,-120.703 193.777,-126.173 191.176,-137.965 -2.601,-11.792 -126.01,-14.366 -152.021,-105.76 -33.807,-118.794 20.005,-207.952 164.19,-214.995 185.323,-9.052 245.332,163.922 245.332,163.922 l 476.284,-0.191 474.772,2.182 c 0,0 60.009,-172.974 245.332,-163.922 144.185,7.043 197.998,96.201 164.19,214.995 -26.01,91.394 -149.419,93.968 -152.021,105.76 -2.601,11.791 178.171,17.262 191.176,137.965 13.005,120.704 -130.051,159.399 -130.051,159.399 0,0 -148.073,68.553 -235.858,-117.17 C 541.765,2.962 307.022,1.991 307.022,1.991 H -1.85"
         style="fill:#ffffff;fill-opacity:1;fill-rule:nonzero;stroke:none"
         id="path286"
         inkscape:connector-curvature="0" />
    </g>
    <g
       id="g288"
       transform="matrix(0.35277777,0,0,-0.35277777,381.31119,165.94099)">
      <path
         d="m 0,0 h -308.872 c 0,0 -234.743,0.971 -250.349,2.948 -87.784,185.723 -235.857,117.17 -235.857,117.17 0,0 -143.057,-38.695 -130.052,-159.399 13.005,-120.703 193.777,-126.173 191.176,-137.965 -2.601,-11.792 -126.01,-14.366 -152.021,-105.76 -33.807,-118.794 20.005,-207.952 164.19,-214.995 185.323,-9.052 245.332,163.922 245.332,163.922 l 476.284,-0.191 474.772,2.182 c 0,0 60.009,-172.974 245.332,-163.922 144.185,7.043 197.998,96.201 164.19,214.995 -26.01,91.394 -149.419,93.968 -152.021,105.76 -2.601,11.791 178.171,17.262 191.176,137.965 13.005,120.704 -130.051,159.399 -130.051,159.399 0,0 -148.073,68.553 -235.858,-117.17 C 541.765,2.962 307.022,1.991 307.022,1.991 H -1.85"
         style="fill:none;stroke:#000000;stroke-width:20;stroke-linecap:butt;stroke-linejoin:miter;stroke-miterlimit:4;stroke-dasharray:none;stroke-opacity:1"
         id="path290"
         inkscape:connector-curvature="0" />
    </g>
    <g
       id="g292"
       transform="matrix(0.35277777,0,0,-0.35277777,198.67825,183.26982)">
      <path
         d="m 0,0 c -15.2,7.731 -33.2,11.6 -54,11.6 -20.8,0 -39.737,-4.269 -56.8,-12.8 -6.669,0.263 -12.138,-1.8 -16.4,-6.2 -4.269,-4.4 -6.401,-9.938 -6.401,-16.6 v -71.2 c -6.136,-0.537 -11.136,-3.138 -15,-7.8 -3.868,-4.669 -5.799,-10.069 -5.799,-16.2 0,-10.937 6.931,-18.537 20.799,-22.8 l 0.401,-91.6 c 0,-6.669 2.131,-12.2 6.4,-16.6 4.263,-4.4 9.731,-6.6 16.4,-6.6 6.663,0 12.13,2.2 16.4,6.6 4.263,4.4 6.399,9.931 6.399,16.6 v 87.2 c 20.532,2.131 40.132,8.931 58.801,20.4 15.463,9.331 28.53,21.062 39.199,35.2 12.532,16.263 18.801,32.263 18.801,48 C 29.2,-24.137 19.463,-9.869 0,0 m -25.601,-61.6 c -14.669,-21.338 -35.337,-34 -62,-38 v 58.4 c 15.201,6.4 30.532,9.6 46,9.6 15.464,0 23.201,-4.269 23.201,-12.8 0,-4.538 -2.4,-10.269 -7.201,-17.2 m 209,-136.8 c -4.936,4.8 -10.468,7.2 -16.599,7.2 -6.137,0 -11.6,-2.669 -16.401,-8 -1.337,-1.6 -4.536,-3.2 -9.599,-4.8 v 160 l 25.599,5.6 c 11.464,2.4 17.201,9.463 17.201,21.2 0,6.663 -2.069,12.531 -6.201,17.6 C 173.263,5.463 167.863,8 161.2,8 159.062,8 156.931,7.731 154.8,7.2 L 76.399,-13.2 C 64.931,-16.137 59.2,-23.338 59.2,-34.8 c 0,-6.4 2.063,-11.937 6.199,-16.6 4.132,-4.669 9.401,-7 15.801,-7 2.4,0 4.663,0.263 6.8,0.8 l 6.8,1.6 V -213.6 H 78.399 c -6.669,0 -12.199,-2.2 -16.599,-6.6 -4.401,-4.4 -6.6,-9.937 -6.6,-16.6 0,-6.662 2.199,-12.2 6.6,-16.6 4.4,-4.4 9.93,-6.6 16.599,-6.6 16.264,0 34,2.137 53.201,6.4 39.462,8.8 59.2,21.731 59.2,38.8 0,6.131 -2.469,11.6 -7.401,16.4 m 210.6,173.6 c -13.069,26.131 -29.469,39.2 -49.2,39.2 -22.401,0 -46.401,-10.669 -72,-32 -33.869,-28.269 -50.538,-67.469 -50,-117.6 0.262,-29.337 6.662,-54.669 19.2,-76 15.2,-25.869 36.399,-38.8 63.6,-38.8 32,0 59.862,19.331 83.6,58 2.4,4 3.6,8.131 3.6,12.4 0,6.4 -2.401,11.8 -7.2,16.2 -4.8,4.4 -10.4,6.6 -16.8,6.6 -8,0 -14.269,-3.737 -18.8,-11.2 -13.601,-22.137 -29.069,-34 -46.4,-35.6 -12,-1.069 -21.201,7.063 -27.6,24.4 -4.8,12.531 -7.2,26 -7.2,40.4 0,26.131 6.131,48.8 18.4,68 13.862,21.331 33.062,34 57.6,38 2.662,-2.669 5.462,-6.937 8.4,-12.8 4.262,-8.537 10.8,-12.8 19.6,-12.8 6.131,0 11.662,2.2 16.599,6.6 4.932,4.4 7.401,9.663 7.401,15.8 0,3.731 -0.938,7.463 -2.8,11.2 m 222,-173.2 -91.601,82.8 c 17.863,12.262 42,35.731 72.401,70.4 4.262,4.8 6.4,9.862 6.4,15.2 0,6.131 -2.47,11.531 -7.4,16.2 -4.939,4.663 -10.469,7 -16.6,7 -6.4,0 -12,-2.669 -16.801,-8 -30.137,-34.4 -53.468,-56.538 -70,-66.4 1.063,22.931 0.663,45.731 -1.199,68.4 -1.069,14.131 -8.538,21.2 -22.4,21.2 -7.469,0 -13.338,-2.4 -17.6,-7.2 -4.269,-4.8 -6.138,-10.8 -5.6,-18 2.13,-26.137 2,-54.4 -0.4,-84.8 -4.801,-1.337 -8.4,-2.269 -10.801,-2.8 -11.468,-2.938 -17.199,-10.137 -17.199,-21.6 0,-6.669 2.062,-12.337 6.199,-17 4.132,-4.669 9.532,-7 16.201,-7 -3.738,-24.269 -8.8,-50.937 -15.201,-80 -0.537,-2.4 -0.799,-4.269 -0.799,-5.6 0,-6.4 2.331,-11.731 7,-16 4.662,-4.262 10.2,-6.4 16.6,-6.4 12,0 19.331,6.138 22,18.4 8,36.8 13.862,68.8 17.6,96 l 98,-89.2 c 4.8,-4.269 10,-6.4 15.599,-6.4 6.132,0 11.601,2.463 16.401,7.4 4.8,4.931 7.2,10.463 7.2,16.6 0,6.4 -2.669,12 -8,16.8 m 194.395,-3.8 c -4.269,4.4 -9.738,6.6 -16.4,6.6 h -79.6 c 4,10.4 6,21.063 6,32 v 145.6 c 0,6.662 -2.201,12.131 -6.6,16.4 -4.4,4.263 -9.938,6.4 -16.601,6.4 -6.669,0 -12.136,-2.137 -16.399,-6.4 -4.27,-4.269 -6.4,-9.738 -6.4,-16.4 v -145.6 c 0,-13.069 -5.07,-25.069 -15.201,-36 -6.399,-4.269 -9.599,-10.669 -9.599,-19.2 0,-6.669 2.131,-12.137 6.4,-16.4 4.263,-4.269 9.731,-6.4 16.4,-6.4 h 121.6 c 6.662,0 12.131,2.131 16.4,6.4 4.262,4.263 6.4,9.731 6.4,16.4 0,6.662 -2.138,12.2 -6.4,16.6 M 1005.392,5.8 c -4.4,4.131 -10.201,6.063 -17.4,5.8 -13.6,-0.537 -37,-3.869 -70.2,-10 -33.2,-6.137 -49.938,-9.2 -50.2,-9.2 -23.738,-6.669 -35.6,-16.137 -35.6,-28.4 0,-6.669 2.131,-12.338 6.4,-17 4.261,-4.669 9.731,-7 16.4,-7 v -44.4 c -13.069,-1.6 -19.601,-9.2 -19.601,-22.8 0,-13.337 6.532,-20.937 19.601,-22.8 v -59.2 c -0.8,-2.137 -1.2,-4.4 -1.2,-6.8 0,-9.6 4.93,-16.4 14.8,-20.4 16.261,-6.4 33.462,-9.6 51.6,-9.6 32.53,0 60.262,10.131 83.199,30.4 5.331,4.8 8,10.4 8,16.8 0,6.131 -2.337,11.663 -7,16.6 -4.669,4.931 -10.068,7.4 -16.199,7.4 -5.339,0 -10.4,-2.137 -15.2,-6.4 -14.139,-12.538 -31.869,-18.8 -53.2,-18.8 -6.401,0 -12.669,0.531 -18.8,1.6 v 55.2 c 42.661,9.331 69.462,17.331 80.399,24 7.732,4.531 11.601,10.931 11.601,19.2 0,6.4 -2.2,12 -6.601,16.8 -4.399,4.8 -9.799,7.2 -16.199,7.2 -4.269,0 -8.269,-1.069 -12,-3.2 -6.138,-3.738 -25.2,-9.337 -57.2,-16.8 v 47.6 c 43.2,8.8 72.8,13.6 88.8,14.4 14.93,0.8 22.4,8.4 22.4,22.8 0,7.2 -2.2,12.862 -6.6,17 m 202.2,-16.6 c -23.738,14.131 -47.6,21.2 -71.6,21.2 -21.6,0 -40.67,-5.738 -57.2,-17.2 -18.669,-13.069 -28,-29.869 -28,-50.4 0,-33.069 24.399,-59.469 73.2,-79.2 30.662,-12.537 46,-26.269 46,-41.2 0,-7.469 -4.138,-13.337 -12.4,-17.6 -6.401,-3.2 -13.738,-4.8 -22,-4.8 -22.938,0 -43.869,10.131 -62.8,30.4 -4,4.263 -10.27,6.4 -18.8,6.4 -15.2,0 -22.801,-5.869 -22.801,-17.6 0,-4.269 1.331,-9.069 4,-14.4 5.601,-11.2 16.532,-21.737 32.801,-31.6 13.862,-8.269 28,-14.269 42.4,-18 9.331,-2.4 18.799,-3.6 28.4,-3.6 21.062,0 38.8,6 53.2,18 15.731,12.8 23.6,29.463 23.6,50 0,37.331 -24.669,66.131 -74,86.4 -29.338,12 -44,24.4 -44,37.2 0,7.2 4.662,12.8 14,16.8 6.93,2.662 14.662,4 23.2,4 17.062,0 33.6,-4.669 49.6,-14 4,-2.4 8,-3.6 12,-3.6 6.4,0 11.799,2.4 16.2,7.2 4.4,4.8 6.599,10.4 6.599,16.8 0,8 -3.869,14.262 -11.599,18.8"
         style="fill:#95d500;fill-opacity:1;fill-rule:nonzero;stroke:none"
         id="path294"
         inkscape:connector-curvature="0" />
    </g>
    <g
       id="g296"
       transform="matrix(0.35277777,0,0,-0.35277777,-42.058821,115.53822)">
      <path
         d="M 0,0 V -146"
         style="fill:none;stroke:#000000;stroke-width:5;stroke-linecap:butt;stroke-linejoin:miter;stroke-miterlimit:4;stroke-dasharray:none;stroke-opacity:1"
         id="path298"
         inkscape:connector-curvature="0" />
    </g>
    <path
       d="m -15.953266,167.04377 h -51.505555 v -51.50555 h 51.505555 z"
       style="fill:none;stroke:#000000;stroke-width:1.76388884;stroke-linecap:butt;stroke-linejoin:miter;stroke-miterlimit:4;stroke-dasharray:none;stroke-opacity:1"
       id="path300"
       inkscape:connector-curvature="0" />
    <g
       id="g302"
       transform="matrix(0.35277777,0,0,-0.35277777,-68.164376,140.93822)">
      <path
         d="M 0,0 H 148"
         style="fill:none;stroke:#000000;stroke-width:5;stroke-linecap:butt;stroke-linejoin:miter;stroke-miterlimit:4;stroke-dasharray:none;stroke-opacity:1"
         id="path304"
         inkscape:connector-curvature="0" />
    </g>
  </g>
</svg>
